<?xml version="1.0" encoding="UTF-8" standalone="no"?>
<!-- Generator: Adobe Illustrator 13.0.0, SVG Export Plug-In . SVG Version: 6.00 Build 14948)  -->

<svg
   xmlns:dc="http://purl.org/dc/elements/1.1/"
   xmlns:cc="http://creativecommons.org/ns#"
   xmlns:rdf="http://www.w3.org/1999/02/22-rdf-syntax-ns#"
   xmlns:svg="http://www.w3.org/2000/svg"
   xmlns="http://www.w3.org/2000/svg"
   xmlns:sodipodi="http://sodipodi.sourceforge.net/DTD/sodipodi-0.dtd"
   xmlns:inkscape="http://www.inkscape.org/namespaces/inkscape"
   version="1.1"
   id="Ebene_1"
   x="0px"
   y="0px"
   width="480.92902"
   height="98.210007"
   viewBox="0 0 480.929 98.21"
   enable-background="new 0 0 566.929 129.21"
   xml:space="preserve"
   sodipodi:docname="system2.svg"
   inkscape:version="0.92.4 (5da689c313, 2019-01-14)"><metadata
   id="metadata36"><rdf:RDF><cc:Work
       rdf:about=""><dc:format>image/svg+xml</dc:format><dc:type
         rdf:resource="http://purl.org/dc/dcmitype/StillImage" /><dc:title></dc:title></cc:Work></rdf:RDF></metadata><defs
   id="defs34" /><sodipodi:namedview
   pagecolor="#ffffff"
   bordercolor="#666666"
   borderopacity="1"
   objecttolerance="10"
   gridtolerance="10"
   guidetolerance="10"
   inkscape:pageopacity="0"
   inkscape:pageshadow="2"
   inkscape:window-width="1579"
   inkscape:window-height="999"
   id="namedview32"
   showgrid="false"
   inkscape:zoom="1.0124724"
   inkscape:cx="162.23524"
   inkscape:cy="64.605003"
   inkscape:window-x="361"
   inkscape:window-y="166"
   inkscape:window-maximized="0"
   inkscape:current-layer="Ebene_1" />





<g
   id="g33"
   style="font-style:normal;font-variant:normal;font-weight:normal;font-stretch:normal;font-size:96px;line-height:1.25;font-family:Klarissa;-inkscape-font-specification:'Klarissa, Normal';font-variant-ligatures:normal;font-variant-caps:normal;font-variant-numeric:normal;font-feature-settings:normal;text-align:start;letter-spacing:0px;word-spacing:0px;writing-mode:lr-tb;text-anchor:start;fill:#000000;fill-opacity:1;stroke:none"
   aria-label="ARCADE"
   transform="translate(-29.630437,-15.196892)"><path
     style="fill:#000000"
     d="m 238.68164,27.070312 c -18.64558,-0.332482 -33.95369,17.106233 -33.875,35.240235 -1.20834,14.897956 6.79613,30.819903 21.33203,36.041015 12.538,4.402878 28.61274,4.434818 38.90039,-5.013671 8.47636,-8.040286 6.72388,-24.155379 -4.38086,-28.994141 -4.02253,-2.043837 -8.66708,-1.518604 -13.01172,-1.705078 7.04562,4.074266 12.39617,11.812665 10.13868,20.261719 -1.7916,11.564003 -18.29414,14.157003 -24.72266,4.939453 -6.18329,-8.694412 -2.24414,-20.145869 -3.36328,-30.052735 -0.32528,-7.891982 -0.90667,-19.762946 8.53516,-22.722656 3.00891,-1.533901 8.81559,1.4547 5.85937,4.916016 -1.74602,3.168198 3.39397,6.97744 6.82813,7.648437 10.5445,2.404878 22.68906,-7.478097 19.93412,-18.630562 -1.02496,-2.715767 -6.36182,1.463764 -9.49077,0.105172 -7.55395,-0.446026 -15.05346,-2.037096 -22.68359,-2.033204 z M 94.863281,29.814453 C 88.366436,50.13241 82.665054,70.783837 75.701172,90.90625 c -2.402588,3.526417 -6.054191,5.897475 -9.19336,8.697266 9.040365,0 18.08073,0 27.121094,0 -3.314707,-3.009685 -11.253442,-6.317976 -7.464731,-12.160848 1.316407,-6.584604 9.019839,-2.522962 13.286997,-2.083293 3.868938,0.554161 7.777858,-0.705207 11.078128,-2.671875 0.87671,4.815923 6.74534,12.292609 -0.26063,15.225097 -4.13413,3.597963 9.98964,0.802359 13.59266,1.690919 14.99023,0 29.98047,0 44.9707,0 -4.25451,-2.645431 -7.93383,-6.670406 -6.45117,-12.09961 0.47018,-6.437526 -0.84984,-13.461899 0.48828,-19.625 6.1292,-2.686256 10.24784,4.841872 10.92188,10.001953 2.37972,7.142134 1.59146,17.235945 9.46484,21.048829 8.81297,5.144502 21.72522,0.805068 24.61158,-9.309145 0.66913,-2.505279 -5.43604,0.400211 -6.81666,-2.536559 -5.09297,-8.022391 -5.06481,-20.345011 -14.88867,-24.884765 -1.46509,-1.341278 -8.07298,-2.162699 -2.80664,-2.789063 7.89722,-1.838695 19.32166,-4.02145 20.88086,-13.748047 1.55914,-7.408194 -3.08767,-16.107348 -11.16211,-16.648437 -19.73884,-1.442878 -39.60001,-0.194832 -59.38281,-0.609375 4.2557,2.645066 7.93284,6.672563 6.45117,12.101562 -0.30045,17.741193 0.58692,35.636132 -0.41797,53.28711 -1.47169,3.713368 -3.93618,-2.072948 -4.41646,-3.859252 -6.66453,-20.509819 -13.32936,-41.019541 -19.9937,-61.52942 -6.67252,0 -13.34505,0 -20.017575,0 l -0.2939,0.955836 z m 198.937499,0 c -6.49684,20.317957 -12.19823,40.969384 -19.16211,61.091797 -2.40259,3.526417 -6.05419,5.897475 -9.19336,8.697266 9.04037,0 18.08073,0 27.1211,0 -3.31471,-3.009685 -11.25345,-6.317976 -7.46474,-12.160848 1.31641,-6.584604 9.01984,-2.522962 13.287,-2.083293 3.86894,0.554161 7.77786,-0.705207 11.07813,-2.671875 0.87671,4.815923 6.74534,12.292609 -0.26063,15.225097 -4.13413,3.597963 9.98964,0.802359 13.59266,1.690919 18.60194,-0.443367 37.29627,0.863384 55.84961,-0.552735 13.4273,-1.355395 25.12381,-12.036579 27.03125,-25.505859 3.02002,-15.367288 -1.91328,-34.037897 -16.95703,-41.298828 -13.99893,-6.717753 -30.09528,-2.7458 -44.97852,-3.841797 -4.94598,0.262764 -15.68928,-1.592137 -6.61914,3.791015 4.304,4.888672 0.84594,12.4321 1.95508,18.310547 -0.40051,14.478632 0.77264,29.194295 -0.5332,43.539063 -1.57225,3.178121 -3.80233,-2.425992 -4.30123,-4.111205 -6.66453,-20.509819 -13.32936,-41.019541 -19.9937,-61.52942 -6.67252,0 -13.34505,0 -20.01757,0 l -0.2939,0.955836 z m 113.70117,2.119141 c 4.83608,4.71956 1.08378,12.632371 2.26563,18.572265 -0.40051,14.478632 0.77264,29.194295 -0.5332,43.539063 -2.40536,3.562439 -9.58186,6.648618 -1.08594,5.558594 20.42252,0 40.84505,0 61.26758,0 1.36813,-11.574758 2.73367,-23.149823 4.10156,-34.72461 -9.24024,12.294466 -20.73999,27.054643 -37.73633,26.789063 -7.37879,1.120327 -2.26281,-10.254118 -3.77539,-15 -0.15781,-4.781325 -1.30074,-11.795812 5.24609,-12.578125 7.80535,-1.209878 16.54855,5.279624 23.74219,-0.439453 3.8247,-2.805087 5.8049,-7.410463 6.85547,-11.900391 5.96677,7.009441 1.04139,-5.269387 1.05463,-8.644948 -2.23358,-4.39098 0.29631,-14.529442 -5.43354,-14.700755 -20.05143,0 -40.10286,0 -60.15429,0 1.39518,1.176432 2.79036,2.352864 4.18554,3.529297 z m -239.46484,4.310547 c 5.23218,-0.745134 12.08822,2.726887 10.07617,8.916015 -2.3522,6.786346 -10.50428,8.37862 -15.73242,12.308594 0,-7.07487 0,-14.14974 0,-21.224609 1.88542,0 3.77083,0 5.65625,0 z m 269.09375,0 c 10.68825,0.172619 20.61872,5.891088 28.12109,13.179687 -5.80505,6.957748 -15.31329,0.828617 -22.86914,2.230469 -3.69661,0.321536 -7.37913,1.49082 -10.37695,3.71875 0,-6.353516 0,-12.707031 0,-19.060547 1.70833,-0.02263 3.41666,-0.04634 5.125,-0.06836 z m -70.35352,0.0957 c 9.7572,-0.479442 13.91374,10.417343 14.53516,18.498047 1.00705,11.494814 1.64223,25.569915 -7.29297,34.291015 -3.52046,2.98327 -8.4351,2.470529 -12.70508,2.44336 -0.0293,-18.410808 -0.0586,-36.821615 -0.0879,-55.232422 1.85026,0 3.70052,0 5.55078,0 z m -259.33789,36.83789 c -4.64297,3.233842 -10.287778,-1.897332 -15.474606,-0.160156 -3.430469,0.100041 2.339447,-8.22926 2.155793,-11.121865 1.823449,-3.352927 3.638703,-16.59943 5.467408,-13.605563 2.617135,8.295861 5.234275,16.591723 7.851405,24.887584 z m 198.9375,0 c -4.64297,3.233842 -10.28778,-1.897332 -15.47461,-0.160156 -3.43046,0.100041 2.33945,-8.22926 2.1558,-11.121865 1.82345,-3.352927 3.6387,-16.59943 5.46741,-13.605563 2.61713,8.295861 5.23427,16.591723 7.8514,24.887584 z"
     id="path21"
     inkscape:connector-curvature="0" /></g><g
   aria-label="ARCADE"
   style="font-style:normal;font-variant:normal;font-weight:normal;font-stretch:normal;font-size:96px;line-height:1.25;font-family:Klarissa;-inkscape-font-specification:'Klarissa, Normal';font-variant-ligatures:normal;font-variant-caps:normal;font-variant-numeric:normal;font-feature-settings:normal;text-align:start;letter-spacing:0px;word-spacing:0px;writing-mode:lr-tb;text-anchor:start;fill:#808080;fill-opacity:1;stroke:none"
   id="text8"
   transform="translate(-29.630437,-15.196892)"><path
     d="m 138.05273,97.60421 h -24.192 q 1.92,-1.44 1.92,-4.128 0,-1.056 -0.288,-1.92 l -3.84,-11.904 q -2.688,1.728 -4.224,2.4 -3.168,1.44 -6.144,1.44 -1.823999,0 -5.375999,-0.864 -3.168,-0.96 -5.28,-0.96 -4.8,0 -6.048,4.128 l -1.248,4.032 q -0.192,0.96 -0.192,1.248 0,3.072 4.608,6.528 h -15.744 q 5.376,-4.416 6.432,-7.776 l 18.336,-59.424 h 17.087999 l 19.872,61.152 q 1.152,3.456 4.32,6.048 z m -28.32,-23.808 -10.751999,-34.08 -11.712,37.344 q 3.264,-2.304 7.776,-2.304 0.768,0 1.632,0.192 0.96,0.096 2.016,0.288 4.703999,1.152 5.951999,1.152 2.496,0 5.088,-2.592 z"
     id="path8"
     inkscape:connector-curvature="0"
     style="fill:#808080" /><path
     d="m 205.21373,90.59621 q -3.744,8.448 -14.016,8.448 -5.952,0 -10.752,-4.8 -1.44,-1.728 -4.704,-16.8 -2.592,-12.192 -11.04,-12.192 -1.728,0 -3.072,1.056 -1.248,0.96 -1.248,2.688 v 22.56 q 0,3.648 2.976,6.048 h -24.192 q 2.976,-2.304 2.976,-6.048 v -55.104 q 0,-3.648 -2.976,-6.048 h 42.048 q 11.232,0 14.304,1.248 6.912,2.592 6.912,11.616 0,8.736 -10.944,11.904 -3.456,0.96 -8.64,2.304 -5.184,1.344 -12.192,3.264 12.672,0 19.296,6.816 2.88,3.072 6.336,14.4 2.592,8.64 7.968,8.64 z m -24.864,-47.328 q 0,-9.024 -12.288,-9.024 h -7.68 v 27.168 q 1.152,-1.44 11.808,-7.296 8.16,-4.416 8.16,-10.848 z"
     id="path10"
     inkscape:connector-curvature="0"
     style="fill:#808080" /><path
     d="m 268.97873,30.21221 q 0.096,0.672 0.096,1.248 0.096,0.48 0.096,0.864 0,5.664 -4.704,9.696 -4.8,3.936 -10.464,3.936 -5.76,0 -8.448,-4.608 1.344,-1.344 1.344,-2.688 0,-5.76 -6.912,-5.76 -5.856,0 -9.312,5.568 -2.976,4.704 -2.976,10.944 v 28.416 q 0,7.584 4.992,12.576 5.088,5.088 12.288,5.088 6.72,0 11.04,-4.896 4.128,-4.416 4.128,-11.424 0,-9.216 -6.72,-14.4 6.24,0 10.56,4.416 4.416,4.32 4.416,10.56 0,9.792 -8.544,15.168 -7.296,4.224 -17.76,4.224 -16.032,0 -25.728,-9.408 -9.6,-9.504 -9.6,-25.536 0,-14.784 9.024,-24.672 9.312,-10.464 23.808,-10.464 2.016,0 4.896,0.288 2.976,0.288 7.008,0.768 4.032,0.48 7.008,0.768 2.976,0.288 4.896,0.288 0.864,0 1.536,0 0.768,-0.096 1.248,-0.192 z"
     id="path12"
     inkscape:connector-curvature="0"
     style="fill:#808080" /><path
     d="m 336.99023,97.60421 h -24.192 q 1.92,-1.44 1.92,-4.128 0,-1.056 -0.288,-1.92 l -3.84,-11.904 q -2.688,1.728 -4.224,2.4 -3.168,1.44 -6.144,1.44 -1.824,0 -5.376,-0.864 -3.168,-0.96 -5.28,-0.96 -4.8,0 -6.048,4.128 l -1.248,4.032 q -0.192,0.96 -0.192,1.248 0,3.072 4.608,6.528 h -15.744 q 5.376,-4.416 6.432,-7.776 l 18.336,-59.424 h 17.088 l 19.872,61.152 q 1.152,3.456 4.32,6.048 z m -28.32,-23.808 -10.752,-34.08 -11.712,37.344 q 3.264,-2.304 7.776,-2.304 0.768,0 1.632,0.192 0.96,0.096 2.016,0.288 4.704,1.152 5.952,1.152 2.496,0 5.088,-2.592 z"
     id="path14"
     inkscape:connector-curvature="0"
     style="fill:#808080" /><path
     d="m 404.43923,64.96421 q 0,7.776 -2.304,13.92 -2.304,6.048 -6.624,10.272 -4.32,4.128 -10.56,6.336 -6.24,2.112 -14.016,2.112 h -32.832 q 2.976,-2.304 2.976,-6.048 v -55.104 q 0,-3.648 -2.976,-6.048 h 32.64 q 15.84,0 24.768,9.312 8.928,9.216 8.928,25.248 z m -20.544,0 q 0,-30.624 -17.088,-30.624 h -7.584 l 0.096,59.232 h 7.2 q 9.6,0 14.016,-10.176 3.36,-7.776 3.36,-18.432 z"
     id="path16"
     inkscape:connector-curvature="0"
     style="fill:#808080" /><path
     d="m 470.71073,71.58821 -3.072,26.016 h -58.848 q 2.976,-2.304 2.976,-6.048 v -55.104 q 0,-3.648 -2.976,-6.048 h 55.68 l 3.552,18.816 q -0.768,-0.672 -1.824,-1.632 -0.96,-0.96 -2.304,-2.208 -5.088,-4.224 -11.04,-7.2 -8.544,-4.032 -15.744,-3.936 l -7.104,0.096 v 25.728 q 5.184,-6.528 14.976,-6.528 1.056,0 2.304,0.096 1.344,0.096 2.688,0.288 6.144,0.864 8.16,0.864 5.184,0 7.68,-3.072 -3.168,12.384 -12.768,12.384 -2.304,0 -6.432,-1.152 -4.224,-1.152 -6.432,-1.152 -7.296,0 -10.176,5.472 v 26.4 h 6.816 q 8.544,0 17.376,-5.664 3.36,-2.208 6.336,-4.896 2.976,-2.688 5.664,-5.76 0.768,-0.96 1.824,-2.4 1.152,-1.44 2.688,-3.36 z"
     id="path18"
     inkscape:connector-curvature="0"
     style="fill:#808080" /></g></svg>