<?xml version="1.0" encoding="UTF-8" standalone="no"?>
<!-- Created with Inkscape (http://www.inkscape.org/) -->

<svg
   xmlns:osb="http://www.openswatchbook.org/uri/2009/osb"
   xmlns:dc="http://purl.org/dc/elements/1.1/"
   xmlns:cc="http://creativecommons.org/ns#"
   xmlns:rdf="http://www.w3.org/1999/02/22-rdf-syntax-ns#"
   xmlns:svg="http://www.w3.org/2000/svg"
   xmlns="http://www.w3.org/2000/svg"
   xmlns:sodipodi="http://sodipodi.sourceforge.net/DTD/sodipodi-0.dtd"
   xmlns:inkscape="http://www.inkscape.org/namespaces/inkscape"
   width="874"
   height="300"
   viewBox="0 0 231.24569 79.375068"
   version="1.1"
   id="svg8"
   inkscape:version="0.92.4 (5da689c313, 2019-01-14)"
   sodipodi:docname="arcade.svg">
  <defs
     id="defs2">
    <linearGradient
       id="linearGradient6027"
       osb:paint="solid">
      <stop
         style="stop-color:#000000;stop-opacity:1;"
         offset="0"
         id="stop6025" />
    </linearGradient>
  </defs>
  <sodipodi:namedview
     id="base"
     pagecolor="#ffffff"
     bordercolor="#666666"
     borderopacity="1.0"
     inkscape:pageopacity="0.0"
     inkscape:pageshadow="2"
     inkscape:zoom="1"
     inkscape:cx="318.04464"
     inkscape:cy="223.23935"
     inkscape:document-units="mm"
     inkscape:current-layer="svg8"
     showgrid="false"
     showborder="true"
     inkscape:window-width="1731"
     inkscape:window-height="1118"
     inkscape:window-x="537"
     inkscape:window-y="126"
     inkscape:window-maximized="0"
     inkscape:snap-text-baseline="true"
     inkscape:snap-global="true"
     units="px" />
  <metadata
     id="metadata5">
    <rdf:RDF>
      <cc:Work
         rdf:about="">
        <dc:format>image/svg+xml</dc:format>
        <dc:type
           rdf:resource="http://purl.org/dc/dcmitype/StillImage" />
        <dc:title></dc:title>
      </cc:Work>
    </rdf:RDF>
  </metadata>
  <g
     transform="translate(186.13704,-168.56066)"
     id="g6077"
     style="font-style:normal;font-variant:normal;font-weight:normal;font-stretch:normal;font-size:50.8155098px;line-height:1.25;font-family:'Barcade No Bar';-inkscape-font-specification:'Barcade No Bar, Normal';font-variant-ligatures:normal;font-variant-caps:normal;font-variant-numeric:normal;font-feature-settings:normal;text-align:start;letter-spacing:0px;word-spacing:0px;writing-mode:lr-tb;text-anchor:start;fill:#000000;fill-opacity:1;stroke:none;stroke-width:0.2;stroke-miterlimit:4;stroke-dasharray:none"
     aria-label="ARCADE"
     inkscape:export-xdpi="96"
     inkscape:export-ydpi="96"
     inkscape:export-filename="C:\Users\Dave\rect6035.png">
    <path
       style="font-style:normal;font-variant:normal;font-weight:normal;font-stretch:normal;font-size:50.8155098px;font-family:'Barcade No Bar';-inkscape-font-specification:'Barcade No Bar, Normal';font-variant-ligatures:normal;font-variant-caps:normal;font-variant-numeric:normal;font-feature-settings:normal;text-align:start;writing-mode:lr-tb;text-anchor:start;fill:#000000;fill-opacity:1;stroke-width:0.2;stroke-miterlimit:4;stroke-dasharray:none"
       d="m -25.094849,191.03267 c -11.984971,0.8598 -24.340292,-1.52889 -36.128906,1.10547 -3.521257,0.87149 -7.118802,3.97755 -8.81836,6.25976 0.902755,-5.92749 -0.722116,-8.85886 -7.107421,-7.32838 -8.438322,-1.34236 -17.94203,2.0396 -21.888672,9.97682 -1.123062,-8.79743 -11.371382,-10.55975 -18.632812,-9.95703 -12.08336,0.42473 -24.32721,-0.94376 -36.32422,0.59375 -7.26048,1.3534 -13.51858,8.10374 -12.13867,15.80664 0.0954,5.89758 -0.0346,11.80188 0.0156,17.70313 6.22616,-0.0968 14.83923,2.19339 11.96875,-7 1.32081,-3.48746 14.38761,-3.68305 10.44141,4.1582 -0.0341,5.762 9.81093,1.6448 14.3418,2.8418 8.54696,2.6957 8.00931,-3.74145 8.70898,-8.86328 3.8097,-0.21666 10.52672,-1.24553 9.7832,4.75195 -1.36451,4.7783 5.26741,4.52329 8.14844,4.11133 5.489434,1.67397 3.555014,-4.5377 3.718752,-8.03321 0.374237,-2.57285 -2.504182,-5.05357 -2.191402,-6.95507 1.308727,-1.97827 0.57946,3.30076 1.871089,4.44531 3.755072,8.50301 13.758578,11.85592 22.46653,10.53962 5.722037,-0.0231 11.356549,0.0362 17.097923,0.003 -2.183728,-8.46433 2.360455,-10.20075 10,-8.8418 -0.603057,6.69681 1.229676,10.95782 9.439453,8.8418 10.025413,-0.88204 22.370432,2.94486 30.476563,-5.03711 2.0143447,-1.43885 3.6431584,-5.01197 4.5507812,-6.0918 3.4063354,8.50833 13.2088859,12.44022 21.8963478,11.1417 3.303468,-0.16162 8.684552,1.16873 8.187636,-3.62217 -0.33138,-2.4724 1.131776,-6.39195 -2.140624,-7.46875 0.442629,-5.55411 0.71812,-11.27537 2.099609,-15.89062 2.63083,-8.68341 -4.679002,-7.42481 -11,-7.15337 -8.0060445,-0.87758 -16.1808522,3.98871 -19.18748,11.45254 -3.0027892,-7.72599 -11.525578,-12.35079 -19.654297,-11.49023 z m -46.414062,11.2793 c -0.809135,3.82985 0.462032,8.52358 -0.611329,11.72461 -5.800504,-0.31694 -15.419023,2.18447 -16.435547,-6.07618 0.697947,-6.26583 8.034135,-6.2709 12.806641,-5.70117 1.20609,0.55667 4.464214,-0.73408 4.240235,0.0527 z m 48.761718,-0.11524 c 6.864679,-0.007 8.264174,10.20143 1.337891,11.78321 -2.546257,-0.12608 -7.196942,1.41319 -5.601563,-2.95313 0.964885,-4.18833 -2.96542,-10.80989 4.263672,-8.83008 z m -94.158207,0.002 c 1.67663,0.19627 4.91379,-0.0763 5.77735,1.40625 -3.27625,1.2962 -6.84417,0.67366 -10.26953,0.81445 -1.19941,-3.64228 2.62513,-1.62293 4.49218,-2.2207 z m -28.84961,0.0176 c 6.75543,1.69388 -5.25751,3.01162 -7.92773,2.16602 1.86597,-2.46155 5.19202,-2.18378 7.92773,-2.16602 z m 94.38477,0 c 6.755134,1.69329 -5.255591,3.01198 -7.925781,2.16602 1.861904,-2.46289 5.192091,-2.18264 7.925781,-2.16602 z"
       id="path6065"
       inkscape:connector-curvature="0" />
  </g>
  <g
     inkscape:label="Layer 1"
     inkscape:groupmode="layer"
     id="layer1"
     transform="translate(0,-217.62441)">
    <g
       aria-label="ARCADE"
       style="font-style:normal;font-variant:normal;font-weight:normal;font-stretch:normal;font-size:50.8155098px;line-height:1.25;font-family:'Barcade No Bar';-inkscape-font-specification:'Barcade No Bar, Normal';font-variant-ligatures:normal;font-variant-caps:normal;font-variant-numeric:normal;font-feature-settings:normal;text-align:start;letter-spacing:0px;word-spacing:0px;writing-mode:lr-tb;text-anchor:start;fill:#000000;fill-opacity:1;stroke:none;stroke-width:1.27038777"
       id="text4544"
       transform="translate(182.43287,112.56376)"
       inkscape:export-xdpi="96"
       inkscape:export-ydpi="96"
       inkscape:export-filename="C:\Users\Dave\rect6035.png">
      <path
         d="m -130.39253,130.21495 h -14.7365 c -1.6261,0 -3.2522,0.25407 -4.87829,0.6606 -1.67691,0.45734 -3.20138,1.11794 -4.5734,1.9818 -1.42283,0.86387 -2.59159,1.93099 -3.50627,3.2522 -0.96549,1.3212 -1.52446,2.79485 -1.62609,4.52258 v 18.64929 h 6.91091 v -8.8419 h 12.85632 v -6.91091 h -12.85632 v -1.47365 c 0.0508,-0.91468 0.3557,-1.72773 0.86386,-2.43914 0.50815,-0.71142 1.11794,-1.27039 1.88017,-1.77855 0.71142,-0.50815 1.52447,-0.86386 2.43915,-1.11794 0.91468,-0.25408 1.77854,-0.40652 2.59159,-0.40652 h 7.72396 v 22.96861 h 6.91091 z"
         style="font-style:normal;font-variant:normal;font-weight:normal;font-stretch:normal;font-size:50.8155098px;font-family:'Barcade No Bar';-inkscape-font-specification:'Barcade No Bar, Normal';font-variant-ligatures:normal;font-variant-caps:normal;font-variant-numeric:normal;font-feature-settings:normal;text-align:start;writing-mode:lr-tb;text-anchor:start;fill:#d80500;fill-opacity:1;stroke-width:1.27038777"
         id="path4546"
         inkscape:connector-curvature="0" />
      <path
         d="m -104.50044,159.28142 h 6.910907 v -4.67503 c 0,-1.27039 -0.355709,-2.59159 -1.067126,-4.01442 -0.711417,-1.42284 -1.676911,-2.54078 -2.845671,-3.45546 1.16876,-0.76223 2.134254,-1.67691 2.845671,-2.79485 0.711417,-1.06713 1.067126,-2.59159 1.067126,-4.62421 0,-2.23589 -0.508155,-3.96361 -1.422835,-5.234 -0.914679,-1.21957 -2.134252,-2.18507 -3.557082,-2.84567 -1.47365,-0.60979 -3.04893,-1.01631 -4.77666,-1.16876 -1.72773,-0.15244 -3.40464,-0.25407 -4.92911,-0.25407 h -14.68568 v 29.06647 h 6.91091 v -22.96861 h 7.16499 c 0.81305,0 1.67691,0.0508 2.6424,0.15244 0.9655,0.10163 1.88018,0.3049 2.69323,0.55897 0.81304,0.3049 1.47365,0.66061 2.03262,1.11795 0.55897,0.45734 0.86386,1.06712 0.86386,1.77854 0,1.42283 -0.76223,2.38833 -2.18507,2.89648 -1.47365,0.50816 -3.50627,0.76224 -6.04704,0.76224 h -4.52258 v 6.80927 h 8.07966 c 0.60979,0 1.21958,0.20327 1.77855,0.60979 0.50815,0.40652 1.01631,0.86386 1.42283,1.37202 0.40653,0.55897 0.76223,1.11794 1.06713,1.72773 0.25407,0.60978 0.45734,1.11794 0.55897,1.52446 z"
         style="font-style:normal;font-variant:normal;font-weight:normal;font-stretch:normal;font-size:50.8155098px;font-family:'Barcade No Bar';-inkscape-font-specification:'Barcade No Bar, Normal';font-variant-ligatures:normal;font-variant-caps:normal;font-variant-numeric:normal;font-feature-settings:normal;text-align:start;writing-mode:lr-tb;text-anchor:start;fill:#ff8b00;fill-opacity:1;stroke-width:1.27038777"
         id="path4548"
         inkscape:connector-curvature="0" />
      <path
         d="m -79.52541,159.28142 h 10.722072 v -6.09786 h -10.620441 c -0.813048,0 -1.676912,-0.25408 -2.591591,-0.76224 -0.914679,-0.50815 -1.727727,-1.11794 -2.48996,-1.93099 -0.762233,-0.76223 -1.372019,-1.62609 -1.880174,-2.59159 -0.508155,-0.96549 -0.813048,-1.93099 -0.813048,-2.84566 v -0.71142 c 0,-0.91468 0.254077,-1.82936 0.762233,-2.79486 0.508155,-0.91467 1.117941,-1.77854 1.930989,-2.59159 0.762233,-0.76223 1.575281,-1.37201 2.48996,-1.88017 0.914679,-0.50816 1.778543,-0.76223 2.591591,-0.76223 h 10.620441 v -6.09786 H -79.52541 c -1.626096,0 -3.252193,0.3557 -4.878289,1.01631 -1.676912,0.71141 -3.201377,1.62609 -4.573396,2.74403 -1.422834,1.16876 -2.591591,2.54078 -3.50627,4.06524 -0.965495,1.52447 -1.524465,3.15057 -1.626096,4.87829 v 3.65872 c 0.101631,1.72773 0.660601,3.40464 1.626096,4.9291 0.914679,1.52447 2.083436,2.89649 3.50627,4.01443 1.372019,1.16876 2.896484,2.08344 4.573396,2.74404 1.626096,0.71141 3.252193,1.01631 4.878289,1.01631 z"
         style="font-style:normal;font-variant:normal;font-weight:normal;font-stretch:normal;font-size:50.8155098px;font-family:'Barcade No Bar';-inkscape-font-specification:'Barcade No Bar, Normal';font-variant-ligatures:normal;font-variant-caps:normal;font-variant-numeric:normal;font-feature-settings:normal;text-align:start;writing-mode:lr-tb;text-anchor:start;fill:#fff301;fill-opacity:1;stroke-width:1.27038777"
         id="path4550"
         inkscape:connector-curvature="0" />
      <path
         d="m -36.006693,130.21495 h -14.736498 c -1.626096,0 -3.252193,0.25407 -4.878289,0.6606 -1.676912,0.45734 -3.201377,1.11794 -4.573396,1.9818 -1.422834,0.86387 -2.591591,1.93099 -3.50627,3.2522 -0.965495,1.3212 -1.524465,2.79485 -1.626096,4.52258 v 18.64929 h 6.910909 v -8.8419 h 12.856324 v -6.91091 h -12.856324 v -1.47365 c 0.05082,-0.91468 0.355708,-1.72773 0.863864,-2.43914 0.508155,-0.71142 1.117941,-1.27039 1.880173,-1.77855 0.711418,-0.50815 1.524466,-0.86386 2.439145,-1.11794 0.914679,-0.25408 1.778543,-0.40652 2.591591,-0.40652 h 7.723957 v 22.96861 h 6.91091 z"
         style="font-style:normal;font-variant:normal;font-weight:normal;font-stretch:normal;font-size:50.8155098px;font-family:'Barcade No Bar';-inkscape-font-specification:'Barcade No Bar, Normal';font-variant-ligatures:normal;font-variant-caps:normal;font-variant-numeric:normal;font-feature-settings:normal;text-align:start;writing-mode:lr-tb;text-anchor:start;fill:#37ae00;fill-opacity:1;stroke-width:1.27038777"
         id="path4552"
         inkscape:connector-curvature="0" />
      <path
         d="m -32.575053,159.28142 h 6.91091 v -22.96861 h 7.723957 c 0.813048,0 1.626096,0.25407 2.540775,0.76223 0.91468,0.50816 1.727728,1.11794 2.48996,1.88017 0.711418,0.81305 1.372019,1.67692 1.880174,2.59159 0.508155,0.9655 0.762233,1.88018 0.863864,2.79486 v 0.81305 c -0.101631,0.91468 -0.355709,1.88017 -0.863864,2.79485 -0.508155,0.96549 -1.168756,1.82936 -1.880174,2.59159 -0.762232,0.81305 -1.57528,1.42283 -2.48996,1.93099 -0.914679,0.50815 -1.727727,0.71142 -2.540775,0.71142 h -5.081551 v 6.09786 h 5.183182 c 1.524465,0 3.150562,-0.3049 4.827473,-1.01631 1.676912,-0.6606 3.2013776,-1.57528 4.6242118,-2.74404 1.3720188,-1.11794 2.5407755,-2.48996 3.5062702,-4.01443 0.9146792,-1.52446 1.4736498,-3.20137 1.6260963,-4.9291 v -3.65872 C -3.4069502,141.1911 -3.9659208,139.565 -4.8806,138.04053 c -0.9654947,-1.52446 -2.1342514,-2.89648 -3.5062702,-4.06524 -1.4228342,-1.11794 -2.9472998,-2.03262 -4.6242118,-2.74403 -1.676911,-0.66061 -3.303008,-1.01631 -4.827473,-1.01631 h -14.736498 z"
         style="font-style:normal;font-variant:normal;font-weight:normal;font-stretch:normal;font-size:50.8155098px;font-family:'Barcade No Bar';-inkscape-font-specification:'Barcade No Bar, Normal';font-variant-ligatures:normal;font-variant-caps:normal;font-variant-numeric:normal;font-feature-settings:normal;text-align:start;writing-mode:lr-tb;text-anchor:start;fill:#019ff1;fill-opacity:1;stroke-width:1.27038777"
         id="path4554"
         inkscape:connector-curvature="0" />
      <path
         d="m 26.093039,159.28142 v -6.09786 H 14.862812 c -0.813049,0 -1.676912,-0.20327 -2.591591,-0.71142 -0.91468,-0.50816 -1.727728,-1.11794 -2.4899605,-1.93099 -0.8130481,-0.76223 -1.4228342,-1.6261 -1.9309893,-2.59159 -0.5081551,-0.91468 -0.7622327,-1.88017 -0.7622327,-2.79485 v -0.71142 c 0,-0.91468 0.3048931,-1.82936 0.8130482,-2.79485 0.5081551,-0.9655 1.1179412,-1.82936 1.8801738,-2.64241 0.7622325,-0.76223 1.5752805,-1.42283 2.4899605,-1.93099 0.914679,-0.50816 1.778542,-0.76223 2.591591,-0.76223 h 11.230227 v -6.09786 H 14.761181 c -1.626097,0 -3.252193,0.3557 -4.8782894,1.01631 -1.6769119,0.71141 -3.2013772,1.62609 -4.5733959,2.74403 -1.4228343,1.16876 -2.591591,2.54078 -3.5062702,4.06524 -0.96549468,1.52447 -1.52446529,3.15057 -1.62609631,4.87829 v 3.65872 c 0.10163102,1.72773 0.66060163,3.40464 1.62609631,4.9291 0.9146792,1.52447 2.0834359,2.89649 3.5062702,4.01443 1.3720187,1.16876 2.896484,2.08344 4.5733959,2.74404 1.6260964,0.71141 3.2521924,1.01631 4.8782894,1.01631 z M 24.466943,141.29273 H 10.899202 v 6.91091 h 13.567741 z"
         style="font-style:normal;font-variant:normal;font-weight:normal;font-stretch:normal;font-size:50.8155098px;font-family:'Barcade No Bar';-inkscape-font-specification:'Barcade No Bar, Normal';font-variant-ligatures:normal;font-variant-caps:normal;font-variant-numeric:normal;font-feature-settings:normal;text-align:start;writing-mode:lr-tb;text-anchor:start;fill:#0129f1;fill-opacity:1;stroke-width:1.27038777"
         id="path4556"
         inkscape:connector-curvature="0" />
    </g>
    <rect
       style="opacity:0.99299999;fill:none;fill-opacity:1;fill-rule:evenodd;stroke:#666666;stroke-width:2.78089595;stroke-linecap:round;stroke-linejoin:round;stroke-miterlimit:4;stroke-dasharray:none;stroke-opacity:1"
       id="rect6035"
       width="208.82779"
       height="44.63689"
       x="11.20895"
       y="234.9935"
       ry="12.308856"
       inkscape:export-xdpi="96"
       inkscape:export-ydpi="96"
       inkscape:export-filename="C:\Users\Dave\rect6035.png" />
  </g>
</svg>
