<?xml version="1.0" encoding="UTF-8" standalone="no"?>
<!-- Created with Inkscape (http://www.inkscape.org/) -->

<svg
   xmlns:dc="http://purl.org/dc/elements/1.1/"
   xmlns:cc="http://creativecommons.org/ns#"
   xmlns:rdf="http://www.w3.org/1999/02/22-rdf-syntax-ns#"
   xmlns:svg="http://www.w3.org/2000/svg"
   xmlns="http://www.w3.org/2000/svg"
   xmlns:xlink="http://www.w3.org/1999/xlink"
   xmlns:sodipodi="http://sodipodi.sourceforge.net/DTD/sodipodi-0.dtd"
   xmlns:inkscape="http://www.inkscape.org/namespaces/inkscape"
   width="218mm"
   height="40mm"
   viewBox="0 0 218 40"
   version="1.1"
   id="svg8"
   inkscape:version="0.92.4 (5da689c313, 2019-01-14)"
   sodipodi:docname="allgames.svg"
   inkscape:export-filename="C:\Users\Dave\Desktop\allgames.png"
   inkscape:export-xdpi="96"
   inkscape:export-ydpi="96">
  <defs
     id="defs2">
    <linearGradient
       inkscape:collect="always"
       id="linearGradient879">
      <stop
         style="stop-color:#808080;stop-opacity:1"
         offset="0"
         id="stop875" />
      <stop
         style="stop-color:#0116d3;stop-opacity:1"
         offset="1"
         id="stop877" />
    </linearGradient>
    <linearGradient
       inkscape:collect="always"
       xlink:href="#linearGradient879"
       id="linearGradient881"
       x1="377.35938"
       y1="609.08008"
       x2="377.35938"
       y2="487.08008"
       gradientUnits="userSpaceOnUse"
       gradientTransform="matrix(0.32060433,0,0,0.32060433,-16.808094,99.038909)" />
  </defs>
  <sodipodi:namedview
     id="base"
     pagecolor="#ffffff"
     bordercolor="#666666"
     borderopacity="1.0"
     inkscape:pageopacity="0.0"
     inkscape:pageshadow="2"
     inkscape:zoom="1"
     inkscape:cx="319.9811"
     inkscape:cy="279.18925"
     inkscape:document-units="mm"
     inkscape:current-layer="layer1"
     showgrid="false"
     inkscape:window-width="1628"
     inkscape:window-height="1184"
     inkscape:window-x="3"
     inkscape:window-y="176"
     inkscape:window-maximized="0" />
  <metadata
     id="metadata5">
    <rdf:RDF>
      <cc:Work
         rdf:about="">
        <dc:format>image/svg+xml</dc:format>
        <dc:type
           rdf:resource="http://purl.org/dc/dcmitype/StillImage" />
        <dc:title></dc:title>
      </cc:Work>
    </rdf:RDF>
  </metadata>
  <g
     inkscape:label="Layer 1"
     inkscape:groupmode="layer"
     id="layer1"
     transform="translate(0,-257)">
    <path
       style="font-style:normal;font-variant:normal;font-weight:normal;font-stretch:normal;font-size:32.14310074px;line-height:1.25;font-family:'Barcade No Bar';-inkscape-font-specification:'Barcade No Bar, Normal';font-variant-ligatures:normal;font-variant-caps:normal;font-variant-numeric:normal;font-feature-settings:normal;text-align:start;letter-spacing:0px;word-spacing:0px;writing-mode:lr-tb;text-anchor:start;fill:#000000;fill-opacity:1;stroke:none;stroke-width:0.97372133"
       d="m 17.490879,265.03828 c -4.683181,0.12726 -10.2059561,2.55833 -11.3019287,7.55048 -0.3195738,5.3664 -0.025954,10.77582 -0.1271142,16.15733 2.193301,0 4.3866019,0 6.5799019,0 0.0772,-4.92198 -0.151972,-9.8976 0.110212,-14.78724 1.764063,-4.25533 9.295881,-3.84942 10.458466,0.62368 -0.171283,1.73742 -3.575322,0.37424 -5.101491,0.80714 -1.536702,0.46562 -5.153684,-1.14905 -4.724533,1.28241 0.374057,1.60531 -0.782404,4.74112 0.641209,5.29686 3.070996,0 6.141994,0 9.212993,0 0,2.25906 0,4.51811 0,6.77715 2.19309,0 4.386185,0 6.579275,0 -0.133358,-5.39248 0.251524,-10.82754 -0.162806,-16.1974 -1.220284,-5.2422 -7.285679,-7.63567 -12.164179,-7.51041 z m 100.490671,0 c -4.68321,0.12738 -10.2055,2.55829 -11.3013,7.55048 -0.31957,5.3664 -0.0259,10.77582 -0.1271,16.15733 2.19308,0 4.38617,0 6.57926,0 0.0772,-4.92198 -0.15198,-9.8976 0.11032,-14.78724 1.77692,-4.32467 9.56533,-3.82864 10.48666,0.83031 -0.66964,1.34729 -3.79424,0.23962 -5.45028,0.60051 -1.6183,0.3838 -5.13083,-1.12661 -4.40331,1.60303 0.45798,1.52138 -1.02417,4.98287 0.96183,4.97624 2.96392,0 5.92785,0 8.89176,0 0,2.25906 0,4.51811 0,6.77715 2.19331,0 4.3866,0 6.5799,0 -0.13335,-5.39248 0.25153,-10.82754 -0.16279,-16.1974 -1.22145,-5.24242 -7.28551,-7.63567 -12.16482,-7.51041 z m 23.07351,0 c -4.3713,-0.049 -8.73039,3.08946 -9.28938,7.56677 -0.27312,5.36669 -0.0229,10.76367 -0.10899,16.14104 2.1933,0 4.38662,0 6.57991,0 0.1258,-5.08418 -0.25044,-10.2107 0.18535,-15.2694 0.45266,-3.33069 5.96667,-3.28718 6.29311,0.0758 0.53094,5.01954 0.0681,10.13729 0.22356,15.19365 2.19308,0 4.38617,0 6.57927,0 0.12623,-5.08501 -0.2513,-10.21254 0.18597,-15.27191 0.42143,-3.33549 6.38711,-3.41115 6.48723,0.0858 0.0697,5.06015 0.007,10.12447 0.0288,15.18613 2.1931,0 4.38618,0 6.57927,0 -0.10294,-5.38543 0.19847,-10.79925 -0.13588,-16.1686 -0.48642,-4.09092 -4.17574,-7.14659 -8.18766,-7.44362 -2.83956,-0.35789 -5.91029,0.18071 -8.21138,1.96079 -2.02512,-1.5919 -4.6794,-2.14722 -7.2092,-2.05638 z m -109.889028,0.78774 c 0,7.64003 0,15.28005 0,22.92007 6.023023,0 12.046043,0 18.06906,0 0,-1.9854 0,-3.97081 0,-5.95622 -3.829927,0 -7.659854,0 -11.489783,0 0,-5.86835 0,-11.73671 0,-17.60506 -2.193092,0 -4.386185,0 -6.579277,0 v 0.32059 z m 19.397818,0 c 0,7.64003 0,15.28005 0,22.92007 6.023229,0 12.046455,0 18.069684,0 0,-1.9854 0,-3.97081 0,-5.95622 -3.829927,0 -7.659854,0 -11.489784,0 0,-5.86835 0,-11.73671 0,-17.60506 -2.193298,0 -4.386601,0 -6.5799,0 v 0.32059 z m 42.386775,-0.63807 c -5.344175,0.31448 -10.594404,4.43508 -11.527982,9.81286 -0.622401,3.91777 0.648743,8.05039 3.571731,10.75902 2.418739,2.48848 5.97527,3.53843 9.385817,3.12278 3.87804,0.0626 8.723299,-0.94449 10.305049,-4.98315 0.99688,-3.3027 0.25037,-6.83291 0.4828,-10.22364 -4.16662,0 -8.333221,0 -12.499824,0 0,2.19309 0,4.38618 0,6.57927 1.96057,0 3.921141,0 5.881711,0 0.707875,1.96312 -1.481589,2.44172 -2.895458,2.46089 -2.729257,0.60255 -5.519502,-0.69973 -6.871703,-3.1403 -2.657475,-3.71794 1.6449,-9.01391 5.780273,-8.43402 3.522054,0 7.044111,0 10.566171,0 0,-1.98561 0,-3.97124 0,-5.95685 -4.05952,0.002 -8.119103,-0.004 -12.178585,0.003 z m 84.819885,0 c -5.34366,0.31467 -10.59475,4.43496 -11.52735,9.81286 -0.48496,3.28039 0.22471,6.77632 2.55669,9.22615 2.81615,3.23629 7.16716,5.03069 11.45723,4.51913 2.36091,0 4.72181,0 7.08273,0 0,-1.9854 0,-3.97081 0,-5.95622 -3.47822,-0.17842 -7.0527,0.35068 -10.47537,-0.2486 -3.0683,-1.30947 -5.54142,-5.40351 -3.10711,-8.39082 1.36254,-2.24591 3.96568,-3.51402 6.58805,-3.00879 2.33148,0 4.66294,0 6.99443,0 0,-1.98561 0,-3.97124 0,-5.95685 -3.18975,0.002 -6.37958,-0.004 -9.5693,0.003 z m 21.66585,10e-4 c -3.56532,-0.0434 -8.09282,0.33781 -9.91683,3.94307 -1.46683,3.13144 -1.17858,7.71868 2.19352,9.50793 4.00198,2.35418 8.92494,1.03743 13.15793,2.07078 1.13677,0.75556 -0.17737,1.92078 -1.14467,1.82531 -4.91077,0.60506 -9.91631,0.0752 -14.85987,0.25359 0,1.98541 0,3.97083 0,5.95624 5.742,-0.21044 11.55529,0.44942 17.25628,-0.40389 3.13949,-0.52866 5.76473,-3.25639 5.76148,-6.51604 0.43804,-2.78309 -0.92448,-5.74947 -3.59177,-6.85354 -3.95605,-1.90795 -8.51669,-0.75773 -12.6263,-1.73577 -1.10564,-1.09149 0.65625,-1.89024 1.60427,-1.91172 4.81472,-0.40666 9.66667,-0.0771 14.49545,-0.18348 0,-1.9854 0,-3.97082 0,-5.95623 -4.10982,0.002 -8.2197,-0.004 -12.32949,0.003 z m -25.02467,9.12784 c 0,1.97936 0,3.95871 0,5.93807 3.89401,0 7.78801,0 11.68202,0 0,-2.1931 0,-4.38619 0,-6.57927 -3.89401,0 -7.78801,0 -11.68202,0 v 0.32059 z"
       id="path883"
       inkscape:connector-curvature="0" />
    <path
       style="font-style:normal;font-variant:normal;font-weight:normal;font-stretch:normal;font-size:32.14310074px;line-height:1.25;font-family:'Barcade No Bar';-inkscape-font-specification:'Barcade No Bar, Normal';font-variant-ligatures:normal;font-variant-caps:normal;font-variant-numeric:normal;font-feature-settings:normal;text-align:start;letter-spacing:0px;word-spacing:0px;writing-mode:lr-tb;text-anchor:start;fill:url(#linearGradient881);fill-opacity:1;stroke:none;stroke-width:0.97372133"
       d="m 18.00691,265.70496 c -1.324262,0 -2.648853,0.19423 -3.973116,0.54477 -1.32426,0.35054 -2.492562,0.85699 -3.54418,1.51912 -1.0516204,0.70107 -1.90884,1.51909 -2.6099201,2.49282 -0.7010783,1.01267 -1.0905547,2.14253 -1.1684538,3.38889 v 14.48856 h 5.2974859 v -13.94379 c 0.38949,-1.24636 1.09042,-2.18071 2.180988,-2.84286 1.090568,-0.62318 2.336763,-0.9737 3.738923,-0.9737 0.623181,0 1.24634,0.11645 1.947423,0.31122 0.701078,0.19474 1.324363,0.46775 1.908595,0.85723 0.545284,0.38949 1.051352,0.8179 1.440842,1.36319 0.389487,0.54529 0.584602,1.16807 0.662499,1.86916 v 1.28553 h -9.854202 v 5.29687 h 9.854202 v 6.77715 h 5.296858 v -14.44973 c -0.116848,-1.32427 -0.545018,-2.45387 -1.246099,-3.46654 -0.740028,-1.01267 -1.635945,-1.83069 -2.687567,-2.49283 -1.090567,-0.66213 -2.258869,-1.16857 -3.544181,-1.51911 -1.285313,-0.31158 -2.531632,-0.50595 -3.700097,-0.50595 z m 100.49069,0 c -1.32425,0 -2.64823,0.19423 -3.97251,0.54477 -1.32425,0.35054 -2.49317,0.85699 -3.54481,1.51912 -1.05161,0.70107 -1.90821,1.51909 -2.60928,2.49282 -0.70108,1.01267 -1.09055,2.14253 -1.16846,3.38889 v 14.48856 h 5.29686 v -13.94379 c 0.38948,-1.24636 1.09105,-2.18071 2.18163,-2.84286 1.09056,-0.62318 2.33677,-0.9737 3.73892,-0.9737 0.62319,0 1.24634,0.11645 1.94741,0.31122 0.70109,0.19474 1.32438,0.46775 1.9086,0.85723 0.54529,0.38949 1.05137,0.8179 1.44086,1.36319 0.38948,0.54529 0.58396,1.16807 0.66187,1.86916 v 1.28553 h -9.8536 v 5.29687 h 9.8536 v 6.77715 h 5.29747 v -14.44973 c -0.1168,-1.32427 -0.54563,-2.45387 -1.24671,-3.46654 -0.74003,-1.01267 -1.63533,-1.83069 -2.68695,-2.49283 -1.09056,-0.66213 -2.25949,-1.16857 -3.5448,-1.51911 -1.28532,-0.31158 -2.53163,-0.50595 -3.7001,-0.50595 z m 23.03968,0 c -1.24636,0 -2.3761,0.19437 -3.42771,0.50595 -1.09057,0.35054 -2.02495,0.85698 -2.84286,1.51911 -0.85688,0.66214 -1.51936,1.48016 -2.0257,2.49283 -0.54529,1.01267 -0.85699,2.14227 -0.93489,3.46654 v 14.44973 h 5.29749 v -13.35955 c 0.0779,-1.40217 0.42793,-2.45337 1.12901,-3.23235 0.66212,-0.77897 1.63595,-1.16845 2.88231,-1.16845 0.66213,0 1.24647,0.11634 1.71385,0.35004 0.46738,0.23369 0.89569,0.50657 1.20727,0.89606 0.31159,0.38949 0.54553,0.85672 0.70132,1.40201 0.15581,0.54528 0.27277,1.0908 0.35066,1.67505 v 13.43719 h 5.29687 v -13.35955 c 0.0779,-1.40217 0.42855,-2.45337 1.12962,-3.23235 0.66214,-0.77897 1.63596,-1.16845 2.88232,-1.16845 1.40215,0 2.41441,0.35052 3.03759,0.9737 0.62319,0.66215 0.93489,1.5965 0.93489,2.84286 v 13.94379 h 5.29686 v -14.48856 c -0.1168,-1.24636 -0.42805,-2.37622 -0.89544,-3.38889 -0.50633,-1.01267 -1.16843,-1.83069 -1.94742,-2.49282 -0.81792,-0.66213 -1.79173,-1.16858 -2.88231,-1.51912 -1.09055,-0.35054 -2.29819,-0.54477 -3.62244,-0.54477 -1.28532,0 -2.49232,0.19473 -3.62183,0.58423 -1.12952,0.38948 -2.10321,0.93437 -2.92114,1.67441 -1.67479,-1.48005 -3.93402,-2.25864 -6.73832,-2.25864 z m -109.721842,0.15529 v 22.27887 H 48.602079 V 283.4653 H 37.112297 v -17.60505 z m 19.397816,0 v 22.27887 H 68.00052 V 283.4653 H 56.510739 v -17.60505 z m 41.987897,0 c -1.246361,0 -2.49256,0.27263 -3.738923,0.77897 -1.285313,0.54527 -2.454365,1.24646 -3.505985,2.10333 -1.090569,0.89584 -1.985858,1.94743 -2.68694,3.11588 -0.740029,1.16847 -1.168827,2.4153 -1.246725,3.73956 v 2.80403 c 0.0779,1.32427 0.467627,2.6099 1.090809,3.77836 0.623181,1.20741 1.402131,2.25889 2.336904,3.15471 0.934773,0.93476 2.025052,1.6357 3.193521,2.18099 1.168464,0.54527 2.337266,0.77896 3.583629,0.77896 h 0.778968 c 1.168465,0 2.453358,-0.039 3.816568,-0.15592 1.363209,-0.11681 2.610033,-0.42855 3.739553,-0.93489 1.12951,-0.46739 2.06388,-1.20714 2.84285,-2.2198 0.74003,-0.97374 1.12964,-2.33677 1.12964,-4.12841 v -6.50476 h -11.2174 v 5.29685 h 5.881711 v 1.86978 c 0,0.42845 -0.194987,0.77885 -0.506577,1.01254 -0.311593,0.27263 -0.739765,0.46737 -1.246099,0.58421 -0.506337,0.15581 -1.090673,0.23407 -1.713858,0.27304 -0.623182,0.0779 -1.246719,0.0777 -1.83095,0.0777 h -0.623048 c -0.623185,0 -1.285165,-0.19474 -1.986247,-0.58422 -0.701078,-0.38948 -1.324365,-0.85649 -1.908595,-1.47967 -0.584235,-0.58422 -1.051352,-1.24685 -1.440842,-1.98687 -0.389488,-0.74002 -0.623674,-1.47989 -0.623674,-2.18099 v -0.54541 c 0,-0.70108 0.195362,-1.40213 0.584852,-2.14216 0.389485,-0.70108 0.856483,-1.36305 1.479664,-1.98624 0.58423,-0.58423 1.207517,-1.05134 1.908595,-1.44084 0.701082,-0.38949 1.363063,-0.58423 1.986247,-0.58423 H 104.4962 v -4.67444 z m 84.819909,0 c -1.24638,0 -2.49257,0.27263 -3.73893,0.77897 -1.28531,0.54527 -2.45374,1.24646 -3.50537,2.10333 -1.09057,0.89584 -1.98647,1.94743 -2.68756,3.11588 -0.74001,1.16847 -1.1682,2.4153 -1.24609,3.73956 v 2.80403 c 0.0779,1.32427 0.50608,2.6099 1.24609,3.77836 0.70109,1.16847 1.59699,2.21956 2.68756,3.07644 1.05163,0.89582 2.22006,1.597 3.50537,2.10334 1.24636,0.54528 2.49255,0.77896 3.73893,0.77896 h 8.68575 v -4.67382 h -8.60749 c -0.62317,0 -1.28516,-0.15589 -1.98624,-0.5454 -0.70107,-0.38948 -1.32437,-0.85647 -1.9086,-1.47966 -0.62319,-0.58423 -1.0908,-1.24684 -1.48029,-1.98687 -0.38949,-0.70109 -0.58423,-1.44109 -0.58423,-2.14216 v -0.54478 c 0,-0.70107 0.23357,-1.40213 0.62305,-2.14215 0.38949,-0.74003 0.85725,-1.40252 1.44147,-2.02569 0.58423,-0.58423 1.20753,-1.09018 1.9086,-1.47967 0.70108,-0.3895 1.36307,-0.58423 1.98624,-0.58423 h 8.60749 v -4.67444 z m 21.89439,6.4e-4 c -1.24637,0 -2.45375,0.0775 -3.70011,0.1553 -1.24635,0.1168 -2.3762,0.38984 -3.38887,0.85723 -1.01269,0.46738 -1.86903,1.20726 -2.49221,2.18099 -0.66214,1.01267 -0.97372,2.37584 -0.97372,4.08959 0,1.48004 0.31146,2.64848 1.01254,3.50536 0.66213,0.85685 1.55756,1.51898 2.64812,1.94741 1.09058,0.46739 2.29807,0.74039 3.66128,0.85724 1.32427,0.1558 2.68768,0.19475 4.01194,0.19475 1.71375,0 3.03784,0.11645 3.93366,0.31121 0.85688,0.23369 1.32438,0.74001 1.32438,1.55794 0,0.46739 -0.19475,0.85711 -0.58423,1.0908 -0.38949,0.27264 -0.89607,0.46738 -1.48029,0.58423 -0.58424,0.15578 -1.20689,0.23357 -1.90797,0.23357 -0.70108,0.039 -1.36371,0.0388 -1.98688,0.0388 h -10.47725 v 4.6738 h 11.2174 c 1.16847,0 2.41491,-0.039 3.66128,-0.15591 1.24635,-0.0779 2.41504,-0.38923 3.42771,-0.85661 1.01267,-0.46739 1.83068,-1.16844 2.49282,-2.14216 0.62319,-0.97374 0.97371,-2.33677 0.97371,-4.12841 0,-1.48006 -0.35101,-2.64849 -1.01315,-3.50537 -0.70108,-0.85688 -1.55756,-1.48004 -2.64813,-1.94742 -1.09055,-0.42844 -2.337,-0.70145 -3.66127,-0.85723 -1.36321,-0.11682 -2.72652,-0.19475 -4.05076,-0.19475 -1.75271,0 -3.0768,-0.0777 -3.93366,-0.27238 -0.85688,-0.19476 -1.28557,-0.73989 -1.28557,-1.59677 0,-0.46737 0.19475,-0.81816 0.58424,-1.0908 0.38948,-0.23369 0.85662,-0.42844 1.44084,-0.58423 0.58424,-0.11682 1.24696,-0.19462 1.94804,-0.23357 0.70109,0 1.36307,-0.0388 1.98626,-0.0388 h 10.47724 v -4.67381 z m -24.85435,8.49038 v 5.29687 h 10.3996 v -5.29687 z"
       id="path44"
       inkscape:connector-curvature="0" />
  </g>
</svg>
