<?xml version="1.0" encoding="UTF-8" standalone="no"?>
<!-- Created with Inkscape (http://www.inkscape.org/) -->

<svg
   xmlns:dc="http://purl.org/dc/elements/1.1/"
   xmlns:cc="http://creativecommons.org/ns#"
   xmlns:rdf="http://www.w3.org/1999/02/22-rdf-syntax-ns#"
   xmlns:svg="http://www.w3.org/2000/svg"
   xmlns="http://www.w3.org/2000/svg"
   xmlns:sodipodi="http://sodipodi.sourceforge.net/DTD/sodipodi-0.dtd"
   xmlns:inkscape="http://www.inkscape.org/namespaces/inkscape"
   width="288.24991"
   height="53.612209"
   viewBox="0 0 76.266114 14.184896"
   version="1.1"
   id="svg9136"
   inkscape:version="0.92.4 (5da689c313, 2019-01-14)"
   sodipodi:docname="allgames.svg">
  <defs
     id="defs9130" />
  <sodipodi:namedview
     id="base"
     pagecolor="#ffffff"
     bordercolor="#666666"
     borderopacity="1.0"
     inkscape:pageopacity="0.0"
     inkscape:pageshadow="2"
     inkscape:zoom="2.8"
     inkscape:cx="74.978323"
     inkscape:cy="48.358313"
     inkscape:document-units="px"
     inkscape:current-layer="layer1"
     showgrid="false"
     units="px"
     inkscape:window-width="1669"
     inkscape:window-height="980"
     inkscape:window-x="312"
     inkscape:window-y="312"
     inkscape:window-maximized="0"
     fit-margin-top="0"
     fit-margin-left="0"
     fit-margin-right="0"
     fit-margin-bottom="0"
     inkscape:pagecheckerboard="true" />
  <metadata
     id="metadata9133">
    <rdf:RDF>
      <cc:Work
         rdf:about="">
        <dc:format>image/svg+xml</dc:format>
        <dc:type
           rdf:resource="http://purl.org/dc/dcmitype/StillImage" />
        <dc:title></dc:title>
      </cc:Work>
    </rdf:RDF>
  </metadata>
  <g
     inkscape:label="Layer 1"
     inkscape:groupmode="layer"
     id="layer1"
     transform="translate(-15.007203,-269.91291)">
    <g
       id="g64"
       style="font-style:normal;font-variant:normal;font-weight:normal;font-stretch:normal;font-size:14.11110973px;line-height:1.25;font-family:'Sonic XBd BT';-inkscape-font-specification:'Sonic XBd BT';letter-spacing:0px;word-spacing:0px;fill:#000000;fill-opacity:1;stroke:none;stroke-width:0.26458332"
       aria-label="All Games"
       transform="translate(0.75595232,-0.18898808)">
      <path
         style="font-size:14.11110973px;fill:#000000;stroke-width:0.26458332"
         d="m 21.005803,272.49001 c -0.297924,1.14791 -2.260948,3.38111 0.110587,2.78898 2.489371,-0.265 2.525392,0.59263 0.01654,0.35398 -1.631715,-0.0857 -2.186283,2.12129 -3.344964,3.04239 -1.070754,1.29098 -2.14135,2.5821 -3.212258,3.87295 7.601602,0 15.203205,0 22.804807,0 0.0734,-0.95404 2.365031,-3.33251 0.59738,-3.10472 -2.718242,0.70574 -0.893321,-1.51548 -0.38101,-2.89104 0.662552,-1.45943 1.324997,-2.9189 1.98763,-4.37828 -1.263728,0.2097 -3.079189,-0.43591 -3.996655,0.31058 -1.05351,2.31958 -2.10702,4.63916 -3.16053,6.95874 -2.226846,0.41387 -2.711382,-0.29467 -1.387486,-2.16822 0.772308,-1.70032 1.543618,-3.4011 2.316628,-5.1011 -1.263873,0.20974 -3.079551,-0.43594 -3.997172,0.31058 -1.338764,2.94796 -2.677528,5.89593 -4.016292,8.8439 0.614631,-2.63071 1.781018,-5.17798 2.137854,-7.84913 -0.207455,-1.76164 -2.49429,-1.28772 -3.677294,-1.30535 -0.822507,0.21207 -2.338754,-0.425 -2.797762,0.31574 z m 27.395224,-0.31109 c -1.863087,-0.20606 -2.868207,1.59492 -3.340584,3.10932 -0.678685,1.94969 -2.043186,3.70804 -2.422887,5.7444 0.07705,1.83521 2.471467,1.58194 3.703648,1.51567 0.90687,-0.026 1.854612,0.0922 2.728515,-0.21807 0.421177,0.52012 2.924101,0.0622 4.120679,0.21807 3.255959,0 6.511919,0 9.767879,0 1.044813,-2.30484 2.088684,-4.6101 3.132626,-6.91534 -1.263975,0.21006 -3.081514,-0.43687 -3.99769,0.31161 -0.819589,1.81919 -1.639175,3.63837 -2.458764,5.45755 0.617955,-2.65666 1.80223,-5.2276 2.159558,-7.9251 -0.21082,-1.75948 -2.494388,-1.28432 -3.677295,-1.30276 -1.623314,-0.14285 -3.231962,-0.26262 -3.438522,1.76818 -1.559711,1.97034 1.076428,1.20572 2.338847,1.33654 1.792896,0.69498 -2.313336,-0.13196 -2.720168,0.74884 -1.192029,1.43728 -2.384059,2.87456 -3.576086,4.31183 0.708641,-1.5689 1.417444,-3.13773 2.125966,-4.70669 -1.273704,-0.0839 -3.079429,0.17116 -4.028175,-0.11989 0.853948,-0.69514 2.330288,0.0268 3.362068,-0.23409 1.548212,0.30853 1.915366,-2.59654 0.358635,-2.97036 -1.332,-0.33013 -2.776437,-0.0445 -4.13825,-0.12971 z m 15.269868,0.30799 c -0.306602,1.14972 -2.286786,3.38413 0.0956,2.79208 2.254988,0 4.509973,0 6.764961,0 -1.102304,2.42309 -2.204225,4.84635 -3.306776,7.26932 1.264214,-0.20954 3.078419,0.43541 3.99769,-0.31006 1.151803,-2.85101 2.784742,-5.55685 3.705717,-8.47906 0.01624,-1.75374 -2.237388,-1.72375 -3.445785,-1.58492 -2.556949,0 -5.1139,0 -7.670849,0 l -0.108493,0.24132 z m 12.513965,-0.003 c -0.314513,1.15128 -2.312024,3.38651 0.08061,2.79466 1.625224,0 3.250448,0 4.875672,0 0.07011,-0.95317 2.35227,-3.33139 0.589627,-3.10472 -1.801611,0 -3.603225,0 -5.404836,0 l -0.109578,0.24083 z m 9.113654,-0.30696 c -2.615451,-0.11452 -4.341418,3.54403 -2.445845,5.3883 0.458552,0.57789 1.515178,0.48702 1.877403,1.03353 -0.594317,1.50352 -2.755047,0.55961 -3.931541,0.84439 -1.844728,-0.58351 -1.82913,1.72237 -2.579502,2.83821 0.525897,0.63889 2.91824,0.0758 4.140128,0.26651 2.321251,0.25384 5.178502,-0.46627 6.039943,-2.9006 0.766423,-1.717 -0.27486,-4.00835 -2.264979,-4.13979 -1.436471,-0.46091 2.360546,-0.0927 1.511535,-0.22893 1.48055,0.14579 1.38902,-2.16423 2.174028,-3.10472 -1.507037,0.003 -3.014191,-0.005 -4.52117,0.003 z m -19.112527,3.76721 c -0.991384,2.2013 -1.983804,4.40213 -2.974496,6.60373 1.24796,-0.21217 3.05467,0.44065 3.953763,-0.31161 0.991831,-2.20124 1.983772,-4.40244 2.975531,-6.60373 -1.213292,0.21674 -3.109225,-0.44678 -3.954798,0.31161 z m 8.434627,-0.002 c -1.002324,2.20177 -2.004888,4.40344 -3.007053,6.60528 2.07567,0 4.151342,0 6.227011,0 0.07011,-0.95317 2.35227,-3.33139 0.589626,-3.10472 -2.837412,0.22158 -0.447722,-1.22658 1.146702,-0.7059 0.07011,-0.95316 2.35227,-3.33139 0.589626,-3.10472 -1.801611,0 -3.603225,0 -5.404836,0 l -0.109577,0.24083 z m -52.561646,3.50057 c -1.462652,0.36416 1.399297,-2.44677 0,0 z m 34.313147,0 c -1.462651,0.36416 1.399297,-2.44677 0,0 z m -8.67027,-0.7059 c 0.06004,0.50936 -1.024388,1.14976 -0.431401,0.22207 -0.02371,-0.33275 0.24832,-0.20872 0.431401,-0.22207 z"
         id="path48"
         inkscape:connector-curvature="0" />
    </g>
    <g
       aria-label="All Games"
       style="font-style:normal;font-variant:normal;font-weight:normal;font-stretch:normal;font-size:14.11110973px;line-height:1.25;font-family:'Sonic XBd BT';-inkscape-font-specification:'Sonic XBd BT';letter-spacing:0px;word-spacing:0px;fill:#808080;fill-opacity:1;stroke:none;stroke-width:0.26458332"
       id="text13"
       transform="translate(0.75595232,-0.18898808)">
      <path
         d="m 21.489887,272.70338 h 4.430392 q 0.482314,0 0.757921,0.25494 0.282498,0.25494 0.282498,0.69591 0,0.11713 -0.01378,0.22049 -0.01378,0.10335 -0.04134,0.19981 l -2.315104,7.94439 h -8.888346 l 4.857584,-5.85666 h 2.776747 l -2.89388,3.81027 h 2.005046 l 1.48139,-4.74045 q 0,-0.007 0.0069,-0.0207 0.02067,-0.0896 0.02067,-0.15158 0,-0.13781 -0.103353,-0.22049 -0.103352,-0.0896 -0.275607,-0.0896 h -2.990343 z"
         style="font-size:14.11110973px;fill:#808080;stroke-width:0.26458332"
         id="path15"
         inkscape:connector-curvature="0" />
      <path
         d="m 32.534862,272.70338 -3.300401,7.26915 h 2.514919 l -0.937066,2.04639 h -5.202093 l 4.230576,-9.31554 z"
         style="font-size:14.11110973px;fill:#808080;stroke-width:0.26458332"
         id="path17"
         inkscape:connector-curvature="0" />
      <path
         d="m 38.763594,272.70338 -3.300401,7.26915 h 2.514919 l -0.937066,2.04639 h -5.202093 l 4.230576,-9.31554 z"
         style="font-size:14.11110973px;fill:#808080;stroke-width:0.26458332"
         id="path19"
         inkscape:connector-curvature="0" />
      <path
         d="m 52.02721,276.16226 -2.032606,4.49929 q -0.34451,0.76481 -0.861274,1.06109 -0.516765,0.29628 -1.626085,0.29628 h -3.017904 q -0.613226,0 -0.964626,-0.26872 -0.35829,-0.2756 -0.35829,-0.74414 0,-0.1378 0.04134,-0.28249 0.03445,-0.15159 0.110243,-0.31006 l 2.8801,-6.35276 q 0.351399,-0.76481 0.861273,-1.06109 0.509875,-0.29628 1.619195,-0.29628 h 3.024794 q 0.620117,0 0.971517,0.27561 0.351399,0.27561 0.351399,0.75792 0,0.11714 -0.04134,0.26872 -0.03445,0.14469 -0.110243,0.31006 l -0.199815,0.43408 h -3.417535 q -0.3514,0 -0.578776,0.14469 -0.227376,0.1447 -0.36518,0.44787 l -1.80523,4.02387 q 0,0.007 -0.01378,0.0413 -0.04134,0.12402 -0.04134,0.18603 0,0.17226 0.158474,0.27561 0.158474,0.10335 0.434082,0.10335 0.3514,0 0.571886,-0.1378 0.227376,-0.14469 0.37207,-0.45475 l 0.537435,-1.17133 h -0.792372 l 0.930176,-2.04639 z"
         style="font-size:14.11110973px;fill:#808080;stroke-width:0.26458332"
         id="path21"
         inkscape:connector-curvature="0" />
      <path
         d="m 55.803036,272.70338 h 4.430392 q 0.482313,0 0.757921,0.25494 0.282498,0.25494 0.282498,0.69591 0,0.11713 -0.01378,0.22049 -0.01378,0.10335 -0.04134,0.19981 l -2.315104,7.94439 h -8.888345 l 4.857584,-5.85666 h 2.776747 l -2.89388,3.81027 h 2.005045 l 1.481391,-4.74045 q 0,-0.007 0.0069,-0.0207 0.02067,-0.0896 0.02067,-0.15158 0,-0.13781 -0.103353,-0.22049 -0.103353,-0.0896 -0.275608,-0.0896 h -2.990342 z"
         style="font-size:14.11110973px;fill:#808080;stroke-width:0.26458332"
         id="path23"
         inkscape:connector-curvature="0" />
      <path
         d="m 66.668865,276.16226 h 2.652724 l -2.638943,5.85666 h -2.652724 z m -4.092773,0 h 2.694065 l -2.652724,5.85666 h -2.680284 z m 8.040852,-1.41249 h -7.379393 l 0.916395,-2.04639 h 8.915906 q 0.620117,0 0.971517,0.27561 0.35829,0.27561 0.35829,0.75792 0,0.11714 -0.04134,0.26872 -0.04134,0.14469 -0.117134,0.31006 l -3.500216,7.70323 h -2.694065 l 3.024794,-6.64903 q 0.01378,-0.0344 0.02756,-0.0827 0.01378,-0.0551 0.01378,-0.0965 0,-0.18603 -0.144694,-0.31006 -0.137804,-0.13091 -0.3514,-0.13091 z"
         style="font-size:14.11110973px;fill:#808080;stroke-width:0.26458332"
         id="path25"
         inkscape:connector-curvature="0" />
      <path
         d="m 81.73082,272.70338 -0.930175,2.04639 h -5.06429 l 0.930176,-2.04639 z m -9.294866,9.31554 2.666503,-5.85666 h 5.06429 l -0.930175,2.04639 h -2.370226 l -0.806152,1.76388 h 2.370225 l -0.930175,2.04639 z"
         style="font-size:14.11110973px;fill:#808080;stroke-width:0.26458332"
         id="path27"
         inkscape:connector-curvature="0" />
      <path
         d="m 88.993082,272.70338 -0.943956,2.04639 h -2.005045 q -0.399631,0 -0.633898,0.17915 -0.227376,0.17225 -0.227376,0.46853 0,0.42719 1.033528,0.68213 0.213596,0.0551 0.323839,0.0827 0.737251,0.19292 1.150662,0.77859 0.413412,0.57878 0.413412,1.42627 0,0.6339 -0.268718,1.2678 -0.268717,0.627 -0.71658,1.07486 -0.420301,0.39964 -0.875054,0.66835 -0.447862,0.26183 -1.07487,0.46854 -0.268717,0.0827 -0.833713,0.13091 -0.564995,0.0413 -1.350477,0.0413 h -4.065212 l 0.930176,-2.04639 h 3.073024 q 0.675239,0 1.0542,-0.0758 0.38585,-0.0758 0.627007,-0.24804 0.316949,-0.22738 0.489203,-0.52366 0.172255,-0.30317 0.172255,-0.60634 0,-0.48231 -0.785482,-0.73036 -0.172254,-0.0551 -0.275607,-0.0896 -0.868164,-0.30317 -1.240234,-0.7717 -0.365181,-0.46853 -0.365181,-1.27468 0,-1.29536 0.799263,-2.12218 0.799262,-0.82683 2.067057,-0.82683 z"
         style="font-size:14.11110973px;fill:#808080;stroke-width:0.26458332"
         id="path29"
         inkscape:connector-curvature="0" />
    </g>
  </g>
</svg>
