<?xml version="1.0" encoding="UTF-8" standalone="no"?>
<!-- Created with Inkscape (http://www.inkscape.org/) -->

<svg
   xmlns:dc="http://purl.org/dc/elements/1.1/"
   xmlns:cc="http://creativecommons.org/ns#"
   xmlns:rdf="http://www.w3.org/1999/02/22-rdf-syntax-ns#"
   xmlns:svg="http://www.w3.org/2000/svg"
   xmlns="http://www.w3.org/2000/svg"
   xmlns:sodipodi="http://sodipodi.sourceforge.net/DTD/sodipodi-0.dtd"
   xmlns:inkscape="http://www.inkscape.org/namespaces/inkscape"
   width="307.24991"
   height="53.612209"
   viewBox="0 0 81.293191 14.184896"
   version="1.1"
   id="svg9136"
   inkscape:version="0.92.4 (5da689c313, 2019-01-14)"
   sodipodi:docname="favorites.svg">
  <defs
     id="defs9130" />
  <sodipodi:namedview
     id="base"
     pagecolor="#ffffff"
     bordercolor="#666666"
     borderopacity="1.0"
     inkscape:pageopacity="0.0"
     inkscape:pageshadow="2"
     inkscape:zoom="2.8"
     inkscape:cx="149.06929"
     inkscape:cy="48.358313"
     inkscape:document-units="px"
     inkscape:current-layer="text4524"
     showgrid="false"
     units="px"
     inkscape:window-width="1704"
     inkscape:window-height="938"
     inkscape:window-x="64"
     inkscape:window-y="393"
     inkscape:window-maximized="0"
     fit-margin-top="0"
     fit-margin-left="0"
     fit-margin-right="0"
     fit-margin-bottom="0"
     inkscape:pagecheckerboard="true"
     showguides="false" />
  <metadata
     id="metadata9133">
    <rdf:RDF>
      <cc:Work
         rdf:about="">
        <dc:format>image/svg+xml</dc:format>
        <dc:type
           rdf:resource="http://purl.org/dc/dcmitype/StillImage" />
        <dc:title />
      </cc:Work>
    </rdf:RDF>
  </metadata>
  <g
     inkscape:label="Layer 1"
     inkscape:groupmode="layer"
     id="layer1"
     transform="translate(-15.007203,-269.91291)"
     style="display:inline">
    <g
       aria-label="All Games"
       style="font-style:normal;font-variant:normal;font-weight:normal;font-stretch:normal;font-size:20.44046021px;line-height:12.77528667px;font-family:'namco regular';-inkscape-font-specification:'namco regular, ';letter-spacing:0px;word-spacing:0px;display:inline;fill:#fbe01b;fill-opacity:1;stroke:none;stroke-width:0.51101148px;stroke-linecap:butt;stroke-linejoin:miter;stroke-opacity:1"
       id="text4594">
      <g
         id="g4635"
         transform="matrix(0.81755495,0,0,0.81755495,7.5045189,49.989751)"
         style="display:inline">
        <g
           aria-label="Favorites"
           transform="scale(0.96347383,1.0379109)"
           style="font-style:normal;font-variant:normal;font-weight:normal;font-stretch:normal;font-size:20.82328606px;line-height:1.25;font-family:'Sonic XBd BT';-inkscape-font-specification:'Sonic XBd BT, Normal';font-variant-ligatures:normal;font-variant-caps:normal;font-variant-numeric:normal;font-feature-settings:normal;text-align:start;letter-spacing:0px;word-spacing:0px;writing-mode:lr-tb;text-anchor:start;display:inline;opacity:1;fill:#004455;fill-opacity:1;stroke:none;stroke-width:0.22168611px"
           id="text4524">
          <path
             style="fill:#000000;stroke-width:0.21200331px"
             d="m 16.467459,261.33327 c -0.03095,1.06711 -2.943007,3.77522 -0.750066,3.57475 2.62436,0 5.24872,0 7.873079,0 0.147365,-1.15319 2.652705,-3.64998 1.260111,-3.92544 -2.736979,0 -5.473957,0 -8.210936,0 l -0.129763,0.26428 z m 10.266767,0.006 c -0.243832,1.32301 -3.130353,4.16955 -0.03783,3.56916 2.056001,-0.5067 5.361365,0.69296 1.6371,0.76974 -2.319329,-0.55265 -3.607677,0.69388 -4.707999,2.26892 -2.04057,2.27614 -4.08089,4.55246 -6.121643,6.82848 4.969565,0 9.939129,0 14.908694,0 1.142173,-3.99331 2.707651,-7.92502 3.633578,-11.95004 0.0979,-1.7359 -2.321397,-2.12888 -3.863816,-1.84256 -1.660037,0.25982 -4.281013,-0.50802 -5.448084,0.3563 z m 9.970654,0.26891 c 0.459646,4.38913 0.918974,8.77827 1.378816,13.16739 1.937411,0.19469 3.734652,0.1741 4.302993,-1.73773 2.054391,-2.59796 3.63496,-5.55497 5.938336,-7.96583 2.096362,-0.83365 0.746451,1.03898 0.289995,1.95293 -0.692806,2.04221 -2.456879,3.88643 -2.608022,6.03804 0.317642,2.14446 3.516599,1.74578 5.264806,1.71259 2.10032,0.10651 5.026526,0.15063 5.885081,-1.93107 1.449166,-3.28201 3.484317,-6.41633 4.651058,-9.77303 0.199246,-1.9561 -2.596726,-2.36826 -4.293636,-2.0885 -1.909021,0.15206 -4.256124,-0.41432 -5.885732,0.74061 0.877416,-1.4759 -2.696938,-0.41535 -3.83903,-0.74061 -2.232878,-0.24048 -3.580712,1.52646 -4.315598,3.07028 -1.278949,2.43054 -1.868892,2.51417 -1.61936,-0.26163 0.427014,-2.21396 -0.315547,-3.39887 -3.071699,-2.80865 -0.637436,0.24047 -2.695951,-0.56387 -2.078008,0.62521 z m 27.150416,-0.27451 c -0.03082,1.05791 -2.913924,3.74213 -0.729194,3.53722 1.621457,0.0661 3.590103,-0.11887 5.045007,0.0683 -0.624413,1.75987 -3.709057,0.41099 -5.392647,0.83248 -2.126624,-0.22099 -1.876585,2.63903 -2.949695,3.78402 -0.85733,1.73995 -1.715041,3.47977 -2.57209,5.21983 1.776132,-0.17625 4.103586,0.36549 5.531957,-0.26366 0.83206,-1.66731 1.664245,-3.33456 2.496352,-5.00184 1.57225,-0.30078 -0.43677,1.42145 -0.302148,1.92116 -0.476348,1.46237 -2.948362,4.07075 0.388895,3.34434 2.05064,0.17782 4.019046,0.24881 4.243107,-1.93673 0.571626,-1.01517 1.316375,-2.34283 1.026268,-3.41336 2.013873,-1.05383 1.991074,-3.53662 3.173574,-5.13456 1.042267,-1.32471 0.07739,-3.38637 -1.936294,-3.30234 -2.616761,-0.0139 -5.233977,-9.2e-4 -7.850902,-0.006 l -0.129763,0.26428 z m 12.453697,0 c -2.199019,4.48066 -4.398747,8.96107 -6.597316,13.4419 1.775868,-0.17637 4.106972,0.36596 5.532194,-0.2643 1.571045,-3.20093 3.142029,-6.40189 4.713051,-9.60284 6.697975,0 13.395952,0 20.093928,0 0.14737,-1.1532 2.65271,-3.64999 1.26012,-3.92546 -8.2766,0 -16.553195,0 -24.829786,0 l -0.129767,0.2643 z m 29.897617,-0.34622 c -3.89367,-0.0543 -6.14784,4.6703 -3.54814,7.03692 0.687,0.80432 2.33835,0.65542 2.82939,1.48905 -0.4687,1.98461 -3.51203,1.15183 -5.11546,1.33725 -2.368345,-0.59893 -3.297333,0.6654 -3.813163,2.46487 -1.935232,2.15182 1.369123,1.31791 2.960698,1.46003 3.255405,-0.0359 7.203835,0.50228 9.673895,-1.81119 2.34302,-1.83094 2.66618,-6.04529 -0.68093,-7.17977 -0.39079,-0.2191 -2.14669,-0.24337 -1.64167,-0.80559 1.5351,-0.43491 4.11662,0.78137 4.37876,-1.20953 0.67426,-1.42902 2.41752,-3.46359 -0.62517,-2.78652 -1.47268,0.005 -2.94564,-0.009 -4.41821,0.005 z m -50.624864,3.92266 c -0.910216,1.8381 -1.702751,4.12701 -2.99113,5.89631 -1.137892,0.26939 0.451497,-1.25306 0.370779,-1.63894 0.912728,-1.30987 1.064595,-3.1618 2.329458,-4.23048 0.09399,-0.0243 0.193185,-0.0307 0.290893,-0.0268 z m -41.408835,1.1182 c -1.435005,2.91571 -2.869213,5.83173 -4.3047245,8.74726 1.7761205,-0.17644 4.1072435,0.36598 5.5330215,-0.26423 0.805567,-1.63594 1.611365,-3.27181 2.417021,-4.90771 1.862385,-0.002 4.131133,0.52319 4.298881,-1.6721 1.400749,-1.84752 1.101592,-2.72616 -1.569294,-2.25336 -2.067572,0 -4.135145,0 -6.202717,0 l -0.129941,0.26423 z m 68.29184,9.2e-4 c -1.426996,2.9154 -2.854712,5.83056 -4.281247,8.74613 1.779118,-0.176 4.112793,0.36539 5.541151,-0.26435 1.441104,-2.94433 2.882549,-5.88855 4.323192,-8.83305 -1.778883,0.17603 -4.112385,-0.36542 -5.540498,0.26436 z m 8.168537,-9.2e-4 c -1.435002,2.91571 -2.869211,5.83173 -4.304722,8.74726 2.960041,0 5.920081,0 8.880125,0 0.147378,-1.15307 2.65275,-3.64951 1.260107,-3.9249 -2.472748,0.81458 -3.80833,-1.26791 -0.855071,-1.24704 2.414756,0.71332 2.770097,-1.23929 3.48296,-2.7292 1.760613,-2.0525 -2.106528,-0.89797 -3.42426,-1.19626 -1.498977,0.2559 -4.0342,-0.5003 -5.039139,0.35014 z m -62.377407,4.82236 c -2.873291,0.93881 2.20454,-4.09725 0.433249,-1.28241 -0.144416,0.42747 -0.288833,0.85494 -0.433249,1.28241 z"
             id="path19"
             inkscape:connector-curvature="0" />
          <path
             d="m 17.375495,269.02942 -2.547332,5.17234 h -3.95241 l 3.911975,-7.95025 h 7.429721 l -1.364642,2.77791 z m 7.136575,-7.47324 -1.364643,2.77791 h -7.42972 l 1.364643,-2.77791 z"
             style="fill:#808080;stroke-width:0.21200331px"
             id="path819"
             inkscape:connector-curvature="0" />
          <path
             d="m 27.352548,261.55618 h 6.499741 q 0.707592,0 1.111931,0.34608 0.414446,0.34606 0.414446,0.94468 0,0.159 -0.02021,0.29929 -0.02022,0.1403 -0.06066,0.27125 l -3.39644,10.78428 H 18.861439 l 7.126466,-7.95025 h 4.07371 l -4.245554,5.17233 h 2.941563 l 2.17332,-6.43502 q 0,-0.01 0.01011,-0.0281 0.03032,-0.12159 0.03032,-0.20577 0,-0.18706 -0.151627,-0.29929 -0.151627,-0.1216 -0.404338,-0.1216 h -4.387073 z"
             style="fill:#808080;stroke-width:0.21200331px"
             id="path821"
             inkscape:connector-curvature="0" />
          <path
             d="m 41.322443,268.44016 3.891758,-5.84576 q 0.374013,-0.55185 0.970413,-0.79503 0.596399,-0.24319 1.617354,-0.24319 h 3.184165 l -1.364643,2.77791 h -0.353795 q -0.768243,0 -1.263558,0.23384 -0.495315,0.22447 -0.85922,0.74826 l -6.37844,8.88557 h -2.072234 l -1.324209,-12.64558 h 3.75024 z"
             style="fill:#808080;stroke-width:0.21200331px"
             id="path823"
             inkscape:connector-curvature="0" />
          <path
             d="m 56.242536,265.17588 q 0.05054,-0.11223 0.06066,-0.16835 0.02021,-0.0655 0.02021,-0.11224 0,-0.25254 -0.212278,-0.40219 -0.212278,-0.15901 -0.576183,-0.15901 -0.464989,0 -0.798567,0.20577 -0.323471,0.19642 -0.525641,0.59862 l -2.648417,5.40617 q -0.04043,0.0748 -0.06066,0.159 -0.02021,0.0841 -0.02021,0.18706 0,0.25253 0.222386,0.39284 0.232495,0.14029 0.646942,0.14029 0.414447,0 0.707593,-0.19641 0.303253,-0.19642 0.515531,-0.60796 z m 4.680218,-1.44039 -4.245554,8.62368 q -0.505423,1.04757 -1.263558,1.44975 -0.758134,0.39284 -2.385597,0.39284 h -4.427507 q -0.899653,0 -1.415185,-0.36477 -0.52564,-0.37414 -0.52564,-1.01015 0,-0.15901 0.06065,-0.35543 0.06066,-0.20577 0.181953,-0.44895 l 4.20512,-8.62369 q 0.515531,-1.03821 1.263557,-1.4404 0.748027,-0.40219 2.375489,-0.40219 h 4.437615 q 0.909762,0 1.435402,0.37413 0.525641,0.37413 0.525641,1.01015 0,0.17772 -0.06066,0.38349 -0.05054,0.19641 -0.161736,0.41154 z"
             style="fill:#808080;stroke-width:0.21200331px"
             id="path825"
             inkscape:connector-curvature="0" />
          <path
             d="m 66.502622,269.77768 q 0.03032,-0.0561 0.04043,-0.1216 0.02022,-0.0655 0.02022,-0.13093 0,-0.24319 -0.212278,-0.41155 -0.202169,-0.17771 -0.515532,-0.17771 h -0.990629 l -2.6282,5.26587 h -3.952409 l 3.871541,-7.85672 h 6.105512 l 0.555965,-1.20656 q 0.03032,-0.0655 0.04043,-0.13095 0.02022,-0.0748 0.02022,-0.14966 0,-0.24317 -0.202169,-0.40218 -0.192061,-0.159 -0.515532,-0.159 h -5.013796 l 1.344425,-2.74051 h 7.1669 q 0.909762,0 1.425293,0.37413 0.515532,0.37413 0.515532,1.02887 0,0.16835 -0.06065,0.36477 -0.05054,0.19641 -0.161736,0.42089 l -2.092451,4.29313 q -0.272929,0.5425 -0.677268,0.76697 -0.404337,0.22448 -1.122038,0.22448 h -0.131406 q 0.353796,0.20577 0.525641,0.49573 0.181952,0.28058 0.181952,0.63601 0,0.16836 -0.06065,0.38349 -0.06065,0.20576 -0.171843,0.42089 l -1.58703,3.23622 h -3.85133 z"
             style="fill:#808080;stroke-width:0.21200331px"
             id="path827"
             inkscape:connector-curvature="0" />
          <path
             d="m 80.87686,261.55618 -6.206596,12.64558 h -3.952409 l 6.206596,-12.64558 z"
             style="fill:#808080;stroke-width:0.21200331px"
             id="path829"
             inkscape:connector-curvature="0" />
          <path
             d="M 91.096516,264.33409 H 80.523063 l 1.364643,-2.77791 h 10.573451 z m -4.053494,1.91742 -3.891759,7.95025 h -3.962517 l 3.891759,-7.95025 z"
             style="fill:#808080;stroke-width:0.21200331px"
             id="path831"
             inkscape:connector-curvature="0" />
          <path
             d="m 100.97249,261.55618 -1.364648,2.77791 h -7.42972 l 1.364642,-2.77791 z m -13.636322,12.64558 3.911975,-7.95025 h 7.42972 l -1.364642,2.77791 H 93.83591 l -1.182691,2.39442 h 3.477312 l -1.364643,2.77792 z"
             style="fill:#808080;stroke-width:0.21200331px"
             id="path833"
             inkscape:connector-curvature="0" />
          <path
             d="m 111.6268,261.55618 -1.38486,2.77791 h -2.94156 q -0.58629,0 -0.92998,0.24319 -0.33358,0.23383 -0.33358,0.63602 0,0.57991 1.51627,0.92597 0.31337,0.0748 0.4751,0.11224 1.08161,0.26188 1.68811,1.05691 0.60651,0.78568 0.60651,1.93613 0,0.8605 -0.39423,1.72099 -0.39422,0.85114 -1.05128,1.4591 -0.61661,0.54249 -1.28378,0.90727 -0.65704,0.35542 -1.57692,0.63602 -0.39422,0.11224 -1.22312,0.1777 -0.82889,0.0561 -1.98126,0.0561 h -5.963994 l 1.364643,-2.77793 h 4.508381 q 0.99063,0 1.5466,-0.10287 0.56606,-0.10288 0.91986,-0.33673 0.46499,-0.30866 0.7177,-0.71083 0.25271,-0.41155 0.25271,-0.82309 0,-0.65473 -1.15236,-0.99144 -0.25271,-0.0748 -0.40434,-0.12159 -1.27366,-0.41155 -1.81952,-1.04758 -0.53575,-0.63601 -0.53575,-1.73034 0,-1.75841 1.17259,-2.8808 1.17257,-1.12239 3.03253,-1.12239 z"
             style="fill:#808080;stroke-width:0.21200331px"
             id="path835"
             inkscape:connector-curvature="0" />
        </g>
      </g>
    </g>
  </g>
</svg>
