<?xml version="1.0" encoding="UTF-8" standalone="no"?>
<!-- Created with Inkscape (http://www.inkscape.org/) -->

<svg
   xmlns:dc="http://purl.org/dc/elements/1.1/"
   xmlns:cc="http://creativecommons.org/ns#"
   xmlns:rdf="http://www.w3.org/1999/02/22-rdf-syntax-ns#"
   xmlns:svg="http://www.w3.org/2000/svg"
   xmlns="http://www.w3.org/2000/svg"
   xmlns:sodipodi="http://sodipodi.sourceforge.net/DTD/sodipodi-0.dtd"
   xmlns:inkscape="http://www.inkscape.org/namespaces/inkscape"
   width="307.24991"
   height="53.612209"
   viewBox="0 0 81.293191 14.184896"
   version="1.1"
   id="svg9136"
   inkscape:version="0.92.4 (5da689c313, 2019-01-14)"
   sodipodi:docname="system2.svg">
  <defs
     id="defs9130" />
  <sodipodi:namedview
     id="base"
     pagecolor="#ffffff"
     bordercolor="#666666"
     borderopacity="1.0"
     inkscape:pageopacity="0.0"
     inkscape:pageshadow="2"
     inkscape:zoom="1.979899"
     inkscape:cx="73.955847"
     inkscape:cy="48.358313"
     inkscape:document-units="px"
     inkscape:current-layer="text4524"
     showgrid="false"
     units="px"
     inkscape:window-width="1704"
     inkscape:window-height="938"
     inkscape:window-x="328"
     inkscape:window-y="201"
     inkscape:window-maximized="0"
     fit-margin-top="0"
     fit-margin-left="0"
     fit-margin-right="0"
     fit-margin-bottom="0"
     inkscape:pagecheckerboard="true"
     showguides="false" />
  <metadata
     id="metadata9133">
    <rdf:RDF>
      <cc:Work
         rdf:about="">
        <dc:format>image/svg+xml</dc:format>
        <dc:type
           rdf:resource="http://purl.org/dc/dcmitype/StillImage" />
        <dc:title></dc:title>
      </cc:Work>
    </rdf:RDF>
  </metadata>
  <g
     inkscape:label="Layer 1"
     inkscape:groupmode="layer"
     id="layer1"
     transform="translate(-15.007203,-269.91291)"
     style="display:inline">
    <g
       aria-label="All Games"
       style="font-style:normal;font-variant:normal;font-weight:normal;font-stretch:normal;font-size:20.44046021px;line-height:12.77528667px;font-family:'namco regular';-inkscape-font-specification:'namco regular, ';letter-spacing:0px;word-spacing:0px;display:inline;fill:#fbe01b;fill-opacity:1;stroke:none;stroke-width:0.51101148px;stroke-linecap:butt;stroke-linejoin:miter;stroke-opacity:1"
       id="text4594">
      <g
         id="g4635"
         transform="matrix(0.81755495,0,0,0.81755495,7.5045189,49.989751)"
         style="display:inline">
        <g
           aria-label="Favorites"
           transform="scale(0.96347383,1.0379109)"
           style="font-style:normal;font-variant:normal;font-weight:normal;font-stretch:normal;font-size:20.82328606px;line-height:1.25;font-family:'Sonic XBd BT';-inkscape-font-specification:'Sonic XBd BT, Normal';font-variant-ligatures:normal;font-variant-caps:normal;font-variant-numeric:normal;font-feature-settings:normal;text-align:start;letter-spacing:0px;word-spacing:0px;writing-mode:lr-tb;text-anchor:start;display:inline;opacity:1;fill:#004455;fill-opacity:1;stroke:none;stroke-width:0.22168611px"
           id="text4524">
          <path
             d="m 16.819615,268.85231 -2.56224,5.6227 h -3.97554 l 3.934869,-8.64248 h 7.473201 l -1.372628,3.01978 z m 7.17834,-8.12393 -1.372629,3.01979 h -7.473201 l 1.372629,-3.01979 z"
             style="fill:#808080;stroke-width:0.22168611px"
             id="path819"
             inkscape:connector-curvature="0" />
          <path
             d="m 26.855056,260.72838 h 6.53778 q 0.711733,0 1.118438,0.37621 0.416872,0.3762 0.416872,1.02693 0,0.17284 -0.02033,0.32536 -0.02034,0.15251 -0.06101,0.29486 l -3.416321,11.72327 h -13.11623 l 7.168172,-8.64248 h 4.097551 l -4.2704,5.62269 h 2.958777 l 2.186039,-6.99532 q 0,-0.0102 0.01017,-0.0305 0.0305,-0.13218 0.0305,-0.22369 0,-0.20335 -0.152514,-0.32536 -0.152515,-0.13218 -0.406705,-0.13218 h -4.412747 z"
             style="fill:#808080;stroke-width:0.22168611px"
             id="path821"
             inkscape:connector-curvature="0" />
          <path
             d="m 40.906707,268.21175 3.914534,-6.35476 q 0.376202,-0.59989 0.976092,-0.86425 0.599889,-0.26436 1.626819,-0.26436 h 3.2028 l -1.372629,3.01979 h -0.355866 q -0.772739,0 -1.270953,0.25419 -0.498213,0.24402 -0.864248,0.81341 l -6.415768,9.65924 h -2.084362 l -1.331958,-13.74663 h 3.772187 z"
             style="fill:#808080;stroke-width:0.22168611px"
             id="path823"
             inkscape:connector-curvature="0" />
          <path
             d="m 55.914117,264.66325 q 0.05084,-0.12201 0.06101,-0.18301 0.02033,-0.0712 0.02033,-0.12202 0,-0.27452 -0.21352,-0.4372 -0.21352,-0.17285 -0.579555,-0.17285 -0.46771,0 -0.803241,0.22368 -0.325364,0.21352 -0.528717,0.65073 l -2.663916,5.87689 q -0.04067,0.0813 -0.06101,0.17285 -0.02033,0.0915 -0.02033,0.20335 0,0.27452 0.223687,0.42704 0.233856,0.15251 0.650728,0.15251 0.416873,0 0.711734,-0.21352 0.305028,-0.21352 0.518548,-0.66089 z m 4.707608,-1.56581 -4.2704,9.37454 q -0.508381,1.13878 -1.270953,1.57599 -0.762571,0.42704 -2.399558,0.42704 h -4.453418 q -0.904918,0 -1.423467,-0.39654 -0.528716,-0.40671 -0.528716,-1.0981 0,-0.17285 0.06101,-0.38637 0.06101,-0.22369 0.183017,-0.48805 l 4.22973,-9.37455 q 0.518548,-1.1286 1.270952,-1.56581 0.752404,-0.43721 2.389391,-0.43721 h 4.463585 q 0.915086,0 1.443802,0.40671 0.528717,0.4067 0.528717,1.0981 0,0.19319 -0.06101,0.41687 -0.05084,0.21352 -0.162682,0.44738 z"
             style="fill:#808080;stroke-width:0.22168611px"
             id="path825"
             inkscape:connector-curvature="0" />
          <path
             d="m 66.234248,269.66572 q 0.0305,-0.061 0.04067,-0.13218 0.02034,-0.0712 0.02034,-0.14234 0,-0.26436 -0.21352,-0.44738 -0.203353,-0.19318 -0.518549,-0.19318 h -0.996427 l -2.643581,5.72437 h -3.97554 l 3.894199,-8.5408 h 6.141243 l 0.559219,-1.31163 q 0.0305,-0.0712 0.04067,-0.14234 0.02034,-0.0813 0.02034,-0.16269 0,-0.26435 -0.203352,-0.4372 -0.193185,-0.17285 -0.518549,-0.17285 h -5.043139 l 1.352293,-2.97912 h 7.208843 q 0.915086,0 1.433634,0.40671 0.518549,0.4067 0.518549,1.11844 0,0.18301 -0.06101,0.39653 -0.05084,0.21352 -0.162682,0.45755 l -2.104697,4.66693 q -0.274526,0.58973 -0.681231,0.83375 -0.406704,0.24402 -1.128605,0.24402 h -0.13218 q 0.355867,0.22369 0.528717,0.53889 0.183017,0.30502 0.183017,0.69139 0,0.18302 -0.06101,0.41688 -0.06101,0.22368 -0.172849,0.45754 l -1.596317,3.518 H 64.08888 Z"
             style="fill:#808080;stroke-width:0.22168611px"
             id="path827"
             inkscape:connector-curvature="0" />
          <path
             d="m 80.692608,260.72838 -6.242919,13.74663 H 70.47415 l 6.242918,-13.74663 z"
             style="fill:#808080;stroke-width:0.22168611px"
             id="path829"
             inkscape:connector-curvature="0" />
          <path
             d="M 90.972072,263.74817 H 80.336741 l 1.372629,-3.01979 H 92.3447 Z m -4.077216,2.08436 -3.914534,8.64248 h -3.985707 l 3.914534,-8.64248 z"
             style="fill:#808080;stroke-width:0.22168611px"
             id="path831"
             inkscape:connector-curvature="0" />
          <path
             d="m 100.90584,260.72838 -1.372631,3.01979 h -7.473201 l 1.372629,-3.01979 z m -13.716122,13.74663 3.934869,-8.64248 h 7.473201 l -1.372629,3.01978 h -3.497661 l -1.189612,2.60291 h 3.497662 l -1.372629,3.01979 z"
             style="fill:#808080;stroke-width:0.22168611px"
             id="path833"
             inkscape:connector-curvature="0" />
          <path
             d="m 111.6225,260.72838 -1.39296,3.01979 h -2.95878 q -0.58972,0 -0.93542,0.26435 -0.33553,0.2542 -0.33553,0.6914 0,0.6304 1.52514,1.0066 0.3152,0.0813 0.47788,0.12201 1.08794,0.28469 1.69799,1.14894 0.61006,0.85408 0.61006,2.1047 0,0.93542 -0.39654,1.87084 -0.39653,0.92525 -1.05743,1.58615 -0.62022,0.58972 -1.29129,0.98626 -0.66089,0.38637 -1.58615,0.6914 -0.39653,0.12201 -1.23028,0.19318 -0.83374,0.061 -1.99285,0.061 h -5.998897 l 1.372629,-3.01979 h 4.534758 q 0.99643,0 1.55565,-0.11184 0.56938,-0.11184 0.92525,-0.36604 0.46771,-0.33553 0.7219,-0.77273 0.25419,-0.44738 0.25419,-0.89475 0,-0.71174 -1.15911,-1.07777 -0.25419,-0.0813 -0.4067,-0.13218 -1.28112,-0.44738 -1.83017,-1.13878 -0.53889,-0.69139 -0.53889,-1.881 0,-1.91152 1.17945,-3.13163 1.17944,-1.22012 3.05028,-1.22012 z"
             style="fill:#808080;stroke-width:0.22168611px"
             id="path835"
             inkscape:connector-curvature="0" />
        </g>
      </g>
    </g>
  </g>
</svg>
