<?xml version="1.0" encoding="UTF-8" standalone="no"?>
<!-- Created with Inkscape (http://www.inkscape.org/) -->

<svg
   xmlns:dc="http://purl.org/dc/elements/1.1/"
   xmlns:cc="http://creativecommons.org/ns#"
   xmlns:rdf="http://www.w3.org/1999/02/22-rdf-syntax-ns#"
   xmlns:svg="http://www.w3.org/2000/svg"
   xmlns="http://www.w3.org/2000/svg"
   xmlns:sodipodi="http://sodipodi.sourceforge.net/DTD/sodipodi-0.dtd"
   xmlns:inkscape="http://www.inkscape.org/namespaces/inkscape"
   width="307.24991"
   height="53.612209"
   viewBox="0 0 81.293191 14.184896"
   version="1.1"
   id="svg9136"
   inkscape:version="0.92.4 (5da689c313, 2019-01-14)"
   sodipodi:docname="favorites2.svg">
  <defs
     id="defs9130" />
  <sodipodi:namedview
     id="base"
     pagecolor="#ffffff"
     bordercolor="#666666"
     borderopacity="1.0"
     inkscape:pageopacity="0.0"
     inkscape:pageshadow="2"
     inkscape:zoom="2.8"
     inkscape:cx="150.88732"
     inkscape:cy="48.358313"
     inkscape:document-units="px"
     inkscape:current-layer="text4524"
     showgrid="false"
     units="px"
     inkscape:window-width="1704"
     inkscape:window-height="938"
     inkscape:window-x="755"
     inkscape:window-y="322"
     inkscape:window-maximized="0"
     fit-margin-top="0"
     fit-margin-left="0"
     fit-margin-right="0"
     fit-margin-bottom="0"
     inkscape:pagecheckerboard="true"
     showguides="false" />
  <metadata
     id="metadata9133">
    <rdf:RDF>
      <cc:Work
         rdf:about="">
        <dc:format>image/svg+xml</dc:format>
        <dc:type
           rdf:resource="http://purl.org/dc/dcmitype/StillImage" />
        <dc:title></dc:title>
      </cc:Work>
    </rdf:RDF>
  </metadata>
  <g
     inkscape:label="Layer 1"
     inkscape:groupmode="layer"
     id="layer1"
     transform="translate(-15.007203,-269.91291)"
     style="display:inline">
    <g
       aria-label="All Games"
       style="font-style:normal;font-variant:normal;font-weight:normal;font-stretch:normal;font-size:20.44046021px;line-height:12.77528667px;font-family:'namco regular';-inkscape-font-specification:'namco regular, ';letter-spacing:0px;word-spacing:0px;display:inline;fill:#fbe01b;fill-opacity:1;stroke:none;stroke-width:0.51101148px;stroke-linecap:butt;stroke-linejoin:miter;stroke-opacity:1"
       id="text4594">
      <g
         id="g4635"
         transform="matrix(0.81755495,0,0,0.81755495,7.5045189,49.989751)"
         style="display:inline">
        <g
           aria-label="Favorites"
           transform="scale(0.96347383,1.0379109)"
           style="font-style:normal;font-variant:normal;font-weight:normal;font-stretch:normal;font-size:20.82328606px;line-height:1.25;font-family:'Sonic XBd BT';-inkscape-font-specification:'Sonic XBd BT, Normal';font-variant-ligatures:normal;font-variant-caps:normal;font-variant-numeric:normal;font-feature-settings:normal;text-align:start;letter-spacing:0px;word-spacing:0px;writing-mode:lr-tb;text-anchor:start;display:inline;opacity:1;fill:#004455;fill-opacity:1;stroke:none;stroke-width:0.22168611px"
           id="text4524">
          <path
             style="fill:#000000;stroke-width:0.22168611px"
             d="m 15.906265,260.48606 c -0.03113,1.16002 -2.96023,4.10392 -0.754456,3.88601 2.639719,0 5.279437,0 7.919155,0 0.148227,-1.25361 2.668229,-3.96779 1.267485,-4.26724 -2.752996,0 -5.505992,0 -8.258988,0 l -0.130523,0.2873 z m 10.326851,0.006 c -0.245259,1.43821 -3.148673,4.53259 -0.03805,3.87992 2.068033,-0.55081 5.392741,0.7533 1.64668,0.83677 -2.332902,-0.60077 -3.62879,0.75429 -4.735551,2.46647 -2.052512,2.47433 -4.104773,4.94884 -6.157469,7.42304 4.998648,0 9.997296,0 14.995944,0 1.148857,-4.34101 2.723497,-8.61505 3.654843,-12.99053 0.09847,-1.88705 -2.334983,-2.31425 -3.886428,-2.00299 -1.669752,0.28244 -4.306067,-0.55226 -5.479968,0.38732 z m 10.029005,0.29232 c 0.462336,4.77129 0.924352,9.5426 1.386885,14.31388 1.94875,0.21164 3.756508,0.18926 4.328176,-1.88903 2.066413,-2.82417 3.656232,-6.03864 5.973088,-8.65942 2.108631,-0.90624 0.75082,1.12944 0.291693,2.12297 -0.696861,2.22003 -2.471258,4.22482 -2.623285,6.56377 0.319501,2.33118 3.537179,1.89779 5.295617,1.86171 2.112612,0.11578 5.055942,0.16375 5.919522,-2.09922 1.457647,-3.56777 3.504708,-6.97499 4.678277,-10.62396 0.200412,-2.12642 -2.611922,-2.57446 -4.318763,-2.27034 -1.920193,0.16529 -4.281032,-0.4504 -5.920177,0.80509 0.882551,-1.6044 -2.712721,-0.45151 -3.861497,-0.80509 -2.245946,-0.26143 -3.601668,1.65937 -4.340854,3.33761 -1.286434,2.64216 -1.87983,2.73307 -1.628837,-0.28442 0.429513,-2.40672 -0.317394,-3.6948 -3.089676,-3.05319 -0.641166,0.2614 -2.711728,-0.61297 -2.090169,0.67964 z m 27.309308,-0.29841 c -0.031,1.15003 -2.930977,4.06795 -0.733461,3.84521 1.630946,0.0719 3.611113,-0.12922 5.074531,0.0743 -0.628067,1.9131 -3.730763,0.44677 -5.424206,0.90497 -2.13907,-0.24024 -1.887567,2.8688 -2.966957,4.11349 -0.862348,1.89145 -1.725078,3.78275 -2.587143,5.67432 1.786526,-0.1916 4.127601,0.39731 5.564332,-0.28662 0.836929,-1.81248 1.673984,-3.6249 2.510961,-5.43735 1.581451,-0.32697 -0.439326,1.54522 -0.303916,2.08844 -0.479136,1.5897 -2.965617,4.42519 0.391171,3.63553 2.062641,0.19331 4.042566,0.27047 4.267939,-2.10536 0.574971,-1.10357 1.324078,-2.54682 1.032274,-3.71057 2.025658,-1.14558 2.002726,-3.84454 3.192146,-5.58162 1.048367,-1.44005 0.07784,-3.68123 -1.947626,-3.58988 -2.632075,-0.0151 -5.264607,-0.001 -7.896847,-0.006 l -0.130523,0.2873 z m 12.52658,0 c -2.211889,4.8708 -4.42449,9.74131 -6.635926,14.61229 1.786261,-0.19173 4.131007,0.39782 5.56457,-0.28731 1.580239,-3.47964 3.160417,-6.95931 4.740633,-10.43897 6.737174,0 13.474349,0 20.211527,0 0.148227,-1.25361 2.668227,-3.96779 1.267487,-4.26724 -8.325033,0 -16.650065,0 -24.975093,0 l -0.130526,0.2873 z m 30.072581,-0.37636 c -3.91646,-0.059 -6.183816,5.07694 -3.5689,7.64962 0.69102,0.87436 2.35203,0.71249 2.84594,1.61871 -0.47144,2.1574 -3.53258,1.25212 -5.14539,1.45368 -2.382204,-0.65109 -3.316628,0.72333 -3.835477,2.67948 -1.946558,2.33918 1.377135,1.43267 2.978025,1.58716 3.274452,-0.039 7.245992,0.54601 9.730502,-1.96889 2.35673,-1.99036 2.68179,-6.57165 -0.68491,-7.80491 -0.39308,-0.23818 -2.15926,-0.26457 -1.65128,-0.87574 1.54408,-0.47277 4.14071,0.84941 4.40439,-1.31485 0.6782,-1.55343 2.43166,-3.76516 -0.62883,-3.02913 -1.4813,0.005 -2.96288,-0.009 -4.44407,0.005 z m -50.92113,4.2642 c -0.915543,1.99814 -1.712716,4.48635 -3.008635,6.4097 -1.144551,0.29284 0.454139,-1.36216 0.372949,-1.78164 0.918069,-1.42392 1.070825,-3.43709 2.34309,-4.59883 0.09454,-0.0265 0.194316,-0.0334 0.292596,-0.0292 z m -41.651172,1.21556 c -1.443403,3.16959 -2.886004,6.3395 -4.3299168,9.50889 1.7865148,-0.1918 4.1312808,0.39784 5.5654028,-0.28724 0.810281,-1.77838 1.620795,-3.55668 2.431166,-5.33503 1.873284,-0.002 4.15531,0.56875 4.324039,-1.81768 1.408947,-2.00839 1.108039,-2.96353 -1.578478,-2.44956 -2.079672,0 -4.159345,0 -6.239017,0 l -0.130701,0.28723 z m 68.691504,0.001 c -1.435347,3.16925 -2.871419,6.33823 -4.306302,9.50766 1.78953,-0.19132 4.136862,0.39721 5.573579,-0.28737 1.449538,-3.20069 2.899419,-6.40126 4.348493,-9.60214 -1.789294,0.19135 -4.136452,-0.39724 -5.572923,0.28738 z m 8.216342,-0.001 c -1.443401,3.16959 -2.886003,6.3395 -4.329915,9.50889 2.977364,0 5.954727,0 8.932094,0 0.148241,-1.25347 2.668275,-3.96727 1.267482,-4.26664 -2.48722,0.88551 -3.830618,-1.37831 -0.860076,-1.35563 2.428888,0.77544 2.786309,-1.34719 3.503344,-2.96683 1.770907,-2.23121 -2.118856,-0.97615 -3.4443,-1.30041 -1.507749,0.27818 -4.057809,-0.54386 -5.068629,0.38062 z m -62.742458,5.24225 c -2.890106,1.02055 2.217442,-4.454 0.435785,-1.39408 -0.145262,0.4647 -0.290524,0.92939 -0.435785,1.39408 z"
             id="path19"
             inkscape:connector-curvature="0" />
          <path
             d="m 16.819615,268.85231 -2.56224,5.6227 h -3.97554 l 3.934869,-8.64248 h 7.473201 l -1.372628,3.01978 z m 7.17834,-8.12393 -1.372629,3.01979 h -7.473201 l 1.372629,-3.01979 z"
             style="fill:#808080;stroke-width:0.22168611px"
             id="path819"
             inkscape:connector-curvature="0" />
          <path
             d="m 26.855056,260.72838 h 6.53778 q 0.711733,0 1.118438,0.37621 0.416872,0.3762 0.416872,1.02693 0,0.17284 -0.02033,0.32536 -0.02034,0.15251 -0.06101,0.29486 l -3.416321,11.72327 h -13.11623 l 7.168172,-8.64248 h 4.097551 l -4.2704,5.62269 h 2.958777 l 2.186039,-6.99532 q 0,-0.0102 0.01017,-0.0305 0.0305,-0.13218 0.0305,-0.22369 0,-0.20335 -0.152514,-0.32536 -0.152515,-0.13218 -0.406705,-0.13218 h -4.412747 z"
             style="fill:#808080;stroke-width:0.22168611px"
             id="path821"
             inkscape:connector-curvature="0" />
          <path
             d="m 40.906707,268.21175 3.914534,-6.35476 q 0.376202,-0.59989 0.976092,-0.86425 0.599889,-0.26436 1.626819,-0.26436 h 3.2028 l -1.372629,3.01979 h -0.355866 q -0.772739,0 -1.270953,0.25419 -0.498213,0.24402 -0.864248,0.81341 l -6.415768,9.65924 h -2.084362 l -1.331958,-13.74663 h 3.772187 z"
             style="fill:#808080;stroke-width:0.22168611px"
             id="path823"
             inkscape:connector-curvature="0" />
          <path
             d="m 55.914117,264.66325 q 0.05084,-0.12201 0.06101,-0.18301 0.02033,-0.0712 0.02033,-0.12202 0,-0.27452 -0.21352,-0.4372 -0.21352,-0.17285 -0.579555,-0.17285 -0.46771,0 -0.803241,0.22368 -0.325364,0.21352 -0.528717,0.65073 l -2.663916,5.87689 q -0.04067,0.0813 -0.06101,0.17285 -0.02033,0.0915 -0.02033,0.20335 0,0.27452 0.223687,0.42704 0.233856,0.15251 0.650728,0.15251 0.416873,0 0.711734,-0.21352 0.305028,-0.21352 0.518548,-0.66089 z m 4.707608,-1.56581 -4.2704,9.37454 q -0.508381,1.13878 -1.270953,1.57599 -0.762571,0.42704 -2.399558,0.42704 h -4.453418 q -0.904918,0 -1.423467,-0.39654 -0.528716,-0.40671 -0.528716,-1.0981 0,-0.17285 0.06101,-0.38637 0.06101,-0.22369 0.183017,-0.48805 l 4.22973,-9.37455 q 0.518548,-1.1286 1.270952,-1.56581 0.752404,-0.43721 2.389391,-0.43721 h 4.463585 q 0.915086,0 1.443802,0.40671 0.528717,0.4067 0.528717,1.0981 0,0.19319 -0.06101,0.41687 -0.05084,0.21352 -0.162682,0.44738 z"
             style="fill:#808080;stroke-width:0.22168611px"
             id="path825"
             inkscape:connector-curvature="0" />
          <path
             d="m 66.234248,269.66572 q 0.0305,-0.061 0.04067,-0.13218 0.02034,-0.0712 0.02034,-0.14234 0,-0.26436 -0.21352,-0.44738 -0.203353,-0.19318 -0.518549,-0.19318 h -0.996427 l -2.643581,5.72437 h -3.97554 l 3.894199,-8.5408 h 6.141243 l 0.559219,-1.31163 q 0.0305,-0.0712 0.04067,-0.14234 0.02034,-0.0813 0.02034,-0.16269 0,-0.26435 -0.203352,-0.4372 -0.193185,-0.17285 -0.518549,-0.17285 h -5.043139 l 1.352293,-2.97912 h 7.208843 q 0.915086,0 1.433634,0.40671 0.518549,0.4067 0.518549,1.11844 0,0.18301 -0.06101,0.39653 -0.05084,0.21352 -0.162682,0.45755 l -2.104697,4.66693 q -0.274526,0.58973 -0.681231,0.83375 -0.406704,0.24402 -1.128605,0.24402 h -0.13218 q 0.355867,0.22369 0.528717,0.53889 0.183017,0.30502 0.183017,0.69139 0,0.18302 -0.06101,0.41688 -0.06101,0.22368 -0.172849,0.45754 l -1.596317,3.518 H 64.08888 Z"
             style="fill:#808080;stroke-width:0.22168611px"
             id="path827"
             inkscape:connector-curvature="0" />
          <path
             d="m 80.692608,260.72838 -6.242919,13.74663 H 70.47415 l 6.242918,-13.74663 z"
             style="fill:#808080;stroke-width:0.22168611px"
             id="path829"
             inkscape:connector-curvature="0" />
          <path
             d="M 90.972072,263.74817 H 80.336741 l 1.372629,-3.01979 H 92.3447 Z m -4.077216,2.08436 -3.914534,8.64248 h -3.985707 l 3.914534,-8.64248 z"
             style="fill:#808080;stroke-width:0.22168611px"
             id="path831"
             inkscape:connector-curvature="0" />
          <path
             d="m 100.90584,260.72838 -1.372631,3.01979 h -7.473201 l 1.372629,-3.01979 z m -13.716122,13.74663 3.934869,-8.64248 h 7.473201 l -1.372629,3.01978 h -3.497661 l -1.189612,2.60291 h 3.497662 l -1.372629,3.01979 z"
             style="fill:#808080;stroke-width:0.22168611px"
             id="path833"
             inkscape:connector-curvature="0" />
          <path
             d="m 111.6225,260.72838 -1.39296,3.01979 h -2.95878 q -0.58972,0 -0.93542,0.26435 -0.33553,0.2542 -0.33553,0.6914 0,0.6304 1.52514,1.0066 0.3152,0.0813 0.47788,0.12201 1.08794,0.28469 1.69799,1.14894 0.61006,0.85408 0.61006,2.1047 0,0.93542 -0.39654,1.87084 -0.39653,0.92525 -1.05743,1.58615 -0.62022,0.58972 -1.29129,0.98626 -0.66089,0.38637 -1.58615,0.6914 -0.39653,0.12201 -1.23028,0.19318 -0.83374,0.061 -1.99285,0.061 h -5.998897 l 1.372629,-3.01979 h 4.534758 q 0.99643,0 1.55565,-0.11184 0.56938,-0.11184 0.92525,-0.36604 0.46771,-0.33553 0.7219,-0.77273 0.25419,-0.44738 0.25419,-0.89475 0,-0.71174 -1.15911,-1.07777 -0.25419,-0.0813 -0.4067,-0.13218 -1.28112,-0.44738 -1.83017,-1.13878 -0.53889,-0.69139 -0.53889,-1.881 0,-1.91152 1.17945,-3.13163 1.17944,-1.22012 3.05028,-1.22012 z"
             style="fill:#808080;stroke-width:0.22168611px"
             id="path835"
             inkscape:connector-curvature="0" />
        </g>
      </g>
    </g>
  </g>
</svg>
