<?xml version="1.0" encoding="UTF-8" standalone="no"?>
<!-- Generator: Adobe Illustrator 13.0.0, SVG Export Plug-In . SVG Version: 6.00 Build 14948)  -->

<svg
   xmlns:dc="http://purl.org/dc/elements/1.1/"
   xmlns:cc="http://creativecommons.org/ns#"
   xmlns:rdf="http://www.w3.org/1999/02/22-rdf-syntax-ns#"
   xmlns:svg="http://www.w3.org/2000/svg"
   xmlns="http://www.w3.org/2000/svg"
   xmlns:sodipodi="http://sodipodi.sourceforge.net/DTD/sodipodi-0.dtd"
   xmlns:inkscape="http://www.inkscape.org/namespaces/inkscape"
   version="1.1"
   id="Layer_1"
   x="0px"
   y="0px"
   width="300.29501"
   height="146.395"
   viewBox="169.102 12.001 300.29502 146.39501"
   enable-background="new 169.102 12.001 246.295 124.395"
   xml:space="preserve"
   sodipodi:docname="ports.svg"
   inkscape:version="0.92.4 (5da689c313, 2019-01-14)"><metadata
   id="metadata101"><rdf:RDF><cc:Work
       rdf:about=""><dc:format>image/svg+xml</dc:format><dc:type
         rdf:resource="http://purl.org/dc/dcmitype/StillImage" /><dc:title></dc:title></cc:Work></rdf:RDF></metadata><defs
   id="defs99" /><sodipodi:namedview
   pagecolor="#ffffff"
   bordercolor="#666666"
   borderopacity="1"
   objecttolerance="10"
   gridtolerance="10"
   guidetolerance="10"
   inkscape:pageopacity="0"
   inkscape:pageshadow="2"
   inkscape:window-width="1237"
   inkscape:window-height="701"
   id="namedview97"
   showgrid="false"
   inkscape:zoom="1.1652693"
   inkscape:cx="-5.1490234"
   inkscape:cy="62.197498"
   inkscape:window-x="0"
   inkscape:window-y="0"
   inkscape:window-maximized="0"
   inkscape:current-layer="Layer_1" />
<linearGradient
   id="SVGID_1_"
   gradientUnits="userSpaceOnUse"
   x1="-458.33011"
   y1="157.1563"
   x2="-458.33011"
   y2="230.7196"
   gradientTransform="matrix(1,0,0,-1,679.74512,260.97439)">
	<stop
   offset="0"
   style="stop-color:#9B9B9B"
   id="stop2" />
	<stop
   offset="1"
   style="stop-color:#5B5C60"
   id="stop4" />
</linearGradient>
<path
   d="m 199.97812,142.99964 1.17,-2.779 V 32.959537 l -2.926,-3.659 h 36.438 l 9.95,6 v 49.898 l -27.071,15.071023 v 25.46208 h 3.659 z m 17.267,-61.020103 11.707,-7.023 v -28.389 h -11.707 z"
   id="path7"
   inkscape:connector-curvature="0"
   style="fill:url(#SVGID_1_)" />
<linearGradient
   id="SVGID_2_"
   gradientUnits="userSpaceOnUse"
   x1="-408.3584"
   y1="157.1563"
   x2="-408.3584"
   y2="230.7195"
   gradientTransform="matrix(1,0,0,-1,679.74512,260.97439)">
	<stop
   offset="0"
   style="stop-color:#9B9B9B"
   id="stop9" />
	<stop
   offset="1"
   style="stop-color:#5B5C60"
   id="stop11" />
</linearGradient>
<path
   d="m 286.89712,29.300537 6.439,7.463 v 85.166103 l -23.852,20.192 -20.047,-18.585 V 37.348537 l 6.146,-8.048 z m -20.925,15.804 v 65.848113 l 9.805,8.63399 V 45.103537 Z"
   id="path14"
   inkscape:connector-curvature="0"
   style="fill:url(#SVGID_2_)" />
<linearGradient
   id="SVGID_3_"
   gradientUnits="userSpaceOnUse"
   x1="-360.36331"
   y1="157.1563"
   x2="-360.36331"
   y2="230.7198"
   gradientTransform="matrix(1,0,0,-1,679.74512,260.97439)">
	<stop
   offset="0"
   style="stop-color:#9B9B9B"
   id="stop16" />
	<stop
   offset="1"
   style="stop-color:#5B5C60"
   id="stop18" />
</linearGradient>
<path
   d="M 298.60212,140.51264 V 32.959537 l -2.926,-3.659 h 36.436 l 9.95,6 v 30.876 l -15.364,8.78 15.364,8.193 v 28.242123 l 1.025,0.87899 -16.975,12.43699 V 90.027537 l -11.12,-5.854 v 44.046103 l 2.195,3.22 -20.196,14.926 z m 16.096,-74.629103 11.706,-7.024 v -12.292 h -11.706 z"
   id="path21"
   inkscape:connector-curvature="0"
   style="fill:url(#SVGID_3_)" />
<linearGradient
   id="SVGID_4_"
   gradientUnits="userSpaceOnUse"
   x1="-310.68549"
   y1="157.1563"
   x2="-310.68549"
   y2="230.7196"
   gradientTransform="matrix(1,0,0,-1,679.74512,260.97439)">
	<stop
   offset="0"
   style="stop-color:#9B9B9B"
   id="stop23" />
	<stop
   offset="1"
   style="stop-color:#5B5C60"
   id="stop25" />
</linearGradient>
<path
   d="m 360.35312,46.567537 h -13.024 v -13.609 l -2.926,-3.659 h 49.313 l -2.926,3.659 v 13.609 h -14.196 v 83.553103 l 2.342,3.513 -20.341,14.633 1.756,-7.902 V 46.567537 Z"
   id="path28"
   inkscape:connector-curvature="0"
   style="fill:url(#SVGID_4_)" />
<linearGradient
   id="SVGID_5_"
   gradientUnits="userSpaceOnUse"
   x1="-263.42239"
   y1="157.1563"
   x2="-263.42239"
   y2="230.7195"
   gradientTransform="matrix(1,0,0,-1,679.74512,260.97439)">
	<stop
   offset="0"
   style="stop-color:#9B9B9B"
   id="stop30" />
	<stop
   offset="1"
   style="stop-color:#5B5C60"
   id="stop32" />
</linearGradient>
<path
   d="m 429.56512,29.300537 9.951,6 v 14.78 h -17.56 v -3.512 h -9.805 v 21.803 l 27.364,14.778 v 24.146103 l -44.632,35.704 1.172,-2.779 V 92.222537 h 16.096 v 10.390073 l 9.805,-7.170073 v -6 l -25.899,-14.634 v -41.849 l -2.928,-3.659 z"
   id="path35"
   inkscape:connector-curvature="0"
   style="fill:url(#SVGID_5_)" />
<linearGradient
   id="SVGID_6_"
   gradientUnits="userSpaceOnUse"
   x1="-457.4707"
   y1="112.8584"
   x2="-457.4707"
   y2="189.39571"
   gradientTransform="matrix(1,0,0,-1,679.74512,260.97439)">
	<stop
   offset="0"
   style="stop-color:#F9DA55"
   id="stop37" />
	<stop
   offset="1"
   style="stop-color:#E04305"
   id="stop39" />
</linearGradient>
<path
   d="m 244.59012,75.454537 v 9.688 l -27.072,15.071023 v 25.46108 h 3.659 l -21.218,17.268 1.171,-2.779 v -39.82808"
   id="path42"
   inkscape:connector-curvature="0"
   style="fill:url(#SVGID_6_)" />
<linearGradient
   id="SVGID_7_"
   gradientUnits="userSpaceOnUse"
   x1="-408.3779"
   y1="112.8594"
   x2="-408.3779"
   y2="189.3956"
   gradientTransform="matrix(1,0,0,-1,679.74512,260.97439)">
	<stop
   offset="0"
   style="stop-color:#F9DA55"
   id="stop44" />
	<stop
   offset="1"
   style="stop-color:#E04305"
   id="stop46" />
</linearGradient>
<path
   d="m 293.31712,99.253546 v 22.616094 l -23.852,20.193 -20.047,-18.585 V 75.003537 l 16.535,9.014 v 26.877113 l 9.804,8.63399 V 89.609537 Z"
   id="path49"
   inkscape:connector-curvature="0"
   style="fill:url(#SVGID_7_)" />
<linearGradient
   id="SVGID_8_"
   gradientUnits="userSpaceOnUse"
   x1="-359.7236"
   y1="112.8584"
   x2="-359.7236"
   y2="189.39841"
   gradientTransform="matrix(1,0,0,-1,679.74512,260.97439)">
	<stop
   offset="0"
   style="stop-color:#F9DA55"
   id="stop51" />
	<stop
   offset="1"
   style="stop-color:#E04305"
   id="stop53" />
</linearGradient>
<path
   d="m 314.97212,92.041537 v 36.121103 l 2.195,3.219 -20.193,14.927 1.609,-5.853 V 99.794556 m 39.232,-18.957019 4.229,2.256 v 28.241123 l 1.025,0.87799 -16.976,12.43799 V 89.970537 l -3.292,-1.732"
   id="path56"
   inkscape:connector-curvature="0"
   style="fill:url(#SVGID_8_)" />
<linearGradient
   id="SVGID_9_"
   gradientUnits="userSpaceOnUse"
   x1="-310.99661"
   y1="112.8594"
   x2="-310.99661"
   y2="189.396"
   gradientTransform="matrix(1,0,0,-1,679.74512,260.97439)">
	<stop
   offset="0"
   style="stop-color:#F9DA55"
   id="stop58" />
	<stop
   offset="1"
   style="stop-color:#E04305"
   id="stop60" />
</linearGradient>
<path
   d="m 376.57812,89.337537 v 40.727103 l 2.341,3.512 -20.34,14.633 1.756,-7.902 V 79.151537"
   id="path63"
   inkscape:connector-curvature="0"
   style="fill:url(#SVGID_9_)" />
<linearGradient
   id="SVGID_10_"
   gradientUnits="userSpaceOnUse"
   x1="-262.5625"
   y1="112.8584"
   x2="-262.5625"
   y2="189.397"
   gradientTransform="matrix(1,0,0,-1,679.74512,260.97439)">
	<stop
   offset="0"
   style="stop-color:#F9DA55"
   id="stop65" />
	<stop
   offset="1"
   style="stop-color:#E04305"
   id="stop67" />
</linearGradient>
<path
   d="m 429.63912,77.767537 9.859,5.326 v 24.145103 l -44.632,35.704 1.171,-2.779 V 92.165537 h 16.096 v 10.391073 l 9.805,-7.171073 v -5.999 l -8.329,-4.708"
   id="path70"
   inkscape:connector-curvature="0"
   style="fill:url(#SVGID_10_)" />
<polygon
   points="176.986,85.834 175.901,83.96 217.281,60.023 218.364,61.898 "
   id="polygon72"
   style="fill:#542209"
   transform="translate(25.745122,15.134537)" />
<polygon
   points="239.693,69.834 224.338,61.506 225.372,59.604 240.721,67.934 "
   id="polygon74"
   style="fill:#542209"
   transform="translate(25.745122,15.134537)" />
<polygon
   points="266.36,85.018 250.54,75.686 251.64,73.821 267.461,83.153 "
   id="polygon76"
   style="fill:#542209"
   transform="translate(25.745122,15.134537)" />
<polygon
   points="273.89,85.727 272.914,83.797 288.465,75.953 289.441,77.885 "
   id="polygon78"
   style="fill:#542209"
   transform="translate(25.745122,15.134537)" />
<polygon
   points="298.246,73.549 297.238,71.634 309.542,65.143 310.551,67.059 "
   id="polygon80"
   style="fill:#542209"
   transform="translate(25.745122,15.134537)" />
<polygon
   points="348.532,74.035 335.008,65.109 336.201,63.305 349.724,72.229 "
   id="polygon82"
   style="fill:#542209"
   transform="translate(25.745122,15.134537)" />
<polygon
   points="388.793,70.195 387.895,68.225 401.821,61.869 402.721,63.839 "
   id="polygon84"
   style="fill:#542209"
   transform="translate(25.745122,15.134537)" />
<path
   d="M 199.52312,139.35164 V 32.986537 l -4.677,-5.849 h 40.263 l 11.12,6.705 v 51.77 l -27.071,15.070023 v 22.88608 h 6.599 l -24.756,20.146 -5.048,4.107 z m 1.949,3.735 -1.496,-0.629 z m 1.298,-111.240103 V 138.09064 l 13.857,-11.277 h -0.714 V 98.775546 l 27.068,-15.072009 v -48.03 l -8.775,-5.291 -32.612,-0.002 z m 12.85,12.558 h 14.953 v 30.929 l -12.496,7.495 -0.835,-1.391 0.835,1.391 -2.458,1.479 v -39.903 z m 3.245,34.167 8.46,-5.075 v -25.847 l -8.46,-0.002 z"
   id="path86"
   inkscape:connector-curvature="0" />
<path
   d="M 247.81212,123.70164 V 36.258537 l 6.965,-9.121 h 32.118 v 1.622 -1.622 h 0.741 l 7.321,8.48 v 86.520103 l -25.525,21.61 z m 3.245,-86.344103 v 84.932103 l 18.474,17.124 22.18,-18.776 V 36.823537 l -5.56,-6.442 h -29.767 z m 13.291,73.786123 v -66.580123 -1.623 h 13.049 v 79.700103 z m 3.245,-1.46501 6.558,5.77499 V 46.186537 h -6.558 z m -1.622,-63.492113 v -1.623 z"
   id="path88"
   inkscape:connector-curvature="0" />
<path
   d="m 296.97712,139.74664 -0.002,-106.760103 -4.678,-5.85 h 40.263 l 11.123,6.707 v 32.734 l -13.632,7.788 13.632,7.271 -0.002,28.469113 2.014,1.72401 -21.208,15.53398 V 90.465537 l -7.875,-4.145 v 40.857103 l 2.794,4.095 -25.226,18.644 z m 3.246,0.443 -0.425,1.541 15.167,-11.209 -1.598,-2.346 V 80.946537 l 14.365,7.56 -0.002,32.458103 12.744,-9.33698 -0.039,-0.031 V 83.582537 l -17.098,-9.118 17.098,-9.771 v -29.019 l -8.779,-5.293 h -32.606 l 1.174,1.466 V 139.96964 Z m 12.851,-95.785103 h 14.952 v 14.83 l -12.494,7.499 -0.836,-1.392 0.836,1.392 -2.458,1.475 z m 3.245,18.071 8.461,-5.078 v -9.75 h -8.461 z"
   id="path90"
   inkscape:connector-curvature="0" />
<path
   d="M 358.72712,139.64664 V 47.648537 h -13.022 v -14.662 l -4.677,-5.849 h 56.064 l -4.681,5.851 v 14.66 h -14.195 v 81.442103 l 2.938,4.403 -25.068,18.037 z m 3.248,-95.242103 v 95.597103 l -0.874,3.924 15.613,-11.234 -1.743,-2.619 V 44.404537 h 14.194 v -12.557 l 1.173,-1.465 h -42.562 l 1.174,1.465 v 12.557 h 11.4 v 1.623 -1.623 z"
   id="path92"
   inkscape:connector-curvature="0" />
<path
   d="M 394.43212,139.35064 V 90.057537 h 19.341 v 8.813009 l 6.559,-4.794009 v -4.232 l -25.898,-14.63 v -42.227 l -4.678,-5.851 h 39.81 v 1.623 -1.623 h 0.453 l 11.123,6.706 v 17.319 h -20.807 v -3.512 h -6.561 v 19.212 l 27.367,14.781 v 25.892103 l -50.234,40.179 z m 3.246,-1.206 40.212,-32.17001 V 83.575537 l -27.363,-14.779 v -24.393 h 13.051 l -0.002,3.511 h 14.315 v -12.241 l -8.775,-5.291 -32.613,-0.002 1.176,1.468 -0.003,41.471 25.902,14.633 v 7.768999 l -13.051,9.546094 V 93.303537 h -12.849 z"
   id="path94"
   inkscape:connector-curvature="0" />
</svg>