<?xml version="1.0" encoding="UTF-8" standalone="no"?>
<!-- Generator: Adobe Illustrator 13.0.0, SVG Export Plug-In . SVG Version: 6.00 Build 14948)  -->

<svg
   xmlns:dc="http://purl.org/dc/elements/1.1/"
   xmlns:cc="http://creativecommons.org/ns#"
   xmlns:rdf="http://www.w3.org/1999/02/22-rdf-syntax-ns#"
   xmlns:svg="http://www.w3.org/2000/svg"
   xmlns="http://www.w3.org/2000/svg"
   xmlns:sodipodi="http://sodipodi.sourceforge.net/DTD/sodipodi-0.dtd"
   xmlns:inkscape="http://www.inkscape.org/namespaces/inkscape"
   version="1.1"
   id="Layer_1"
   x="0px"
   y="0px"
   width="300.29501"
   height="146.395"
   viewBox="169.102 12.001 300.29502 146.39501"
   enable-background="new 169.102 12.001 246.295 124.395"
   xml:space="preserve"
   sodipodi:docname="ports.svg"
   inkscape:version="0.92.4 (5da689c313, 2019-01-14)"><metadata
   id="metadata101"><rdf:RDF><cc:Work
       rdf:about=""><dc:format>image/svg+xml</dc:format><dc:type
         rdf:resource="http://purl.org/dc/dcmitype/StillImage" /><dc:title></dc:title></cc:Work></rdf:RDF></metadata><defs
   id="defs99" /><sodipodi:namedview
   pagecolor="#ffffff"
   bordercolor="#666666"
   borderopacity="1"
   objecttolerance="10"
   gridtolerance="10"
   guidetolerance="10"
   inkscape:pageopacity="0"
   inkscape:pageshadow="2"
   inkscape:window-width="1633"
   inkscape:window-height="986"
   id="namedview97"
   showgrid="false"
   inkscape:zoom="1.1652693"
   inkscape:cx="280.41844"
   inkscape:cy="62.197498"
   inkscape:window-x="0"
   inkscape:window-y="0"
   inkscape:window-maximized="0"
   inkscape:current-layer="Layer_1" />
<linearGradient
   id="SVGID_1_"
   gradientUnits="userSpaceOnUse"
   x1="-458.33011"
   y1="157.1563"
   x2="-458.33011"
   y2="230.7196"
   gradientTransform="matrix(0.8758215,0,0,-0.8758215,634.82342,239.66029)">
	<stop
   offset="0"
   style="stop-color:#9B9B9B"
   id="stop2" />
	<stop
   offset="1"
   style="stop-color:#5B5C60"
   id="stop4" />
</linearGradient>
<path
   d="m 214.63317,136.33547 1.02471,-2.43391 V 39.959982 l -2.56265,-3.204631 h 31.91318 l 8.71443,5.254929 v 43.701741 l -23.70937,13.199526 v 22.300233 h 3.20463 z m 15.12281,-53.442718 10.25324,-6.150894 V 51.878161 h -10.25324 z"
   id="path7"
   inkscape:connector-curvature="0"
   style="fill:url(#SVGID_1_);stroke-width:0.87582147"
   inkscape:export-xdpi="96"
   inkscape:export-ydpi="96" />
<linearGradient
   id="SVGID_2_"
   gradientUnits="userSpaceOnUse"
   x1="-408.3584"
   y1="157.1563"
   x2="-408.3584"
   y2="230.7195"
   gradientTransform="matrix(0.8758215,0,0,-0.8758215,634.82342,239.66029)">
	<stop
   offset="0"
   style="stop-color:#9B9B9B"
   id="stop9" />
	<stop
   offset="1"
   style="stop-color:#5B5C60"
   id="stop11" />
</linearGradient>
<path
   d="m 290.7587,36.755351 5.63941,6.536256 V 117.88191 L 275.50802,135.5665 257.95043,119.28936 V 43.803963 l 5.38279,-7.048612 z m -18.32657,13.841483 v 57.671196 l 8.58743,7.56183 V 50.595958 Z"
   id="path14"
   inkscape:connector-curvature="0"
   style="fill:url(#SVGID_2_);stroke-width:0.87582147"
   inkscape:export-xdpi="96"
   inkscape:export-ydpi="96" />
<linearGradient
   id="SVGID_3_"
   gradientUnits="userSpaceOnUse"
   x1="-360.36331"
   y1="157.1563"
   x2="-360.36331"
   y2="230.7198"
   gradientTransform="matrix(0.8758215,0,0,-0.8758215,634.82342,239.66029)">
	<stop
   offset="0"
   style="stop-color:#9B9B9B"
   id="stop16" />
	<stop
   offset="1"
   style="stop-color:#5B5C60"
   id="stop18" />
</linearGradient>
<path
   d="M 301.01019,134.1573 V 39.959982 l -2.56265,-3.204631 h 31.91143 l 8.71442,5.254929 v 27.041865 l -13.45612,7.689713 13.45612,7.175605 v 24.735057 l 0.89772,0.76984 -14.86707,10.89258 V 89.941364 l -9.73914,-5.12706 v 38.576526 l 1.92243,2.82014 -17.68809,13.07252 z m 14.09722,-65.361771 10.25237,-6.15177 V 51.878161 h -10.25237 z"
   id="path21"
   inkscape:connector-curvature="0"
   style="fill:url(#SVGID_3_);stroke-width:0.87582147"
   inkscape:export-xdpi="96"
   inkscape:export-ydpi="96" />
<linearGradient
   id="SVGID_4_"
   gradientUnits="userSpaceOnUse"
   x1="-310.68549"
   y1="157.1563"
   x2="-310.68549"
   y2="230.7196"
   gradientTransform="matrix(0.8758215,0,0,-0.8758215,634.82342,239.66029)">
	<stop
   offset="0"
   style="stop-color:#9B9B9B"
   id="stop23" />
	<stop
   offset="1"
   style="stop-color:#5B5C60"
   id="stop25" />
</linearGradient>
<path
   d="m 355.09304,51.878161 h -11.4067 V 39.959106 l -2.56265,-3.204631 h 43.18939 l -2.56266,3.204631 v 11.919055 h -12.43316 v 73.177609 l 2.05117,3.07676 -17.81508,12.81589 1.53794,-6.92074 V 51.878161 Z"
   id="path28"
   inkscape:connector-curvature="0"
   style="fill:url(#SVGID_4_);stroke-width:0.87582147"
   inkscape:export-xdpi="96"
   inkscape:export-ydpi="96" />
<linearGradient
   id="SVGID_5_"
   gradientUnits="userSpaceOnUse"
   x1="-263.42239"
   y1="157.1563"
   x2="-263.42239"
   y2="230.7195"
   gradientTransform="matrix(0.8758215,0,0,-0.8758215,634.82342,239.66029)">
	<stop
   offset="0"
   style="stop-color:#9B9B9B"
   id="stop30" />
	<stop
   offset="1"
   style="stop-color:#5B5C60"
   id="stop32" />
</linearGradient>
<path
   d="m 415.7104,36.755351 8.7153,5.254929 v 12.944642 h -15.37943 v -3.075885 h -8.58742 v 19.095536 l 23.96597,12.94289 v 21.147677 l -39.08966,31.27033 1.02646,-2.43391 V 91.863792 h 14.09723 v 9.099848 l 8.58742,-6.279703 V 89.429008 L 386.36337,76.612236 V 39.959982 l -2.5644,-3.204631 z"
   id="path35"
   inkscape:connector-curvature="0"
   style="fill:url(#SVGID_5_);stroke-width:0.87582147"
   inkscape:export-xdpi="96"
   inkscape:export-ydpi="96" />
<linearGradient
   id="SVGID_6_"
   gradientUnits="userSpaceOnUse"
   x1="-457.4707"
   y1="112.8584"
   x2="-457.4707"
   y2="189.39571"
   gradientTransform="matrix(0.8758215,0,0,-0.8758215,634.82342,239.66029)">
	<stop
   offset="0"
   style="stop-color:#F9DA55"
   id="stop37" />
	<stop
   offset="1"
   style="stop-color:#E04305"
   id="stop39" />
</linearGradient>
<path
   d="m 253.70532,77.178017 v 8.484958 l -23.71024,13.199526 v 22.299359 h 3.20463 l -18.58318,15.12369 1.02559,-2.43391 V 98.969352"
   id="path42"
   inkscape:connector-curvature="0"
   style="fill:url(#SVGID_6_);stroke-width:0.87582147"
   inkscape:export-xdpi="96"
   inkscape:export-ydpi="96" />
<linearGradient
   id="SVGID_7_"
   gradientUnits="userSpaceOnUse"
   x1="-408.3779"
   y1="112.8594"
   x2="-408.3779"
   y2="189.3956"
   gradientTransform="matrix(0.8758215,0,0,-0.8758215,634.82342,239.66029)">
	<stop
   offset="0"
   style="stop-color:#F9DA55"
   id="stop44" />
	<stop
   offset="1"
   style="stop-color:#E04305"
   id="stop46" />
</linearGradient>
<path
   d="m 296.38147,98.021701 v 19.807659 l -20.89009,17.68547 -17.5576,-16.27715 V 76.783021 l 14.48171,7.894655 v 23.539554 l 8.58656,7.56183 V 89.57527 Z"
   id="path49"
   inkscape:connector-curvature="0"
   style="fill:url(#SVGID_7_);stroke-width:0.87582147"
   inkscape:export-xdpi="96"
   inkscape:export-ydpi="96" />
<linearGradient
   id="SVGID_8_"
   gradientUnits="userSpaceOnUse"
   x1="-359.7236"
   y1="112.8584"
   x2="-359.7236"
   y2="189.39841"
   gradientTransform="matrix(0.8758215,0,0,-0.8758215,634.82342,239.66029)">
	<stop
   offset="0"
   style="stop-color:#F9DA55"
   id="stop51" />
	<stop
   offset="1"
   style="stop-color:#E04305"
   id="stop53" />
</linearGradient>
<path
   d="m 315.34739,91.705268 v 31.635642 l 1.92243,2.81927 -17.68547,13.07338 1.4092,-5.12618 V 98.495529 m 34.36023,-16.602965 3.70385,1.975853 V 108.6026 l 0.89771,0.76896 -14.86794,10.89346 V 89.891442 l -2.88321,-1.516923"
   id="path56"
   inkscape:connector-curvature="0"
   style="fill:url(#SVGID_8_);stroke-width:0.87582147"
   inkscape:export-xdpi="96"
   inkscape:export-ydpi="96" />
<linearGradient
   id="SVGID_9_"
   gradientUnits="userSpaceOnUse"
   x1="-310.99661"
   y1="112.8594"
   x2="-310.99661"
   y2="189.396"
   gradientTransform="matrix(0.8758215,0,0,-0.8758215,634.82342,239.66029)">
	<stop
   offset="0"
   style="stop-color:#F9DA55"
   id="stop58" />
	<stop
   offset="1"
   style="stop-color:#E04305"
   id="stop60" />
</linearGradient>
<path
   d="m 369.30325,89.337047 v 35.669673 l 2.05029,3.07588 -17.8142,12.8159 1.53794,-6.92074 V 80.415929"
   id="path63"
   inkscape:connector-curvature="0"
   style="fill:url(#SVGID_9_);stroke-width:0.87582147"
   inkscape:export-xdpi="96"
   inkscape:export-ydpi="96" />
<linearGradient
   id="SVGID_10_"
   gradientUnits="userSpaceOnUse"
   x1="-262.5625"
   y1="112.8584"
   x2="-262.5625"
   y2="189.397"
   gradientTransform="matrix(0.8758215,0,0,-0.8758215,634.82342,239.66029)">
	<stop
   offset="0"
   style="stop-color:#F9DA55"
   id="stop65" />
	<stop
   offset="1"
   style="stop-color:#E04305"
   id="stop67" />
</linearGradient>
<path
   d="m 415.77521,79.203792 8.63473,4.664625 v 21.146803 l -39.08967,31.27033 1.02559,-2.43391 V 91.81387 h 14.09722 v 9.10073 l 8.58743,-6.280585 v -5.254053 l -7.29472,-4.123368"
   id="path70"
   inkscape:connector-curvature="0"
   style="fill:url(#SVGID_10_);stroke-width:0.87582147"
   inkscape:export-xdpi="96"
   inkscape:export-ydpi="96" />
<polygon
   points="175.901,83.96 217.281,60.023 218.364,61.898 176.986,85.834 "
   id="polygon72"
   style="fill:#542209"
   transform="matrix(0.8758215,0,0,0.8758215,62.036164,24.348464)"
   inkscape:export-xdpi="96"
   inkscape:export-ydpi="96" />
<polygon
   points="224.338,61.506 225.372,59.604 240.721,67.934 239.693,69.834 "
   id="polygon74"
   style="fill:#542209"
   transform="matrix(0.8758215,0,0,0.8758215,62.036164,24.348464)"
   inkscape:export-xdpi="96"
   inkscape:export-ydpi="96" />
<polygon
   points="250.54,75.686 251.64,73.821 267.461,83.153 266.36,85.018 "
   id="polygon76"
   style="fill:#542209"
   transform="matrix(0.8758215,0,0,0.8758215,62.036164,24.348464)"
   inkscape:export-xdpi="96"
   inkscape:export-ydpi="96" />
<polygon
   points="272.914,83.797 288.465,75.953 289.441,77.885 273.89,85.727 "
   id="polygon78"
   style="fill:#542209"
   transform="matrix(0.8758215,0,0,0.8758215,62.036164,24.348464)"
   inkscape:export-xdpi="96"
   inkscape:export-ydpi="96" />
<polygon
   points="297.238,71.634 309.542,65.143 310.551,67.059 298.246,73.549 "
   id="polygon80"
   style="fill:#542209"
   transform="matrix(0.8758215,0,0,0.8758215,62.036164,24.348464)"
   inkscape:export-xdpi="96"
   inkscape:export-ydpi="96" />
<polygon
   points="335.008,65.109 336.201,63.305 349.724,72.229 348.532,74.035 "
   id="polygon82"
   style="fill:#542209"
   transform="matrix(0.8758215,0,0,0.8758215,62.036164,24.348464)"
   inkscape:export-xdpi="96"
   inkscape:export-ydpi="96" />
<polygon
   points="387.895,68.225 401.821,61.869 402.721,63.839 388.793,70.195 "
   id="polygon84"
   style="fill:#542209"
   transform="matrix(0.8758215,0,0,0.8758215,62.036164,24.348464)"
   inkscape:export-xdpi="96"
   inkscape:export-ydpi="96" />
<path
   d="M 214.23467,133.14047 V 39.983629 l -4.09622,-5.12268 h 35.2632 l 9.73914,5.872384 v 45.341279 l -23.70936,13.19865 v 20.044118 h 5.77954 l -21.68183,17.6443 -4.42115,3.597 z m 1.70698,3.2712 -1.31023,-0.55089 z m 1.13681,-97.426477 v 93.050867 l 12.13626,-9.87664 h -0.62533 V 97.603058 l 23.70673,-13.20039 V 42.336962 l -7.68533,-4.633972 -28.56229,-0.0018 z m 11.25431,10.998566 h 13.09616 v 27.088283 l -10.94427,6.564283 -0.73131,-1.218268 0.73131,1.218268 -2.15277,1.29534 V 49.983759 Z m 2.84204,29.924193 7.40945,-4.444794 V 52.8258 l -7.40945,-0.0018 z"
   id="path86"
   inkscape:connector-curvature="0"
   style="stroke-width:0.87582147"
   inkscape:export-xdpi="96"
   inkscape:export-ydpi="96" />
<path
   d="M 256.52722,119.43387 V 42.849317 l 6.10009,-7.988368 h 28.12964 v 1.420583 -1.420583 h 0.64898 l 6.41189,7.426967 v 75.776164 l -22.35534,18.9265 z m 2.84204,-75.622025 v 74.385365 l 16.17992,14.99756 19.42572,-16.44442 V 43.344156 l -4.86956,-5.642042 H 264.03476 Z M 271.0098,108.43532 V 50.123015 48.701557 h 11.42859 v 69.803063 z m 2.84204,-1.28309 5.74364,5.05786 V 51.544473 h -5.74364 z m -1.42058,-55.607757 v -1.421458 z"
   id="path88"
   inkscape:connector-curvature="0"
   style="stroke-width:0.87582147"
   inkscape:export-xdpi="96"
   inkscape:export-ydpi="96" />
<path
   d="m 299.58698,133.48642 -0.002,-93.502791 -4.0971,-5.123555 h 35.26321 l 9.74176,5.874134 v 28.669141 l -11.9392,6.820898 11.9392,6.368098 -0.002,24.933865 1.7639,1.50992 -18.57442,13.605 V 90.324973 l -6.8971,-3.63028 v 35.783527 l 2.44705,3.58649 -22.09347,16.32882 z m 2.84292,0.38799 -0.37223,1.34964 13.28359,-9.81708 -1.39957,-2.05468 V 81.988028 l 12.58118,6.621211 -0.002,28.427501 11.16147,-8.17752 -0.0342,-0.0271 V 84.296694 l -14.9748,-7.98574 14.9748,-8.557652 V 42.337837 l -7.68884,-4.635723 h -28.55703 l 1.02821,1.283955 v 94.695661 z m 11.25518,-83.890651 h 13.09528 v 12.988433 l -10.94251,6.567785 -0.73219,-1.219143 0.73219,1.219143 -2.15277,1.291837 z m 2.84204,15.826971 7.41032,-4.447422 v -8.53926 h -7.41032 z"
   id="path90"
   inkscape:connector-curvature="0"
   style="stroke-width:0.87582147"
   inkscape:export-xdpi="96"
   inkscape:export-ydpi="96" />
<path
   d="M 353.66896,133.39884 V 52.824924 H 342.26401 V 39.983629 l -4.09622,-5.12268 h 49.10206 l -4.09972,5.124432 v 12.839543 h -12.43229 v 71.328746 l 2.57317,3.85624 -21.9551,15.79719 z m 2.84467,-83.415081 v 83.726001 l -0.76547,3.43672 13.6742,-9.83898 -1.52656,-2.29377 V 49.983759 h 12.43141 v -10.99769 l 1.02734,-1.283079 h -37.27671 l 1.02821,1.283079 v 10.99769 h 9.98437 v 1.421458 -1.421458 z"
   id="path92"
   inkscape:connector-curvature="0"
   style="stroke-width:0.87582147"
   inkscape:export-xdpi="96"
   inkscape:export-ydpi="96" />
<path
   d="M 384.94016,133.1396 V 89.967638 h 16.93927 v 7.718623 l 5.74451,-4.198696 V 89.781088 L 384.94192,76.96782 V 39.984505 l -4.0971,-5.124431 h 34.86646 v 1.421458 -1.421458 h 0.39674 l 9.74177,5.873259 V 55.901685 H 407.62657 V 52.8258 H 401.8803 V 69.652083 L 425.84891,82.5976 v 22.67686 l -43.99602,35.18963 z m 2.84292,-1.05624 35.21853,-28.17519 V 84.290563 L 399.03651,71.346797 V 49.982883 h 11.43035 l -0.002,3.07501 h 12.53738 V 42.336962 l -7.68533,-4.633972 -28.56317,-0.0018 1.02997,1.285706 -0.003,36.321194 22.68553,12.815896 v 6.804256 l -11.43035,8.360668 V 92.810555 h -11.25343 z"
   id="path94"
   inkscape:connector-curvature="0"
   style="stroke-width:0.87582147"
   inkscape:export-xdpi="96"
   inkscape:export-ydpi="96" />
</svg>