<?xml version="1.0" encoding="UTF-8" standalone="no"?>
<!-- Generator: Adobe Illustrator 16.0.3, SVG Export Plug-In . SVG Version: 6.00 Build 0)  -->

<svg
   xmlns:dc="http://purl.org/dc/elements/1.1/"
   xmlns:cc="http://creativecommons.org/ns#"
   xmlns:rdf="http://www.w3.org/1999/02/22-rdf-syntax-ns#"
   xmlns:svg="http://www.w3.org/2000/svg"
   xmlns="http://www.w3.org/2000/svg"
   xmlns:sodipodi="http://sodipodi.sourceforge.net/DTD/sodipodi-0.dtd"
   xmlns:inkscape="http://www.inkscape.org/namespaces/inkscape"
   version="1.1"
   id="Ebene_1"
   x="0px"
   y="0px"
   width="566.936px"
   height="85.117px"
   viewBox="0 0 566.936 85.117"
   enable-background="new 0 0 566.936 85.117"
   xml:space="preserve"
   sodipodi:docname="wonderswan.svg"
   inkscape:version="0.92.4 (5da689c313, 2019-01-14)"><metadata
   id="metadata35"><rdf:RDF><cc:Work
       rdf:about=""><dc:format>image/svg+xml</dc:format><dc:type
         rdf:resource="http://purl.org/dc/dcmitype/StillImage" /></cc:Work></rdf:RDF></metadata><defs
   id="defs33" /><sodipodi:namedview
   pagecolor="#ffffff"
   bordercolor="#666666"
   borderopacity="1"
   objecttolerance="10"
   gridtolerance="10"
   guidetolerance="10"
   inkscape:pageopacity="0"
   inkscape:pageshadow="2"
   inkscape:window-width="1238"
   inkscape:window-height="742"
   id="namedview31"
   showgrid="false"
   inkscape:zoom="1.01246"
   inkscape:cx="283.46799"
   inkscape:cy="42.558498"
   inkscape:window-x="0"
   inkscape:window-y="0"
   inkscape:window-maximized="0"
   inkscape:current-layer="g26" />
<g
   id="g28">
	<g
   id="g26">
		<g
   id="g22"
   style="fill:#808080">
			<polygon
   points="140.375,27.912 145.031,23.255 155.926,23.255 148.165,55.682 155.926,49.529 160.555,29.436 166.792,23.255 176.133,23.255 168.372,54.158 159.059,61.863 110.912,61.863 118.646,29.436 126.435,23.255 134.167,23.255 126.435,55.682 134.167,51.054 "
   id="polygon2"
   style="fill:#808080" />
			<polygon
   points="449.857,41.797 455.052,36.604 465.889,36.604 460.582,56.953 467.921,52.042 470.009,43.349 476.781,36.604 484.854,36.604 480.338,54.158 469.755,61.863 425.39,61.863 429.341,43.349 436.367,36.604 445.398,36.604 440.094,56.953 447.883,52.324 "
   id="polygon4"
   style="fill:#808080" />
			<path
   d="m 364.797,61.863 7.789,-7.705 h 33.416 c 0,0 2.877,0.848 4.516,-2.793 1.495,-3.388 -1.411,-3.388 -1.411,-3.388 h -15.522 c 0,0 -4.459,-1.017 -4.486,-6.491 -0.085,-13.461 10.979,-16.934 10.979,-16.934 H 432.7 l -6.489,6.436 h -17.104 c 0,0 -5.447,1.553 -5.561,6.097 -0.084,2.06 2.455,1.637 2.455,1.637 h 13.941 c 0,0 8.071,1.354 6.209,10.047 -2.428,11.431 -10.838,13.095 -10.838,13.095 h -50.516 z"
   id="path6"
   inkscape:connector-curvature="0"
   style="fill:#808080" />
			<path
   d="m 338.269,61.863 h 13.94 l 4.233,-16.029 c 0.509,-1.863 5.419,-3.979 4.121,-3.754 -1.271,0.226 4.459,-0.848 4.459,-0.848 0,0 1.806,0.508 2.709,1.75 0.933,1.213 -0.903,3.021 -1.157,4.432 -0.254,1.41 1.553,1.552 1.553,1.552 h 7.789 c 0,0 4.178,-1.552 5.307,-3.104 1.102,-1.58 2.482,-3.217 2.482,-4.6 0,-1.383 -3.076,-3.104 -3.076,-3.104 l -3.133,-1.524 h -23.283 c 0,0 -11.146,6.379 -12.444,7.705 -0.454,0.393 -3.5,17.524 -3.5,17.524 z"
   id="path8"
   inkscape:connector-curvature="0"
   style="fill:#808080" />
			<path
   d="m 175.313,44.168 c -1.072,1.24 -4.571,12.135 -3.81,13.912 0.79,1.723 5.108,3.781 5.108,3.781 h 22.69 c 0,0 10.583,-6.632 11.401,-7.563 0.79,-0.959 3.782,-11.543 3.782,-12.645 0,-1.101 -2.54,-5.052 -2.54,-5.052 h -26.529 c 0.002,0.003 -8.999,6.325 -10.102,7.567 z m 17.696,-2.512 h 6.971 c 0,0 -0.79,8.383 -2.539,10.752 -1.778,2.371 -5.701,4.432 -5.701,4.432 0,0 -4.402,0.452 -5.023,0 -0.649,-0.508 -0.17,-5.053 -0.17,-5.053 0,0 0.593,-4.909 1.411,-6.35 0.791,-1.41 5.051,-3.781 5.051,-3.781 z"
   id="path10"
   inkscape:connector-curvature="0"
   style="fill:#808080" />
			<path
   d="m 259.924,44.168 c -1.073,1.24 -4.572,12.135 -3.782,13.912 0.79,1.723 5.08,3.781 5.08,3.781 h 31.58 c 0,0 1.045,-5.022 2.343,-10.104 1.241,-4.77 2.709,-12.105 2.709,-12.645 0,-1.129 7.846,-11.033 7.846,-11.033 h -13.716 l -6.941,8.521 h -15.015 c 0.029,0.004 -8.974,6.326 -10.104,7.568 z m 17.695,-2.512 h 6.942 c 0,0 -0.763,8.383 -2.54,10.752 -1.723,2.371 -5.673,4.432 -5.673,4.432 0,0 -4.402,0.452 -5.052,0 -0.593,-0.508 -0.169,-5.053 -0.169,-5.053 0,0 0.593,-4.909 1.439,-6.35 0.791,-1.41 5.053,-3.781 5.053,-3.781 z"
   id="path12"
   inkscape:connector-curvature="0"
   style="fill:#808080" />
			<path
   d="m 211.101,61.863 7.168,-25.26 h 30.311 c 0,0 4.008,0.424 5.362,2.682 1.411,2.259 0.96,6.152 0.96,6.152 l -4.121,16.426 h -12.644 c 0,0 1.468,-8.043 2.879,-13.886 1.411,-5.842 -2.54,-6.321 -2.54,-6.321 h -7.563 l -4.346,15.154 c 0,0 -3.782,4.403 -5.362,5.053 z"
   id="path14"
   inkscape:connector-curvature="0"
   style="fill:#808080" />
			<path
   d="m 522.162,61.863 8.044,-25.26 h 30.311 c 0,0 3.979,0.424 5.391,2.682 1.412,2.259 0.96,6.152 0.96,6.152 l -4.262,16.426 h -13.857 c 0,0 2.314,-6.772 3.782,-12.645 1.411,-5.813 -2.061,-7.563 -2.061,-7.563 h -7.592 l -4.233,15.154 c 0,0 -3.499,4.403 -5.051,5.053 h -11.432 z"
   id="path16"
   inkscape:connector-curvature="0"
   style="fill:#808080" />
			<path
   d="m 301.607,44.168 c -1.102,1.24 -4.544,12.135 -3.781,13.912 0.762,1.723 5.051,3.781 5.051,3.781 h 22.72 c 0,0 4.516,-2.822 7.874,-5.052 0,0 -19.305,0.142 -20.489,0 -0.536,-0.056 -0.338,-2.397 -0.282,-3.78 h 15.522 c 0,0 2.991,-0.649 7.45,-4.348 4.516,-3.695 5.08,-4.092 5.08,-7.027 0,-2.905 -2.541,-5.052 -2.541,-5.052 h -26.527 c 0.055,0.002 -8.975,6.324 -10.077,7.566 z m 17.725,-2.512 h 10.188 c 0,0 -1.129,3.867 -6.688,6.321 h -8.494 c -0.819,-2.2 1.185,-3.95 2.313,-4.911 1.185,-1.072 2.681,-1.41 2.681,-1.41 z"
   id="path18"
   inkscape:connector-curvature="0"
   style="fill:#808080" />
			<path
   d="m 505.737,61.863 c 0,0 4.29,-13.574 5.646,-17.922 0.677,-2.369 -0.903,-2.285 -3.896,-2.285 -2.993,0 -5.165,0.648 -9.313,7.563 -4.854,8.072 7.168,10.273 7.168,10.273 l -0.848,2.369 H 490.61 c 0,0 -7.592,0.312 -7.592,-8.832 0,-11.232 14.365,-16.427 14.365,-16.427 h 30.338 l -8.071,25.259 h -13.913 z"
   id="path20"
   inkscape:connector-curvature="0"
   style="fill:#808080" />
		</g>
		<path
   d="m 72.559,23.369 c 0.705,-0.028 1.439,-0.058 2.173,-0.058 15.805,0 29.352,15.324 30.367,23.113 0.112,0.819 0.169,1.553 0.226,2.174 C 105.127,27.32 71.966,0 45.325,0 24.778,0 15.184,8.297 12.022,17.667 c -4.741,11.825 1.496,28.646 16.059,40.61 1.552,1.242 3.076,2.399 4.656,3.473 -0.678,0.057 -1.411,0.057 -2.145,0.057 C 14.787,61.807 1.24,46.483 0.225,38.694 0.141,37.875 0.057,37.141 0,36.52 0.197,57.799 33.358,85.118 60,85.118 80.545,85.118 90.141,76.794 93.302,67.452 98.043,55.655 91.806,38.836 77.243,26.841 75.69,25.598 74.167,24.441 72.559,23.369 Z M 42.896,58.703 c -11.74,-9.625 -15.635,-23.765 -9.06,-31.808 6.632,-8.043 21.59,-7.112 33.612,2.259 11.91,9.256 16.481,23.367 10.386,31.777 2.483,-5.052 -0.282,-12.645 -6.83,-17.809 -7.026,-5.531 -15.86,-6.096 -19.755,-1.326 -3.923,4.77 -1.58,13.18 5.306,18.908 5.334,4.432 11.797,5.982 16.425,4.375 -7.816,4.15 -20.149,1.78 -30.084,-6.376 z"
   id="path24"
   inkscape:connector-curvature="0"
   style="fill:#ff0000" />
	</g>
</g>
</svg>