<?xml version="1.0" encoding="UTF-8" standalone="no"?>
<!-- Generator: Adobe Illustrator 16.0.3, SVG Export Plug-In . SVG Version: 6.00 Build 0)  -->

<svg
   xmlns:dc="http://purl.org/dc/elements/1.1/"
   xmlns:cc="http://creativecommons.org/ns#"
   xmlns:rdf="http://www.w3.org/1999/02/22-rdf-syntax-ns#"
   xmlns:svg="http://www.w3.org/2000/svg"
   xmlns="http://www.w3.org/2000/svg"
   xmlns:sodipodi="http://sodipodi.sourceforge.net/DTD/sodipodi-0.dtd"
   xmlns:inkscape="http://www.inkscape.org/namespaces/inkscape"
   version="1.1"
   id="Layer_1"
   x="0px"
   y="0px"
   width="566.929px"
   height="67.639px"
   viewBox="0 0 566.929 67.639"
   enable-background="new 0 0 566.929 67.639"
   xml:space="preserve"
   sodipodi:docname="gg.svg"
   inkscape:version="0.92.4 (5da689c313, 2019-01-14)"><metadata
   id="metadata24"><rdf:RDF><cc:Work
       rdf:about=""><dc:format>image/svg+xml</dc:format><dc:type
         rdf:resource="http://purl.org/dc/dcmitype/StillImage" /><dc:title /></cc:Work></rdf:RDF></metadata><defs
   id="defs22" /><sodipodi:namedview
   pagecolor="#ffffff"
   bordercolor="#666666"
   borderopacity="1"
   objecttolerance="10"
   gridtolerance="10"
   guidetolerance="10"
   inkscape:pageopacity="0"
   inkscape:pageshadow="2"
   inkscape:window-width="1739"
   inkscape:window-height="907"
   id="namedview20"
   showgrid="false"
   inkscape:zoom="1.4318522"
   inkscape:cx="257.06507"
   inkscape:cy="33.8195"
   inkscape:window-x="0"
   inkscape:window-y="0"
   inkscape:window-maximized="0"
   inkscape:current-layer="g17" />
<g
   id="g17">
	<g
   id="g6"
   style="fill:#808080"
   transform="matrix(0.99303133,0,0,0.95619358,1.975369,0.98767357)">
		<path
   id="path5"
   d="m 213.297,56.3 c -4.779,6.492 -9.51,8.334 -11.58,9.33 -2.068,0.998 -5.201,1.779 -7.941,1.779 -7.689,0 -13.688,-2.507 -18,-7.5 -4.314,-5.016 -6.469,-12.047 -6.469,-21.165 0,-10.782 2.719,-19.923 8.182,-27.471 C 182.948,3.75 190.19,0 199.214,0 c 6.846,0 12.445,1.922 16.828,5.789 4.383,3.844 6.564,9.891 6.564,18.117 h -13.244 c 0,-3.938 -0.867,-6.703 -2.604,-8.297 -1.732,-1.57 -4.219,-2.367 -7.477,-2.367 -5.32,0 -9.422,2.601 -12.352,7.781 -2.906,5.204 -4.385,11.109 -4.385,17.742 0,4.524 0.963,8.229 2.838,11.086 1.898,2.885 4.732,4.313 8.508,4.313 3.938,0 6.984,-1.125 9.188,-3.353 2.18,-2.202 3.797,-5.063 4.828,-8.556 h -12.33 l 1.996,-12 h 24.045 l -2.039,11.625 c 0.003,0.005 -1.521,7.928 -6.281,14.42 z"
   inkscape:connector-curvature="0"
   style="fill:#808080" />
		<polygon
   id="polygon9"
   points="280.426,16.127 273.508,65.84 261.792,65.84 272.5,1.666 288.934,1.666 292.614,46.855 311.083,1.547 327.629,1.666 316.872,65.84 305.293,65.84 314.411,16.104 294.299,65.84 284.809,65.84 "
   style="fill:#808080" />
		<polygon
   id="polygon11"
   points="354.725,65.84 321.067,65.84 331.708,1.594 364.965,1.594 362.928,14.907 341.997,14.907 339.887,26.509 358.803,26.509 356.831,38.956 337.918,38.956 335.481,52.62 356.831,52.62 "
   style="fill:#808080" />
		<path
   id="path13"
   d="M 239.081,1.547 213.206,65.84 h 12.609 l 4.617,-12.541 h 16.5 l 1.078,12.541 h 12.211 L 252.908,1.548 h -13.827 z m -4.641,40.784 9.377,-25.571 2.178,25.571 z"
   inkscape:connector-curvature="0"
   style="fill:#808080" />
	</g>
	<g
   id="g12"
   style="fill:#808080"
   transform="matrix(0.99303133,0,0,0.95619358,1.975369,0.98767357)">
		<path
   id="path5_1_"
   d="m 430.284,56.3 c -4.781,6.492 -9.51,8.334 -11.58,9.331 -2.068,0.997 -5.201,1.779 -7.941,1.779 -7.688,0 -13.688,-2.508 -18,-7.5 -4.314,-5.016 -6.471,-12.046 -6.471,-21.164 0,-10.782 2.721,-19.923 8.182,-27.471 5.461,-7.523 12.703,-11.273 21.727,-11.273 6.844,0 12.445,1.922 16.828,5.789 4.385,3.845 6.563,9.893 6.563,18.118 h -13.24 c 0,-3.938 -0.867,-6.703 -2.604,-8.297 -1.732,-1.569 -4.219,-2.367 -7.477,-2.367 -5.32,0 -9.422,2.601 -12.352,7.781 -2.908,5.204 -4.383,11.109 -4.383,17.743 0,4.523 0.961,8.228 2.834,11.085 1.9,2.885 4.734,4.313 8.51,4.313 3.938,0 6.984,-1.125 9.188,-3.352 2.18,-2.203 3.797,-5.063 4.83,-8.556 h -12.33 l 1.992,-12 h 24.047 l -2.039,11.625 c -10e-4,10e-4 -1.526,7.924 -6.284,14.416 z"
   inkscape:connector-curvature="0"
   style="fill:#808080" />
		<polygon
   id="polygon15"
   points="469.827,65.862 436.168,65.862 446.809,1.594 480.069,1.594 478.03,14.906 457.098,14.906 454.991,26.532 473.879,26.532 471.936,38.956 453.02,38.956 450.561,52.62 471.936,52.62 "
   style="fill:#808080" />
		<path
   id="path17"
   d="m 496.801,1.572 -25.875,64.292 h 12.635 l 4.592,-12.54 h 16.525 l 1.076,12.54 h 12.189 L 510.629,1.572 Z m -4.617,40.758 9.354,-25.572 2.203,25.572 z"
   inkscape:connector-curvature="0"
   style="fill:#808080" />
		<path
   id="path19"
   d="m 537.491,29.836 2.813,-15.819 h 6.75 c 2.484,0 4.336,0.444 5.578,1.336 1.242,0.914 1.852,2.718 1.852,5.437 0,3.047 -1.008,5.297 -3,6.798 -2.018,1.5 -4.57,2.249 -7.664,2.249 h -6.329 z M 529.874,1.594 519.233,65.862 h 12.303 l 4.127,-24.493 h 5.695 l 9.516,24.493 h 14.109 L 554.436,38.744 c 3.68,-1.875 6.844,-4.993 9.047,-8.25 2.297,-3.352 3.445,-7.266 3.445,-11.743 0,-6.07 -1.359,-10.43 -4.102,-13.125 -2.719,-2.694 -6.588,-4.031 -11.555,-4.031 h -21.397 z"
   inkscape:connector-curvature="0"
   style="fill:#808080" />
	</g>
	<path
   id="path21"
   d="M 12.177772,26.117398 C 22.959114,8.7051116 37.80096,-2.1629843 45.328138,1.8052191 52.839427,5.790634 50.192005,23.135986 39.390803,40.536797 28.607476,57.950038 13.767616,68.816222 6.2583131,64.846106 -1.2708505,60.86356 1.3924596,43.516296 12.177772,26.117398 Z"
   inkscape:connector-curvature="0"
   style="fill:#d61808;stroke-width:0.97443837" />
	<path
   id="path21_2_"
   d="M 60.41129,26.117398 C 71.193625,8.7051116 86.034478,-2.1629843 93.559669,1.8052191 101.07096,5.790634 98.423537,23.135986 87.622335,40.536797 76.840994,57.950038 62.000141,68.816222 54.489845,64.846106 46.962667,60.86356 49.625977,43.516296 60.41129,26.117398 Z"
   inkscape:connector-curvature="0"
   style="fill:#008400;stroke-width:0.97443837" />
	<path
   id="path21_3_"
   d="M 108.64481,26.117398 C 119.42416,8.7041556 134.26799,-2.1629843 141.79319,1.8042629 149.30447,5.7896778 146.65705,23.13503 135.85585,40.535841 125.07252,57.949082 110.23465,68.815266 102.72336,64.84515 95.195192,60.86356 97.859495,43.516296 108.64481,26.117398 Z"
   inkscape:connector-curvature="0"
   style="fill:#0000ff;stroke-width:0.97443837" />
</g>
</svg>