<?xml version="1.0" encoding="UTF-8" standalone="no"?>
<!-- Generator: Adobe Illustrator 16.0.3, SVG Export Plug-In . SVG Version: 6.00 Build 0)  -->

<svg
   xmlns:dc="http://purl.org/dc/elements/1.1/"
   xmlns:cc="http://creativecommons.org/ns#"
   xmlns:rdf="http://www.w3.org/1999/02/22-rdf-syntax-ns#"
   xmlns:svg="http://www.w3.org/2000/svg"
   xmlns="http://www.w3.org/2000/svg"
   xmlns:sodipodi="http://sodipodi.sourceforge.net/DTD/sodipodi-0.dtd"
   xmlns:inkscape="http://www.inkscape.org/namespaces/inkscape"
   version="1.1"
   id="Ebene_1"
   x="0px"
   y="0px"
   width="566.924px"
   height="121.752px"
   viewBox="0 0 566.924 121.752"
   enable-background="new 0 0 566.924 121.752"
   xml:space="preserve"
   sodipodi:docname="a5200.svg"
   inkscape:version="0.92.4 (5da689c313, 2019-01-14)"><metadata
   id="metadata39"><rdf:RDF><cc:Work
       rdf:about=""><dc:format>image/svg+xml</dc:format><dc:type
         rdf:resource="http://purl.org/dc/dcmitype/StillImage" /></cc:Work></rdf:RDF></metadata><defs
   id="defs37" /><sodipodi:namedview
   pagecolor="#ffffff"
   bordercolor="#666666"
   borderopacity="1"
   objecttolerance="10"
   gridtolerance="10"
   guidetolerance="10"
   inkscape:pageopacity="0"
   inkscape:pageshadow="2"
   inkscape:window-width="1734"
   inkscape:window-height="1115"
   id="namedview35"
   showgrid="false"
   inkscape:zoom="1.0124814"
   inkscape:cx="44.633496"
   inkscape:cy="60.875999"
   inkscape:window-x="0"
   inkscape:window-y="0"
   inkscape:window-maximized="0"
   inkscape:current-layer="g32" />
<g
   id="g32">
	<path
   d="m 212.34141,14.383112 c 4.3948,-5.1606114 13.49048,-6.0427744 18.88259,-1.713087 2.20484,1.704548 3.75009,4.056413 4.53992,6.588468 9.98226,31.529002 20.00918,63.042631 29.9775,94.575047 -5.89074,0.005 -11.78429,-0.0102 -17.67503,0.005 -2.77885,-8.69353 -5.49165,-17.401579 -8.23514,-26.1028 -11.39261,-0.02135 -22.77873,-0.0052 -34.17042,-0.01024 -2.78908,8.696943 -5.54281,17.40328 -8.28073,26.11645 -5.8591,-0.0179 -11.71822,-0.004 -17.57827,-0.009 9.48362,-30.078078 18.9784,-60.153603 28.50761,-90.221442 1.13312,-3.142652 1.56106,-6.658495 4.03197,-9.22898 m 10.39998,19.321335 c -4.17711,13.061648 -8.26955,26.148063 -12.42341,39.216544 8.27979,0.03673 16.55587,0.01366 24.83194,0.01366 -4.1427,-13.07702 -8.26491,-26.153187 -12.40853,-39.230207 z"
   id="path2"
   inkscape:connector-curvature="0"
   style="fill:#0066ff;stroke-width:0.8913309" />
	<path
   d="m 336.44248,15.062027 c 3.07002,-4.08801 9.00542,-6.0709554 14.22914,-4.80877 4.7846,1.011114 8.44352,4.795107 9.7069,9.055621 9.97202,31.505944 19.98034,63.000786 29.95144,94.506722 -5.90004,0.0418 -11.79638,0 -17.69456,0.0214 -2.7435,-8.70037 -5.4563,-17.410131 -8.22026,-26.111345 -11.37308,0.0052 -22.74337,-0.01794 -34.1146,0.0085 -2.71837,8.706351 -5.52234,17.393045 -8.23978,26.100225 -5.85447,0.005 -11.70335,-0.005 -17.55782,0.005 9.47804,-30.242899 19.06771,-60.459331 28.62296,-90.680886 1.00102,-2.729326 1.38896,-5.737903 3.31658,-8.0966 M 335.007,72.93452 c 8.24537,0.01024 16.48609,0.0052 24.73146,0.0052 -4.10269,-13.105202 -8.27142,-26.191616 -12.35922,-39.29511 -4.11756,13.09837 -8.27328,26.184785 -12.37224,39.289986 z"
   id="path4"
   inkscape:connector-curvature="0"
   style="fill:#0066ff;stroke-width:0.8913309" />
	<path
   d="m 252.55236,10.09527 c 21.31349,0 42.62233,0 63.93024,0 0,5.279315 0,10.550943 0,15.826842 -7.84907,0.0052 -15.69068,-0.0085 -23.53415,0.0052 0,29.302671 0.006,58.606196 -0.004,87.907148 -5.61816,0 -11.24097,0 -16.86007,0 0,-29.300952 -0.005,-58.604477 0.005,-87.907148 -7.84813,-0.01366 -15.69068,0 -23.53787,-0.0052 9.3e-4,-5.275899 -0.004,-10.547527 9.3e-4,-15.826842 z"
   id="path6"
   inkscape:connector-curvature="0"
   style="fill:#0066ff;stroke-width:0.8913309" />
	<path
   d="m 409.06556,10.739172 c 1.61873,-0.514096 3.34726,-0.689162 5.05717,-0.652441 6.71967,0.02135 13.44025,0.0052 20.15804,0.0085 11.31633,0.192146 22.11635,6.636291 27.01352,15.985682 3.391,6.070956 3.73987,13.131676 2.88584,19.791878 -0.59076,6.971906 -3.77615,13.943812 -9.61387,18.565561 -3.08305,2.521808 -6.92432,4.051289 -10.22601,6.298115 -1.81317,1.2656 -1.90435,3.72763 -0.96659,5.489393 8.91799,12.638074 18.18856,25.07888 27.29354,37.60849 -6.65918,0.0102 -13.31836,-0.0136 -19.97848,0.0102 -8.71611,-12.01894 -17.34384,-24.09851 -26.02552,-36.134528 -2.55279,-3.426174 -3.2468,-7.962524 -1.71736,-11.872052 1.19172,-2.999183 4.04685,-5.192209 7.22666,-6.324588 6.07031,-2.126414 12.05595,-5.465483 15.41716,-10.725156 2.55837,-3.951373 2.42534,-8.826754 1.27547,-13.151317 -1.34989,-5.614075 -7.30761,-10.030867 -13.60584,-9.837868 -4.35573,0.02647 -8.70681,-0.01794 -13.05509,0.01794 -1.96948,-0.04184 -3.8208,1.529481 -3.79568,3.359564 -0.0214,28.22153 0.009,56.444768 -0.009,84.664595 -5.66375,-0.0102 -11.32005,0 -16.9838,-0.005 -0.0112,-30.381254 0.0112,-60.764212 -0.0112,-91.145463 0.0363,-5.324575 4.16129,-10.335739 9.66132,-11.951473 z"
   id="path8"
   inkscape:connector-curvature="0"
   style="fill:#0066ff;stroke-width:0.8913309" />
	<path
   d="m 479.57124,10.09527 c 5.95586,0 11.9108,0 17.87225,0 -0.006,34.58284 0.0112,69.160556 -0.0112,103.7434 -5.95029,-0.0154 -11.90523,0 -17.86109,-0.005 0,-34.582835 0,-69.160551 0,-103.738267 z"
   id="path10"
   inkscape:connector-curvature="0"
   style="fill:#0066ff;stroke-width:0.8913309" />
	<path
   d="m 70.151335,9.8834826 c 2.861644,-0.0085 5.72422,0 8.585865,-0.0069 0.01209,6.1777034 0,12.3562614 0.0046,18.5322554 0.02977,5.157195 -0.129313,10.312682 -0.361892,15.463046 -0.383289,7.439033 -0.89031,14.892585 -2.232753,22.247074 -0.921902,5.069277 -2.831837,9.959176 -5.202275,14.60142 -3.866384,7.48088 -9.941333,13.810591 -16.770766,19.134315 -6.10937,4.935157 -13.401169,8.527857 -21.070676,10.959987 -4.338982,1.37064 -8.803558,2.42873 -13.350001,3.01712 0.0046,-5.18025 0.0046,-10.36477 0,-15.545017 5.473035,-0.75407 10.73396,-2.537184 15.620897,-4.893317 5.798646,-2.81387 11.018636,-6.600425 15.411578,-11.061624 4.53714,-4.607231 8.153269,-9.9412 10.897694,-15.604806 3.23191,-6.51161 4.961363,-13.545003 6.13728,-20.588643 1.473616,-8.951435 2.087624,-18.008765 2.315551,-27.057554 0.03256,-3.065794 0.0046,-6.133295 0.01488,-9.1973824 z"
   id="path12"
   inkscape:connector-curvature="0"
   style="fill:#0066ff;stroke-width:0.8913309" />
	<path
   d="m 82.192385,9.8937296 c 5.267437,-0.0316 10.538594,-0.0052 15.80789,-0.01366 0.0019,34.6494504 0.0019,69.3006094 0,103.9526104 -5.256272,0.0102 -10.515336,-0.0231 -15.771608,0.0179 -0.06699,-11.04882 -0.0093,-22.100187 -0.02791,-33.148147 -0.0065,-23.604905 0.01023,-47.206395 -0.0083,-70.8087404 z"
   id="path14"
   inkscape:connector-curvature="0"
   style="fill:#0066ff;stroke-width:0.8913309" />
	<path
   d="m 101.51686,9.8800666 c 2.84676,-0.0017 5.69166,-0.0069 8.53656,0.0017 -0.0921,10.5646064 0.29956,21.1497094 1.67178,31.6459974 1.12288,8.152962 2.70628,16.365703 6.24333,23.96187 3.35378,7.348512 8.18769,14.179511 14.48684,19.68513 6.01541,5.265651 13.30535,9.31352 21.22511,11.64404 2.2095,0.649019 4.47016,1.157139 6.7671,1.464579 -0.003,5.178537 -0.006,10.357937 0,15.534777 -4.51388,-0.56192 -8.94032,-1.6294 -13.24766,-2.97357 -5.12975,-1.63793 -10.09111,-3.75922 -14.64779,-6.48001 -3.3268,-1.96501 -6.35219,-4.31517 -9.25848,-6.766947 -4.79019,-4.054718 -9.07801,-8.664507 -12.29783,-13.882334 -2.51928,-4.063244 -4.35665,-8.454417 -5.79585,-12.933552 -1.31918,-4.501337 -1.88202,-9.15212 -2.39369,-13.778993 -0.98986,-9.999271 -1.36012,-20.048926 -1.28942,-30.085773 0,-5.678123 -0.002,-11.359663 0,-17.0369334 z"
   id="path16"
   inkscape:connector-curvature="0"
   style="fill:#0066ff;stroke-width:0.8913309" />
	<path
   d="m 70.151335,9.8834826 c -0.0093,3.0640874 0.0186,6.1315884 -0.01488,9.1973824 -0.227927,9.048789 -0.841004,18.105264 -2.315551,27.057554 -1.175917,7.04364 -2.9063,14.077033 -6.13728,20.588643 -2.744425,5.666168 -6.360554,10.998429 -10.897694,15.604806 -4.392946,4.463762 -9.612936,8.247754 -15.411582,11.061624 -4.886937,2.358701 -10.147862,4.140101 -15.620897,4.893321 0.0046,5.180247 0.0046,10.364767 0,15.545017 4.546443,-0.58839 9.011019,-1.64648 13.350001,-3.01712 7.669507,-2.43213 14.961306,-6.02483 21.070676,-10.959987 6.829433,-5.323728 12.904382,-11.653439 16.770766,-19.134319 2.369509,-4.642244 4.280373,-9.532143 5.202313,-14.601378 1.342443,-7.353635 1.850395,-14.808041 2.232753,-22.247074 0.232579,-5.150364 0.391663,-10.305851 0.361892,-15.463046 -0.0046,-6.175994 0.0075,-12.354552 -0.0046,-18.5322554 -2.862575,0.0069 -5.72422,-0.0017 -8.585865,0.0069"
   id="path18"
   inkscape:connector-curvature="0"
   style="fill:#0066ff;stroke-width:0.8913309" />
	<path
   d="m 82.192385,9.8937296 c 0.0186,23.6049064 0.0019,47.2038354 0.0093,70.8087414 0.0186,11.048814 -0.03908,22.100189 0.02791,33.148149 5.256272,-0.0435 10.514405,-0.0102 15.771608,-0.018 0.0019,-34.649442 0.0019,-69.3006 0,-103.9526124 -5.270227,0.0085 -10.541385,-0.01879 -15.808822,0.01366"
   id="path20"
   inkscape:connector-curvature="0"
   style="fill:#0066ff;stroke-width:0.8913309" />
	<path
   d="m 101.51686,9.8800666 c -0.002,5.6772704 0,11.3588104 0,17.0360804 -0.0707,10.0377 0.29956,20.086502 1.28942,30.085772 0.51167,4.626872 1.07451,9.276803 2.39369,13.778994 1.4392,4.478279 3.27657,8.870306 5.79585,12.933552 3.2189,5.216973 7.50764,9.82762 12.29783,13.882328 2.90629,2.451777 5.93168,4.801937 9.25848,6.765237 4.55668,2.72249 9.51804,4.84378 14.64779,6.48172 4.30734,1.34417 8.73378,2.41164 13.24766,2.97356 -0.006,-5.17769 -0.003,-10.35623 0,-15.534777 -2.29788,-0.30658 -4.5576,-0.81555 -6.7671,-1.464579 -7.91976,-2.33051 -15.21063,-6.378385 -21.22511,-11.644036 -6.29915,-5.505619 -11.13306,-12.335764 -14.48684,-19.68513 -3.53705,-7.596166 -5.12045,-15.808907 -6.24333,-23.963578 -1.37222,-10.49458 -1.76388,-21.079682 -1.67178,-31.6442894 -2.84397,-0.0077 -5.6898,-0.0026 -8.53656,-8.54e-4"
   id="path22"
   inkscape:connector-curvature="0"
   style="fill:#0066ff;stroke-width:0.8913309" />
	<path
   d="m 517.87877,103.561 6.63592,1.8463 -0.12931,-2.08286 c 0,-5.736187 5.35116,-9.509085 11.29959,-9.509085 6.80804,0 11.47263,4.871978 11.47263,10.963425 0,3.65589 -2.09693,7.31093 -5.65072,9.03853 l -2.82538,-2.75238 c 2.73978,-0.90266 4.79484,-3.92831 4.79484,-6.56028 0,-4.00774 -3.59566,-7.152097 -7.92069,-7.152097 -4.15199,0 -7.66205,3.258787 -7.66205,7.070107 0,2.08286 1.06985,4.24514 2.86908,5.54063 v 0.70881 l -16.56796,-4.55855 V 94.247472 h 3.68125 V 103.561 Z"
   id="path24"
   inkscape:connector-curvature="0"
   style="fill:#0066ff;stroke-width:0.8913309" />
	<path
   d="m 542.79442,74.289069 h 3.67939 V 93.425091 L 529.13556,80.456524 c -1.62432,-1.217778 -3.63752,-2.631972 -5.77818,-2.631972 -3.38169,0 -6.16333,2.750676 -6.16333,5.814762 0,3.027364 2.65512,5.502204 5.90749,5.699473 v 3.692617 c -5.7363,-0.588394 -9.5906,-4.007736 -9.5906,-9.39209 0,-5.029098 4.0664,-9.350245 9.67526,-9.350245 2.39649,0 4.79298,0.8258 6.63593,2.198148 l 12.96951,9.745639 V 74.289069 Z"
   id="path26"
   inkscape:connector-curvature="0"
   style="fill:#0066ff;stroke-width:0.8913309" />
	<path
   d="m 513.5128,58.101848 c 0,8.485161 7.5802,15.38704 16.89636,15.38704 9.2436,0 16.7624,-6.901879 16.7624,-15.38704 0,-8.731962 -7.39135,-15.571501 -16.82939,-15.571501 -9.43803,0 -16.82937,6.839539 -16.82937,15.571501 z m 16.89636,-11.934394 c 7.2918,0 13.003,5.323722 13.003,12.122269 0,6.374973 -5.83307,11.56035 -13.003,11.56035 -7.24435,0 -13.13882,-5.185377 -13.13882,-11.56035 0,-6.909565 5.64886,-12.122269 13.13882,-12.122269 z"
   id="path28"
   inkscape:connector-curvature="0"
   style="fill:#0066ff;stroke-width:0.8913309" />
	<path
   d="m 513.5128,25.448152 c 0,8.485161 7.5802,15.387041 16.89636,15.387041 9.2436,0 16.7624,-6.90188 16.7624,-15.387041 0,-8.731108 -7.39228,-15.5715014 -16.82939,-15.5715014 -9.43709,0 -16.82937,6.8403934 -16.82937,15.5715014 z m 16.89636,-11.933539 c 7.2918,0 13.003,5.323721 13.003,12.122269 0,6.374972 -5.83307,11.562057 -13.003,11.562057 -7.24435,0 -13.13882,-5.187085 -13.13882,-11.562057 0,-6.912127 5.64886,-12.122269 13.13882,-12.122269 z"
   id="path30"
   inkscape:connector-curvature="0"
   style="fill:#0066ff;stroke-width:0.8913309" />
</g>
</svg>