<?xml version="1.0" encoding="UTF-8" standalone="no"?>
<!-- Generator: Adobe Illustrator 16.0.3, SVG Export Plug-In . SVG Version: 6.00 Build 0)  -->

<svg
   xmlns:dc="http://purl.org/dc/elements/1.1/"
   xmlns:cc="http://creativecommons.org/ns#"
   xmlns:rdf="http://www.w3.org/1999/02/22-rdf-syntax-ns#"
   xmlns:svg="http://www.w3.org/2000/svg"
   xmlns="http://www.w3.org/2000/svg"
   xmlns:sodipodi="http://sodipodi.sourceforge.net/DTD/sodipodi-0.dtd"
   xmlns:inkscape="http://www.inkscape.org/namespaces/inkscape"
   version="1.1"
   id="Ebene_1"
   x="0px"
   y="0px"
   width="566.929px"
   height="98.437px"
   viewBox="0 0 566.929 98.437"
   enable-background="new 0 0 566.929 98.437"
   xml:space="preserve"
   sodipodi:docname="snes2.svg"
   inkscape:version="0.92.4 (5da689c313, 2019-01-14)"><metadata
   id="metadata16"><rdf:RDF><cc:Work
       rdf:about=""><dc:format>image/svg+xml</dc:format><dc:type
         rdf:resource="http://purl.org/dc/dcmitype/StillImage" /><dc:title></dc:title></cc:Work></rdf:RDF></metadata><defs
   id="defs14" /><sodipodi:namedview
   pagecolor="#ffffff"
   bordercolor="#666666"
   borderopacity="1"
   objecttolerance="10"
   gridtolerance="10"
   guidetolerance="10"
   inkscape:pageopacity="0"
   inkscape:pageshadow="2"
   inkscape:window-width="1380"
   inkscape:window-height="905"
   id="namedview12"
   showgrid="false"
   inkscape:zoom="1.4318522"
   inkscape:cx="283.46451"
   inkscape:cy="49.218498"
   inkscape:window-x="0"
   inkscape:window-y="0"
   inkscape:window-maximized="0"
   inkscape:current-layer="g9" />
<g
   id="g9">
	<g
   id="g6">
		<path
   id="path2842"
   d="M 59.308,59.926 C 59.31,68.114 46.035,74.753 29.656,74.753 13.279,74.755 0.001,68.117 0,59.928 0,59.927 0,59.927 0,59.926 -0.001,51.737 13.274,45.098 29.652,45.097 c 16.377,0 29.655,6.639 29.656,14.826 0,0.002 0,0.002 0,0.003 z"
   inkscape:connector-curvature="0"
   style="fill:#01954b" />
		<path
   id="path3624"
   d="m 110.379,83.357 c 0.002,8.188 -13.273,14.828 -29.651,14.828 -16.377,0 -29.655,-6.637 -29.657,-14.825 0,-0.002 0,-0.002 0,-0.003 -0.002,-8.188 13.273,-14.828 29.651,-14.829 16.379,0 29.655,6.637 29.657,14.826 0,0.002 0,0.002 0,0.003 z"
   inkscape:connector-curvature="0"
   style="fill:#f9ec2b" />
		<path
   id="path3644"
   d="m 60.398,0.252 c -14.947,0 -27.095,11.946 -27.449,26.822 0.621,-0.043 1.239,-0.069 1.871,-0.069 15.169,0 27.466,12.309 27.466,27.492 0,0.227 -0.011,0.446 -0.017,0.671 14.3,-0.96 25.595,-12.867 25.595,-27.424 0,-15.183 -12.297,-27.492 -27.466,-27.492 z"
   inkscape:connector-curvature="0"
   style="fill:#323b98" />
		<path
   id="path3897"
   d="m 112.393,24.334 c -15.165,0 -27.458,12.301 -27.458,27.474 0,0.338 0.005,0.68 0.017,1.013 0.367,-0.014 0.728,-0.032 1.098,-0.032 14.824,0 26.905,11.759 27.441,26.46 14.659,-0.572 26.359,-12.631 26.359,-27.44 0.001,-15.174 -12.292,-27.475 -27.457,-27.475 z"
   inkscape:connector-curvature="0"
   style="fill:#eb2d2f" />
	</g>
	<path
   id="polyline2177"
   d="m 186.893,0 c -3.758,0 -7.412,3.09 -8.083,6.918 v 0.069 0.068 0.069 l -0.068,0.068 V 7.33 7.398 l -0.069,0.137 v 0.138 l -0.069,0.137 v 0.206 l -0.068,0.137 v 0.206 l -0.069,0.205 -0.069,0.206 -0.068,0.41 -0.137,0.479 -0.067,0.479 -0.138,0.479 -0.069,0.547 -0.138,0.548 -0.136,0.616 -0.138,0.548 -0.205,1.165 -0.138,0.617 -0.137,0.547 -0.067,0.548 -0.138,0.547 -0.136,0.548 -0.069,0.548 -0.069,0.479 -0.138,0.411 -0.069,0.479 v 0.206 l -0.067,0.137 v 0.206 0.137 l -0.068,0.206 v 0.137 0.137 l -0.069,0.137 v 0.069 0.068 c -0.07,1.675 0.163,3.96 0.685,4.385 0.665,3.688 12.958,20.758 12.604,23.358 -0.332,2.606 -1.781,10.276 -1.781,10.276 -0.446,2.585 -2.21,4.657 -4.794,4.657 -2.586,0 -4.351,-2.065 -3.905,-4.657 l 2.329,-12.741 h -9.179 l -3.083,17.674 c -0.628,3.588 1.801,6.438 5.411,6.438 h 13.085 c 3.624,0 7.076,-2.85 7.739,-6.438 0,0 3.372,-16.508 3.356,-17.674 -0.013,-1.174 -0.341,-1.302 -0.341,-1.302 0,-1.342 -10.939,-19.4 -12.056,-20.072 -0.481,-0.281 -0.877,-2.069 -0.892,-3.15 -0.021,-1.074 1.439,-8.289 1.439,-8.289 0.444,-2.585 2.894,-4.658 5.48,-4.658 2.585,0 3.664,2.073 3.219,4.658 l -1.986,11.439 h 9.247 l 3.22,-17.194 C 206.663,3.09 204.213,0 200.455,0 Z M 212.1,0 201.141,63.16 c -0.628,3.588 1.802,6.438 5.412,6.438 h 13.084 c 3.624,0 7.138,-2.85 7.809,-6.438 L 239.158,0 h -8.219 l -11.167,61.377 c -0.163,0.892 -1.028,1.645 -1.917,1.645 h -6.509 c -0.911,0 -1.519,-0.747 -1.371,-1.645 L 220.869,0 Z m 31.511,0 -13.221,69.597 h 8.768 l 6.029,-31.51 h 11.166 c 3.632,0 7.074,-2.871 7.739,-6.438 l 4.795,-24.73 C 269.611,3.083 267.167,0 263.41,0 h -11.03 z m 31.306,0 -13.699,69.597 h 19.727 l 1.37,-8.631 h -9.727 l 3.974,-23.496 h 9.726 l 1.37,-7.261 h -9.725 l 4.315,-21.578 h 9.728 L 293.344,0 Z m 23.564,0 -13.151,69.597 h 8.768 l 5.96,-31.51 h 6.235 c 0.818,0.763 0.915,2.171 1.024,2.877 0.164,1.025 0.334,2.333 0.208,3.357 -0.114,1.017 -4.797,25.276 -4.797,25.276 h 8.769 c 0,0 4.933,-26.428 4.933,-26.852 0.014,-0.431 0,-1.785 -0.478,-2.534 -0.322,-0.48 -0.873,-1.583 -1.509,-1.986 -1.223,-0.785 -2.603,-1.303 -2.603,-1.303 h -0.62 c 2.512,-0.989 7.24,-2.618 7.744,-5.274 l 4.794,-24.73 C 324.486,3.083 322.037,0 318.279,0 Z m 46.924,0 -13.222,69.597 h 10.071 l 8.15,-40.346 3.221,40.346 h 8.769 L 375.614,0 H 365.545 L 358.694,36.375 354.173,0 Z m 34.798,0 -13.22,69.597 h 8.769 L 388.97,0 Z m 13.356,0 -13.219,69.597 h 10.139 l 8.151,-40.346 3.22,40.346 h 8.769 L 423.84,0 H 413.701 L 406.92,36.375 402.398,0 Z m 33.979,0 -1.646,8.632 h 5.481 l -10.824,60.965 h 10.003 L 441.58,8.632 h 5.274 L 448.225,0 Z m 24.111,0 -13.698,69.597 h 19.726 l 1.371,-8.631 h -9.726 l 4.042,-23.496 h 9.725 l 1.371,-7.261 h -9.726 l 4.245,-21.578 h 9.728 L 470.077,0 Z m 22.264,0 -13.22,69.597 h 10.137 l 8.153,-40.346 3.219,40.346 h 8.768 L 504.193,0 H 494.054 L 487.272,36.375 482.749,0 Z m 34.869,0 -13.223,69.597 h 20.003 c 3.633,0 7.137,-2.85 7.81,-6.438 L 533.988,6.918 C 534.709,3.083 532.268,0 528.51,0 Z m 37.606,0 c -3.76,0 -7.344,3.09 -8.015,6.918 l -9.798,56.241 c -0.635,3.588 1.74,6.438 5.347,6.438 h 14.452 c 3.624,0 7.138,-2.85 7.812,-6.438 L 566.801,6.918 C 567.529,3.09 565.072,0 561.322,0 Z m -30.14,8.015 h 4.042 c 2.585,0 4.349,2.073 3.903,4.658 l -8.631,45.554 c -0.451,2.585 -2.962,4.727 -5.548,4.727 h -3.973 z m 35.277,0 h 0.275 c 2.585,0 4.281,2.073 3.834,4.658 l -8.217,45.554 c -0.448,2.577 -2.829,4.727 -5.412,4.727 -2.587,0 -3.666,-2.142 -3.223,-4.727 l 8.153,-45.554 0.067,-0.206 0.07,-0.206 0.067,-0.274 0.068,-0.206 0.07,-0.274 0.067,-0.206 0.07,-0.206 0.134,-0.205 0.069,-0.206 0.138,-0.206 0.068,-0.205 0.138,-0.206 0.138,-0.137 0.135,-0.205 0.138,-0.206 0.205,-0.137 0.138,-0.138 0.137,-0.137 0.205,-0.137 0.206,-0.137 0.138,-0.137 0.204,-0.138 0.206,-0.068 0.207,-0.137 0.137,-0.069 0.273,-0.069 0.205,-0.068 h 0.204 l 0.206,-0.069 h 0.275 z M 252.036,8.289 h 4.248 c 0.933,0 2.911,2.136 2.741,3.083 l -3.632,17.194 c -0.169,0.89 -1.37,2.945 -2.258,2.945 h -5.14 -0.068 -0.068 l -0.069,-0.068 h -0.067 -0.069 -0.069 -0.069 v -0.069 h -0.069 -0.068 l -0.07,-0.068 h -0.068 l -0.068,-0.069 -0.068,-0.068 h -0.068 V 31.1 l -0.069,-0.068 -0.069,-0.069 v -0.069 l -0.068,-0.068 -0.07,-0.069 V 30.689 30.62 l -0.068,-0.068 v -0.069 -0.068 l -0.07,-0.069 v -0.068 c 0,-0.114 -0.012,-0.285 0,-0.412 l 4.111,-21.03 c 0.377,-0.309 0.837,-0.547 1.302,-0.547 z m 54.595,0 h 0.07 0.068 0.069 0.068 3.974 c 0.933,0 2.923,2.136 2.738,3.083 l -3.632,17.125 c -0.159,0.897 -2.389,3.014 -3.286,3.014 h -3.768 c -0.777,0 -1.314,-0.511 -1.369,-1.231 0,-0.114 -0.016,-0.278 0,-0.412 l 4.042,-21.03 0.067,-0.069 0.07,-0.068 0.134,-0.069 h 0.068 l 0.069,-0.069 0.068,-0.068 h 0.069 l 0.068,-0.069 h 0.07 l 0.136,-0.068 h 0.067 0.068 0.067 V 8.289 Z M 167.438,75.626 V 98.437 H 558.443 V 75.626 Z m 287.434,2.397 h 0.066 0.067 0.07 0.067 0.068 3.017 c 0.811,0 1.395,0.651 1.232,1.507 l -0.755,3.838 h -1.848 l 0.409,-2.535 c 0.094,-0.573 -0.244,-1.029 -0.823,-1.029 -0.571,0 -1.135,0.454 -1.232,1.029 l -0.34,1.85 c -0.058,0.11 0.114,0.629 0.204,0.686 0.254,0.146 2.671,4.153 2.671,4.451 0.058,0.149 0.09,0.22 0.067,0.275 -0.069,0.501 -0.753,3.903 -0.753,3.903 -0.147,0.781 -0.907,1.438 -1.712,1.438 h -2.877 c -0.799,0 -1.313,-0.657 -1.165,-1.438 l 0.686,-3.903 h 1.988 l -0.479,2.809 c -0.092,0.571 0.239,1.095 0.818,1.095 0.554,0 1.144,-0.52 1.237,-1.095 l 0.409,-2.261 c -0.367,-0.945 -2.791,-4.388 -2.946,-5.207 -0.106,-0.092 -0.152,-0.587 -0.136,-0.959 0.021,-0.407 0.547,-2.946 0.547,-2.946 h 0.07 v -0.068 -0.067 -0.068 l 0.067,-0.138 v -0.067 l 0.066,-0.07 v -0.068 l 0.069,-0.067 V 78.85 l 0.068,-0.067 0.07,-0.07 v -0.067 h 0.067 l 0.07,-0.068 0.067,-0.07 0.068,-0.067 v -0.07 h 0.069 l 0.066,-0.067 0.067,-0.068 h 0.07 l 0.068,-0.067 h 0.069 l 0.068,-0.068 h 0.067 0.138 z m 15.753,0 h 2.467 l 0.342,5.824 3.15,-5.824 h 2.468 l -5.07,8.906 -1.233,6.507 h -2.191 l 1.097,-6.988 z m 22.401,0 h 0.067 0.07 0.067 0.07 0.067 3.013 c 0.812,0 1.381,0.651 1.233,1.507 l -0.754,3.838 h -1.85 l 0.413,-2.535 c 0.091,-0.573 -0.243,-1.029 -0.822,-1.029 -0.574,0 -1.144,0.454 -1.233,1.029 l -0.343,1.85 c -0.072,0.11 0.092,0.629 0.205,0.686 0.242,0.146 2.671,4.153 2.671,4.451 0.072,0.149 0.07,0.22 0.07,0.275 -0.094,0.501 -0.686,3.903 -0.686,3.903 -0.147,0.781 -0.915,1.438 -1.714,1.438 h -2.944 c -0.798,0 -1.314,-0.657 -1.167,-1.438 l 0.686,-3.903 h 1.987 l -0.479,2.809 c -0.092,0.571 0.264,1.095 0.823,1.095 0.571,0 1.119,-0.52 1.232,-1.095 l 0.41,-2.261 c -0.374,-0.945 -2.787,-4.388 -2.945,-5.207 -0.105,-0.092 -0.149,-0.587 -0.136,-0.959 0.021,-0.407 0.548,-2.946 0.548,-2.946 l 0.067,-0.068 v -0.067 -0.068 l 0.068,-0.138 v -0.067 l 0.069,-0.07 v -0.068 l 0.068,-0.067 V 78.85 l 0.069,-0.067 0.068,-0.07 v -0.067 h 0.07 l 0.065,-0.068 0.068,-0.07 0.069,-0.067 0.068,-0.07 0.067,-0.067 0.07,-0.068 h 0.068 l 0.069,-0.067 h 0.068 l 0.067,-0.068 h 0.068 0.136 z m 15.96,0 h 4.591 l -0.344,1.851 h -1.165 l -2.396,13.563 h -2.26 l 2.396,-13.563 h -1.163 z m 17.948,0 h 4.109 l -0.344,1.851 h -2.124 l -0.956,4.864 h 2.191 l -0.344,1.574 h -2.124 l -0.889,5.206 h 2.121 l -0.271,1.918 h -4.385 z m 16.919,0 h 2.535 l 0.409,8.906 3.906,-8.836 2.465,-0.07 -2.601,15.413 h -1.918 l 1.232,-8.15 -3.426,8.15 h -1.371 l -0.409,-8.358 -1.508,8.358 h -2.262 z m -367.921,0.55 h 4.042 l -0.275,1.916 h -2.191 l -0.89,4.797 h 2.124 l -0.275,1.644 h -2.192 l -0.821,5.207 h 2.123 l -0.343,1.917 h -4.384 z m 18.906,0 h 1.918 l 1.027,8.083 1.506,-8.083 h 2.262 l -2.947,15.48 h -1.917 l -0.754,-8.976 -1.78,8.976 h -2.262 z m 20.551,0 h 4.521 l -0.273,1.916 h -1.165 l -2.466,13.564 h -2.19 l 2.396,-13.564 h -1.233 z m 19.934,0 h 4.11 l -0.343,1.916 h -2.124 l -0.959,4.797 h 2.124 l -0.274,1.644 h -2.123 l -0.89,5.207 h 2.123 l -0.273,1.917 h -4.384 z m 19.318,0 h 4.383 c 0.813,0 1.327,0.719 1.165,1.574 l -1.027,5.48 c -0.114,0.593 -1.157,1.078 -1.714,1.302 h 0.138 0.068 0.07 v 0.068 h 0.068 0.07 0.066 0.07 l 0.068,0.067 h 0.068 0.068 0.07 v 0.068 h 0.068 0.07 v 0.07 h 0.068 c 0.092,0.165 0.136,0.659 0.136,0.753 0,0.092 -1.097,6.097 -1.097,6.097 h -1.986 c 0,0 1.061,-5.394 1.097,-5.617 0.022,-0.24 -0.026,-0.529 -0.068,-0.753 -0.016,-0.166 -0.024,-0.45 -0.206,-0.618 h -1.371 l -1.301,6.988 h -1.987 z m 19.59,0 h 4.589 l -0.273,1.916 h -1.163 l -2.467,13.564 h -2.192 l 2.397,-13.564 h -1.232 z m 22.811,0 h 2.604 l -0.822,15.48 h -2.604 l 0.342,-3.563 h -1.574 l -1.303,3.563 h -2.327 z m 18.224,0 h 1.986 l -2.947,15.48 h -1.918 z m 17.671,0 h 1.92 l 1.026,8.083 1.509,-8.083 h 2.191 l -2.877,15.48 h -1.986 l -0.685,-8.976 -1.784,8.976 h -2.258 z m 22.675,0 h 2.535 l 0.409,8.974 3.908,-8.905 h 2.463 l -2.602,15.412 h -1.917 l 1.232,-8.152 -3.427,8.152 h -1.37 l -0.409,-8.356 -1.507,8.356 h -2.193 z m 24.866,0 h 4.042 l -0.276,1.916 h -2.191 l -0.889,4.797 h 2.123 l -0.275,1.644 h -2.191 l -0.89,5.207 h 2.19 l -0.342,1.917 h -4.315 z m 19.864,0 h 1.918 l 1.028,8.083 1.507,-8.083 h 2.191 l -2.875,15.48 h -1.918 l -0.755,-8.976 -1.782,8.976 h -2.26 z m 20.346,0 h 4.589 l -0.342,1.916 h -1.163 l -2.399,13.564 h -2.193 l 2.399,-13.564 h -1.232 z M 256.491,80.42 c -0.108,0 -0.198,0.064 -0.276,0.138 l -0.89,4.657 c 0,0.038 0,0.032 0,0.07 0,0.149 0.104,0.273 0.274,0.273 h 0.821 c 0.204,0 0.717,-0.411 0.755,-0.617 l 0.751,-3.836 c 0.036,-0.22 -0.342,-0.686 -0.547,-0.686 h -0.888 z m 40.551,4.658 -1.437,3.905 h 1.095 z"
   inkscape:connector-curvature="0"
   style="fill:#808080" />
</g>
</svg>