<?xml version="1.0" encoding="UTF-8" standalone="no"?>
<!-- Generator: Adobe Illustrator 16.0.3, SVG Export Plug-In . SVG Version: 6.00 Build 0)  -->

<svg
   xmlns:dc="http://purl.org/dc/elements/1.1/"
   xmlns:cc="http://creativecommons.org/ns#"
   xmlns:rdf="http://www.w3.org/1999/02/22-rdf-syntax-ns#"
   xmlns:svg="http://www.w3.org/2000/svg"
   xmlns="http://www.w3.org/2000/svg"
   xmlns:sodipodi="http://sodipodi.sourceforge.net/DTD/sodipodi-0.dtd"
   xmlns:inkscape="http://www.inkscape.org/namespaces/inkscape"
   version="1.1"
   x="0px"
   y="0px"
   width="218.32248"
   height="175.67101"
   viewBox="0 0 218.32248 175.671"
   enable-background="new 0 0 210 200"
   xml:space="preserve"
   id="svg158"
   sodipodi:docname="saturn.svg"
   inkscape:version="0.92.4 (5da689c313, 2019-01-14)"><metadata
   id="metadata164"><rdf:RDF><cc:Work
       rdf:about=""><dc:format>image/svg+xml</dc:format><dc:type
         rdf:resource="http://purl.org/dc/dcmitype/StillImage" /><dc:title></dc:title></cc:Work></rdf:RDF></metadata><defs
   id="defs162" /><sodipodi:namedview
   pagecolor="#ffffff"
   bordercolor="#666666"
   borderopacity="1"
   objecttolerance="10"
   gridtolerance="10"
   guidetolerance="10"
   inkscape:pageopacity="0"
   inkscape:pageshadow="2"
   inkscape:window-width="1487"
   inkscape:window-height="948"
   id="namedview160"
   showgrid="false"
   fit-margin-top="0"
   fit-margin-left="0"
   fit-margin-right="0"
   fit-margin-bottom="0"
   inkscape:zoom="1.18"
   inkscape:cx="-25.973795"
   inkscape:cy="95.145003"
   inkscape:window-x="95"
   inkscape:window-y="23"
   inkscape:window-maximized="0"
   inkscape:current-layer="svg158" />
<g
   id="Ebene_2_1_"
   transform="matrix(0.61716533,0,0,0.63175235,42.274478,25.269598)">
	
		<linearGradient
   id="SVGID_1_"
   gradientUnits="userSpaceOnUse"
   x1="38.6479"
   y1="-351.04099"
   x2="70.2686"
   y2="-319.42068"
   gradientTransform="matrix(1,0,0,-1,-0.1348,-195.7207)">
		<stop
   offset="0"
   style="stop-color:#999999"
   id="stop2" />
		<stop
   offset="0.98"
   style="stop-color:#F3F3F3"
   id="stop4" />
	</linearGradient>
	<path
   d="m 69.257,126.199 c -0.447,-0.744 -1.049,-1.191 -1.797,-1.439 -13.635,-3.826 -22.427,-3.277 -26.321,1.74 -1.4,1.641 -2.249,3.23 -2.499,4.869 -0.301,1.639 -0.101,3.18 0.647,4.672 h -0.05 c 0.551,1.141 1.399,2.184 2.499,3.129 h 0.05 c 0.899,0.744 1.847,1.342 2.946,1.84 0.748,0.396 2.499,0.645 5.294,0.693 0.551,0.051 1.6,0.051 3.197,0.051 1.399,0.051 2.499,0.051 3.297,0.1 h 0.05 c 2.499,0.051 5.033,0.293 5.846,0.545 0.809,0.254 2.233,1.728 2.344,2.39 0.115,0.655 0,0 0,0 0.15,0.396 0.301,0.502 0.158,1.508 -0.146,1.006 -0.455,0.826 -0.855,1.324 v -0.054 c -0.451,0.398 -1.199,0.695 -2.248,0.996 -1.497,0.351 -3.297,0.597 -5.395,0.646 -2.098,0.049 -4.196,0 -6.343,-0.248 -2.048,-0.25 -3.845,-0.6 -5.345,-1.045 -0.748,-0.246 -1.546,-0.197 -2.248,0.201 -0.748,0.348 -1.249,0.943 -1.497,1.738 -0.25,0.744 -0.15,1.539 0.197,2.283 0.401,0.694 1.002,1.19 1.75,1.442 1.797,0.594 3.945,0.989 6.443,1.291 2.449,0.248 4.843,0.348 7.242,0.297 2.599,-0.101 4.847,-0.396 6.694,-0.844 2.595,-0.648 4.396,-1.642 5.344,-2.933 h 0.05 c 0.798,-0.996 1.396,-1.893 1.747,-2.688 v -0.051 c 0.401,-0.99 0.601,-1.986 0.601,-3.027 v -0.102 c -0.05,-0.744 0.014,-1.834 -0.387,-2.879 -0.15,-0.545 -0.297,-0.847 -1.099,-2.582 -0.805,-1.73 -2.663,-2.838 -5.91,-3.531 h -0.05 c -1.597,-0.301 -3.895,-0.549 -6.841,-0.646 -0.848,-0.052 -1.998,-0.052 -3.497,-0.103 -1.497,0 -2.545,0 -3.097,-0.05 -1.597,-0.047 -2.646,-0.099 -3.046,-0.196 -0.551,-0.25 -1.049,-0.547 -1.45,-0.896 -0.447,-0.397 -0.798,-0.795 -0.999,-1.19 v -0.05 c -0.201,-0.297 -0.251,-0.646 -0.15,-0.996 0.15,-0.646 0.501,-1.338 1.149,-1.985 2.996,-2.881 9.69,-2.881 20.129,0.101 0.802,0.197 1.55,0.149 2.248,-0.297 0.752,-0.396 1.25,-0.994 1.45,-1.789 0.254,-0.741 0.154,-1.489 -0.248,-2.235 z"
   id="path7"
   inkscape:connector-curvature="0"
   style="fill:url(#SVGID_1_)" />
	
		<linearGradient
   id="SVGID_2_"
   gradientUnits="userSpaceOnUse"
   x1="4.5542002"
   y1="-389.2583"
   x2="36.770901"
   y2="-357.0415"
   gradientTransform="matrix(1,0,0,-1,-0.1348,-195.7207)">
		<stop
   offset="0"
   style="stop-color:#999999"
   id="stop9" />
		<stop
   offset="0.98"
   style="stop-color:#F3F3F3"
   id="stop11" />
	</linearGradient>
	<path
   d="m 35.751,163.83 c -0.447,-0.744 -1.049,-1.191 -1.797,-1.439 -13.635,-3.826 -22.427,-3.279 -26.322,1.74 -1.399,1.639 -2.248,3.229 -2.499,4.869 -0.301,1.639 -0.1,3.178 0.648,4.67 h -0.05 c 0.551,1.143 1.4,2.184 2.499,3.129 h 0.05 c 0.898,0.744 1.847,1.342 2.946,1.84 0.748,0.398 2.499,0.646 5.294,0.695 0.552,0.049 1.601,0.049 3.197,0.049 1.4,0.051 2.499,0.051 3.297,0.102 h 0.05 c 2.499,0.052 5.033,0.293 5.846,0.543 0.809,0.257 2.234,1.729 2.345,2.392 0.115,0.658 0,0 0,0 0.15,0.396 0.301,0.5 0.157,1.506 -0.146,1.011 -0.455,0.828 -0.855,1.326 V 185.2 c -0.451,0.396 -1.2,0.69 -2.249,0.993 -1.496,0.349 -3.297,0.597 -5.395,0.646 -2.098,0.054 -4.195,0 -6.343,-0.246 -2.047,-0.25 -3.844,-0.598 -5.344,-1.045 -0.749,-0.248 -1.546,-0.194 -2.248,0.199 -0.749,0.351 -1.25,0.942 -1.497,1.737 -0.25,0.744 -0.15,1.539 0.197,2.283 0.401,0.695 1.002,1.193 1.75,1.443 1.797,0.594 3.945,0.992 6.444,1.293 2.448,0.246 4.843,0.348 7.242,0.297 2.599,-0.1 4.847,-0.398 6.694,-0.846 2.595,-0.648 4.396,-1.639 5.345,-2.932 h 0.05 c 0.798,-0.994 1.396,-1.892 1.747,-2.687 v -0.051 c 0.401,-0.992 0.602,-1.985 0.602,-3.029 v -0.1 c -0.05,-0.744 0.014,-1.832 -0.387,-2.88 -0.15,-0.545 -0.297,-0.846 -1.099,-2.579 -0.806,-1.732 -2.663,-2.841 -5.91,-3.533 h -0.05 c -1.597,-0.301 -3.895,-0.547 -6.841,-0.646 -0.849,-0.049 -1.998,-0.049 -3.498,-0.103 -1.496,0 -2.545,0 -3.096,-0.051 -1.597,-0.045 -2.646,-0.099 -3.046,-0.195 -0.552,-0.252 -1.049,-0.549 -1.45,-0.896 -0.448,-0.396 -0.798,-0.795 -0.999,-1.19 v -0.051 c -0.201,-0.298 -0.25,-0.646 -0.15,-0.994 0.15,-0.646 0.501,-1.34 1.149,-1.985 2.996,-2.884 9.69,-2.884 20.128,0.102 0.802,0.195 1.55,0.148 2.248,-0.299 0.752,-0.396 1.25,-0.996 1.45,-1.791 0.251,-0.742 0.151,-1.49 -0.25,-2.234 z"
   id="path14"
   inkscape:connector-curvature="0"
   style="fill:url(#SVGID_2_)" />
	
		<linearGradient
   id="SVGID_3_"
   gradientUnits="userSpaceOnUse"
   x1="72.2407"
   y1="-348.3638"
   x2="103.0264"
   y2="-317.57791"
   gradientTransform="matrix(1,0,0,-1,-0.1348,-195.7207)">
		<stop
   offset="0"
   style="stop-color:#999999"
   id="stop16" />
		<stop
   offset="0.98"
   style="stop-color:#F3F3F3"
   id="stop18" />
	</linearGradient>
	<path
   d="m 98.647,123.68 c -0.602,-0.547 -1.299,-0.846 -2.148,-0.846 H 76.517 c -0.798,0 -1.546,0.299 -2.098,0.846 -0.598,0.594 -0.898,1.293 -0.898,2.137 v 24.847 c 0,0.795 0.301,1.543 0.898,2.088 0.551,0.601 1.299,0.896 2.098,0.896 h 19.982 c 0.849,0 1.546,-0.297 2.148,-0.896 0.548,-0.545 0.849,-1.293 0.849,-2.088 0,-0.847 -0.301,-1.539 -0.849,-2.14 -0.602,-0.545 -1.299,-0.846 -2.148,-0.846 H 79.517 v -6.457 h 12.486 c 0.849,0 1.546,-0.297 2.148,-0.895 0.547,-0.549 0.849,-1.293 0.849,-2.088 0,-0.844 -0.301,-1.539 -0.849,-2.137 -0.602,-0.552 -1.299,-0.849 -2.148,-0.849 H 79.517 v -6.457 h 16.982 c 0.849,0 1.546,-0.301 2.148,-0.896 0.548,-0.549 0.849,-1.24 0.849,-2.088 0,-0.838 -0.301,-1.538 -0.849,-2.131 z"
   id="path21"
   inkscape:connector-curvature="0"
   style="fill:url(#SVGID_3_)" />
	
		<linearGradient
   id="SVGID_4_"
   gradientUnits="userSpaceOnUse"
   x1="101.5142"
   y1="-351.62549"
   x2="135.3996"
   y2="-317.73999"
   gradientTransform="matrix(1,0,0,-1,-0.1348,-195.7207)">
		<stop
   offset="0"
   style="stop-color:#999999"
   id="stop23" />
		<stop
   offset="0.98"
   style="stop-color:#F3F3F3"
   id="stop25" />
	</linearGradient>
	<path
   d="m 133.141,127.195 c -0.147,-0.863 -0.598,-1.563 -1.244,-2.047 -5.482,-3.938 -11.492,-4.687 -17.301,-3.666 -2.291,0.537 -3.033,0.483 -5.535,1.725 -2.498,1.236 -4.239,3.533 -4.239,3.533 -1.195,1.297 -1.843,2.879 -2.642,4.977 -0.799,2.098 -0.795,3.139 -0.895,5.727 -0.1,2.591 0.247,4.966 0.995,7.228 0.748,2.269 1.894,4.267 3.441,5.938 v -0.058 c 1.495,1.729 3.34,3.072 5.483,3.937 2.144,0.918 4.487,1.404 7.028,1.404 5.98,0 10.322,-1.353 13.014,-4.047 3.141,-2.75 4.436,-6.9 3.938,-12.455 -0.05,-0.863 -0.396,-1.515 -0.947,-2.104 -0.598,-0.541 -1.244,-0.812 -2.045,-0.812 H 119.23 c -0.795,0 -1.543,0.32 -2.098,0.916 -0.598,0.646 -0.896,1.398 -0.896,2.318 0,0.863 0.299,1.672 0.896,2.264 0.555,0.646 1.303,0.969 2.098,0.969 h 9.973 c -0.2,1.619 -0.85,2.972 -1.848,3.992 -1.943,1.672 -4.982,2.48 -9.121,2.48 -1.746,0 -3.393,-0.322 -4.836,-0.916 l -0.051,-0.053 c -1.298,-0.541 -2.393,-1.297 -3.342,-2.375 -0.945,-1.023 -1.646,-2.266 -2.094,-3.611 -0.498,-1.457 -0.698,-3.074 -0.646,-4.801 0.049,-1.832 0.25,-2.828 0.596,-4.066 0.252,-0.92 0.648,-1.672 1.197,-2.266 0,0 0.893,-1.385 2.396,-2.133 1.504,-0.752 2.592,-0.971 4.437,-1.457 h 0.051 c 4.39,-1.078 8.576,-0.162 12.615,2.803 0.695,0.486 1.443,0.646 2.238,0.486 0.801,-0.215 1.446,-0.648 1.896,-1.402 0.45,-0.699 0.6,-1.508 0.45,-2.428 z"
   id="path28"
   inkscape:connector-curvature="0"
   style="fill:url(#SVGID_4_)" />
	
		<linearGradient
   id="SVGID_5_"
   gradientUnits="userSpaceOnUse"
   x1="140.5303"
   y1="-352.93799"
   x2="173.7048"
   y2="-319.7637"
   gradientTransform="matrix(1,0,0,-1,-0.1348,-195.7207)">
		<stop
   offset="0"
   style="stop-color:#999999"
   id="stop30" />
		<stop
   offset="0.98"
   style="stop-color:#F3F3F3"
   id="stop32" />
	</linearGradient>
	<path
   d="m 170.887,153.406 c 0.5,-0.695 0.696,-1.389 0.598,-2.234 -3.146,-20.723 -8.789,-30.861 -16.98,-30.363 -8.188,-0.498 -13.886,9.293 -16.934,29.367 -0.102,0.795 0.052,1.541 0.553,2.189 0.498,0.693 1.146,1.09 1.945,1.191 0.801,0.146 1.549,-0.054 2.248,-0.552 0.647,-0.496 1.051,-1.141 1.199,-1.938 0.375,-2.493 0.787,-4.797 1.23,-6.907 h 0.016 19.377 c 0.504,2.389 0.973,5.021 1.402,7.897 0.15,0.795 0.501,1.443 1.199,1.941 0.646,0.498 1.398,0.693 2.197,0.543 0.799,-0.089 1.448,-0.485 1.95,-1.134 z M 146.23,138.203 c 2.186,-7.354 4.951,-11.162 8.271,-11.43 3.22,0.264 5.953,4.076 8.144,11.43 z"
   id="path35"
   inkscape:connector-curvature="0"
   style="fill:url(#SVGID_5_)" />
	
		<linearGradient
   id="SVGID_6_"
   gradientUnits="userSpaceOnUse"
   x1="41.659199"
   y1="-393.1929"
   x2="76.501503"
   y2="-358.35059"
   gradientTransform="matrix(1,0,0,-1,-0.1348,-195.7207)">
		<stop
   offset="0"
   style="stop-color:#999999"
   id="stop37" />
		<stop
   offset="0.98"
   style="stop-color:#F3F3F3"
   id="stop39" />
	</linearGradient>
	<path
   d="m 43.867,192.836 c 0.651,-0.498 1.052,-1.145 1.199,-1.939 0.379,-2.492 0.791,-4.797 1.231,-6.903 h 19.398 c 0.505,2.389 0.97,5.021 1.399,7.897 0.15,0.795 0.498,1.443 1.199,1.938 0.648,0.496 1.396,0.696 2.198,0.547 0.798,-0.101 1.446,-0.498 1.947,-1.142 0.498,-0.698 0.698,-1.395 0.598,-2.237 -3.146,-20.72 -8.792,-30.856 -16.982,-30.358 -8.19,-0.498 -13.835,9.293 -16.932,29.366 -0.15,0.795 0.05,1.539 0.548,2.187 0.501,0.697 1.149,1.096 1.951,1.19 0.85,0.149 1.547,-0.048 2.246,-0.546 z m 3.916,-14.809 c 2.188,-7.353 4.955,-11.158 8.273,-11.426 3.25,0.26 5.975,4.073 8.151,11.426 z"
   id="path42"
   inkscape:connector-curvature="0"
   style="fill:url(#SVGID_6_)" />
	
		<linearGradient
   id="SVGID_7_"
   gradientUnits="userSpaceOnUse"
   x1="65.560997"
   y1="-385.3555"
   x2="98.136398"
   y2="-352.78"
   gradientTransform="matrix(1,0,0,-1,-0.1348,-195.7207)">
		<stop
   offset="0"
   style="stop-color:#999999"
   id="stop44" />
		<stop
   offset="0.98"
   style="stop-color:#F3F3F3"
   id="stop46" />
	</linearGradient>
	<path
   d="m 98.661,162.971 c -0.598,-0.545 -1.299,-0.844 -2.147,-0.844 H 70.542 c -0.802,0 -1.55,0.299 -2.101,0.844 -0.598,0.598 -0.898,1.293 -0.898,2.137 0,0.795 0.301,1.539 0.898,2.088 0.551,0.601 1.299,0.896 2.101,0.896 h 9.988 v 22.854 c 0,0.798 0.3,1.543 0.898,2.091 0.551,0.598 1.299,0.896 2.098,0.896 0.852,0 1.55,-0.299 2.147,-0.896 0.552,-0.548 0.853,-1.293 0.853,-2.091 V 168.09 h 9.987 c 0.848,0 1.55,-0.297 2.147,-0.895 0.551,-0.549 0.849,-1.293 0.849,-2.088 0.001,-0.843 -0.297,-1.539 -0.848,-2.136 z"
   id="path49"
   inkscape:connector-curvature="0"
   style="fill:url(#SVGID_7_)" />
	
		<linearGradient
   id="SVGID_8_"
   gradientUnits="userSpaceOnUse"
   x1="99.602097"
   y1="-388.37549"
   x2="132.5367"
   y2="-355.4408"
   gradientTransform="matrix(1,0,0,-1,-0.1348,-195.7207)">
		<stop
   offset="0"
   style="stop-color:#999999"
   id="stop51" />
		<stop
   offset="0.98"
   style="stop-color:#F3F3F3"
   id="stop53" />
	</linearGradient>
	<path
   d="m 133.656,162.377 c -0.598,-0.598 -1.297,-0.895 -2.147,-0.895 -0.799,0 -1.547,0.297 -2.098,0.895 -0.599,0.543 -0.899,1.291 -0.899,2.086 v 14.756 c 0,1.146 -0.199,2.238 -0.646,3.232 -0.4,1.041 -1.05,1.887 -1.802,2.682 -0.799,0.744 -1.646,1.393 -2.694,1.789 -0.998,0.447 -2.099,0.645 -3.247,0.645 h -4.445 c -1.148,0 -2.197,-0.194 -3.246,-0.645 -1.05,-0.396 -1.896,-1.045 -2.695,-1.789 -0.752,-0.795 -1.351,-1.641 -1.801,-2.635 v -0.047 c -0.396,-0.994 -0.646,-2.086 -0.646,-3.232 v -14.756 c 0,-0.795 -0.302,-1.543 -0.851,-2.086 -0.603,-0.598 -1.297,-0.895 -2.146,-0.895 -0.798,0 -1.55,0.297 -2.098,0.895 -0.602,0.543 -0.898,1.291 -0.898,2.086 v 14.756 c 0,1.941 0.397,3.777 1.099,5.566 h 0.05 c 0.698,1.74 1.747,3.229 3.046,4.572 1.347,1.291 2.847,2.334 4.593,3.082 1.751,0.744 3.599,1.092 5.597,1.092 h 4.444 c 1.998,0 3.847,-0.348 5.646,-1.092 h -0.051 c 1.746,-0.748 3.246,-1.791 4.598,-3.082 1.295,-1.344 2.346,-2.832 3.097,-4.572 v 0.051 c 0.748,-1.791 1.101,-3.627 1.101,-5.617 v -14.756 c -0.009,-0.795 -0.309,-1.543 -0.861,-2.086 z"
   id="path56"
   inkscape:connector-curvature="0"
   style="fill:url(#SVGID_8_)" />
	
		<linearGradient
   id="SVGID_9_"
   gradientUnits="userSpaceOnUse"
   x1="137.09669"
   y1="-389.8291"
   x2="170.2666"
   y2="-356.659"
   gradientTransform="matrix(1,0,0,-1,-0.1348,-195.7207)">
		<stop
   offset="0"
   style="stop-color:#999999"
   id="stop58" />
		<stop
   offset="0.98"
   style="stop-color:#F3F3F3"
   id="stop60" />
	</linearGradient>
	<path
   d="m 137.684,162.406 c -0.529,0.543 -0.849,1.184 -0.849,1.971 v 25.664 c 0,0.787 0.319,1.527 0.901,2.072 0.639,0.59 1.437,0.887 2.285,0.887 0.902,0 1.646,-0.297 2.23,-0.887 0.641,-0.545 0.956,-1.285 0.956,-2.072 v -22.9 c 6.854,-0.393 12.108,-0.047 15.772,0.988 2.763,0.838 4.25,2.219 4.406,4.145 0.055,1.529 -0.582,2.617 -1.91,3.261 -2.127,0.889 -5.26,1.135 -9.398,0.688 -0.744,-0.051 -1.383,0.051 -2.021,0.443 -0.638,0.344 -1.063,0.838 -1.328,1.482 -0.266,0.592 -0.266,1.229 -0.104,1.873 0.211,0.645 0.64,1.135 1.224,1.528 l 15.937,10.857 c 0.69,0.487 1.485,0.688 2.338,0.541 0.901,-0.101 1.593,-0.494 2.123,-1.188 0.479,-0.641 0.69,-1.381 0.587,-2.17 -0.161,-0.84 -0.587,-1.479 -1.277,-1.975 l -8.445,-5.725 c 1.224,-0.293 2.283,-0.644 3.188,-1.084 3.612,-1.683 5.42,-4.539 5.476,-8.539 0.211,-4.734 -2.766,-7.992 -8.815,-9.771 -4.729,-1.479 -11.796,-1.826 -21.196,-1.084 -0.802,0.056 -1.493,0.4 -2.08,0.995 z"
   id="path63"
   inkscape:connector-curvature="0"
   style="fill:url(#SVGID_9_)" />
	
		<linearGradient
   id="SVGID_10_"
   gradientUnits="userSpaceOnUse"
   x1="173.3457"
   y1="-389.56201"
   x2="205.5609"
   y2="-357.34671"
   gradientTransform="matrix(1,0,0,-1,-0.1348,-195.7207)">
		<stop
   offset="0"
   style="stop-color:#999999"
   id="stop65" />
		<stop
   offset="0.98"
   style="stop-color:#F3F3F3"
   id="stop67" />
	</linearGradient>
	<path
   d="m 174.58,162.92 c -0.352,0.498 -0.548,1.047 -0.548,1.689 v 25.84 c 0,0.797 0.297,1.543 0.897,2.086 0.549,0.598 1.297,0.895 2.098,0.895 0.85,0 1.547,-0.297 2.146,-0.895 0.55,-0.543 0.851,-1.289 0.851,-2.086 v -18.432 l 19.828,20.471 c 0.451,0.445 0.946,0.746 1.551,0.893 0.598,0.1 1.146,0.049 1.746,-0.146 0.552,-0.252 0.998,-0.598 1.351,-1.143 0.351,-0.498 0.501,-1.045 0.501,-1.643 v -25.84 c 0,-0.844 -0.301,-1.539 -0.854,-2.137 -0.599,-0.543 -1.295,-0.847 -2.146,-0.847 -0.798,0 -1.546,0.304 -2.098,0.847 -0.598,0.598 -0.898,1.293 -0.898,2.137 v 18.436 l -19.777,-20.521 c -0.451,-0.396 -0.949,-0.692 -1.551,-0.846 -0.598,-0.096 -1.199,-0.049 -1.746,0.201 -0.553,0.197 -1.05,0.547 -1.351,1.041 z"
   id="path70"
   inkscape:connector-curvature="0"
   style="fill:url(#SVGID_10_)" />
</g>
<g
   id="Ebene_1"
   transform="matrix(0.61716533,0,0,0.63175235,42.274478,25.269598)">
	<title
   id="title73">Sega Saturn Logo</title>
	
		<radialGradient
   id="SVGID_11_"
   cx="53.544899"
   cy="190.99609"
   r="186.5518"
   gradientTransform="matrix(1,0,0,-1,-0.0449,199.7598)"
   gradientUnits="userSpaceOnUse">
		<stop
   offset="0"
   style="stop-color:#FFFFFF"
   id="stop75" />
		<stop
   offset="1"
   style="stop-color:#000000"
   id="stop77" />
	</radialGradient>
	<path
   d="m 42.914,56.914 c 3.523,-2.664 8.559,-5.978 14.33,-8.867 5.774,-3.093 12.271,-5.875 19.488,-8.659 v 0.104 c 7.113,-2.681 14.638,-5.155 22.474,-7.32 7.94,-2.27 15.772,-4.124 23.608,-5.463 7.938,-1.546 15.564,-2.477 22.785,-2.889 7.424,-0.619 15.885,-0.042 18.018,0.104 2.133,0.146 5.178,-0.308 6.517,-1.339 1.343,-1.134 2.062,-2.477 2.269,-4.124 0.207,-1.754 -0.309,-3.3 -1.338,-4.539 -1.135,-1.339 -3.607,-2.162 -5.258,-2.266 -6.601,-0.723 -12.888,-0.723 -21.031,-0.208 -7.633,0.516 -15.674,1.546 -24.229,3.093 -8.146,1.443 -16.395,3.404 -24.642,5.67 -8.248,2.27 -16.08,4.847 -23.504,7.628 -7.732,2.993 -16.088,6.778 -20.827,9.178 -4.739,2.4 -10.844,5.846 -16.004,10.102 -5.16,4.256 -7.345,6.29 -10.801,11.648 -3.456,5.358 -4.25,11.431 -2.121,15.07 5.478,9.365 25.01,6.296 32.434,4.853 5.978,-1.235 13.298,-2.914 22.062,-5.386 6.39,-1.958 14.537,-4.535 24.432,-7.836 l 24.537,-8.04 c 8.969,-2.989 16.287,-5.259 21.96,-6.805 6.907,-2.062 19.178,-4.985 25.491,-3.841 -0.315,3.957 -5.229,14.552 -27.146,24.356 -8.146,3.712 -17.215,7.116 -27.217,10.413 H 119.1 c -7.729,2.474 -15.667,4.64 -23.813,6.598 -7.939,1.858 -15.364,3.197 -22.477,4.332 l 0.104,-0.104 c -11.187,1.561 -27.276,0.172 -30.454,0.588 -6.292,0.401 -7.823,4.363 -7.89,6.083 -0.067,1.712 -0.152,5.733 8.228,6.253 8.38,0.52 16.205,1.215 31.87,-0.656 9.722,-1.433 15.257,-2.576 23.401,-4.432 h 0.104 c 8.456,-2.062 16.703,-4.332 24.744,-6.909 10.517,-3.297 20.104,-7.009 28.658,-10.925 19.233,-8.627 26.157,-16.514 30.666,-23.292 4.509,-6.778 6.151,-16.094 1.476,-20.469 -5.357,-5.012 -15.549,-4.117 -19.05,-3.784 -5.002,0.477 -12.472,1.669 -19.996,3.832 -5.772,1.65 -13.198,3.919 -22.478,7.013 l -24.535,8.04 c -9.794,3.197 -17.734,5.774 -24.02,7.628 -8.352,2.478 -15.26,4.332 -21.035,5.466 C 39.42,69.848 35.181,68.15 35.181,68.15 35,64.375 39.391,59.578 42.914,56.914 Z"
   id="path80"
   inkscape:connector-curvature="0"
   style="fill:url(#SVGID_11_)" />
	<path
   d="m 56.123,106.589 c -4.398,0 -8.139,-0.237 -11.755,-0.468 l -1.614,-0.102 c -9.154,-0.567 -8.965,-5.41 -8.903,-7 0.084,-2.159 1.983,-6.354 8.563,-6.773 0.41,-0.055 1.1,-0.083 2.123,-0.083 1.301,0 3.019,0.045 5.01,0.098 2.667,0.07 5.984,0.158 9.377,0.158 5.704,0 10.247,-0.247 13.89,-0.755 0.117,-0.016 0.231,-0.003 0.337,0.033 8.284,-1.33 15.277,-2.683 21.972,-4.25 8.621,-2.072 16.395,-4.226 23.757,-6.583 0.067,-0.021 0.138,-0.033 0.207,-0.034 10.552,-3.481 19.396,-6.867 27.034,-10.348 19.393,-8.675 25.777,-18.283 26.639,-23.096 -0.746,-0.094 -1.594,-0.142 -2.523,-0.142 -6.143,0 -15.368,2.101 -21.957,4.068 -5.611,1.529 -12.986,3.815 -21.938,6.798 L 101.8,66.152 c -8.539,2.849 -16.765,5.487 -24.445,7.841 -7.42,2.093 -14.653,3.858 -22.127,5.402 -5.704,1.109 -10.877,1.67 -15.384,1.67 -9.158,0 -15.153,-2.31 -17.817,-6.865 -2.295,-3.923 -1.437,-10.282 2.138,-15.823 3.505,-5.435 5.787,-7.556 10.948,-11.813 4.203,-3.467 9.632,-6.895 16.137,-10.189 4.52,-2.289 12.985,-6.146 20.892,-9.207 7.77,-2.91 15.698,-5.483 23.573,-7.651 9.016,-2.478 17.098,-4.337 24.707,-5.685 8.674,-1.568 16.626,-2.583 24.307,-3.102 3.887,-0.246 7.246,-0.365 10.271,-0.365 3.788,0 7.35,0.188 10.887,0.576 1.823,0.114 4.475,1.036 5.729,2.516 1.207,1.453 1.726,3.211 1.504,5.089 -0.232,1.855 -1.057,3.355 -2.52,4.59 -1.584,1.221 -4.847,1.658 -7.029,1.507 -1.385,-0.095 -5.592,-0.383 -10.432,-0.383 -2.748,0 -5.265,0.094 -7.479,0.278 -7.449,0.426 -15.083,1.394 -22.707,2.878 -7.516,1.285 -15.213,3.066 -23.548,5.449 -7.573,2.092 -15.113,4.548 -22.418,7.302 -0.118,0.044 -0.245,0.058 -0.366,0.038 -7.889,3.054 -13.946,5.752 -19.036,8.478 -6.67,3.34 -11.781,6.951 -14.236,8.807 -3.511,2.655 -7.212,6.863 -7.441,10.116 0.567,0.125 1.689,0.299 3.514,0.299 3.475,0 7.856,-0.604 13.021,-1.792 5.342,-1.049 11.809,-2.73 20.992,-5.455 6.249,-1.843 14.224,-4.431 24.001,-7.623 l 24.535,-8.039 c 8.205,-2.736 15.777,-5.099 22.504,-7.021 9.102,-2.616 17.105,-3.568 20.125,-3.856 0.971,-0.092 2.986,-0.284 5.303,-0.284 6.474,0 11.287,1.433 14.309,4.259 5.148,4.818 3.139,14.619 -1.368,21.394 -4.756,7.149 -11.8,14.951 -30.971,23.55 -8.944,4.095 -18.614,7.782 -28.737,10.956 -7.697,2.467 -15.809,4.731 -24.79,6.921 -0.056,0.015 -0.113,0.021 -0.17,0.021 H 98.15 c -8.423,1.92 -13.816,3.017 -23.377,4.424 -7.044,0.838 -12.964,1.229 -18.65,1.229 z M 44.537,93.603 c -0.946,0 -1.595,0.025 -1.984,0.076 -5.603,0.359 -7.197,3.687 -7.264,5.397 -0.063,1.631 -0.196,5.025 7.553,5.506 l 1.616,0.104 c 3.594,0.229 7.311,0.465 11.664,0.465 5.628,0 11.494,-0.389 18.46,-1.221 9.524,-1.402 14.896,-2.498 23.326,-4.419 0.053,-0.012 0.106,-0.018 0.16,-0.018 h 0.018 c 8.915,-2.175 16.965,-4.424 24.611,-6.874 10.07,-3.158 19.684,-6.822 28.578,-10.895 18.844,-8.452 25.729,-16.066 30.365,-23.036 4.237,-6.37 5.988,-15.422 1.584,-19.544 -2.746,-2.568 -7.229,-3.871 -13.324,-3.871 -2.248,0 -4.219,0.188 -5.166,0.278 -2.979,0.284 -10.879,1.224 -19.864,3.807 -6.707,1.917 -14.261,4.273 -22.449,7.004 l -24.539,8.041 c -9.789,3.196 -17.774,5.787 -24.041,7.635 -9.227,2.738 -15.735,4.429 -21.1,5.482 -5.248,1.208 -9.738,1.824 -13.321,1.824 -3.107,0 -4.373,-0.471 -4.507,-0.525 -0.261,-0.105 -0.438,-0.353 -0.451,-0.634 -0.211,-4.404 4.94,-9.518 8.018,-11.845 2.494,-1.886 7.686,-5.555 14.442,-8.937 5.205,-2.788 11.423,-5.551 19.551,-8.687 0.123,-0.047 0.254,-0.059 0.378,-0.038 7.229,-2.712 14.683,-5.134 22.163,-7.2 8.38,-2.396 16.126,-4.188 23.679,-5.479 7.672,-1.494 15.369,-2.47 22.865,-2.898 2.233,-0.187 4.789,-0.282 7.578,-0.282 4.889,0 9.135,0.291 10.528,0.386 0.245,0.017 0.502,0.025 0.769,0.025 2.133,0 4.346,-0.511 5.26,-1.216 1.164,-0.984 1.807,-2.148 1.994,-3.644 0.174,-1.471 -0.232,-2.853 -1.178,-3.989 -0.943,-1.113 -3.201,-1.91 -4.748,-2.007 -6.389,-0.699 -12.219,-0.761 -20.941,-0.208 -7.623,0.515 -15.522,1.523 -24.146,3.083 -7.567,1.34 -15.606,3.19 -24.579,5.656 -7.833,2.156 -15.72,4.715 -23.442,7.608 -7.854,3.04 -16.265,6.873 -20.754,9.146 -6.41,3.246 -11.75,6.616 -15.872,10.016 -5.14,4.24 -7.243,6.195 -10.654,11.482 -3.236,5.017 -4.101,10.903 -2.104,14.316 2.388,4.082 7.964,6.152 16.574,6.152 4.415,0 9.495,-0.552 15.101,-1.642 7.432,-1.535 14.632,-3.292 22.004,-5.372 7.654,-2.346 15.868,-4.98 24.399,-7.827 l 24.541,-8.041 c 8.973,-2.99 16.375,-5.284 21.995,-6.815 3.228,-0.963 14.429,-4.123 22.353,-4.123 1.311,0 2.474,0.09 3.457,0.269 0.363,0.066 0.619,0.397 0.59,0.766 -0.106,1.34 -1.788,13.422 -27.568,24.956 -7.709,3.513 -16.636,6.929 -27.285,10.439 -0.07,0.023 -0.143,0.036 -0.217,0.036 -7.365,2.355 -15.138,4.507 -23.756,6.579 -6.855,1.604 -14.014,2.984 -22.532,4.343 -0.126,0.022 -0.256,0.006 -0.373,-0.039 -3.628,0.475 -8.093,0.707 -13.626,0.707 -3.412,0 -6.741,-0.088 -9.416,-0.159 -1.977,-0.054 -3.682,-0.099 -4.973,-0.099 z"
   id="path82"
   inkscape:connector-curvature="0"
   style="fill:#333333" />
	<g
   id="Ebene_2">
		<g
   id="g97">
			
				<radialGradient
   id="SVGID_12_"
   cx="113.6729"
   cy="826.59082"
   r="47.611301"
   gradientTransform="translate(-0.1797,-790.9609)"
   gradientUnits="userSpaceOnUse">
				<stop
   offset="0.04"
   style="stop-color:#FFFFFF"
   id="stop84" />
				<stop
   offset="0.04"
   style="stop-color:#FFFFFF"
   id="stop86" />
				<stop
   offset="0.23"
   style="stop-color:#6E93E1"
   id="stop88" />
				<stop
   offset="1"
   style="stop-color:#363499"
   id="stop90" />
			</radialGradient>
			<circle
   cx="104.906"
   cy="58.154999"
   r="52.578999"
   id="circle93"
   style="fill:url(#SVGID_12_)" />
			<path
   d="m 104.906,112.175 c -29.786,0 -54.019,-24.233 -54.019,-54.02 0,-29.787 24.233,-54.02 54.019,-54.02 29.786,0 54.019,24.233 54.019,54.02 0,29.786 -24.234,54.02 -54.019,54.02 z m 0,-105.159 c -28.198,0 -51.139,22.941 -51.139,51.139 0,28.198 22.941,51.139 51.139,51.139 28.198,0 51.138,-22.94 51.138,-51.139 0,-28.199 -22.94,-51.139 -51.138,-51.139 z"
   id="path95"
   inkscape:connector-curvature="0"
   style="fill:#33317a" />
		</g>
	</g>
	<g
   id="Ebene_4">
		
			<radialGradient
   id="SVGID_13_"
   cx="-29.788099"
   cy="587.40631"
   r="412.47989"
   gradientTransform="translate(-0.0898,-395.4805)"
   gradientUnits="userSpaceOnUse">
			<stop
   offset="0"
   style="stop-color:#FFFFFF"
   id="stop100" />
			<stop
   offset="1"
   style="stop-color:#000000"
   id="stop102" />
		</radialGradient>
		<path
   d="m 55.082,78.69 c 5.978,-1.235 13.298,-2.914 22.062,-5.386 6.39,-1.958 24.432,-7.836 24.432,-7.836 l 24.537,-8.04 c 8.969,-2.989 16.287,-5.259 21.96,-6.805 0,0 8.483,-2.234 9.926,-2.492 -0.515,-5.353 -3.589,-11.787 -3.589,-11.787 -3.098,0.599 -6.413,1.365 -9.739,2.321 -5.772,1.65 -13.198,3.919 -22.478,7.013 l -24.535,8.04 c -9.794,3.197 -17.734,5.774 -24.02,7.628 -12.947,4.036 -21.755,5.629 -22.104,5.706 0,10e-4 1.168,7.67 3.548,11.638 z"
   id="path105"
   inkscape:connector-curvature="0"
   style="fill:url(#SVGID_13_)" />
	</g>
	<g
   id="Ebene_3">
		<g
   id="g110">
			<path
   d="m 39.426,69.342 c -3.138,0 -4.417,-0.485 -4.513,-0.524 -0.369,-0.148 -0.549,-0.567 -0.401,-0.936 0.148,-0.37 0.568,-0.549 0.936,-0.401 0.036,0.012 4.316,1.547 16.993,-1.37 5.342,-1.049 11.809,-2.73 20.992,-5.455 6.249,-1.843 14.224,-4.431 24.001,-7.623 l 24.534,-8.039 c 8.206,-2.736 15.778,-5.099 22.505,-7.021 9.102,-2.616 17.105,-3.568 20.125,-3.856 0.391,-0.031 0.748,0.252 0.785,0.648 0.038,0.396 -0.253,0.748 -0.648,0.785 -2.979,0.284 -10.879,1.224 -19.864,3.807 -6.707,1.917 -14.261,4.273 -22.449,7.004 l -24.539,8.041 c -9.789,3.196 -17.774,5.787 -24.041,7.635 -9.227,2.738 -15.735,4.429 -21.1,5.482 -6.237,1.437 -10.516,1.823 -13.316,1.823 z"
   id="path108"
   inkscape:connector-curvature="0"
   style="fill:#333333" />
		</g>
		<g
   id="g114">
			<path
   d="m 39.918,81.042 c -7.537,0 -14.805,-1.564 -17.892,-6.842 -0.201,-0.343 -0.085,-0.785 0.258,-0.985 0.342,-0.201 0.784,-0.085 0.985,0.258 4.874,8.334 21.937,6.402 31.675,4.51 7.432,-1.536 14.632,-3.293 22.004,-5.372 6.295,-1.929 24.224,-7.77 24.404,-7.828 l 24.537,-8.04 c 8.973,-2.99 16.373,-5.284 21.994,-6.815 0.028,-0.008 3.463,-0.971 9.95,-2.498 6.103,-1.437 11.112,-1.967 14.485,-1.534 0.396,0.051 0.674,0.412 0.623,0.806 -0.051,0.394 -0.41,0.673 -0.807,0.623 -2.234,-0.289 -6.472,-0.259 -13.973,1.506 -6.453,1.519 -9.862,2.475 -9.896,2.484 -5.602,1.526 -12.977,3.812 -21.928,6.795 L 101.8,66.152 c -0.182,0.059 -18.122,5.903 -24.445,7.841 -7.42,2.093 -14.653,3.858 -22.127,5.402 -4.251,0.826 -9.852,1.647 -15.31,1.647 z"
   id="path112"
   inkscape:connector-curvature="0"
   style="fill:#333333" />
		</g>
	</g>
	<g
   id="g119">
		<path
   d="m 55.403,155.901 c -2.021,0 -4.016,-0.103 -6.099,-0.313 -2.789,-0.337 -4.881,-0.758 -6.596,-1.324 -0.917,-0.309 -1.659,-0.919 -2.147,-1.766 -0.475,-1.013 -0.554,-1.986 -0.256,-2.873 0.306,-0.981 0.957,-1.734 1.876,-2.162 0.767,-0.44 1.812,-0.551 2.776,-0.231 1.431,0.424 3.19,0.768 5.208,1.014 1.919,0.222 4.031,0.294 6.238,0.243 1.896,-0.045 3.662,-0.256 5.248,-0.628 1.005,-0.289 1.612,-0.549 1.936,-0.835 0.041,-0.036 0.085,-0.066 0.131,-0.092 0.098,-0.093 0.187,-0.16 0.259,-0.216 0.135,-0.103 0.171,-0.13 0.229,-0.526 0.048,-0.336 0.058,-0.526 0.045,-0.66 -0.017,-0.021 -0.032,-0.042 -0.046,-0.064 v 0 c -0.001,0 -0.001,-0.002 -0.001,-0.002 0,0 0,-0.001 -10e-4,-0.001 0,0 0,0 0,-0.001 0,0 -0.001,-0.001 -0.001,-0.001 0,-0.001 0,-0.001 0,-0.001 v -10e-4 c 0,0 0,0 0,-0.001 0,0 0,0 0,-0.001 0,0 0,0 0,0 -0.047,-0.076 -0.081,-0.162 -0.097,-0.255 l -0.049,-0.275 c -10e-4,-0.008 -0.002,-0.016 -0.004,-0.022 -0.091,-0.377 -1.257,-1.635 -1.849,-1.821 -0.658,-0.204 -3.005,-0.458 -5.645,-0.512 -0.516,-0.027 -1.046,-0.039 -1.667,-0.054 -0.504,-0.011 -1.068,-0.023 -1.691,-0.046 -1.581,0.004 -2.653,0.001 -3.237,-0.054 -2.836,-0.048 -4.674,-0.302 -5.565,-0.774 -1.049,-0.474 -2.027,-1.077 -2.95,-1.824 -0.067,-0.027 -0.129,-0.063 -0.178,-0.105 -1.196,-1.027 -2.097,-2.159 -2.678,-3.361 -0.038,-0.079 -0.061,-0.163 -0.068,-0.247 -0.713,-1.545 -0.906,-3.14 -0.588,-4.868 0.26,-1.706 1.131,-3.416 2.659,-5.207 2.307,-2.974 6.292,-4.494 11.822,-4.494 4.134,0 9.262,0.851 15.241,2.528 0.986,0.326 1.702,0.899 2.22,1.762 0.527,0.977 0.626,1.922 0.312,2.839 -0.229,0.92 -0.855,1.698 -1.796,2.193 -0.488,0.314 -1.089,0.49 -1.734,0.49 v 0 c -0.323,0 -0.666,-0.045 -1.021,-0.132 -10.054,-2.871 -16.683,-2.95 -19.458,-0.281 -0.487,0.487 -0.81,1.039 -0.947,1.63 -0.052,0.184 -0.034,0.313 0.045,0.429 0.048,0.072 0.083,0.151 0.104,0.234 0.156,0.26 0.417,0.554 0.777,0.874 0.307,0.267 0.712,0.519 1.201,0.747 0.505,0.095 2.128,0.143 2.837,0.163 0.563,0.05 1.618,0.05 3.076,0.05 0.66,0.021 1.232,0.034 1.745,0.045 0.706,0.016 1.302,0.028 1.796,0.059 2.696,0.089 5.08,0.313 6.878,0.648 0.043,0.002 0.09,0.007 0.119,0.013 3.472,0.741 5.51,1.991 6.412,3.932 l 0.154,0.333 c 0.688,1.486 0.831,1.796 0.987,2.361 0.337,0.87 0.367,1.792 0.391,2.531 0.005,0.176 0.01,0.341 0.021,0.49 l 0.002,0.15 c 0,1.101 -0.202,2.151 -0.618,3.207 -0.01,0.06 -0.025,0.117 -0.045,0.162 -0.361,0.817 -0.964,1.748 -1.844,2.847 -0.048,0.06 -0.104,0.11 -0.166,0.151 -1.081,1.35 -2.969,2.368 -5.616,3.029 -1.953,0.475 -4.253,0.765 -6.84,0.865 -0.426,0.008 -0.837,0.012 -1.247,0.012 z m -11.589,-7.416 c -0.346,0 -0.674,0.087 -0.975,0.258 -0.609,0.286 -0.973,0.711 -1.165,1.327 -0.229,0.683 -0.038,1.335 0.162,1.764 0.287,0.491 0.743,0.868 1.328,1.064 1.618,0.535 3.621,0.936 6.299,1.259 2.429,0.245 4.769,0.344 7.141,0.292 2.479,-0.096 4.684,-0.373 6.539,-0.823 2.421,-0.605 4.083,-1.5 4.934,-2.659 0.053,-0.073 0.119,-0.134 0.192,-0.181 0.698,-0.887 1.186,-1.635 1.483,-2.278 0.009,-0.046 0.02,-0.089 0.034,-0.124 0.369,-0.911 0.548,-1.813 0.548,-2.757 v -0.102 c -0.009,-0.117 -0.015,-0.299 -0.021,-0.492 -0.021,-0.665 -0.045,-1.419 -0.318,-2.129 -0.143,-0.505 -0.257,-0.758 -0.927,-2.206 l -0.153,-0.332 c -0.691,-1.485 -2.391,-2.477 -5.347,-3.116 -0.035,-0.002 -0.07,-0.005 -0.093,-0.009 -1.208,-0.229 -3.358,-0.523 -6.731,-0.635 -0.499,-0.03 -1.076,-0.043 -1.759,-0.058 -0.519,-0.011 -1.097,-0.023 -1.738,-0.045 -1.521,0.006 -2.553,0.001 -3.137,-0.053 -1.894,-0.054 -2.73,-0.11 -3.152,-0.214 -0.043,-0.011 -0.086,-0.025 -0.126,-0.044 -0.646,-0.293 -1.193,-0.632 -1.625,-1.008 -0.558,-0.496 -0.938,-0.955 -1.168,-1.407 -0.022,-0.044 -0.039,-0.089 -0.052,-0.135 -0.238,-0.438 -0.291,-0.941 -0.148,-1.438 0.19,-0.821 0.642,-1.606 1.333,-2.296 3.239,-3.114 10.182,-3.124 20.835,-0.082 0.604,0.147 1.18,0.097 1.663,-0.211 0.636,-0.338 0.992,-0.772 1.139,-1.358 0.199,-0.587 0.133,-1.13 -0.184,-1.717 -0.321,-0.534 -0.768,-0.892 -1.39,-1.098 -5.82,-1.633 -10.817,-2.466 -14.82,-2.466 -5.062,0 -8.664,1.334 -10.705,3.964 -1.371,1.606 -2.134,3.082 -2.356,4.536 -0.28,1.527 -0.09,2.907 0.579,4.241 0.039,0.076 0.063,0.158 0.072,0.241 0.477,0.901 1.178,1.762 2.087,2.563 0.058,0.024 0.112,0.056 0.155,0.092 0.869,0.72 1.754,1.271 2.784,1.738 0.421,0.222 1.573,0.569 5.009,0.63 0.572,0.051 1.611,0.051 3.185,0.051 0.642,0.022 1.199,0.035 1.697,0.046 0.643,0.015 1.191,0.027 1.644,0.055 2.572,0.051 5.171,0.299 6.065,0.576 0.948,0.298 2.567,1.847 2.82,2.863 l 0.041,0.098 c 0.175,0.408 0.279,0.749 0.141,1.726 -0.131,0.906 -0.431,1.2 -0.78,1.466 -0.09,0.068 -0.154,0.118 -0.226,0.208 -0.089,0.11 -0.205,0.188 -0.333,0.231 -0.493,0.352 -1.185,0.639 -2.278,0.952 -1.717,0.402 -3.582,0.627 -5.576,0.674 -0.478,0.012 -0.956,0.018 -1.434,0.018 -1.797,0 -3.435,-0.088 -5.009,-0.271 -2.102,-0.256 -3.939,-0.616 -5.468,-1.069 -0.253,-0.081 -0.486,-0.12 -0.715,-0.12 z"
   id="path117"
   inkscape:connector-curvature="0"
   style="fill:#484848" />
	</g>
	<g
   id="g123">
		<path
   d="m 21.909,193.533 c -2.015,0 -4.013,-0.103 -6.109,-0.313 -2.778,-0.335 -4.871,-0.756 -6.598,-1.326 -0.916,-0.306 -1.657,-0.917 -2.147,-1.768 -0.475,-1.012 -0.554,-1.985 -0.256,-2.872 0.303,-0.977 0.953,-1.729 1.875,-2.16 0.782,-0.44 1.823,-0.548 2.78,-0.23 1.419,0.423 3.177,0.767 5.205,1.014 1.947,0.224 4.053,0.295 6.237,0.241 1.888,-0.044 3.653,-0.255 5.25,-0.627 0.667,-0.193 1.526,-0.473 1.938,-0.833 0.038,-0.034 0.079,-0.063 0.122,-0.087 0.101,-0.096 0.192,-0.166 0.268,-0.223 0.134,-0.102 0.17,-0.129 0.228,-0.527 0.048,-0.335 0.059,-0.525 0.046,-0.658 -0.075,-0.092 -0.127,-0.203 -0.149,-0.328 l -0.048,-0.277 c -10e-4,-0.008 -0.002,-0.015 -0.004,-0.021 -0.091,-0.376 -1.259,-1.635 -1.852,-1.823 -0.655,-0.201 -3.003,-0.455 -5.644,-0.51 -0.525,-0.029 -1.065,-0.041 -1.7,-0.056 -0.496,-0.012 -1.049,-0.024 -1.658,-0.046 -1.583,0.004 -2.65,0.001 -3.234,-0.052 -2.84,-0.048 -4.679,-0.303 -5.569,-0.776 -1.05,-0.475 -2.028,-1.078 -2.95,-1.824 -0.066,-0.028 -0.128,-0.063 -0.178,-0.105 -1.197,-1.03 -2.099,-2.161 -2.678,-3.362 -0.038,-0.078 -0.061,-0.161 -0.068,-0.245 -0.714,-1.545 -0.907,-3.141 -0.589,-4.867 0.261,-1.707 1.132,-3.417 2.66,-5.207 2.307,-2.974 6.291,-4.495 11.821,-4.495 4.134,0 9.262,0.852 15.243,2.529 0.986,0.326 1.702,0.899 2.22,1.762 0.525,0.973 0.625,1.918 0.315,2.838 -0.23,0.924 -0.857,1.702 -1.797,2.197 -0.487,0.315 -1.089,0.491 -1.736,0.491 v 0 c -0.326,0 -0.658,-0.042 -1.017,-0.13 -10.056,-2.873 -16.684,-2.952 -19.458,-0.282 -0.488,0.486 -0.81,1.037 -0.947,1.63 -0.051,0.183 -0.033,0.312 0.046,0.429 0.047,0.07 0.082,0.148 0.102,0.23 0.157,0.263 0.418,0.556 0.777,0.874 0.307,0.266 0.713,0.519 1.202,0.747 0.523,0.098 2.192,0.145 2.836,0.163 0.564,0.051 1.618,0.051 3.076,0.051 0.703,0.024 1.308,0.038 1.846,0.05 0.661,0.014 1.222,0.026 1.693,0.054 2.708,0.091 5.091,0.314 6.881,0.647 0.043,0.002 0.089,0.007 0.119,0.013 3.47,0.74 5.508,1.99 6.413,3.934 l 0.159,0.343 c 0.684,1.478 0.827,1.784 0.982,2.349 0.338,0.874 0.367,1.795 0.39,2.535 0.006,0.175 0.011,0.339 0.021,0.488 10e-4,0.016 0.002,0.132 0.002,0.147 0,1.1 -0.203,2.15 -0.618,3.209 -0.01,0.06 -0.025,0.117 -0.045,0.162 -0.362,0.82 -0.966,1.752 -1.844,2.846 -0.048,0.06 -0.104,0.11 -0.166,0.151 -1.08,1.349 -2.968,2.367 -5.616,3.028 -1.97,0.478 -4.27,0.769 -6.842,0.867 -0.423,0.007 -0.829,0.011 -1.236,0.011 z m -11.597,-7.416 c -0.346,0 -0.676,0.087 -0.981,0.258 -0.607,0.286 -0.971,0.711 -1.162,1.323 -0.229,0.684 -0.038,1.336 0.162,1.765 0.288,0.493 0.743,0.87 1.326,1.065 1.631,0.539 3.635,0.939 6.302,1.261 2.445,0.246 4.78,0.339 7.141,0.292 2.464,-0.095 4.668,-0.372 6.54,-0.826 2.422,-0.605 4.084,-1.5 4.934,-2.657 0.054,-0.073 0.12,-0.135 0.194,-0.182 0.697,-0.883 1.184,-1.63 1.482,-2.276 0.009,-0.046 0.02,-0.089 0.034,-0.123 0.37,-0.915 0.549,-1.817 0.549,-2.76 -0.009,-0.216 -0.015,-0.397 -0.021,-0.59 -0.021,-0.665 -0.045,-1.419 -0.318,-2.133 -0.142,-0.503 -0.256,-0.754 -0.922,-2.191 l -0.158,-0.342 c -0.692,-1.488 -2.393,-2.48 -5.347,-3.119 -0.035,-0.002 -0.07,-0.005 -0.093,-0.009 -1.202,-0.227 -3.346,-0.521 -6.731,-0.634 -0.474,-0.027 -1.019,-0.039 -1.659,-0.053 -0.544,-0.012 -1.156,-0.025 -1.841,-0.05 -1.521,0.001 -2.552,0.001 -3.136,-0.054 -1.855,-0.051 -2.722,-0.109 -3.149,-0.212 -0.044,-0.011 -0.088,-0.026 -0.129,-0.045 -0.645,-0.295 -1.19,-0.633 -1.622,-1.006 -0.557,-0.493 -0.938,-0.952 -1.17,-1.409 -0.022,-0.043 -0.04,-0.088 -0.052,-0.135 -0.237,-0.437 -0.291,-0.939 -0.148,-1.435 0.188,-0.812 0.651,-1.618 1.333,-2.297 3.237,-3.117 10.182,-3.129 20.834,-0.081 0.605,0.146 1.178,0.097 1.661,-0.213 0.637,-0.338 0.993,-0.773 1.141,-1.36 0.196,-0.588 0.13,-1.133 -0.186,-1.719 -0.321,-0.534 -0.768,-0.892 -1.39,-1.098 -5.822,-1.633 -10.82,-2.466 -14.822,-2.466 -5.062,0 -8.664,1.333 -10.705,3.964 -1.37,1.605 -2.133,3.081 -2.356,4.536 -0.28,1.525 -0.089,2.904 0.58,4.239 0.039,0.076 0.063,0.157 0.072,0.24 0.476,0.899 1.177,1.761 2.088,2.564 0.058,0.025 0.111,0.056 0.155,0.092 0.867,0.719 1.752,1.271 2.784,1.738 0.421,0.224 1.572,0.571 5.009,0.632 0.571,0.049 1.61,0.049 3.184,0.049 0.628,0.022 1.175,0.034 1.665,0.046 0.658,0.015 1.217,0.027 1.678,0.057 0.842,0.017 1.687,0.055 2.474,0.107 0.084,-0.304 0.363,-0.526 0.694,-0.526 0.372,0 0.678,0.282 0.716,0.644 0.978,0.1 1.763,0.221 2.178,0.349 0.953,0.303 2.571,1.853 2.823,2.866 l 0.041,0.099 c 0.175,0.407 0.279,0.747 0.139,1.724 -0.131,0.908 -0.432,1.202 -0.781,1.469 -0.089,0.067 -0.154,0.116 -0.225,0.206 -0.088,0.108 -0.203,0.188 -0.329,0.23 -0.491,0.349 -1.184,0.636 -2.282,0.952 -1.729,0.404 -3.594,0.628 -5.578,0.674 -0.485,0.013 -0.972,0.02 -1.46,0.02 -1.768,0 -3.397,-0.089 -4.982,-0.271 -2.113,-0.258 -3.95,-0.617 -5.467,-1.069 -0.252,-0.081 -0.483,-0.12 -0.711,-0.12 z"
   id="path121"
   inkscape:connector-curvature="0"
   style="fill:#484848" />
	</g>
	<g
   id="g127">
		<path
   d="M 96.499,154.366 H 76.517 c -1.027,0 -1.96,-0.4 -2.628,-1.128 -0.686,-0.622 -1.088,-1.553 -1.088,-2.575 v -24.847 c 0,-1.025 0.374,-1.916 1.111,-2.647 0.687,-0.681 1.612,-1.055 2.605,-1.055 h 19.982 c 0.992,0 1.877,0.348 2.632,1.032 0.735,0.793 1.085,1.675 1.085,2.666 0,1.019 -0.357,1.893 -1.06,2.597 -0.745,0.735 -1.638,1.106 -2.658,1.106 H 80.237 v 5.018 h 11.766 c 0.997,0 1.883,0.349 2.634,1.037 0.733,0.796 1.083,1.679 1.083,2.668 0,0.989 -0.376,1.911 -1.06,2.597 -0.74,0.734 -1.633,1.105 -2.658,1.105 H 80.237 v 5.018 h 16.262 c 0.989,0 1.875,0.347 2.631,1.031 0.737,0.804 1.086,1.687 1.086,2.674 0,0.995 -0.377,1.918 -1.062,2.599 -0.737,0.733 -1.63,1.104 -2.655,1.104 z M 76.517,123.554 c -0.611,0 -1.176,0.227 -1.591,0.638 -0.467,0.463 -0.685,0.979 -0.685,1.625 v 24.847 c 0,0.613 0.235,1.166 0.663,1.556 0.443,0.479 0.985,0.708 1.613,0.708 h 19.982 c 0.648,0 1.169,-0.219 1.64,-0.687 0.411,-0.408 0.637,-0.969 0.637,-1.577 0,-0.635 -0.21,-1.16 -0.661,-1.654 -0.449,-0.401 -0.978,-0.611 -1.616,-0.611 H 79.517 c -0.397,0 -0.72,-0.322 -0.72,-0.72 v -6.457 c 0,-0.397 0.323,-0.72 0.72,-0.72 h 12.486 c 0.648,0 1.169,-0.218 1.641,-0.686 0.41,-0.411 0.636,-0.972 0.636,-1.577 0,-0.635 -0.209,-1.159 -0.66,-1.65 -0.447,-0.405 -0.975,-0.615 -1.617,-0.615 H 79.517 c -0.397,0 -0.72,-0.322 -0.72,-0.72 v -6.457 c 0,-0.397 0.323,-0.72 0.72,-0.72 h 16.982 c 0.645,0 1.167,-0.219 1.642,-0.688 0.426,-0.427 0.635,-0.943 0.635,-1.575 0,-0.627 -0.215,-1.164 -0.658,-1.645 -0.45,-0.404 -0.978,-0.614 -1.619,-0.614 H 76.517 Z"
   id="path125"
   inkscape:connector-curvature="0"
   style="fill:#484848" />
	</g>
	<g
   id="g131">
		<path
   d="m 118.232,156.612 c -2.586,0 -5.046,-0.492 -7.312,-1.462 -2.131,-0.859 -4.007,-2.181 -5.567,-3.926 -0.059,-0.032 -0.113,-0.074 -0.161,-0.126 -1.599,-1.729 -2.809,-3.815 -3.596,-6.202 -0.795,-2.405 -1.132,-4.852 -1.03,-7.48 l 0.016,-0.422 c 0.086,-2.293 0.129,-3.443 0.926,-5.534 0.831,-2.181 1.517,-3.831 2.785,-5.208 0.031,-0.046 1.829,-2.394 4.449,-3.69 2.023,-1.004 2.954,-1.197 4.363,-1.49 0.39,-0.081 0.82,-0.171 1.327,-0.29 1.638,-0.289 3.22,-0.432 4.742,-0.432 4.829,0 9.251,1.418 13.143,4.214 0.833,0.622 1.359,1.488 1.534,2.511 0.18,1.101 -0.007,2.087 -0.554,2.938 -0.508,0.852 -1.291,1.434 -2.315,1.708 -0.288,0.06 -0.533,0.085 -0.772,0.085 v 0 c -0.729,0 -1.424,-0.228 -2.065,-0.677 -3.849,-2.826 -7.855,-3.718 -12.03,-2.693 -0.041,0.01 -0.083,0.017 -0.125,0.02 l -0.678,0.176 c -1.396,0.36 -2.317,0.598 -3.534,1.206 -1.313,0.653 -2.104,1.867 -2.112,1.879 -0.022,0.035 -0.049,0.068 -0.077,0.099 -0.471,0.51 -0.809,1.153 -1.031,1.968 -0.343,1.227 -0.524,2.164 -0.57,3.896 -0.051,1.69 0.154,3.22 0.608,4.549 0.433,1.301 1.085,2.429 1.941,3.355 0.856,0.973 1.863,1.688 3.09,2.198 0.062,0.026 0.119,0.061 0.172,0.102 1.341,0.532 2.872,0.813 4.438,0.813 3.962,0 6.873,-0.776 8.651,-2.307 0.702,-0.721 1.198,-1.643 1.458,-2.727 h -9.113 c -1.03,0 -1.969,-0.433 -2.645,-1.22 -0.676,-0.666 -1.069,-1.651 -1.069,-2.732 0,-1.097 0.355,-2.016 1.088,-2.807 0.689,-0.741 1.621,-1.147 2.626,-1.147 h 12.961 c 0.96,0 1.786,0.326 2.528,0.997 0.765,0.814 1.127,1.626 1.183,2.598 0.517,5.761 -0.89,10.155 -4.182,13.038 -2.789,2.79 -7.339,4.222 -13.491,4.222 z m -12.154,-6.68 c 0.069,0.037 0.133,0.086 0.188,0.149 1.443,1.67 3.196,2.929 5.208,3.739 2.1,0.899 4.369,1.353 6.759,1.353 5.755,0 9.962,-1.291 12.504,-3.836 3.004,-2.632 4.212,-6.508 3.73,-11.882 -0.038,-0.647 -0.271,-1.158 -0.756,-1.677 -0.436,-0.391 -0.917,-0.584 -1.52,-0.584 H 119.23 c -0.601,0 -1.158,0.244 -1.57,0.687 -0.479,0.519 -0.704,1.101 -0.704,1.828 0,0.693 0.243,1.315 0.684,1.752 0.442,0.513 0.979,0.761 1.591,0.761 h 9.973 c 0.206,0 0.402,0.088 0.539,0.243 0.137,0.154 0.201,0.36 0.176,0.564 -0.215,1.733 -0.923,3.257 -2.048,4.408 -2.121,1.828 -5.259,2.696 -9.636,2.696 -1.826,0 -3.545,-0.326 -5.109,-0.97 -0.066,-0.027 -0.127,-0.063 -0.182,-0.108 -1.376,-0.594 -2.515,-1.415 -3.478,-2.51 -0.985,-1.065 -1.741,-2.368 -2.237,-3.859 -0.508,-1.487 -0.738,-3.188 -0.683,-5.05 0.05,-1.868 0.257,-2.932 0.622,-4.238 0.274,-1.003 0.72,-1.851 1.322,-2.518 0.197,-0.288 1.141,-1.585 2.643,-2.332 1.354,-0.677 2.388,-0.943 3.818,-1.313 l 0.756,-0.196 c 0.047,-0.013 0.095,-0.02 0.144,-0.022 4.56,-1.097 8.979,-0.108 13.132,2.941 0.388,0.271 0.793,0.406 1.227,0.406 v 0 c 0.146,0 0.294,-0.016 0.443,-0.046 0.624,-0.169 1.09,-0.511 1.421,-1.065 0.365,-0.57 0.479,-1.199 0.356,-1.942 -0.11,-0.647 -0.444,-1.197 -0.965,-1.587 -4.786,-3.437 -10.463,-4.637 -16.744,-3.533 -0.481,0.114 -0.923,0.206 -1.323,0.289 -1.346,0.28 -2.159,0.45 -4.017,1.371 -2.31,1.144 -3.969,3.303 -3.986,3.324 -1.14,1.242 -1.745,2.704 -2.542,4.797 -0.712,1.869 -0.748,2.808 -0.833,5.075 l -0.016,0.423 c -0.095,2.454 0.219,4.735 0.959,6.975 0.694,2.104 1.741,3.949 3.115,5.487 z"
   id="path129"
   inkscape:connector-curvature="0"
   style="fill:#484848" />
	</g>
	<g
   id="g135">
		<path
   d="m 168.417,155.311 v 0 c -0.755,0 -1.486,-0.257 -2.116,-0.742 -0.784,-0.559 -1.271,-1.342 -1.467,-2.378 -0.394,-2.628 -0.822,-5.077 -1.281,-7.312 h -18.221 c -0.399,1.959 -0.771,4.072 -1.104,6.295 -0.185,0.993 -0.679,1.794 -1.474,2.402 -0.896,0.641 -1.827,0.868 -2.814,0.688 -0.964,-0.121 -1.784,-0.621 -2.401,-1.479 -0.58,-0.75 -0.814,-1.665 -0.682,-2.7 3.101,-20.424 9.033,-30.515 17.691,-29.995 0.119,-0.013 0.323,-0.019 0.527,-0.019 8.355,0 13.955,10.138 17.121,30.992 0.121,1.038 -0.11,1.908 -0.725,2.763 -0.654,0.846 -1.475,1.32 -2.454,1.431 -0.167,0.033 -0.386,0.054 -0.6,0.054 z m -23.671,-11.872 h 19.393 c 0.341,0 0.634,0.238 0.704,0.571 0.51,2.414 0.984,5.085 1.41,7.939 0.123,0.645 0.403,1.104 0.905,1.462 0.521,0.4 1.064,0.534 1.646,0.421 0.638,-0.073 1.115,-0.354 1.513,-0.867 0.389,-0.541 0.528,-1.059 0.452,-1.711 -3.066,-20.193 -8.541,-30.209 -16.222,-29.728 -0.271,-0.011 -0.453,-0.017 -0.634,-0.017 -7.474,0 -12.733,9.681 -15.632,28.773 -0.081,0.635 0.053,1.178 0.41,1.641 0.395,0.548 0.869,0.842 1.467,0.918 0.166,0.028 0.292,0.04 0.416,0.04 0.452,0 0.885,-0.151 1.323,-0.465 0.49,-0.376 0.795,-0.866 0.909,-1.483 0.367,-2.442 0.783,-4.78 1.233,-6.924 0.072,-0.331 0.366,-0.57 0.707,-0.57 z m 17.899,-4.516 H 146.23 c -0.228,0 -0.441,-0.107 -0.577,-0.289 -0.136,-0.183 -0.178,-0.418 -0.113,-0.636 2.3,-7.738 5.212,-11.645 8.903,-11.942 0.037,-0.002 0.077,-0.002 0.116,0 3.599,0.295 6.469,4.201 8.775,11.942 0.064,0.218 0.022,0.453 -0.113,0.636 -0.135,0.181 -0.349,0.289 -0.576,0.289 z m -15.441,-1.44 h 14.466 c -1.996,-6.275 -4.466,-9.72 -7.17,-9.987 -2.827,0.272 -5.279,3.629 -7.296,9.987 z"
   id="path133"
   inkscape:connector-curvature="0"
   style="fill:#484848" />
	</g>
	<g
   id="g139">
		<path
   d="m 69.977,195.145 c -0.763,0 -1.477,-0.25 -2.121,-0.744 -0.785,-0.553 -1.272,-1.336 -1.469,-2.376 -0.398,-2.667 -0.826,-5.116 -1.277,-7.312 H 46.884 c -0.396,1.949 -0.767,4.063 -1.106,6.292 -0.184,0.993 -0.678,1.794 -1.473,2.403 -0.708,0.504 -1.403,0.742 -2.146,0.742 v 0 c -0.213,0 -0.433,-0.02 -0.662,-0.06 -0.963,-0.112 -1.789,-0.612 -2.412,-1.479 -0.619,-0.804 -0.855,-1.758 -0.67,-2.74 3.188,-20.664 8.983,-30.479 17.683,-29.951 0.12,-0.013 0.324,-0.019 0.528,-0.019 8.355,0 13.957,10.136 17.123,30.987 0.123,1.03 -0.108,1.901 -0.724,2.764 -0.652,0.84 -1.468,1.315 -2.443,1.438 -0.178,0.035 -0.394,0.055 -0.605,0.055 z m -23.68,-11.872 h 19.398 c 0.34,0 0.634,0.238 0.705,0.57 0.5,2.367 0.974,5.039 1.407,7.94 0.123,0.646 0.402,1.104 0.902,1.457 0.527,0.402 1.065,0.535 1.651,0.427 0.632,-0.081 1.113,-0.365 1.51,-0.876 0.388,-0.545 0.528,-1.063 0.452,-1.71 -3.066,-20.191 -8.502,-30.206 -16.224,-29.725 -0.271,-0.011 -0.453,-0.017 -0.634,-0.017 -7.426,0 -12.685,9.681 -15.63,28.773 -0.112,0.6 0.026,1.143 0.407,1.638 0.396,0.552 0.871,0.845 1.465,0.915 0.183,0.031 0.32,0.044 0.453,0.044 v 0 c 0.445,0 0.843,-0.143 1.291,-0.462 0.49,-0.375 0.794,-0.865 0.908,-1.483 0.373,-2.453 0.789,-4.788 1.234,-6.92 0.07,-0.331 0.364,-0.571 0.705,-0.571 z m 17.91,-4.526 H 47.783 c -0.228,0 -0.441,-0.107 -0.577,-0.289 -0.136,-0.183 -0.178,-0.418 -0.113,-0.636 2.302,-7.735 5.215,-11.641 8.905,-11.938 0.039,-10e-4 0.077,-0.005 0.115,0 3.619,0.289 6.492,4.194 8.784,11.939 0.064,0.218 0.022,0.453 -0.114,0.635 -0.135,0.183 -0.349,0.289 -0.576,0.289 z m -15.449,-1.439 h 14.477 c -2.006,-6.362 -4.419,-9.72 -7.178,-9.983 -2.828,0.27 -5.282,3.627 -7.299,9.983 z"
   id="path137"
   inkscape:connector-curvature="0"
   style="fill:#484848" />
	</g>
	<g
   id="g143">
		<path
   d="m 83.526,194.651 c -1.024,0 -1.957,-0.4 -2.627,-1.127 -0.687,-0.626 -1.089,-1.557 -1.089,-2.579 v -22.134 h -9.268 c -1.028,0 -1.963,-0.401 -2.631,-1.129 -0.686,-0.628 -1.088,-1.558 -1.088,-2.575 0,-1.021 0.374,-1.911 1.109,-2.646 0.688,-0.681 1.615,-1.054 2.61,-1.054 h 25.972 c 0.995,0 1.88,0.347 2.632,1.031 0.735,0.793 1.084,1.677 1.083,2.67 0,0.993 -0.377,1.916 -1.061,2.597 -0.732,0.732 -1.625,1.104 -2.655,1.104 h -9.267 v 22.136 c 0,0.996 -0.379,1.92 -1.066,2.602 -0.732,0.732 -1.626,1.104 -2.654,1.104 z M 70.542,162.847 c -0.614,0 -1.18,0.227 -1.595,0.636 -0.466,0.466 -0.684,0.983 -0.684,1.625 0,0.619 0.23,1.157 0.665,1.558 0.441,0.478 0.984,0.707 1.614,0.707 h 9.988 c 0.397,0 0.72,0.322 0.72,0.72 v 22.854 c 0,0.622 0.229,1.161 0.665,1.56 0.443,0.478 0.985,0.707 1.611,0.707 0.65,0 1.171,-0.218 1.638,-0.685 0.415,-0.412 0.642,-0.973 0.642,-1.582 V 168.09 c 0,-0.397 0.323,-0.72 0.72,-0.72 h 9.987 c 0.651,0 1.172,-0.218 1.638,-0.684 0.412,-0.41 0.638,-0.971 0.638,-1.579 0.001,-0.638 -0.208,-1.161 -0.657,-1.648 -0.447,-0.403 -0.975,-0.612 -1.618,-0.612 z"
   id="path141"
   inkscape:connector-curvature="0"
   style="fill:#484848" />
	</g>
	<g
   id="g147">
		<path
   d="m 120.126,194.251 h -4.444 c -2.136,0 -4.059,-0.376 -5.878,-1.148 -1.76,-0.754 -3.332,-1.809 -4.81,-3.226 -1.421,-1.469 -2.442,-2.977 -3.133,-4.621 -0.058,-0.061 -0.104,-0.13 -0.135,-0.208 -0.773,-1.97 -1.149,-3.876 -1.149,-5.829 v -14.756 c 0,-1.029 0.403,-1.96 1.136,-2.62 0.619,-0.68 1.553,-1.08 2.581,-1.08 1.037,0 1.905,0.36 2.653,1.104 0.686,0.678 1.063,1.601 1.063,2.597 v 14.756 c 0,0.977 0.2,1.975 0.595,2.966 0.017,0.041 0.028,0.083 0.037,0.125 0.394,0.837 0.909,1.58 1.618,2.328 0.872,0.811 1.607,1.302 2.426,1.61 0.962,0.412 1.903,0.599 2.992,0.599 h 4.445 c 1.098,0 2.092,-0.196 2.952,-0.582 0.85,-0.322 1.608,-0.829 2.498,-1.658 0.798,-0.846 1.308,-1.601 1.621,-2.414 0.401,-0.896 0.598,-1.885 0.598,-2.974 v -14.756 c 0,-1.024 0.403,-1.955 1.136,-2.619 0.623,-0.682 1.557,-1.081 2.581,-1.081 1.029,0 1.923,0.372 2.656,1.105 0.679,0.668 1.061,1.588 1.07,2.588 v 14.763 c 0,2.104 -0.378,4.032 -1.156,5.895 -0.024,0.059 -0.056,0.112 -0.093,0.161 -0.743,1.655 -1.775,3.156 -3.149,4.583 -1.448,1.384 -2.96,2.412 -4.635,3.157 -0.046,0.036 -0.098,0.066 -0.155,0.09 -1.865,0.77 -3.802,1.145 -5.921,1.145 z m -17.137,-9.928 c 0.053,0.057 0.096,0.122 0.125,0.193 0.621,1.548 1.568,2.967 2.896,4.341 1.331,1.275 2.764,2.236 4.358,2.92 1.637,0.695 3.375,1.034 5.313,1.034 h 4.444 c 1.855,0 3.553,-0.314 5.183,-0.961 0.039,-0.028 0.082,-0.053 0.129,-0.073 1.592,-0.682 3.026,-1.644 4.384,-2.94 1.287,-1.337 2.253,-2.762 2.933,-4.337 0.021,-0.048 0.046,-0.093 0.075,-0.134 0.65,-1.624 0.967,-3.311 0.967,-5.147 v -14.756 c -0.006,-0.608 -0.235,-1.17 -0.645,-1.572 -0.471,-0.471 -0.991,-0.688 -1.643,-0.688 -0.627,0 -1.169,0.229 -1.568,0.663 -0.474,0.433 -0.709,0.984 -0.709,1.598 v 14.756 c 0,1.293 -0.238,2.479 -0.708,3.527 -0.369,0.961 -0.971,1.861 -1.936,2.882 -0.729,0.68 -1.69,1.486 -2.963,1.968 -1.008,0.453 -2.199,0.69 -3.502,0.69 h -4.445 c -1.273,0 -2.428,-0.229 -3.53,-0.702 -1.24,-0.468 -2.204,-1.274 -2.901,-1.924 -0.873,-0.921 -1.506,-1.848 -1.967,-2.865 -0.026,-0.06 -0.045,-0.122 -0.055,-0.186 -0.435,-1.127 -0.654,-2.267 -0.654,-3.391 v -14.756 c 0,-0.608 -0.227,-1.168 -0.638,-1.574 -0.472,-0.469 -0.993,-0.687 -1.64,-0.687 -0.62,0 -1.176,0.235 -1.567,0.661 -0.594,0.54 -0.708,1.163 -0.708,1.6 v 14.756 c 0,1.704 0.318,3.376 0.972,5.104 z"
   id="path145"
   inkscape:connector-curvature="0"
   style="fill:#484848" />
	</g>
	<g
   id="g151">
		<path
   d="m 140.021,193.72 c -1.051,0 -2.01,-0.372 -2.773,-1.077 -0.732,-0.686 -1.133,-1.608 -1.133,-2.602 v -25.664 c 0,-0.925 0.354,-1.757 1.053,-2.474 0.729,-0.738 1.584,-1.144 2.545,-1.21 9.483,-0.747 16.685,-0.376 21.46,1.115 6.406,1.885 9.546,5.415 9.32,10.491 -0.06,4.277 -2.042,7.366 -5.892,9.159 -0.533,0.26 -1.13,0.495 -1.799,0.71 l 7.156,4.851 c 0.862,0.619 1.389,1.435 1.58,2.435 0.133,1.004 -0.117,1.936 -0.718,2.737 -0.655,0.857 -1.535,1.352 -2.619,1.473 -0.183,0.032 -0.405,0.052 -0.623,0.052 -0.789,0 -1.533,-0.242 -2.21,-0.721 l -15.927,-10.851 c -0.76,-0.512 -1.252,-1.134 -1.503,-1.899 -0.229,-0.908 -0.18,-1.696 0.132,-2.392 0.326,-0.791 0.882,-1.41 1.644,-1.821 0.685,-0.422 1.473,-0.59 2.412,-0.528 4.03,0.435 7.049,0.211 9.072,-0.634 1.034,-0.503 1.513,-1.325 1.468,-2.571 -0.129,-1.576 -1.403,-2.725 -3.896,-3.48 -3.466,-0.98 -8.476,-1.322 -14.844,-0.995 v 22.218 c 0,1.026 -0.43,1.957 -1.209,2.621 -0.678,0.687 -1.6,1.057 -2.696,1.057 z m 8.481,-31.965 c -2.608,0 -5.53,0.126 -8.684,0.375 -0.616,0.042 -1.145,0.298 -1.622,0.782 -0.437,0.447 -0.642,0.914 -0.642,1.465 v 25.664 c 0,0.591 0.239,1.14 0.674,1.547 0.489,0.451 1.11,0.692 1.793,0.692 0.707,0 1.27,-0.221 1.72,-0.674 0.504,-0.433 0.747,-0.96 0.747,-1.565 v -22.9 c 0,-0.382 0.298,-0.697 0.679,-0.719 6.841,-0.392 12.244,-0.049 16.009,1.014 3.094,0.938 4.747,2.545 4.929,4.779 0.066,1.842 -0.734,3.202 -2.313,3.967 -2.314,0.97 -5.584,1.212 -9.79,0.757 -0.071,-0.004 -0.168,-0.008 -0.263,-0.008 -0.51,0 -0.912,0.107 -1.305,0.349 -0.51,0.276 -0.829,0.633 -1.039,1.144 -0.188,0.419 -0.209,0.878 -0.072,1.424 0.135,0.406 0.435,0.773 0.928,1.106 l 15.939,10.859 c 0.563,0.397 1.169,0.539 1.81,0.427 0.741,-0.084 1.259,-0.374 1.674,-0.916 0.371,-0.497 0.522,-1.05 0.445,-1.64 -0.117,-0.603 -0.432,-1.087 -0.983,-1.483 l -8.43,-5.714 c -0.235,-0.16 -0.355,-0.444 -0.304,-0.725 0.051,-0.281 0.263,-0.505 0.54,-0.571 1.222,-0.292 2.216,-0.63 3.041,-1.031 3.364,-1.566 5.019,-4.149 5.071,-7.901 0.196,-4.411 -2.519,-7.371 -8.299,-9.071 -3.044,-0.953 -7.163,-1.433 -12.253,-1.433 z"
   id="path149"
   inkscape:connector-curvature="0"
   style="fill:#484848" />
	</g>
	<g
   id="g155">
		<path
   d="m 201.987,194.15 c -0.23,0 -0.464,-0.02 -0.703,-0.06 -0.759,-0.182 -1.376,-0.535 -1.938,-1.09 l -18.603,-19.205 v 16.653 c 0,0.997 -0.378,1.92 -1.064,2.599 -0.731,0.73 -1.625,1.102 -2.651,1.102 -1.027,0 -1.96,-0.4 -2.628,-1.127 -0.685,-0.614 -1.087,-1.545 -1.087,-2.573 v -25.84 c 0,-0.769 0.222,-1.457 0.68,-2.104 0.339,-0.561 0.95,-1.038 1.695,-1.304 0.564,-0.263 1.341,-0.356 2.103,-0.234 0.732,0.184 1.336,0.512 1.911,1.016 l 18.583,19.278 V 164.61 c 0,-1.02 0.373,-1.91 1.109,-2.646 0.694,-0.684 1.618,-1.058 2.606,-1.058 0.989,0 1.874,0.348 2.63,1.033 0.738,0.794 1.09,1.678 1.09,2.67 v 25.84 c 0,0.769 -0.213,1.461 -0.632,2.057 -0.392,0.606 -0.918,1.054 -1.641,1.384 -0.554,0.185 -1.007,0.26 -1.46,0.26 z m -21.964,-22.852 c 0.191,0 0.379,0.076 0.518,0.219 l 19.828,20.471 c 0.364,0.36 0.751,0.584 1.203,0.693 0.32,0.05 0.847,0.034 1.354,-0.131 0.392,-0.184 0.714,-0.455 0.969,-0.849 0.268,-0.382 0.386,-0.772 0.386,-1.252 v -25.84 c 0,-0.636 -0.211,-1.159 -0.662,-1.647 -0.452,-0.406 -0.98,-0.616 -1.618,-0.616 -0.607,0 -1.173,0.228 -1.593,0.641 -0.465,0.465 -0.684,0.981 -0.684,1.623 v 18.436 c 0,0.294 -0.178,0.558 -0.45,0.668 -0.273,0.108 -0.584,0.043 -0.788,-0.168 l -19.777,-20.521 c -0.362,-0.314 -0.761,-0.533 -1.21,-0.648 -0.086,-0.011 -0.236,-0.023 -0.386,-0.023 -0.321,0 -0.619,0.062 -0.883,0.183 -0.493,0.179 -0.84,0.44 -1.034,0.76 -0.311,0.443 -0.443,0.849 -0.443,1.315 v 25.84 c 0,0.625 0.229,1.161 0.66,1.552 0.445,0.479 0.987,0.709 1.615,0.709 0.649,0 1.169,-0.218 1.637,-0.685 0.413,-0.408 0.64,-0.967 0.64,-1.576 V 172.02 c 0,-0.293 0.178,-0.558 0.449,-0.667 0.087,-0.039 0.179,-0.055 0.269,-0.055 z"
   id="path153"
   inkscape:connector-curvature="0"
   style="fill:#484848" />
	</g>
</g>
</svg>