<?xml version="1.0" encoding="UTF-8" standalone="no"?>
<!-- Generator: Adobe Illustrator 16.0.3, SVG Export Plug-In . SVG Version: 6.00 Build 0)  -->

<svg
   xmlns:dc="http://purl.org/dc/elements/1.1/"
   xmlns:cc="http://creativecommons.org/ns#"
   xmlns:rdf="http://www.w3.org/1999/02/22-rdf-syntax-ns#"
   xmlns:svg="http://www.w3.org/2000/svg"
   xmlns="http://www.w3.org/2000/svg"
   xmlns:sodipodi="http://sodipodi.sourceforge.net/DTD/sodipodi-0.dtd"
   xmlns:inkscape="http://www.inkscape.org/namespaces/inkscape"
   version="1.1"
   id="Ebene_1"
   x="0px"
   y="0px"
   width="566.929px"
   height="96.834px"
   viewBox="0 0 566.929 96.834"
   enable-background="new 0 0 566.929 96.834"
   xml:space="preserve"
   sodipodi:docname="neogeo.svg"
   inkscape:version="0.92.4 (5da689c313, 2019-01-14)"><metadata
   id="metadata27"><rdf:RDF><cc:Work
       rdf:about=""><dc:format>image/svg+xml</dc:format><dc:type
         rdf:resource="http://purl.org/dc/dcmitype/StillImage" /></cc:Work></rdf:RDF></metadata><defs
   id="defs25" /><sodipodi:namedview
   pagecolor="#ffffff"
   bordercolor="#666666"
   borderopacity="1"
   objecttolerance="10"
   gridtolerance="10"
   guidetolerance="10"
   inkscape:pageopacity="0"
   inkscape:pageshadow="2"
   inkscape:window-width="1612"
   inkscape:window-height="1027"
   id="namedview23"
   showgrid="false"
   inkscape:zoom="2.0249449"
   inkscape:cx="275.56306"
   inkscape:cy="48.417"
   inkscape:window-x="0"
   inkscape:window-y="0"
   inkscape:window-maximized="0"
   inkscape:current-layer="Ebene_1" />
<g
   transform="translate(-683.17328,-356.17754)"
   id="g20">
	<g
   transform="matrix(0.93403196,0,0,0.93403196,69.311262,27.640521)"
   id="g18">
		<g
   transform="translate(1.5605469e-5,0)"
   id="g8">
			<path
   d="M1036.018,414.062h2.403c2.244,0,6.081,0.462,7.662,1.388c1.581,0.92,2.624,1.953,3.126,3.095     c0.504,1.142,0.759,3.661,0.759,7.551v15.273c0,4.609-4.87,6.957-7.216,7.467c-2.357,0.508-4.646,0.763-6.877,0.763     c-6.43,0-11.98-1.673-16.66-5.021c-4.674-3.35-8.061-8.586-10.163-15.727c-2.097-7.131-3.143-15.422-3.143-24.892     c0-7.811,0.958-15.43,2.875-22.852c1.922-7.424,5.188-13.208,9.801-17.36c4.613-4.148,10.395-6.223,17.337-6.223     c7.266,0,11.518,1.839,16.865,7.398c5.47,5.681,10.717,12.137,13.78,21.614h4.473v-34.796h-2.545     c-0.918,2.787-1.92,4.68-3.015,5.679c-1.1,1.003-2.29,1.502-3.565,1.502c-0.824,0-3.49-0.906-7.988-2.718     c-4.498-1.814-7.756-2.915-9.765-3.303c-3.699-0.772-6.574-1.162-11.185-1.162c-14.895,0-27.259,5.119-37.085,15.355     c-9.826,10.245-14.736,22.785-14.736,37.63c0,8.295,1.595,15.792,4.795,22.487c2.513,5.192,5.997,9.857,10.451,14.01     c4.456,4.147,9.602,7.496,15.422,10.048c5.828,2.543,13.151,3.818,21.969,3.818c6.903,0,13.556-0.713,19.98-2.139     c6.422-1.43,12.597-3.546,18.55-6.351v-20.524c0-3.597,0.203-5.859,0.613-6.779c0.73-1.752,1.767-3.003,3.114-3.76     c1.344-0.757,5.016-1.248,8.438-1.495v-3.36h-48.486v3.36L1036.018,414.062z"
   id="path2" />
			<path
   d="M1147.468,440.646c-5.525,4.23-12.879,6.344-22.05,6.344h-5.228c-2.802,0-4.826-0.381-6.085-1.152     c-1.248-0.77-2.112-1.757-2.568-2.959c-0.458-1.202-0.688-4.498-0.688-9.88v-27.567c4.711,0,10.227,0.613,12.703,1.844     c2.474,1.225,4.646,3.624,6.512,7.191c1.874,3.565,3.099,7.503,3.682,13.092h3.975v-50.731h-3.975     c-0.78,7.622-2.574,12.739-5.391,16.644c-2.815,3.905-7.356,5.858-13.615,5.858h-3.896v-34.029     c-0.031-5.915,5.242-5.23,5.242-5.23h6.16c7.448,0,12.521,0.436,15.229,1.305c4.642,1.443,8.235,3.706,10.773,6.787     c2.541,3.084,4.508,8.161,5.911,15.241h3.335v-28.978h-82.888v3.969h2.614c3.185,0,5.696,0.673,7.528,2.019     c1.305,0.914,2.2,2.218,2.679,3.9c0.245,1.006,0.366,3.726,0.366,8.153v61.307c0,4.906-0.266,7.938-0.799,9.096     c-0.675,1.633-1.644,2.789-2.896,3.463c-1.74,1.012-4.032,1.516-6.875,1.516h-2.616v4.611h84.291l5.065-31.174h-4.625     c-2.415,8.678-6.386,15.133-11.913,19.361"
   id="path4" />
			<path
   d="M1212.688,352.888c-14.125-0.583-26.03,4.02-35.697,13.819c-9.686,9.791-14.514,22.035-14.514,36.713     c0,13.078,3.718,24.378,11.16,33.907c9.414,12.053,22.738,18.088,39.975,18.088c17.18,0,30.49-6.319,39.908-18.964     c7.11-9.516,10.667-20.557,10.667-33.104c0-14.679-4.77-26.906-14.297-36.68c-9.537-9.775-21.927-14.366-37.185-13.778      M1235.236,431.349c-2.308,6.827-5.531,11.798-9.675,14.901c-3.25,2.434-7.3,3.647-12.153,3.647     c-7.206,0-12.803-2.821-16.814-8.454c-5.744-8.065-8.621-20.524-8.621-37.391c0-14.192,1.859-25.073,5.581-32.651     c4.567-9.229,11.227-13.844,19.984-13.844c4.757,0,8.96,1.338,12.609,4.011c3.649,2.671,6.65,7.253,9.004,13.737     c2.357,6.491,3.534,16.263,3.534,29.341c0,10.98-1.152,19.886-3.463,26.715"
   id="path6" />
		</g>
		<path
   d="M899.717,454.844c17.18,0,30.488-6.321,39.908-18.964c7.108-9.527,10.666-20.555,10.666-33.104    c0-14.679-4.77-26.905-14.299-36.68c-9.535-9.774-21.926-14.364-37.183-13.778c-14.125-0.582-26.03,4.021-35.697,13.82    c-9.684,9.79-14.514,22.035-14.514,36.713c0,13.077,3.717,24.379,11.162,33.906c9.411,12.053,22.736,18.088,39.974,18.088     M879.507,370.885c4.566-9.229,11.227-13.844,19.987-13.844c4.756,0,8.957,1.335,12.606,4.009    c3.649,2.673,6.651,7.253,9.007,13.737c2.354,6.49,3.532,16.262,3.532,29.332c0,10.98-1.152,19.888-3.462,26.715    c-2.305,6.827-5.531,11.798-9.675,14.909c-3.248,2.43-7.299,3.645-12.153,3.645c-7.206,0-12.805-2.819-16.817-8.454    c-5.743-8.065-8.618-20.524-8.618-37.39c0-14.192,1.858-25.073,5.579-32.651"
   id="path10" />
		<path
   d="M849.935,420.502h-4.627c-2.414,8.676-6.387,15.133-11.913,19.359c-5.526,4.23-12.879,6.344-22.042,6.344h-5.229    c-2.801,0-4.823-0.385-6.082-1.15c-1.253-0.772-2.112-1.759-2.57-2.961c-0.457-1.204-0.688-4.498-0.688-9.882v-27.567    c4.71,0,10.228,0.615,12.705,1.846c2.474,1.225,4.647,3.626,6.513,7.191c1.872,3.567,3.098,7.503,3.681,13.094h3.976v-50.733    h-3.976c-0.779,7.619-2.575,12.739-5.392,16.644c-2.811,3.906-7.354,5.857-13.613,5.857h-3.897v-34.029    c-0.032-5.916,5.244-5.23,5.244-5.23h6.155c7.453,0,12.532,0.435,15.24,1.302c4.645,1.443,8.235,3.709,10.774,6.789    c2.541,3.082,4.51,8.164,5.914,15.239h3.332v-29.001h-82.887v3.994h2.612c3.185,0,5.696,0.674,7.529,2.017    c1.303,0.914,2.196,2.218,2.676,3.901c0.244,1.007,0.366,3.725,0.366,8.151v61.309c0,4.906-0.265,7.938-0.797,9.088    c-0.674,1.633-1.644,2.794-2.893,3.465c-1.74,1.012-4.032,1.516-6.882,1.516h-2.612v4.611h84.29l5.067-31.174L849.935,420.502z"
   id="path12" />
		<path
   d="M690.849,447.002h-2.237c-3.21,0-6.061-0.985-8.554-2.957c-2.488-1.972-3.734-5.765-3.734-11.392v-59.211l64.138,79.957    l4.159,0.006v-81.55c0-4.637,0.385-5.983,1.15-7.891c0.765-1.908,1.835-3.285,3.201-4.131c1.368-0.844,4.05-1.532,8.04-2.064    v-4.149h-31.818v4.149c5.245-0.096,8.991,1.255,11.211,4.057c1.626,2.077,2.439,4.135,2.439,10.031v42.706l-49.931-60.943h-30.381    v3.291c2.888,0.096,2.991,1.063,4.529,1.88l8.138,8.191l-0.011,65.664c0,5.194-1.026,8.868-3.074,11.03    c-2.05,2.164-5.684,3.268-10.897,3.316v3.969h33.617v-3.969L690.849,447.002z"
   id="path14" />
		<path
   stroke="#000000"
   stroke-width="0.133"
   d="M977.661,403.577c0,6.516-5.282,11.796-11.794,11.796    c-6.517,0-11.797-5.284-11.797-11.796c0-6.517,5.284-11.796,11.797-11.796C972.383,391.781,977.661,397.064,977.661,403.577z"
   id="path16" />
	</g>
</g>
<path
   style="opacity:1;fill:#6c5353;fill-opacity:1;fill-rule:evenodd;stroke-width:0.49384061;stroke:#6c5353"
   d="M 49.009858,58.664192 C 33.070077,38.768589 19.499928,21.939848 18.853967,21.26699 l -1.174474,-1.223378 v 29.224525 c 0,19.386164 0.182838,30.077068 0.543112,31.75697 0.973048,4.537166 4.574685,7.420775 10.197922,8.164845 2.446001,0.323653 2.592663,0.423271 2.592663,1.760961 v 1.417901 H 15.672842 0.33249419 l 0.15474915,-1.604982 c 0.15047703,-1.560675 0.23139588,-1.613224 2.93111906,-1.903489 4.0865681,-0.43938 6.8339516,-2.131554 8.3350436,-5.13374 L 12.988008,81.2574 13.12763,47.657963 13.267251,14.058525 8.8645255,9.750226 C 6.4430265,7.3806617 3.7690144,5.2004208 2.9222766,4.9052464 1.7750072,4.5053062 1.3827534,4.0663115 1.3827534,3.1822743 V 1.9959828 H 15.428111 29.473469 l 23.363071,28.5034032 23.363065,28.503403 0.14718,-4.428673 c 0.08094,-2.43577 0.08094,-12.873348 0,-23.194617 C 76.215976,14.700618 76.104635,12.44 75.345686,11.053019 73.547424,7.7667024 69.320969,5.452867 65.116429,5.452867 c -1.39621,0 -1.509759,-0.1299939 -1.509759,-1.7284421 V 1.9959828 h 14.568298 14.568298 v 1.657481 c 0,1.6284347 -0.0559,1.6712758 -3.18989,2.4446648 -4.139273,1.0214682 -5.403633,1.897977 -6.78613,4.7044314 l -1.135394,2.304836 -0.134517,40.865311 -0.134513,40.86531 h -1.685779 c -1.639363,0 -2.483672,-0.995919 -30.667185,-36.173825 z"
   id="path29"
   inkscape:connector-curvature="0" /><path
   style="opacity:1;fill:#a48f60;fill-opacity:0;fill-rule:evenodd;stroke:#6c5353;stroke-width:0.49384061"
   d="M 96.891527,91.207538 V 89.54647 l 3.051728,-0.318966 c 3.799885,-0.397167 6.248875,-1.568972 7.637095,-3.654223 1.59444,-2.395024 1.75393,-6.716129 1.5719,-42.588528 C 108.99536,12.065492 108.96135,11.081381 107.99164,9.4035919 106.59854,6.9932413 103.38513,5.452867 99.749931,5.452867 H 96.891527 V 3.7244249 1.9959828 h 38.519563 38.51957 V 15.329679 28.663376 h -1.42832 c -1.35862,0 -1.46971,-0.168868 -2.27622,-3.459901 -1.94443,-7.934414 -5.6835,-13.009659 -11.60452,-15.7514374 -4.25795,-1.9716838 -8.02863,-2.5094406 -17.62726,-2.5139183 -7.74347,-0.00361 -8.04136,0.03409 -9.38297,1.1875681 l -1.3856,1.1912987 -0.1476,17.4017209 -0.1476,17.401722 4.75839,-0.28389 c 7.58419,-0.452479 10.9186,-2.521846 14.02388,-8.703365 1.38527,-2.757578 2.99499,-8.742491 2.99499,-11.135311 0,-1.11143 0.2045,-1.260575 1.72845,-1.260575 h 1.72844 v 23.457429 23.457429 h -1.63214 -1.63215 l -0.62416,-3.714595 c -0.81811,-4.868849 -3.82326,-10.932382 -6.59333,-13.303459 -2.55437,-2.186443 -4.36161,-2.734667 -10.18078,-3.088328 l -4.61275,-0.28034 0.17042,16.983671 c 0.18535,18.472409 0.23523,18.814636 3.04459,20.889981 1.29311,0.955246 2.02849,1.030221 9.87681,1.006941 6.52941,-0.01936 9.20887,-0.226248 11.65016,-0.899501 9.5008,-2.620111 16.06427,-8.862972 19.88039,-18.909255 l 1.564,-4.117362 h 1.87814 c 1.78479,0 1.86478,0.0675 1.60943,1.358062 -0.14779,0.746934 -1.20331,7.135997 -2.34561,14.197917 l -2.07689,12.839856 -39.12466,0.126433 -39.124663,0.126433 z"
   id="path31"
   inkscape:connector-curvature="0" /><path
   style="opacity:1;fill:#a48f60;fill-opacity:0;fill-rule:evenodd;stroke:#6c5353;stroke-width:0.49384061"
   d="M 76.425453,92.245354 C 75.047194,90.819389 72.713372,88.208207 71.239179,86.442727 67.876045,82.415071 66.85503,81.201527 65.698885,79.857752 65.192767,79.269499 64.194004,78.010398 63.479412,77.059755 62.76482,76.109112 62.054331,75.220199 61.900549,75.084393 61.746767,74.948586 59.675274,72.392961 57.297234,69.405226 54.919189,66.41749 52.530951,63.417408 51.990038,62.738377 51.449124,62.059347 43.630192,52.32878 34.614637,41.1149 L 18.222718,20.726024 18.072338,49.51019 c -0.104753,20.050679 0.01876,29.572548 0.407077,31.382553 0.935726,4.361541 3.911817,6.899215 9.480342,8.083761 2.798765,0.59536 3.330345,1.03673 3.342175,2.775009 l 0.0076,1.111141 H 15.753515 c -15.39177305,0 -15.55597906,-0.01077 -15.55597906,-1.020146 0,-1.420858 0.88685436,-2.930578 1.72150996,-2.930578 0.3844931,0 1.8386779,-0.244402 3.2315217,-0.543112 2.986911,-0.64058 5.5351754,-2.676502 6.9089384,-5.519863 0.910254,-1.884007 0.952502,-3.423901 0.971035,-35.393519 L 13.049919,14.031624 9.2163914,10.312202 C 7.1079498,8.2665204 4.4383922,6.0001699 3.2840397,5.2758679 1.9606017,4.4454726 1.1852172,3.596357 1.1852172,2.9774689 c 0,-0.9568184 0.3593056,-0.9814861 14.2961898,-0.9814861 h 14.29619 L 52.889835,30.212364 76.002069,58.428744 76.130971,37.514023 C 76.206692,25.22852 76.058352,15.509172 75.771446,13.957145 74.900503,9.245795 72.343747,6.9245199 66.822372,5.8322982 63.761716,5.2268481 63.650888,5.1523883 63.501304,3.6009647 l -0.15475,-1.6049819 h 14.846508 c 13.829058,0 14.843135,0.059226 14.797282,0.864221 -0.0547,0.9603066 -0.811607,3.5209687 -0.889229,3.0083156 -0.09769,-0.645153 -6.132157,1.5347079 -7.322076,2.6449875 -0.670206,0.6253528 -1.641388,1.9615081 -2.158182,2.9692341 -0.901215,1.757335 -0.939621,3.49839 -0.939621,42.593751 v 40.761525 h -1.374931 c -1.011208,0 -2.037848,-0.685861 -3.880852,-2.592663 z"
   id="path838"
   inkscape:connector-curvature="0" /><path
   style="opacity:1;fill-opacity:0;fill-rule:evenodd;stroke-width:0.49384061;fill:#a48f60"
   d="m 97.484136,91.207217 c 0,-1.046315 0.319747,-1.214581 3.221774,-1.695464 3.8091,-0.631192 6.37188,-2.078427 7.48669,-4.227843 1.38532,-2.670982 1.80353,-17.841128 1.31586,-47.731404 C 109.01678,7.4165832 109.17744,8.6310271 105.40168,6.5089348 104.18746,5.826504 102.1456,5.2445357 100.41486,5.0875979 97.738988,4.8449579 97.484136,4.7204537 97.484136,3.655836 V 2.4898234 h 38.025724 38.02573 V 15.364026 28.238229 l -1.06025,-0.157807 c -0.85621,-0.127439 -1.26765,-0.870568 -2.13805,-3.861612 -2.74198,-9.422599 -7.34195,-14.2921293 -15.69403,-16.6136893 -2.83367,-0.7876523 -17.89318,-1.5071584 -20.66432,-0.98729 -0.92927,0.1743315 -2.29833,0.8814387 -3.04237,1.5713488 l -1.3528,1.2543828 V 27.028868 44.614173 l 4.32111,-0.308691 c 2.37661,-0.169779 5.50837,-0.662229 6.95947,-1.094333 5.08133,-1.513101 8.60654,-6.617675 10.58269,-15.323942 0.95754,-4.218655 1.16326,-4.656078 2.18972,-4.656078 h 1.13289 v 22.963588 22.963588 h -1.2252 c -0.94051,0 -1.28925,-0.315559 -1.5009,-1.358061 -1.7671,-8.704227 -4.72157,-14.256719 -8.88394,-16.696029 -2.05834,-1.206267 -7.00821,-2.145662 -11.47701,-2.178127 l -2.09883,-0.01525 0.004,13.950998 c 0.002,7.673048 0.21768,15.839937 0.47915,18.148642 0.44159,3.899173 0.59883,4.311767 2.21128,5.802627 l 1.73588,1.604982 h 8.79263 c 6.33238,0 9.61143,-0.21327 11.71892,-0.762203 8.34074,-2.172484 14.88957,-7.648248 18.64517,-15.590025 1.20577,-2.549798 2.4431,-5.247126 2.74961,-5.994059 0.40014,-0.975104 0.90842,-1.358062 1.80248,-1.358062 0.68485,0 1.25568,0.277785 1.26849,0.617301 0.0128,0.339515 -0.93165,6.560721 -2.09882,13.824899 l -2.12213,13.2076 -38.64303,0.0026 -38.643024,0.0026 z"
   id="path840"
   inkscape:connector-curvature="0" /><path
   style="opacity:1;fill:#a48f60;fill-opacity:1;fill-rule:evenodd;stroke-width:0.49384061"
   d="M 75.639605,91.751513 C 74.047068,90.053936 61.058156,74.109057 46.775346,56.31845 32.492539,38.527842 20.303603,23.444185 19.688823,22.799213 l -1.117783,-1.172677 -0.345723,4.629561 c -0.190148,2.546259 -0.26852,15.852089 -0.174161,29.568512 l 0.171562,24.938951 1.17097,2.378326 c 1.430159,2.904766 3.714807,4.500463 7.803538,5.450331 3.875077,0.900232 4.112268,1.062775 4.112268,2.818062 v 1.452375 H 15.753515 0.19753594 v -1.421056 c 0,-1.817728 0.61821842,-2.284812 3.95072486,-2.984906 3.5618091,-0.748267 6.0117152,-2.422357 7.5359682,-5.149542 l 1.237617,-2.214337 0.0844,-33.544584 0.0844,-33.544582 -4.3477297,-3.935022 C 6.3516596,7.9043639 3.6729392,5.6319634 2.7901991,5.018847 1.907459,4.4057306 1.1852172,3.4747657 1.1852172,2.9500363 c 0,-0.9217977 0.4883686,-0.9530178 14.4448378,-0.9234183 L 30.074893,2.0572534 52.791561,29.85615 75.508228,57.655049 75.908872,53.159485 C 76.129223,50.686924 76.212667,40.774816 76.094304,31.132579 75.922758,17.158037 75.731158,13.249001 75.149922,11.86508 74.16278,9.514704 71.28202,7.0883007 68.724404,6.4530054 63.413845,5.1338958 63.665526,5.2720759 63.501304,3.585388 L 63.346554,1.9959828 H 78.193062 93.03957 l -0.0076,1.3580616 c -0.01101,1.9801753 -0.422441,2.3303689 -3.621234,3.0823817 -1.588414,0.3734255 -3.428,1.1036948 -4.087963,1.622821 -1.605264,1.262704 -3.286124,4.6442179 -3.368457,6.7765919 -0.03669,0.950643 -0.113174,19.340032 -0.169926,40.86531 l -0.103198,39.136868 h -1.57306 c -1.291536,0 -2.091252,-0.552376 -4.468571,-3.086504 z"
   id="path842"
   inkscape:connector-curvature="0" /><path
   style="opacity:1;fill:#a48f60;fill-opacity:1;fill-rule:evenodd;stroke-width:0.49384061"
   d="m 97.484136,91.207217 c 0,-1.046315 0.319747,-1.214581 3.221774,-1.695464 3.8091,-0.631192 6.37188,-2.078427 7.48669,-4.227843 1.38532,-2.670982 1.80353,-17.841128 1.31586,-47.731404 C 109.01678,7.4165832 109.17744,8.6310271 105.40168,6.5089348 104.18746,5.826504 102.1456,5.2445357 100.41486,5.0875979 97.738988,4.8449579 97.484136,4.7204537 97.484136,3.655836 V 2.4898234 h 38.025724 38.02573 V 15.364026 28.238229 l -1.06025,-0.157807 c -0.85621,-0.127439 -1.26765,-0.870568 -2.13805,-3.861612 -2.74198,-9.422599 -7.34195,-14.2921293 -15.69403,-16.6136893 -2.83367,-0.7876523 -17.89318,-1.5071584 -20.66432,-0.98729 -0.92927,0.1743315 -2.29833,0.8814387 -3.04237,1.5713488 l -1.3528,1.2543828 V 27.028868 44.614173 l 4.32111,-0.308691 c 2.37661,-0.169779 5.50837,-0.662229 6.95947,-1.094333 5.08133,-1.513101 8.60654,-6.617675 10.58269,-15.323942 0.95754,-4.218655 1.16326,-4.656078 2.18972,-4.656078 h 1.13289 v 22.963588 22.963588 h -1.2252 c -0.94051,0 -1.28925,-0.315559 -1.5009,-1.358061 -1.7671,-8.704227 -4.72157,-14.256719 -8.88394,-16.696029 -2.05834,-1.206267 -7.00821,-2.145662 -11.47701,-2.178127 l -2.09883,-0.01525 0.004,13.950998 c 0.002,7.673048 0.21768,15.839937 0.47915,18.148642 0.44159,3.899173 0.59883,4.311767 2.21128,5.802627 l 1.73588,1.604982 h 8.79263 c 6.33238,0 9.61143,-0.21327 11.71892,-0.762203 8.34074,-2.172484 14.88957,-7.648248 18.64517,-15.590025 1.20577,-2.549798 2.4431,-5.247126 2.74961,-5.994059 0.40014,-0.975104 0.90842,-1.358062 1.80248,-1.358062 0.68485,0 1.25568,0.277785 1.26849,0.617301 0.0128,0.339515 -0.93165,6.560721 -2.09882,13.824899 l -2.12213,13.2076 -38.64303,0.0026 -38.643024,0.0026 z"
   id="path844"
   inkscape:connector-curvature="0" /><path
   style="opacity:1;fill:#a48f60;fill-opacity:1;fill-rule:evenodd;stroke-width:0.49384061"
   d="m 217.4874,95.501472 c -12.90139,-2.527066 -21.57823,-7.660001 -28.50921,-16.865126 -7.13359,-9.474199 -10.43217,-20.694267 -9.82788,-33.42931 0.60628,-12.776931 4.97083,-23.000532 13.46982,-31.551961 9.75946,-9.8196791 20.86577,-13.68630291 36.96637,-12.86971976 13.06911,0.66283346 22.41742,4.60462266 30.50152,12.86120876 5.71093,5.832782 8.98538,11.421627 11.54715,19.708728 1.31093,4.240729 1.37329,4.896193 1.36232,14.320947 -0.0109,9.334703 -0.0857,10.120759 -1.3634,14.321378 -5.05595,16.622205 -15.52077,27.555614 -30.78971,32.168396 -3.89929,1.177983 -5.25434,1.325928 -13.23324,1.444825 -4.88903,0.07285 -9.44471,0.02366 -10.12374,-0.109366 z m 17.49683,-6.041863 c 7.04293,-3.467221 11.5404,-11.39436 13.89952,-24.498949 1.23702,-6.871422 1.26649,-25.783864 0.0525,-33.651088 -1.98237,-12.846135 -6.82806,-21.3923874 -14.04793,-24.7760973 -2.5597,-1.1996455 -3.37965,-1.327528 -8.51174,-1.327528 -5.24331,0 -5.89902,0.107956 -8.54382,1.4066497 -7.26869,3.5691896 -12.22196,12.0152906 -14.37992,24.5199826 -1.8277,10.59098 -1.48908,28.196407 0.72193,37.534073 2.88117,12.167942 7.66148,18.953509 15.2192,21.603354 2.76099,0.968046 3.99986,1.118455 7.84451,0.952382 3.89569,-0.168282 5.03239,-0.42697 7.7458,-1.762779 z"
   id="path846"
   inkscape:connector-curvature="0" /><path
   style="opacity:1;fill:#a48f60;fill-opacity:1;fill-rule:evenodd;stroke-width:0.49384061"
   d="m 343.04622,95.827871 c -15.68473,-2.21648 -29.95184,-12.621554 -36.19949,-26.400452 -2.94096,-6.486152 -3.65837,-10.493358 -3.62885,-20.269658 0.0228,-7.541417 0.18952,-9.481259 1.09981,-12.794636 5.13934,-18.706911 19.36691,-32.093913 37.61755,-35.39508844 4.16231,-0.75287956 13.6863,-0.74446783 17.77826,0.0157021 1.76548,0.32797624 6.10658,1.68590534 9.6469,3.01762024 3.54031,1.3317146 7.12074,2.5580616 7.95651,2.7252158 2.39278,0.4785552 4.33327,-0.8373265 5.87165,-3.9816641 0.91318,-1.8664751 1.62562,-2.72429031 2.2626,-2.72429031 0.89134,0 0.92973,0.66270274 0.92973,16.04981971 v 16.04982 h -1.87283 -1.87283 l -1.89977,-4.218155 C 377.12575,19.887274 369.24535,10.442783 363.7025,7.488474 357.91678,4.4047203 348.53752,4.5437791 342.1681,7.8077474 331.36049,13.346031 325.64704,27.556992 325.6428,48.91084 c -0.004,21.600416 5.00054,34.531825 15.37319,39.721052 4.49347,2.247987 7.91737,2.890726 14.21061,2.667619 4.43147,-0.157106 5.56321,-0.371843 7.43083,-1.409915 1.21174,-0.673525 2.72841,-2.002386 3.37038,-2.953029 1.15475,-1.709982 1.1655,-1.847354 1.0068,-12.862908 -0.14118,-9.798904 -0.26908,-11.30014 -1.0663,-12.515669 -1.2201,-1.860318 -4.27627,-3.117414 -8.60056,-3.537677 -3.33992,-0.324596 -3.58034,-0.426579 -3.58034,-1.518752 v -1.170793 h 22.50255 22.50255 l -0.15626,1.358062 c -0.14723,1.279521 -0.3419,1.380265 -3.36623,1.741963 -3.361,0.401972 -4.93808,1.235945 -6.63633,3.509375 -0.9495,1.271077 -1.03486,2.218658 -1.26512,14.043943 l -0.24692,12.680898 -3.95072,1.574117 c -5.34743,2.130621 -11.89148,3.981714 -17.2697,4.885017 -5.37092,0.902079 -18.57447,1.308633 -22.85501,0.703728 z"
   id="path848"
   inkscape:connector-curvature="0" /><path
   style="opacity:1;fill:#a48f60;fill-opacity:1;fill-rule:evenodd;stroke-width:0.49384061"
   d="m 285.02459,58.607037 c -4.50888,-1.678174 -6.8668,-4.692489 -7.19246,-9.194682 -0.37786,-5.223818 1.77558,-8.868511 6.42052,-10.866709 5.06848,-2.180402 10.73515,-0.109972 13.33855,4.873505 1.84703,3.535608 1.84703,6.46009 0,9.995698 -2.38935,4.573749 -7.99991,6.891882 -12.56661,5.192188 z"
   id="path850"
   inkscape:connector-curvature="0" /><path
   style="opacity:1;fill:#a48f60;fill-opacity:1;fill-rule:evenodd;stroke-width:0.49384061"
   d="m 389.83777,91.939918 v -1.910422 l 3.64262,-0.233765 c 4.52881,-0.290645 6.78109,-1.531705 7.91281,-4.360163 0.69957,-1.748388 0.79059,-6.116803 0.79059,-37.943212 V 11.525016 L 401.07097,9.8737029 C 399.4506,7.469236 397.32245,6.4309458 393.3281,6.0960734 389.88692,5.8075774 389.83777,5.783605 389.83777,4.3935606 V 2.983664 h 38.51957 38.51957 V 16.103242 29.22282 l -1.29394,-0.156262 c -1.16279,-0.140425 -1.3862,-0.520857 -2.20429,-3.753631 -1.23787,-4.891492 -4.07883,-10.149375 -6.57896,-12.175949 -5.28644,-4.2851157 -9.53729,-5.348681 -21.63393,-5.4128249 -8.98789,-0.047661 -9.27234,-0.018163 -10.37065,1.0752994 -1.12774,1.1227639 -1.12948,1.1479379 -1.27097,18.3955625 l -0.1417,17.27126 h 3.87933 c 9.49889,0 14.21876,-4.090842 16.92409,-14.668594 0.52912,-2.068825 0.96203,-4.281523 0.96203,-4.917106 0,-0.991465 0.24551,-1.155606 1.72844,-1.155606 h 1.72845 v 23.457429 23.457429 h -1.63215 -1.63214 l -0.61139,-3.638632 c -0.75426,-4.488809 -3.29355,-9.910448 -6.0343,-12.883808 -2.43644,-2.643222 -4.82617,-3.506805 -11.11652,-4.017201 l -4.22797,-0.343056 0.15776,17.501331 c 0.17484,19.397071 0.14193,19.199155 3.49583,21.020419 1.33497,0.724929 2.78768,0.859564 8.76102,0.811968 7.95094,-0.06335 12.76362,-0.874868 17.1805,-2.896987 4.04156,-1.850283 7.76836,-4.921167 10.33161,-8.51324 2.27858,-3.193148 5.55816,-10.029349 5.56918,-11.608819 0.005,-0.678029 0.43162,-0.864222 1.98139,-0.864222 1.44634,0 1.97537,0.202934 1.97537,0.757745 0,0.775873 -3.72192,24.075549 -4.23745,26.526949 l -0.28559,1.358062 h -39.2211 -39.22109 z"
   id="path852"
   inkscape:connector-curvature="0" /><path
   style="opacity:1;fill:#a48f60;fill-opacity:1;fill-rule:evenodd;stroke-width:0.49384061"
   d="m 513.79177,96.278352 c -11.19568,-0.946954 -21.22012,-5.683206 -28.49996,-13.465379 -3.95219,-4.224895 -5.70351,-6.82503 -8.32627,-12.361714 -3.56165,-7.518723 -4.40808,-11.812623 -4.39215,-22.281179 0.014,-9.215563 0.35571,-11.46204 2.72448,-17.912191 3.3236,-9.050155 10.64732,-17.860378 19.13081,-23.0138261 3.57904,-2.174153 9.53038,-4.438461 13.6837,-5.2062441 4.64662,-0.8589738 18.63973,-0.7230676 23.24414,0.2257557 8.28538,1.7073532 14.79888,5.1051788 20.99962,10.9546425 10.01632,9.448887 14.83216,22.27424 14.12618,37.620296 -0.35118,7.633605 -1.62545,13.038024 -4.50986,19.127059 -7.62923,16.105465 -20.01028,24.804507 -37.50815,26.353581 -3.01796,0.267178 -5.59833,0.456581 -5.73414,0.420901 -0.1358,-0.03571 -2.35809,-0.243449 -4.9384,-0.461702 z m 14.54941,-6.332597 c 7.34414,-3.615506 12.15121,-12.624027 14.1967,-26.604848 0.93239,-6.372879 0.7759,-24.690269 -0.26944,-31.537494 -1.9569,-12.818143 -6.81399,-21.390051 -14.03885,-24.7760977 -2.5597,-1.1996455 -3.37965,-1.327528 -8.51174,-1.327528 -5.2433,0 -5.89902,0.107956 -8.54382,1.4066497 -9.66045,4.743631 -14.71753,16.858895 -15.49145,37.112918 -0.8567,22.420348 3.91992,38.756314 13.04433,44.611432 3.50949,2.252031 7.00127,3.075624 12.11539,2.857608 3.64103,-0.155219 4.84064,-0.433992 7.49888,-1.74264 z"
   id="path854"
   inkscape:connector-curvature="0" /></svg>