<?xml version="1.0" encoding="UTF-8" standalone="no"?>
<!-- Created with Inkscape (http://www.inkscape.org/) -->

<svg
   xmlns:dc="http://purl.org/dc/elements/1.1/"
   xmlns:cc="http://creativecommons.org/ns#"
   xmlns:rdf="http://www.w3.org/1999/02/22-rdf-syntax-ns#"
   xmlns:svg="http://www.w3.org/2000/svg"
   xmlns="http://www.w3.org/2000/svg"
   xmlns:sodipodi="http://sodipodi.sourceforge.net/DTD/sodipodi-0.dtd"
   xmlns:inkscape="http://www.inkscape.org/namespaces/inkscape"
   width="1924.6993"
   height="277.25568"
   id="svg4139"
   version="1.1"
   inkscape:version="0.92.4 (5da689c313, 2019-01-14)"
   sodipodi:docname="sg-1000.svg">
  <defs
     id="defs3" />
  <sodipodi:namedview
     inkscape:document-units="mm"
     id="base"
     pagecolor="#ffffff"
     bordercolor="#666666"
     borderopacity="1.0"
     inkscape:pageopacity="0.0"
     inkscape:pageshadow="2"
     inkscape:zoom="0.3813819"
     inkscape:cx="479.6586"
     inkscape:cy="-31.76101"
     inkscape:current-layer="layer1"
     showgrid="false"
     inkscape:window-width="2560"
     inkscape:window-height="1377"
     inkscape:window-x="-8"
     inkscape:window-y="-8"
     inkscape:window-maximized="1"
     units="mm"
     fit-margin-top="0"
     fit-margin-left="0"
     fit-margin-right="0"
     fit-margin-bottom="0" />
  <metadata
     id="metadata4">
    <rdf:RDF>
      <cc:Work
         rdf:about="">
        <dc:format>image/svg+xml</dc:format>
        <dc:type
           rdf:resource="http://purl.org/dc/dcmitype/StillImage" />
        <dc:title />
      </cc:Work>
    </rdf:RDF>
  </metadata>
  <g
     inkscape:label="Layer 1"
     inkscape:groupmode="layer"
     id="layer1"
     transform="translate(-4.3835455,-772.49433)">
    <path
       inkscape:connector-curvature="0"
       id="path6759"
       style="font-style:normal;font-variant:normal;font-weight:normal;font-stretch:normal;font-size:40px;line-height:125%;font-family:'Zeroes One';-inkscape-font-specification:'Zeroes One';text-align:center;letter-spacing:0px;word-spacing:0px;writing-mode:lr-tb;text-anchor:middle;fill:#ff0000;fill-opacity:1;stroke:#000000;stroke-width:0.77302879;stroke-opacity:1"
       d="m 422.01014,975.25565 c -2.2e-4,12.74735 -3.86807,23.04092 -11.60356,30.88215 -7.73592,7.8413 -18.18789,11.7612 -31.35596,11.7612 h -152.4015 v -42.64335 h 152.4015 V 932.60217 H 265.53184 c -12.54307,0 -22.73506,-3.97159 -30.576,-11.91479 -7.84101,-7.9424 -11.7615,-18.18577 -11.76148,-30.72851 v -42.96942 c -2e-5,-6.06088 1.14997,-11.7039 3.44997,-16.92906 2.29995,-5.22517 5.38307,-9.71967 9.24936,-13.4843 3.86623,-3.76385 8.36091,-6.74372 13.48406,-8.93804 5.12307,-2.19513 10.50776,-3.2919 16.15409,-3.29268 h 142.05638 v 42.64408 H 265.53184 v 42.96942 h 113.51878 c 6.06079,0 11.70546,1.09678 16.93403,3.29189 5.22819,2.19434 9.77551,5.17264 13.64197,8.93335 3.86606,3.76149 6.89653,8.25599 9.09145,13.4843 2.1945,5.22829 3.29185,10.87288 3.29207,16.93376 z" />
    <path
       inkscape:connector-curvature="0"
       id="path6761"
       style="font-style:normal;font-variant:normal;font-weight:normal;font-stretch:normal;font-size:40px;line-height:125%;font-family:'Zeroes One';-inkscape-font-specification:'Zeroes One';text-align:center;letter-spacing:0px;word-spacing:0px;writing-mode:lr-tb;text-anchor:middle;fill:#ff0000;fill-opacity:1;stroke:#000000;stroke-width:0.77302879;stroke-opacity:1"
       d="M 669.75709,1017.899 H 498.85687 c -28.43556,0 -42.65331,-14.2142 -42.65328,-42.64335 v -128.2662 c -3e-5,-6.06088 1.14996,-11.7039 3.44996,-16.92906 2.29996,-5.22517 5.38467,-9.71967 9.25415,-13.4843 3.86941,-3.76385 8.36409,-6.74372 13.48406,-8.93804 5.11988,-2.19513 10.60824,-3.2919 16.46511,-3.29268 h 163.69404 v 42.64408 H 498.85687 v 128.2662 h 127.94071 v -42.65348 h -84.98119 v -42.6433 h 127.9407 z" />
    <path
       inkscape:connector-curvature="0"
       id="path6763"
       style="font-style:normal;font-variant:normal;font-weight:normal;font-stretch:normal;font-size:40px;line-height:125%;font-family:'Zeroes One';-inkscape-font-specification:'Zeroes One';text-align:center;letter-spacing:0px;word-spacing:0px;writing-mode:lr-tb;text-anchor:middle;fill:#ff0000;fill-opacity:1;stroke:#000000;stroke-width:0.77302879;stroke-opacity:1"
       d="M 830.20692,932.60217 H 702.25666 v -42.6433 h 127.95026 z" />
    <path
       inkscape:connector-curvature="0"
       id="path6765"
       style="font-style:normal;font-variant:normal;font-weight:normal;font-stretch:normal;font-size:40px;line-height:125%;font-family:'Zeroes One';-inkscape-font-specification:'Zeroes One';text-align:center;letter-spacing:0px;word-spacing:0px;writing-mode:lr-tb;text-anchor:middle;fill:#ff0000;fill-opacity:1;stroke:#000000;stroke-width:0.77302879;stroke-opacity:1"
       d="M 978.7422,1017.899 H 850.7919 v -42.64335 h 42.95952 V 846.98945 H 850.7919 v -42.64408 h 85.6128 v 170.91028 h 42.3375 z" />
    <path
       style="font-style:normal;font-variant:normal;font-weight:normal;font-stretch:normal;font-size:40px;line-height:125%;font-family:'Zeroes One';-inkscape-font-specification:'Zeroes One';text-align:center;letter-spacing:0px;word-spacing:0px;writing-mode:lr-tb;text-anchor:middle;fill:#ff0000;fill-opacity:1;stroke:#000000;stroke-width:0.77302879;stroke-opacity:1"
       d="m 1049.6829,804.34537 c -5.6399,7.8e-4 -11.0138,1.09025 -16.137,3.28537 -5.123,2.19433 -9.6134,5.1743 -13.4796,8.93815 -3.8663,3.76462 -6.9522,8.25452 -9.2522,13.47969 -2.2999,5.22515 -3.4545,10.87328 -3.4545,16.93416 v 128.27447 c 0,28.42919 14.1048,42.63739 42.3233,42.63739 h 127.9605 c 28.4289,0 42.6372,-14.2082 42.6374,-42.63739 V 846.98274 c -3e-4,-5.84999 -1.0909,-11.3708 -3.2854,-16.59596 -2.1949,-5.22517 -5.2171,-9.77911 -9.0831,-13.64879 -3.8665,-3.8689 -8.4206,-6.91292 -13.6488,-9.10725 -5.2285,-2.19512 -10.7699,-3.2846 -16.6201,-3.28537 z m 0,42.63737 h 127.9605 v 128.27447 h -127.9605 z"
       id="path4499"
       inkscape:connector-curvature="0" />
    <path
       style="font-style:normal;font-variant:normal;font-weight:normal;font-stretch:normal;font-size:40px;line-height:125%;font-family:'Zeroes One';-inkscape-font-specification:'Zeroes One';text-align:center;letter-spacing:0px;word-spacing:0px;writing-mode:lr-tb;text-anchor:middle;fill:#ff0000;fill-opacity:1;stroke:#000000;stroke-width:0.77302879;stroke-opacity:1"
       d="m 1294.6848,804.34537 c -5.64,7.8e-4 -11.0139,1.09025 -16.137,3.28537 -5.1231,2.19433 -9.6134,5.1743 -13.4797,8.93815 -3.8662,3.76462 -6.9522,8.25452 -9.2522,13.47969 -2.3,5.22515 -3.4544,10.87328 -3.4544,16.93416 v 128.27447 c 0,28.42919 14.1047,42.63739 42.3233,42.63739 h 127.9604 c 28.429,0 42.6372,-14.2082 42.6373,-42.63739 V 846.98274 c -10e-5,-5.84999 -1.0909,-11.3708 -3.2853,-16.59596 -2.1949,-5.22517 -5.2412,-9.77911 -9.1073,-13.64879 -3.8664,-3.8689 -8.4205,-6.91292 -13.6487,-9.10725 -5.2285,-2.19512 -10.7458,-3.2846 -16.596,-3.28537 z m 0,42.63737 h 127.9604 v 128.27447 h -127.9604 z"
       id="path4503"
       inkscape:connector-curvature="0" />
    <path
       style="font-style:normal;font-variant:normal;font-weight:normal;font-stretch:normal;font-size:40px;line-height:125%;font-family:'Zeroes One';-inkscape-font-specification:'Zeroes One';text-align:center;letter-spacing:0px;word-spacing:0px;writing-mode:lr-tb;text-anchor:middle;fill:#ff0000;fill-opacity:1;stroke:#000000;stroke-width:0.77302879;stroke-opacity:1"
       d="m 1539.6866,804.34537 c -5.64,7.8e-4 -11.0381,1.09025 -16.1611,3.28537 -5.1231,2.19433 -9.6135,5.1743 -13.4797,8.93815 -3.8663,3.76462 -6.9522,8.25452 -9.2522,13.47969 -2.3,5.22515 -3.4545,10.87328 -3.4545,16.93416 v 128.27447 c 0,28.42919 14.129,42.63739 42.3475,42.63739 h 127.9362 c 28.4289,0 42.6372,-14.2082 42.6374,-42.63739 V 846.98274 c -2e-4,-5.84999 -1.0908,-11.3708 -3.2853,-16.59596 -2.1949,-5.22517 -5.2171,-9.77911 -9.0831,-13.64879 -3.8665,-3.8689 -8.4206,-6.91292 -13.6489,-9.10725 -5.2284,-2.19512 -10.7698,-3.2846 -16.6201,-3.28537 z m 0,42.63737 h 127.9362 v 128.27447 h -127.9362 z"
       id="path4507"
       inkscape:connector-curvature="0" />
  </g>
</svg>
