<?xml version="1.0" encoding="UTF-8" standalone="no"?>
<!-- Created with Inkscape (http://www.inkscape.org/) -->

<svg
   xmlns:dc="http://purl.org/dc/elements/1.1/"
   xmlns:cc="http://creativecommons.org/ns#"
   xmlns:rdf="http://www.w3.org/1999/02/22-rdf-syntax-ns#"
   xmlns:svg="http://www.w3.org/2000/svg"
   xmlns="http://www.w3.org/2000/svg"
   xmlns:sodipodi="http://sodipodi.sourceforge.net/DTD/sodipodi-0.dtd"
   xmlns:inkscape="http://www.inkscape.org/namespaces/inkscape"
   width="398.24991"
   height="69.612213"
   viewBox="0 0 105.37018 18.418225"
   version="1.1"
   id="svg9136"
   inkscape:version="0.92.4 (5da689c313, 2019-01-14)"
   sodipodi:docname="lastplayed.svg">
  <defs
     id="defs9130" />
  <sodipodi:namedview
     id="base"
     pagecolor="#ffffff"
     bordercolor="#666666"
     borderopacity="1.0"
     inkscape:pageopacity="0.0"
     inkscape:pageshadow="2"
     inkscape:zoom="1.979899"
     inkscape:cx="169.85464"
     inkscape:cy="48.358313"
     inkscape:document-units="px"
     inkscape:current-layer="g58"
     showgrid="false"
     units="px"
     inkscape:window-width="1501"
     inkscape:window-height="885"
     inkscape:window-x="130"
     inkscape:window-y="130"
     inkscape:window-maximized="0"
     fit-margin-top="0"
     fit-margin-left="0"
     fit-margin-right="0"
     fit-margin-bottom="0"
     inkscape:pagecheckerboard="true" />
  <metadata
     id="metadata9133">
    <rdf:RDF>
      <cc:Work
         rdf:about="">
        <dc:format>image/svg+xml</dc:format>
        <dc:type
           rdf:resource="http://purl.org/dc/dcmitype/StillImage" />
        <dc:title></dc:title>
      </cc:Work>
    </rdf:RDF>
  </metadata>
  <g
     inkscape:label="Layer 1"
     inkscape:groupmode="layer"
     id="layer1"
     transform="translate(-15.007203,-265.67962)">
    <g
       id="g58"
       style="font-style:normal;font-variant:normal;font-weight:normal;font-stretch:normal;font-size:14.11110973px;line-height:1.25;font-family:'Sonic XBd BT';-inkscape-font-specification:'Sonic XBd BT';letter-spacing:0px;word-spacing:0px;fill:#000000;fill-opacity:1;stroke:none;stroke-width:0.26458332"
       aria-label="Last Played">
      <path
         style="font-size:14.11110973px;fill:#000000;stroke-width:0.33037603"
         d="m 22.608436,268.82411 c -1.804868,4.41489 -3.60854,8.83039 -5.414185,13.24488 8.539648,-0.11115 17.096954,0.2082 25.627388,-0.13534 3.062042,-0.42461 5.681052,-4.53165 3.80597,-7.6712 -0.550535,-1.12128 -2.056135,-1.24507 -2.738315,-1.71325 1.334561,-0.33863 3.402559,0.78911 3.63056,-1.40088 1.393256,-2.236 1.141495,-3.30303 -1.411994,-2.73296 -2.175697,-0.20334 -5.151553,-0.24629 -6.206966,2.39473 -0.975723,2.02579 -0.336047,5.03181 1.907575,5.539 1.035949,-0.0808 0.969711,1.0364 0.21549,1.39562 -1.803387,0.52834 -3.734648,0.0976 -5.584374,0.23805 -0.346096,0.61407 0.917154,-3.59205 1.184456,-4.81525 0.579303,-1.39878 1.264968,-4.17325 -0.691032,-4.68754 -2.054381,-0.18192 -4.133286,3.8e-4 -6.195336,-0.0646 -0.06637,1.25001 -2.727116,4.37994 -0.661163,4.08622 1.950139,-0.349 4.855558,0.51968 1.27335,0.4659 -2.358498,-0.62488 -3.092005,2.59309 -4.58955,4.00414 -0.795614,1.76367 -4.746301,1.52077 -2.549146,-0.8913 1.044519,-2.55492 2.087797,-5.11047 3.133154,-7.66496 -1.456538,0.28174 -3.711454,-0.58144 -4.735882,0.40876 z m 26.732389,-6.9e-4 c -0.37259,1.51524 -2.738952,4.4571 0.0955,3.67815 2.771577,0 5.543155,0 8.314731,0 0.08306,-1.2545 2.786629,-4.38456 0.698505,-4.08623 -2.980535,0 -5.961073,0 -8.941607,0 l -0.129812,0.31696 z m 14.764121,0.003 c -0.362707,1.51267 -2.707545,4.45326 0.113869,3.67407 2.005699,-0.34973 4.752809,0.51869 1.191932,0.4659 -1.896802,-0.25028 -3.639574,-0.23526 -3.922524,2.30657 -0.933142,2.26496 -1.865817,4.53016 -2.799296,6.79493 1.498828,-0.27499 3.644694,0.57089 4.738329,-0.40603 1.082782,-1.48476 0.948953,-5.0775 3.158889,-4.60924 1.644432,0.17335 3.842007,0.0654 4.416319,-2.05808 0.408513,-1.82815 2.610548,-4.08378 1.124588,-5.94911 -1.826765,-1.40004 -4.304687,-0.25964 -6.364301,-0.63118 -0.480917,0.19717 -1.575236,-0.42532 -1.657801,0.41217 z m 9.829282,-0.003 c -1.804872,4.41488 -3.60854,8.83038 -5.414186,13.24488 8.640425,-0.0836 17.297568,0.16041 25.928586,-0.11011 2.588506,-0.51139 2.749504,-4.18905 3.933318,-6.20778 0.998409,-2.44525 1.997444,-4.89021 2.995414,-7.33567 -1.491455,0.27662 -3.636322,-0.57458 -4.718736,0.40808 -0.659952,1.25212 -1.727387,5.03713 -2.238761,4.69759 0.425074,-1.57713 2.125227,-4.06174 1.801044,-5.10567 -1.428856,0.39695 -3.825027,-0.87553 -4.556472,0.72507 -0.670108,2.431 -2.508696,4.60176 -2.532658,7.19234 0.222385,1.92921 2.964574,1.58866 3.523139,1.64183 -1.502019,0.30679 -3.667222,-0.56523 -4.770774,0.41624 -1.436032,3.8602 -0.261005,-0.10283 0.204378,-1.9395 0.267873,-2.29668 1.854574,-4.55688 1.347516,-6.90424 -1.079592,-2.11281 -3.769682,-0.72907 -5.477241,-1.13174 -2.26812,-0.87328 -2.502953,1.71964 -3.256637,3.42748 -0.568199,1.69274 3.661326,-0.18791 3.891673,0.99114 -1.563646,0.43586 -3.913755,-0.6583 -4.706862,1.72533 -1.329674,1.44502 -2.123982,4.1561 -4.374524,3.42346 -1.566254,-0.25509 1.144592,-3.57134 1.32034,-5.07319 0.08298,-1.34393 2.922461,-4.66 0.897003,-4.49422 -1.105503,0.28708 -3.124466,-0.56764 -3.79556,0.40876 z m 27.915742,-7e-4 c -0.37259,1.51523 -2.738949,4.45711 0.0955,3.67814 1.92533,0 3.85066,0 5.77599,0 0.0831,-1.25449 2.78663,-4.38455 0.69851,-4.08623 -2.13429,0 -4.26858,0 -6.40287,0 l -0.12981,0.31697 z m 7.96701,0 c -0.37259,1.51523 -2.73895,4.45711 0.0955,3.67814 2.29824,-0.26817 4.15523,-0.22039 2.22774,2.53703 -0.62791,0.7919 -0.51191,2.59598 -1.5023,2.94076 0.18703,-1.47028 2.67647,-4.59672 1.3964,-5.0119 -1.40452,0.41446 -3.87267,-1.00736 -4.33018,1.04195 -1.10082,2.68653 -2.20193,5.37293 -3.30257,8.05957 2.97877,-0.29621 6.14772,0.60737 9.02119,-0.46112 2.04949,-1.77733 2.30668,-5.07595 3.62977,-7.44196 0.54218,-1.52394 2.3549,-4.07186 0.47128,-5.38736 -2.37619,-0.9438 -5.0622,-0.0581 -7.5397,-0.3632 l -0.12982,0.31701 z m -59.513798,4.55352 c -1.181133,2.89736 -2.362102,5.79479 -3.543341,8.69208 1.500258,-0.27579 3.653289,0.57361 4.743227,-0.40944 1.181133,-2.89734 2.362101,-5.79478 3.543341,-8.69207 -1.459318,0.28146 -3.716167,-0.58131 -4.743227,0.40943 z m 49.694313,-10e-4 c -1.187411,2.89783 -2.375104,5.7955 -3.562321,8.69343 2.458953,0 4.917906,0 7.376856,0 0.0831,-1.2545 2.78663,-4.38455 0.69851,-4.08622 -3.362,0.29159 -0.53108,-1.61436 1.35844,-0.92906 0.0831,-1.25451 2.78663,-4.38456 0.69851,-4.08623 -2.13429,0 -4.26858,0 -6.40286,0 l -0.12981,0.31696 z m -68.177475,4.60721 c -1.732738,0.47927 1.657684,-3.22029 0,0 z m 51.32579,0 c -1.73274,0.47927 1.657684,-3.22029 0,0 z"
         id="path38"
         inkscape:connector-curvature="0"
         inkscape:export-xdpi="96"
         inkscape:export-ydpi="96" />
    </g>
    <g
       aria-label="Last Played"
       style="font-style:normal;font-variant:normal;font-weight:normal;font-stretch:normal;font-size:14.11110973px;line-height:1.25;font-family:'Sonic XBd BT';-inkscape-font-specification:'Sonic XBd BT';letter-spacing:0px;word-spacing:0px;fill:#808080;fill-opacity:1;stroke:none;stroke-width:0.26458332"
       id="text15"
       inkscape:export-xdpi="96"
       inkscape:export-ydpi="96"
       transform="matrix(1.1846552,0,0,1.3161346,-2.8583855,-88.493363)">
      <path
         d="m 24.673093,271.70866 -3.300401,7.26915 h 2.514919 l -0.937066,2.04639 h -5.202093 l 4.230577,-9.31554 z"
         style="font-size:14.11110973px;fill:#808080;stroke-width:0.26458332"
         id="path17"
         inkscape:connector-curvature="0" />
      <path
         d="m 28.703854,271.70866 h 4.430393 q 0.482313,0 0.757921,0.25494 0.282498,0.25494 0.282498,0.69591 0,0.11713 -0.01378,0.22049 -0.01378,0.10335 -0.04134,0.19981 l -2.315104,7.94439 h -8.888345 l 4.857584,-5.85666 h 2.776746 l -2.893879,3.81027 h 2.005045 l 1.481391,-4.74045 q 0,-0.007 0.0069,-0.0207 0.02067,-0.0896 0.02067,-0.15158 0,-0.13781 -0.103353,-0.22049 -0.103353,-0.0896 -0.275608,-0.0896 H 27.80124 Z"
         style="font-size:14.11110973px;fill:#808080;stroke-width:0.26458332"
         id="path19"
         inkscape:connector-curvature="0" />
      <path
         d="m 42.656489,271.70866 -0.943956,2.04639 h -2.005045 q -0.399631,0 -0.633898,0.17914 -0.227376,0.17226 -0.227376,0.46854 0,0.42719 1.033529,0.68213 0.213596,0.0551 0.323839,0.0827 0.73725,0.19292 1.150661,0.77859 0.413412,0.57878 0.413412,1.42627 0,0.6339 -0.268718,1.26779 -0.268717,0.62701 -0.716579,1.07487 -0.420302,0.39964 -0.875055,0.66835 -0.447862,0.26183 -1.074869,0.46854 -0.268718,0.0827 -0.833713,0.13091 -0.564996,0.0413 -1.350478,0.0413 h -4.065212 l 0.930176,-2.04639 h 3.073025 q 0.675238,0 1.054199,-0.0758 0.385851,-0.0758 0.627007,-0.24805 0.316949,-0.22737 0.489204,-0.52365 0.172254,-0.30317 0.172254,-0.60634 0,-0.48231 -0.785481,-0.73036 -0.172255,-0.0551 -0.275608,-0.0896 -0.868164,-0.30317 -1.240234,-0.7717 -0.36518,-0.46853 -0.36518,-1.27469 0,-1.29535 0.799262,-2.12217 0.799262,-0.82683 2.067057,-0.82683 z"
         style="font-size:14.11110973px;fill:#808080;stroke-width:0.26458332"
         id="path21"
         inkscape:connector-curvature="0" />
      <path
         d="m 50.821364,273.75505 h -7.207139 l 0.930175,-2.04639 h 7.207139 z m -2.762967,1.41249 -2.652723,5.85666 H 42.70472 l 2.652723,-5.85666 z"
         style="font-size:14.11110973px;fill:#808080;stroke-width:0.26458332"
         id="path23"
         inkscape:connector-curvature="0" />
      <path
         d="m 57.222352,277.21393 -1.750108,3.81027 H 52.77818 l 2.680284,-5.85666 h 4.106553 l 0.337619,-0.79237 q 0.02067,-0.0482 0.02756,-0.10336 0.01378,-0.0551 0.01378,-0.10335 0,-0.18603 -0.137804,-0.29628 -0.130914,-0.11713 -0.35829,-0.11713 h -3.355523 l 0.916396,-2.04639 h 4.885144 q 0.620118,0 0.971517,0.27561 0.3514,0.27561 0.3514,0.75792 0,0.12403 -0.04134,0.26872 -0.03445,0.14469 -0.110243,0.31006 l -1.198893,2.63894 q -0.3514,0.75792 -0.751031,1.00597 -0.392741,0.24805 -1.343587,0.24805 z"
         style="font-size:14.11110973px;fill:#808080;stroke-width:0.26458332"
         id="path25"
         inkscape:connector-curvature="0" />
      <path
         d="m 67.998609,271.70866 -3.300401,7.26915 h 2.514919 l -0.937066,2.04639 h -5.202093 l 4.230576,-9.31554 z"
         style="font-size:14.11110973px;fill:#808080;stroke-width:0.26458332"
         id="path27"
         inkscape:connector-curvature="0" />
      <path
         d="m 72.029371,271.70866 h 4.430392 q 0.482314,0 0.757921,0.25494 0.282498,0.25494 0.282498,0.69591 0,0.11713 -0.01378,0.22049 -0.01378,0.10335 -0.04134,0.19981 l -2.315104,7.94439 h -8.888346 l 4.857584,-5.85666 h 2.776747 l -2.89388,3.81027 h 2.005046 l 1.481391,-4.74045 q 0,-0.007 0.0069,-0.0207 0.02067,-0.0896 0.02067,-0.15158 0,-0.13781 -0.103353,-0.22049 -0.103352,-0.0896 -0.275607,-0.0896 h -2.990343 z"
         style="font-size:14.11110973px;fill:#808080;stroke-width:0.26458332"
         id="path29"
         inkscape:connector-curvature="0" />
      <path
         d="m 81.696308,277.87538 h -2.218642 q -0.620117,0 -0.978407,-0.26871 -0.351399,-0.26872 -0.351399,-0.74414 0.0069,-0.13781 0.04134,-0.2825 0.04134,-0.15159 0.117133,-0.31006 l 2.073947,-4.56131 h 2.694065 l -1.591634,3.45888 q -0.02067,0.0413 -0.03445,0.10335 -0.0069,0.062 -0.0069,0.15159 0,0.19292 0.144694,0.30316 0.144694,0.10336 0.420301,0.10336 h 0.606337 l 1.874132,-4.12034 h 2.680284 l -3.61046,7.95817 q -0.344509,0.7717 -0.861274,1.06798 -0.516764,0.28939 -1.626085,0.28939 h -4.919595 l 0.930175,-2.04639 h 3.431315 q 0.3514,0 0.571886,-0.1378 0.227376,-0.14469 0.37207,-0.45475 z"
         style="font-size:14.11110973px;fill:#808080;stroke-width:0.26458332"
         id="path31"
         inkscape:connector-curvature="0" />
      <path
         d="m 93.933287,271.70866 -0.930175,2.04639 h -5.06429 l 0.930175,-2.04639 z m -9.294866,9.31554 2.666503,-5.85666 h 5.06429 l -0.930176,2.04639 h -2.370225 l -0.806152,1.76388 h 2.370225 l -0.930175,2.04639 z"
         style="font-size:14.11110973px;fill:#808080;stroke-width:0.26458332"
         id="path33"
         inkscape:connector-curvature="0" />
      <path
         d="m 101.6503,273.32097 -2.880102,6.34586 q -0.344509,0.7717 -0.861274,1.06798 -0.516764,0.28939 -1.626084,0.28939 h -4.919596 l 2.666503,-5.85666 h 2.666504 l -1.708767,3.81027 h 0.73725 q 0.37207,0 0.578776,-0.13091 0.206706,-0.13091 0.36518,-0.46164 l 1.81901,-4.01009 q 0.02756,-0.0551 0.04134,-0.11025 0.01378,-0.0551 0.01378,-0.11024 0,-0.17914 -0.144694,-0.28939 -0.137804,-0.11024 -0.36518,-0.11024 h -3.369303 l 0.930175,-2.04639 h 4.885152 q 0.62011,0 0.9784,0.27561 0.35829,0.27561 0.35829,0.74414 0,0.11713 -0.0413,0.26872 -0.0413,0.14469 -0.12402,0.32384 z"
         style="font-size:14.11110973px;fill:#808080;stroke-width:0.26458332"
         id="path35"
         inkscape:connector-curvature="0" />
    </g>
  </g>
</svg>
