<?xml version="1.0" encoding="UTF-8" standalone="no"?>
<!-- Generator: Adobe Illustrator 16.0.3, SVG Export Plug-In . SVG Version: 6.00 Build 0)  -->

<svg
   xmlns:dc="http://purl.org/dc/elements/1.1/"
   xmlns:cc="http://creativecommons.org/ns#"
   xmlns:rdf="http://www.w3.org/1999/02/22-rdf-syntax-ns#"
   xmlns:svg="http://www.w3.org/2000/svg"
   xmlns="http://www.w3.org/2000/svg"
   xmlns:sodipodi="http://sodipodi.sourceforge.net/DTD/sodipodi-0.dtd"
   xmlns:inkscape="http://www.inkscape.org/namespaces/inkscape"
   version="1.1"
   id="Ebene_1"
   x="0px"
   y="0px"
   width="566.929px"
   height="98.441px"
   viewBox="0 0 566.929 98.441"
   enable-background="new 0 0 566.929 98.441"
   xml:space="preserve"
   sodipodi:docname="izm.svg"
   inkscape:version="0.92.4 (5da689c313, 2019-01-14)"><metadata
   id="metadata30"><rdf:RDF><cc:Work
       rdf:about=""><dc:format>image/svg+xml</dc:format><dc:type
         rdf:resource="http://purl.org/dc/dcmitype/StillImage" /></cc:Work></rdf:RDF></metadata><defs
   id="defs28" /><sodipodi:namedview
   pagecolor="#ffffff"
   bordercolor="#666666"
   borderopacity="1"
   objecttolerance="10"
   gridtolerance="10"
   guidetolerance="10"
   inkscape:pageopacity="0"
   inkscape:pageshadow="2"
   inkscape:window-width="1664"
   inkscape:window-height="853"
   id="namedview26"
   showgrid="false"
   inkscape:zoom="0.50623622"
   inkscape:cx="283.46451"
   inkscape:cy="49.220501"
   inkscape:window-x="0"
   inkscape:window-y="0"
   inkscape:window-maximized="0"
   inkscape:current-layer="Ebene_1" />
<g
   id="Ebene_1_1_"
   style="fill:#808080">
	<g
   id="g4"
   style="fill:#808080">
		<path
   d="m 12,98.442 c -6.627,0 -12,-5.373 -12,-12 V 31.906 c 0,-6.628 5.373,-12 12,-12 6.627,0 12,5.371 12,12 v 54.535 c 0,6.628 -5.373,12.001 -12,12.001 z"
   id="path2"
   inkscape:connector-curvature="0"
   style="fill:#808080" />
	</g>
	<path
   d="m 174.735,48.034 h -36.223 v -6.528 h 36.223 c 5.964,0 10.799,-4.835 10.799,-10.799 0,-5.965 -4.835,-10.8 -10.799,-10.8 h -49.423 c -5.965,0 -10.8,4.835 -10.8,10.8 0,0.203 0,55.735 0,55.735 0,6.627 5.373,12 12,12 6.627,0 12,-5.373 12,-12 v -16.81 h 36.223 c 5.964,0 10.799,-4.835 10.799,-10.8 0.001,-5.963 -4.834,-10.798 -10.799,-10.798 z"
   id="path6"
   inkscape:connector-curvature="0"
   style="fill:#808080" />
	<path
   d="M 540.859,82.934 525.324,28.756 c -0.918,-3.207 -3.068,-5.724 -5.787,-7.196 -1.66,-1.041 -3.619,-1.652 -5.723,-1.652 h -57 c -0.373,0 -0.742,0.019 -1.105,0.056 -6.107,0.558 -10.895,5.688 -10.895,11.944 v 54.535 c 0,6.627 5.371,12 12,12 6.627,0 12,-5.373 12,-12 V 41.506 h 5.314 v 44.937 c 0,6.627 5.373,12 12,12 6.625,0 11.998,-5.373 11.998,-12 V 41.506 h 6.041 l 13.766,48.002 c 1.5,5.233 6.271,8.642 11.457,8.642 1.088,0 2.193,-0.149 3.293,-0.465 6.33,-1.817 9.992,-8.42 8.176,-14.751 z"
   id="path8"
   inkscape:connector-curvature="0"
   style="fill:#808080" />
	<path
   d="m 250.508,19.907 h -40.751 c -11.338,0 -20.615,9.276 -20.615,20.614 v 37.306 c 0,11.338 9.277,20.614 20.615,20.614 h 40.751 c 11.339,0 20.615,-9.276 20.615,-20.614 V 40.522 c 0,-11.338 -9.276,-20.615 -20.615,-20.615 z m -2.65,53.848 c 0,1.32 -1.08,2.4 -2.4,2.4 h -30.652 c -1.32,0 -2.4,-1.08 -2.4,-2.4 V 44.593 c 0,-1.32 1.08,-2.4 2.4,-2.4 h 30.652 c 1.32,0 2.4,1.08 2.4,2.4 z"
   id="path10"
   inkscape:connector-curvature="0"
   style="fill:#808080" />
	<path
   d="M 419.321,19.907 H 378.57 c -11.337,0 -20.615,9.276 -20.615,20.614 v 37.306 c 0,11.338 9.278,20.614 20.615,20.614 h 40.751 c 11.339,0 20.614,-9.276 20.614,-20.614 V 40.522 c 0,-11.338 -9.275,-20.615 -20.614,-20.615 z m -2.65,53.848 c 0,1.32 -1.08,2.4 -2.399,2.4 h -30.651 c -1.32,0 -2.4,-1.08 -2.4,-2.4 V 44.593 c 0,-1.32 1.08,-2.4 2.4,-2.4 h 30.651 c 1.319,0 2.399,1.08 2.399,2.4 z"
   id="path12"
   inkscape:connector-curvature="0"
   style="fill:#808080" />
	<path
   d="M 105.464,19.907 H 34.742 c -3.005,0 -5.441,2.436 -5.441,5.44 v 61.095 c 0,6.627 5.373,12 12,12 6.627,0 11.861,-5.373 11.861,-12 V 44.583 c 0,-1.32 1.08,-2.4 2.4,-2.4 h 28.855 c 1.32,0 2.488,1.08 2.488,2.4 v 41.858 c 0,6.627 5.373,12 12,12 6.627,0 12,-5.373 12,-12 V 40.986 25.348 c 0,-3.005 -2.436,-5.441 -5.441,-5.441 z"
   id="path14"
   inkscape:connector-curvature="0"
   style="fill:#808080" />
	<path
   d="m 345.042,76.156 h -42.9 c -1.32,0 -2.4,-1.08 -2.4,-2.4 V 44.593 c 0,-1.32 1.08,-2.4 2.4,-2.4 h 42.9 c 6.153,0 11.145,-4.988 11.145,-11.143 0,-6.155 -4.99,-11.144 -11.145,-11.144 h -15.545 -30.553 -2.566 c -11.279,0 -20.507,9.228 -20.507,20.507 v 37.521 c 0,11.278 9.228,20.507 20.507,20.507 h 2.566 30.553 15.545 c 6.153,0 11.145,-4.988 11.145,-11.144 0,-6.156 -4.991,-11.141 -11.145,-11.141 z"
   id="path16"
   inkscape:connector-curvature="0"
   style="fill:#808080" />
	<g
   id="g22"
   style="fill:#808080">
		<path
   d="m 541.027,11.729 h -4.131 V 8.826 h 11.752 v 2.903 h -4.176 v 12.387 h -3.445 z"
   id="path18"
   inkscape:connector-curvature="0"
   style="fill:#808080" />
		<path
   d="m 563.324,18.263 c -0.07,-1.838 -0.139,-4.038 -0.139,-6.285 h -0.045 c -0.5,1.951 -1.135,4.129 -1.725,5.921 l -1.859,5.967 h -2.701 l -1.633,-5.898 c -0.5,-1.814 -0.998,-3.97 -1.385,-5.989 h -0.045 c -0.066,2.065 -0.158,4.424 -0.248,6.33 l -0.297,5.809 h -3.197 l 0.977,-15.29 h 4.604 l 1.496,5.127 c 0.5,1.747 0.955,3.651 1.295,5.444 h 0.09 c 0.408,-1.77 0.932,-3.766 1.451,-5.489 l 1.611,-5.082 h 4.539 l 0.814,15.29 h -3.355 z"
   id="path20"
   inkscape:connector-curvature="0"
   style="fill:#808080" />
	</g>
</g>
</svg>