<?xml version="1.0" encoding="UTF-8" standalone="no"?>
<!-- Generator: Adobe Illustrator 16.0.3, SVG Export Plug-In . SVG Version: 6.00 Build 0)  -->

<svg
   xmlns:dc="http://purl.org/dc/elements/1.1/"
   xmlns:cc="http://creativecommons.org/ns#"
   xmlns:rdf="http://www.w3.org/1999/02/22-rdf-syntax-ns#"
   xmlns:svg="http://www.w3.org/2000/svg"
   xmlns="http://www.w3.org/2000/svg"
   xmlns:sodipodi="http://sodipodi.sourceforge.net/DTD/sodipodi-0.dtd"
   xmlns:inkscape="http://www.inkscape.org/namespaces/inkscape"
   version="1.1"
   id="Ebene_1"
   x="0px"
   y="0px"
   width="566.93px"
   height="72.714px"
   viewBox="0 0 566.93 72.714"
   enable-background="new 0 0 566.93 72.714"
   xml:space="preserve"
   sodipodi:docname="a7800_3.svg"
   inkscape:version="0.92.4 (5da689c313, 2019-01-14)"><metadata
   id="metadata39"><rdf:RDF><cc:Work
       rdf:about=""><dc:format>image/svg+xml</dc:format><dc:type
         rdf:resource="http://purl.org/dc/dcmitype/StillImage" /><dc:title></dc:title></cc:Work></rdf:RDF></metadata><defs
   id="defs37" /><sodipodi:namedview
   pagecolor="#ffffff"
   bordercolor="#666666"
   borderopacity="1"
   objecttolerance="10"
   gridtolerance="10"
   guidetolerance="10"
   inkscape:pageopacity="0"
   inkscape:pageshadow="2"
   inkscape:window-width="1846"
   inkscape:window-height="937"
   id="namedview35"
   showgrid="false"
   inkscape:zoom="2"
   inkscape:cx="298.965"
   inkscape:cy="36.356998"
   inkscape:window-x="0"
   inkscape:window-y="0"
   inkscape:window-maximized="0"
   inkscape:current-layer="Ebene_1" />
<g
   id="g32">
	<path
   d="M122.879,3.133c2.804-3.588,8.608-4.201,12.048-1.191c1.407,1.187,2.393,2.82,2.897,4.579   c6.369,21.915,12.767,43.82,19.127,65.737c-3.758,0.004-7.52-0.006-11.277,0.004c-1.773-6.042-3.504-12.096-5.254-18.146   c-7.269-0.016-14.534-0.003-21.802-0.006c-1.779,6.045-3.536,12.097-5.284,18.153c-3.738-0.013-7.477-0.003-11.216-0.007   c6.051-20.905,12.109-41.812,18.189-62.71C121.029,7.362,121.301,4.92,122.879,3.133 M129.514,16.562   c-2.665,9.08-5.276,18.176-7.926,27.259c5.283,0.024,10.563,0.009,15.844,0.009C134.788,34.74,132.158,25.651,129.514,16.562z"
   id="path2" />
	<path
   d="M202.062,3.604c1.959-2.842,5.746-4.22,9.08-3.343c3.051,0.703,5.387,3.333,6.192,6.294   c6.362,21.899,12.748,43.791,19.11,65.69c-3.765,0.027-7.526,0-11.29,0.016c-1.75-6.048-3.481-12.104-5.245-18.15   c-7.256,0.003-14.511-0.013-21.767,0.006c-1.734,6.053-3.523,12.091-5.257,18.142c-3.735,0.004-7.469-0.003-11.203,0.004   c6.048-21.021,12.167-42.024,18.263-63.029C200.583,7.335,200.831,5.243,202.062,3.604 M201.146,43.831   c5.261,0.007,10.519,0.003,15.779,0.003c-2.617-9.108-5.276-18.204-7.885-27.313C206.412,25.626,203.761,34.722,201.146,43.831z"
   id="path4" />
	<path
   d="M148.535,0.152c13.6,0,27.195,0,40.791,0c0,3.668,0,7.333,0,11c-5.007,0.004-10.011-0.006-15.016,0.004   c0,20.366,0.003,40.736-0.003,61.102c-3.584,0-7.172,0-10.757,0c0-20.365-0.004-40.735,0.002-61.102   c-5.006-0.01-10.01,0-15.019-0.004C148.535,7.485,148.531,3.82,148.535,0.152z"
   id="path6" />
	<path
   d="M248.398,0.599c1.034-0.356,2.136-0.479,3.227-0.452c4.287,0.016,8.575,0.003,12.861,0.006   c7.22,0.132,14.112,4.612,17.236,11.11c2.163,4.22,2.387,9.127,1.841,13.756c-0.376,4.847-2.408,9.692-6.134,12.904   c-1.969,1.755-4.42,2.816-6.525,4.378c-1.157,0.881-1.214,2.593-0.617,3.815c5.69,8.784,11.606,17.432,17.416,26.142   c-4.249,0.007-8.498-0.01-12.747,0.007c-5.562-8.354-11.065-16.75-16.604-25.116c-1.628-2.381-2.071-5.534-1.097-8.252   c0.762-2.083,2.582-3.609,4.611-4.396c3.873-1.478,7.691-3.8,9.836-7.453c1.632-2.747,1.548-6.137,0.813-9.143   c-0.86-3.902-4.663-6.973-8.681-6.838c-2.778,0.02-5.556-0.014-8.33,0.013c-1.256-0.028-2.438,1.063-2.422,2.335   c-0.013,19.615,0.006,39.232-0.006,58.848c-3.613-0.007-7.223,0-10.836-0.004c-0.007-21.117,0.006-42.236-0.007-63.354   C242.257,5.205,244.888,1.723,248.398,0.599z"
   id="path8" />
	<path
   d="M293.384,0.152c3.802,0,7.601,0,11.402,0c-0.003,24.037,0.007,48.071-0.006,72.109c-3.797-0.01-7.596,0-11.396-0.004   C293.384,48.22,293.384,24.186,293.384,0.152z"
   id="path10" />
	<path
   d="M32.154,0.005c1.826-0.006,3.652,0,5.479-0.004c0.008,4.294,0,8.589,0.003,12.882c0.019,3.584-0.082,7.167-0.231,10.748   c-0.244,5.17-0.568,10.352-1.425,15.462c-0.588,3.522-1.807,6.922-3.319,10.147c-2.467,5.2-6.343,9.601-10.7,13.302   c-3.898,3.43-8.551,5.928-13.444,7.617c-2.768,0.953-5.617,1.688-8.518,2.098c0.003-3.602,0.003-7.203,0-10.805   c3.492-0.524,6.849-1.765,9.967-3.402c3.7-1.955,7.03-4.587,9.833-7.688c2.895-3.202,5.202-6.908,6.953-10.847   c2.062-4.526,3.166-9.415,3.916-14.311C31.608,18.98,32,12.687,32.146,6.396C32.166,4.266,32.148,2.135,32.154,0.005z"
   id="path12" />
	<path
   d="M39.837,0.011c3.361-0.022,6.724-0.003,10.086-0.009c0.001,24.085,0.001,48.169,0,72.253   c-3.354,0.007-6.709-0.017-10.063,0.014c-0.042-7.68-0.006-15.361-0.018-23.041C39.839,32.822,39.849,16.419,39.837,0.011z"
   id="path14" />
	<path
   d="M52.167,0.003c1.816-0.001,3.632-0.005,5.447,0.001C57.555,7.348,57.805,14.703,58.68,22   c0.717,5.666,1.727,11.376,3.983,16.653c2.14,5.109,5.224,9.856,9.243,13.685c3.838,3.658,8.49,6.473,13.543,8.093   c1.41,0.45,2.852,0.805,4.318,1.018c-0.002,3.601-0.003,7.2,0,10.8c-2.88-0.392-5.704-1.134-8.453-2.067   c-3.273-1.139-6.438-2.614-9.346-4.505c-2.123-1.364-4.053-2.998-5.907-4.703c-3.057-2.818-5.792-6.021-7.847-9.648   c-1.607-2.823-2.78-5.877-3.698-8.988c-0.842-3.129-1.201-6.362-1.528-9.578c-0.632-6.95-0.868-13.936-0.823-20.911   C52.167,7.896,52.166,3.948,52.167,0.003z"
   id="path16" />
	<path
   d="M32.154,0.005c-0.006,2.131,0.012,4.262-0.009,6.393c-0.145,6.29-0.537,12.584-1.477,18.808   c-0.75,4.896-1.854,9.784-3.916,14.311c-1.751,3.938-4.059,7.646-6.953,10.847c-2.803,3.103-6.134,5.733-9.833,7.688   c-3.118,1.639-6.475,2.878-9.967,3.401c0.003,3.603,0.003,7.204,0,10.806c2.901-0.409,5.75-1.145,8.518-2.097   c4.894-1.69,9.546-4.188,13.444-7.618c4.357-3.701,8.233-8.102,10.7-13.302c1.512-3.227,2.731-6.625,3.319-10.147   c0.857-5.111,1.181-10.292,1.425-15.462c0.149-3.581,0.25-7.164,0.231-10.748c-0.003-4.293,0.005-8.588-0.003-12.882   C35.806,0.005,33.98-0.001,32.154,0.005"
   id="path18" />
	<path
   d="M39.837,0.011c0.012,16.407,0.001,32.812,0.006,49.217c0.012,7.68-0.025,15.361,0.018,23.041   c3.354-0.029,6.709-0.007,10.063-0.014c0.001-24.084,0.001-48.168,0-72.253C46.561,0.008,43.198-0.012,39.837,0.011"
   id="path20" />
	<path
   d="M52.167,0.003c-0.001,3.945,0,7.895,0,11.842c-0.045,6.977,0.191,13.961,0.823,20.911c0.327,3.216,0.686,6.449,1.528,9.578   c0.918,3.111,2.091,6.165,3.698,8.988c2.054,3.627,4.79,6.83,7.847,9.648c1.854,1.705,3.785,3.339,5.907,4.703   c2.907,1.891,6.073,3.366,9.346,4.505c2.749,0.935,5.573,1.677,8.453,2.067c-0.003-3.6-0.002-7.199,0-10.8   c-1.466-0.213-2.908-0.566-4.318-1.018c-5.053-1.62-9.705-4.435-13.543-8.093c-4.019-3.827-7.103-8.574-9.243-13.685   c-2.257-5.277-3.267-10.987-3.983-16.653c-0.875-7.297-1.125-14.652-1.066-21.996C55.799-0.002,53.984,0.002,52.167,0.003"
   id="path22" />
	<path
   d="M437.874,34.488c5.281-3.112,8.575-8.381,8.575-14.23c0-13.813-14.59-20.104-28.146-20.104   c-13.558,0-28.146,6.291-28.146,20.104c0,5.851,3.293,11.118,8.574,14.23c-7.51,3.478-11.713,9.403-11.713,16.784   c0,13.913,15.737,21.192,31.283,21.192s31.283-7.279,31.283-21.192C449.587,43.891,445.384,37.965,437.874,34.488z M418.304,25.732   c-3.458,0-6.271-2.23-6.271-4.974s2.813-4.975,6.271-4.975c3.455,0,6.269,2.231,6.269,4.975S421.761,25.732,418.304,25.732z    M418.304,43.457c3.847,0,6.978,2.567,6.978,5.727c0,3.065-3.131,5.559-6.978,5.559c-3.85,0-6.979-2.492-6.979-5.559   C411.325,46.024,414.455,43.457,418.304,43.457z"
   id="path24" />
	<path
   d="M498.233,11.921c-5.774-7.698-14.256-11.769-24.529-11.769c-10.272,0-18.755,4.069-24.529,11.769   c-4.854,6.476-7.529,15.181-7.529,24.513c0,18.058,9.913,36.281,32.06,36.281c22.147,0,32.062-18.224,32.062-36.281   C505.765,27.101,503.09,18.396,498.233,11.921z M473.704,51.23c-7.721,0-8.566-10.037-8.566-14.881   c0-4.798,0.847-14.714,8.566-14.714c7.721,0,8.566,9.916,8.566,14.714C482.271,41.193,481.425,51.23,473.704,51.23z"
   id="path26" />
	<path
   d="M559.397,11.921c-5.773-7.698-14.256-11.769-24.528-11.769s-18.755,4.069-24.529,11.769   c-4.855,6.476-7.53,15.181-7.53,24.513c0,18.058,9.914,36.281,32.061,36.281c22.147,0,32.061-18.224,32.061-36.281   C566.929,27.101,564.254,18.396,559.397,11.921z M534.869,51.23c-7.722,0-8.567-10.037-8.567-14.881   c0-4.798,0.847-14.714,8.567-14.714c7.72,0,8.566,9.916,8.566,14.714C543.436,41.193,542.589,51.23,534.869,51.23z"
   id="path28" />
	<polygon
   points="336.516,1.165 336.516,23.181 366.663,23.181 344.172,72.386 369.636,72.386 399.876,1.165  "
   id="polygon30" />
</g>
<path
   style="opacity:1;fill:#800000;fill-opacity:1;fill-rule:evenodd;stroke-width:0.5"
   d="M 0.26499634,66.662643 V 61.468288 L 2.1370323,61.117093 c 3.0357365,-0.56951 7.410421,-2.538675 11.1229197,-5.00674 6.178325,-4.107345 11.438677,-10.943812 14.512966,-18.861369 2.572673,-6.62569 4.486728,-20.060049 4.49037,-31.5169856 l 0.0017,-5.37499996 h 2.5 2.5 l -4.1e-4,12.62499956 c -9.5e-4,28.24615 -2.468899,37.030365 -13.318831,47.405675 -5.75453,5.5028 -10.792607,8.388355 -18.2575182,10.45699 -5.74244016,1.59131 -5.42323246,1.83746 -5.42323246,-4.18202 z"
   id="path41"
   inkscape:connector-curvature="0" /><path
   style="opacity:1;fill:#800000;fill-opacity:1;fill-rule:evenodd;stroke-width:0.5"
   d="M 39.964996,36.106998 V 0.35699844 h 5 5 v 35.74999956 35.75 h -5 -5 z"
   id="path43"
   inkscape:connector-curvature="0" /><path
   style="opacity:1;fill:#800000;fill-opacity:1;fill-rule:evenodd;stroke-width:0.5"
   d="M 84.214996,70.895938 C 75.796727,68.399038 71.206493,65.656558 64.947594,59.384458 61.482391,55.911943 59.665613,53.617343 58.296296,50.983833 53.76694,42.27285 52.957939,37.333664 52.604209,16.231998 L 52.338095,0.35699844 h 2.485407 2.485407 L 57.616801,8.7319984 C 58.337597,28.338385 61.149762,39.02723 67.945202,47.98953 c 4.640557,6.120288 12.410665,11.439153 18.894794,12.934038 l 2.625,0.60518 v 5.164125 c 0,5.9628 0.184611,5.815 -5.25,4.203065 z"
   id="path45"
   inkscape:connector-curvature="0" /><path
   style="opacity:1;fill:#800000;fill-opacity:1;fill-rule:evenodd;stroke-width:0.5"
   d="m 102.61236,71.194153 c 0.1399,-0.36456 4.54495,-15.444835 9.789,-33.511718 5.24405,-18.066882 9.93491,-33.3908739 10.42413,-34.0533152 3.23361,-4.37849601 10.51677,-4.27998486 13.3834,0.1810224 0.85864,1.3362062 15.28274,49.4626958 20.13748,67.1894108 0.2254,0.82302 -0.17801,0.881445 -5.17817,0.75 l -5.42261,-0.142555 -2.54529,-8.75 -2.54528,-8.75 -11.07199,-0.134505 -11.07198,-0.134505 -0.96673,3.134505 c -0.5317,1.72398 -1.70608,5.778255 -2.60973,9.009505 l -1.643,5.875 h -5.46679 c -4.33447,0 -5.41411,-0.137295 -5.21244,-0.662845 z m 34.8558,-27.712155 c 0.01,-1.144953 -7.79601,-27.026103 -8.06168,-26.729982 -0.28741,0.320352 -7.94148,26.18118 -7.94148,26.831898 0,0.150196 3.6,0.273084 8,0.273084 4.4,0 8.00142,-0.16875 8.00316,-0.375 z"
   id="path47"
   inkscape:connector-curvature="0" /><path
   style="opacity:1;fill:#800000;fill-opacity:1;fill-rule:evenodd;stroke-width:0.5"
   d="m 163.965,41.356998 v -30.5 h -7.5 -7.5 V 5.6069984 0.35699844 h 20 20 V 5.6069984 10.856998 h -7.5 -7.5 v 30.5 30.5 h -5 -5 z"
   id="path49"
   inkscape:connector-curvature="0" /><path
   style="opacity:1;fill:#800000;fill-opacity:1;fill-rule:evenodd;stroke-width:0.5"
   d="m 182.72416,69.481998 c 0.38789,-1.30625 4.73907,-16.29518 9.66927,-33.308732 5.0836,-17.542876 9.38597,-31.5035298 9.93876,-32.2500002 2.71461,-3.66571317 7.03049,-4.60031011 10.86542,-2.3528909 1.13876,0.6673571 2.4604,1.9611071 2.93697,2.875 0.67004,1.284882 19.83042,66.2317231 19.83042,67.2180381 0,0.12508 -2.41875,0.163555 -5.375,0.0855 l -5.375,-0.141915 -2.52485,-8.75 -2.52484,-8.75 -11.07796,-0.134505 -11.07797,-0.13451 -0.78258,2.63451 c -0.43041,1.448975 -1.61099,5.503255 -2.62349,9.009505 l -1.84092,6.375 h -5.37175 -5.37174 z M 216.965,43.483676 c 0,-1.204669 -7.77286,-27.047088 -8.04419,-26.744532 -0.18144,0.20232 -1.94436,5.992854 -3.9176,12.867854 -1.97323,6.875 -3.70422,12.89375 -3.84665,13.375 -0.23906,0.807773 0.35829,0.875 7.77474,0.875 4.41853,0 8.0337,-0.167995 8.0337,-0.373322 z"
   id="path51"
   inkscape:connector-curvature="0" /><path
   style="opacity:1;fill:#800000;fill-opacity:1;fill-rule:evenodd;stroke-width:0.5"
   d="m 242.47598,39.731998 c 0.0103,-30.1910736 0.0667,-32.2477656 0.93718,-34.1642991 2.07492,-4.56851021 4.55306,-5.35677372 16.05666,-5.10739846 7.66825,0.1662326 9.10135,0.3306965 11.63747,1.33553166 4.04533,1.6028018 8.39275,5.7430508 10.47385,9.9747469 1.59312,3.239419 1.63366,3.484509 1.62591,9.829339 -0.007,6.054198 -0.10447,6.714407 -1.3949,9.485984 -2.00624,4.308962 -3.44593,5.969881 -7.61087,8.780349 -4.20899,2.840198 -4.95869,3.840666 -4.25836,5.682694 0.26294,0.691582 4.04618,6.612563 8.40721,13.157738 4.36102,6.545175 8.0967,12.181565 8.3015,12.525315 0.28959,0.48604 -0.96863,0.625 -5.659,0.625 h -6.03139 l -8.31816,-12.625 c -4.57499,-6.94375 -8.64783,-13.405713 -9.05076,-14.359918 -0.91529,-2.167578 -0.57735,-5.67384 0.71351,-7.4028 0.52293,-0.700415 2.81964,-2.226869 5.1038,-3.39212 7.02111,-3.581784 9.74138,-7.078547 9.70102,-12.470162 -0.0371,-4.951158 -1.80163,-8.15925 -5.39565,-9.809634 -2.72164,-1.249779 -12.75801,-1.360929 -13.96429,-0.154651 -0.69666,0.696657 -0.78571,4.153679 -0.78571,30.5 v 29.714285 h -5.25 -5.25 z"
   id="path53"
   inkscape:connector-curvature="0" /><path
   style="opacity:1;fill:#800000;fill-opacity:1;fill-rule:evenodd;stroke-width:0.5"
   d="M 293.465,36.106998 V 0.35699844 h 5.5 5.5 v 35.74999956 35.75 h -5.5 -5.5 z"
   id="path55"
   inkscape:connector-curvature="0" /><path
   style="opacity:1;fill:#800000;fill-opacity:1;fill-rule:evenodd;stroke-width:0.5"
   d="m 345.42983,70.231998 c 0.51112,-1.16875 5.4728,-12.025 11.02597,-24.125 5.55316,-12.1 10.21356,-22.28125 10.35642,-22.625 0.20445,-0.491912 -2.94573,-0.625 -14.79373,-0.625 H 336.965 v -10.75 -10.7499996 h 31.2427 31.24271 l -0.95706,2.4280669 -0.95705,2.4280666 3.83935,-1.9316643 c 5.74021,-2.8880312 9.23081,-3.64002091 16.83935,-3.62774761 9.95296,0.016055 16.86954,2.21073911 22.27039,7.06656841 2.31157,2.078296 5.47385,7.3205556 5.4843,9.0915706 0.003,0.437327 0.71278,-0.442361 1.57822,-1.954861 5.03497,-8.7994166 15.30336,-14.48263596 26.16709,-14.48263596 13.86043,0 24.77233,8.09901386 29.47338,21.87569096 l 1.1455,3.356945 0.61363,-2.25 c 1.49559,-5.48389 6.15101,-12.863218 10.18147,-16.1386851 11.59445,-9.4225832 29.93844,-8.9882212 40.36366,0.95576 7.48568,7.1401311 10.97236,16.2276001 10.97236,28.5977341 0,10.806633 -3.54227,20.577506 -9.73899,26.863656 -5.65555,5.73718 -11.49317,8.20973 -20.26101,8.581635 -10.16069,0.43098 -16.67341,-1.92052 -23.02201,-8.312385 -3.97566,-4.00276 -6.61482,-8.359995 -8.2505,-13.621545 l -0.87786,-2.823833 -1.37211,3.962563 c -3.335,9.63128 -10.19911,16.6993 -18.94146,19.50414 -5.05748,1.622615 -13.19261,1.841865 -18.50409,0.498705 -6.68615,-1.690785 -12.01901,-5.20022 -16.32959,-10.74613 l -1.49884,-1.928385 -1.35051,2.040765 c -2.90598,4.39123 -9.41466,8.239525 -17.16061,10.146295 -6.14075,1.511635 -16.17463,1.502955 -21.94242,-0.019 -9.08959,-2.398445 -15.51455,-6.93125 -18.37498,-12.96352 -1.38522,-2.921235 -1.4786,-3.47078 -1.27444,-7.5 0.16279,-3.212909 0.51397,-4.915449 1.34538,-6.522501 1.52036,-2.938757 4.4467,-6.016491 7.41338,-7.796899 l 2.45211,-1.471605 -3.09192,-3.031652 c -2.23492,-2.191351 -3.35003,-3.758336 -4.02309,-5.653395 -0.51214,-1.441933 -1.05336,-2.621718 -1.20272,-2.621718 -0.14936,0 -1.87279,3.76875 -3.82983,8.375 -1.95705,4.60625 -6.64076,15.63125 -10.40825,24.5 l -6.84998,16.125 H 356.9356 344.50053 Z m 76.51585,-16.11501 c 3.50682,-1.813445 4.53154,-5.48031 2.27944,-8.156773 -1.70023,-2.020613 -3.77123,-2.777422 -6.80316,-2.486093 -3.14722,0.302408 -4.99536,1.624883 -5.91796,4.234724 -0.65117,1.841989 -0.62869,2.153782 0.26701,3.704707 1.78779,3.095605 6.82706,4.43455 10.17467,2.703435 z m 57.0518,-5.17148 c 2.53247,-2.853737 3.21752,-5.640443 3.21752,-13.08851 0,-5.949409 -0.0721,-6.393209 -1.5,-9.22766 -1.9581,-3.887039 -3.54045,-5.02234 -7,-5.02234 -3.45955,0 -5.0419,1.135301 -7,5.02234 -1.43705,2.852684 -1.5,3.250474 -1.5,9.47766 0,7.540595 0.80695,10.662714 3.38621,13.101404 2.10338,1.988731 2.59604,2.154206 5.8399,1.961501 2.47791,-0.147205 2.89274,-0.34972 4.55637,-2.224395 z m 59.47532,1.48298 c 1.19597,-0.637397 2.20275,-1.822187 3.21113,-3.778895 1.30744,-2.537034 1.49253,-3.467039 1.68364,-8.459772 0.42925,-11.214224 -2.34338,-16.582823 -8.56424,-16.582823 -4.84524,0 -7.35819,3.181998 -8.41508,10.655496 -0.70731,5.001531 0.0163,11.187327 1.70648,14.588674 2.07113,4.16788 6.44262,5.67473 10.37807,3.57732 z M 441.965,33.831655 v -3.025343 l -1.625,1.52303 c -0.89375,0.837666 -1.79375,1.52407 -2,1.525343 -1.27729,0.0079 1.78663,2.799246 3.25,2.96089 0.20625,0.02278 0.375,-1.319981 0.375,-2.98392 z m -20.13905,-8.810818 c 3.12213,-1.48155 3.87446,-5.350432 1.47174,-7.568499 -3.81011,-3.517301 -11.33269,-1.483101 -11.33269,3.064504 0,1.875318 1.51131,4.170215 3.19406,4.850122 1.73893,0.70261 4.79073,0.544169 6.66689,-0.346127 z"
   id="path57"
   inkscape:connector-curvature="0" /></svg>