<?xml version="1.0" encoding="UTF-8" standalone="no"?>
<!-- Generator: Adobe Illustrator 16.0.3, SVG Export Plug-In . SVG Version: 6.00 Build 0)  -->

<svg
   xmlns:dc="http://purl.org/dc/elements/1.1/"
   xmlns:cc="http://creativecommons.org/ns#"
   xmlns:rdf="http://www.w3.org/1999/02/22-rdf-syntax-ns#"
   xmlns:svg="http://www.w3.org/2000/svg"
   xmlns="http://www.w3.org/2000/svg"
   xmlns:sodipodi="http://sodipodi.sourceforge.net/DTD/sodipodi-0.dtd"
   xmlns:inkscape="http://www.inkscape.org/namespaces/inkscape"
   version="1.1"
   id="Ebene_1"
   x="0px"
   y="0px"
   width="340.154px"
   height="126.123px"
   viewBox="0 0 340.154 126.123"
   enable-background="new 0 0 340.154 126.123"
   xml:space="preserve"
   sodipodi:docname="nes.svg"
   inkscape:version="0.92.4 (5da689c313, 2019-01-14)"><metadata
   id="metadata54"><rdf:RDF><cc:Work
       rdf:about=""><dc:format>image/svg+xml</dc:format><dc:type
         rdf:resource="http://purl.org/dc/dcmitype/StillImage" /><dc:title></dc:title></cc:Work></rdf:RDF></metadata><defs
   id="defs52" /><sodipodi:namedview
   pagecolor="#ffffff"
   bordercolor="#666666"
   borderopacity="1"
   objecttolerance="10"
   gridtolerance="10"
   guidetolerance="10"
   inkscape:pageopacity="0"
   inkscape:pageshadow="2"
   inkscape:window-width="1335"
   inkscape:window-height="1048"
   id="namedview50"
   showgrid="false"
   inkscape:zoom="0.84373551"
   inkscape:cx="170.077"
   inkscape:cy="63.061501"
   inkscape:window-x="0"
   inkscape:window-y="0"
   inkscape:window-maximized="0"
   inkscape:current-layer="g47" />
<g
   id="g47">
	<path
   d="M 277.724,70.452 H 62.576 C 43.153,70.452 27.348,54.649 27.348,35.225 27.348,15.801 43.154,0 62.576,0 h 215.146 c 19.426,0 35.229,15.802 35.229,35.226 -0.001,19.423 -15.802,35.226 -35.227,35.226 z M 62.576,8.333 c -14.829,0 -26.895,12.064 -26.895,26.895 0,14.828 12.065,26.894 26.895,26.894 h 215.146 c 14.827,0 26.896,-12.065 26.896,-26.894 0,-14.83 -12.067,-26.895 -26.896,-26.895 H 62.576 Z"
   id="path2"
   inkscape:connector-curvature="0"
   style="fill:#ff0000" />
	<path
   d="M 90.208,51.562 V 19.047 H 80.429 V 41.782 L 66.006,19.047 H 55.494 v 32.515 h 9.779 V 28.093 l 15.155,23.469 z"
   id="path4"
   inkscape:connector-curvature="0"
   style="fill:#ff0000" />
	<path
   d="M 106.099,51.562 V 29.56 h -9.778 v 22.002 z"
   id="path6"
   inkscape:connector-curvature="0"
   style="fill:#ff0000" />
	<path
   d="m 106.099,24.914 v -5.867 h -9.778 v 5.867 z"
   id="path8"
   inkscape:connector-curvature="0"
   style="fill:#ff0000" />
	<path
   id="_x33_162"
   d="M 140.324,51.562 V 36.403 c 0,-3.178 -6.112,-7.578 -9.289,-7.578 H 128.1 c -2.199,0 -4.645,1.956 -6.845,2.934 V 29.56 h -9.779 v 22.002 h 9.779 V 36.403 c 0,-1.467 3.422,-3.178 4.89,-3.178 1.467,0 4.155,1.711 4.155,3.178 v 15.158 h 10.024 z"
   inkscape:connector-curvature="0"
   style="fill:#ff0000" />
	<path
   id="_x33_162_1_"
   d="M 222.143,52.319 V 37.162 c 0,-3.179 -6.109,-7.578 -9.292,-7.578 h -2.932 c -2.201,0 -4.646,1.956 -6.848,2.933 v -2.199 h -9.777 V 52.32 h 9.777 V 37.162 c 0,-1.466 3.424,-3.179 4.891,-3.179 1.466,0 4.154,1.713 4.154,3.179 v 15.157 z"
   inkscape:connector-curvature="0"
   style="fill:#ff0000" />
	<path
   d="M 156.215,51.562 V 29.56 h 5.134 v -2.934 h -5.134 v -4.645 h -10.021 v 4.645 h -5.135 v 2.934 h 5.135 v 22.002 z"
   id="path12"
   inkscape:connector-curvature="0"
   style="fill:#ff0000" />
	<path
   d="m 175.038,28.826 c -7.822,0 -14.422,5.378 -14.422,11.979 0,6.846 6.6,12.223 14.422,12.223 6.846,0 12.469,-3.911 13.936,-9.045 h -10.022 v 2.934 c 0,2.445 -1.709,3.18 -3.91,3.18 -2.2,0 -3.668,-0.734 -3.668,-3.18 v -6.111 h 18.093 c -0.003,-6.601 -6.359,-11.98 -14.429,-11.98 z m 0,2.2 c 2.201,0 3.912,1.467 3.912,3.912 v 2.199 h -7.578 v -2.199 c 0,-2.445 1.467,-3.912 3.666,-3.912 z"
   id="path14"
   inkscape:connector-curvature="0"
   style="fill:#ff0000" />
	<path
   d="m 271.364,28.826 c -8.069,0 -14.426,5.378 -14.426,11.979 0,6.846 6.354,12.223 14.426,12.223 7.819,0 14.422,-5.377 14.422,-12.223 -0.004,-6.6 -6.603,-11.979 -14.422,-11.979 z m 0,2.2 c 2.196,0 3.666,1.467 3.666,3.912 v 11.978 c 0,2.444 -1.47,3.179 -3.666,3.179 -2.444,0 -3.914,-0.734 -3.914,-3.179 V 34.938 c -0.002,-2.445 1.467,-3.912 3.914,-3.912 z"
   id="path16"
   inkscape:connector-curvature="0"
   style="fill:#ff0000" />
	<path
   d="m 243.247,19.047 v 11.979 c 0,0 -2.936,-2.2 -6.848,-2.2 -6.111,0 -11.244,5.378 -11.244,11.246 0,6.112 5.135,12.224 11.244,12.224 3.912,0 6.848,-1.467 6.848,-1.467 v 0.732 h 9.779 V 19.047 Z m -3.668,13.446 c 2.199,0 3.668,1.712 3.668,3.912 v 9.045 c 0,2.201 -1.469,2.934 -3.668,2.934 -2.443,0 -3.912,-0.732 -3.912,-2.934 v -9.045 c 0,-2.2 1.469,-3.912 3.912,-3.912 z"
   id="path18"
   inkscape:connector-curvature="0"
   style="fill:#ff0000" />
	<g
   id="g22">
		<path
   d="m 287.006,29.216 c -2.775,0 -5.036,-2.258 -5.036,-5.035 0,-2.959 2.213,-5.28 5.036,-5.28 2.729,0 5.036,2.417 5.036,5.28 0,2.681 -2.35,5.035 -5.036,5.035 z m 0,-9.533 c -2.427,0 -4.253,1.934 -4.253,4.5 0,2.344 1.908,4.254 4.253,4.254 2.229,0 4.254,-2.028 4.254,-4.254 0,-2.399 -1.984,-4.5 -4.254,-4.5 z m 0.884,6.647 -0.864,-1.515 h -1.095 v 1.321 h -0.78 V 21.59 h 2.104 c 0.979,0 1.488,0.813 1.488,1.613 0,0.615 -0.303,1.238 -0.885,1.492 l 0.711,1.248 z m -1.959,-2.294 h 1.321 c 0.219,0 0.395,-0.079 0.521,-0.235 0.118,-0.149 0.188,-0.368 0.188,-0.597 0,-0.311 -0.151,-0.832 -0.709,-0.832 h -1.321 v 1.664 z"
   id="path20"
   inkscape:connector-curvature="0"
   style="fill:#ff0000" />
	</g>
	<path
   id="_x32_399"
   d="m 51.827,99.231 v -14.18 c 0,-2.688 -2.689,-5.379 -5.378,-5.379 H 25.914 v 19.559 h 6.357 V 86.032 c 0,-0.979 0.732,-1.957 1.711,-1.957 h 9.777 c 0.979,0 1.957,0.979 1.957,1.957 v 13.199 z"
   inkscape:connector-curvature="0"
   style="fill:#808080" />
	<path
   id="_x32_399_1_"
   d="m 221.469,99.231 v -14.18 c 0,-2.688 -2.688,-5.379 -5.376,-5.379 h -20.536 v 19.559 h 6.354 V 86.032 c 0,-0.979 0.736,-1.957 1.713,-1.957 h 9.779 c 0.979,0 1.953,0.979 1.953,1.957 v 13.199 z"
   inkscape:connector-curvature="0"
   style="fill:#808080" />
	<path
   id="_x32_399_2_"
   d="m 314.327,99.231 v -14.18 c 0,-2.688 -2.688,-5.379 -5.379,-5.379 h -20.535 v 19.559 h 6.354 V 86.032 c 0,-0.979 0.732,-1.957 1.714,-1.957 h 9.776 c 0.979,0 1.955,0.979 1.955,1.957 v 13.199 z"
   inkscape:connector-curvature="0"
   style="fill:#808080" />
	<path
   id="_x33_177"
   d="m 258.892,99.231 v -14.18 c 0,-2.688 -2.688,-5.379 -5.379,-5.379 h -27.625 v 19.559 h 6.357 V 86.032 c 0,-0.979 0.731,-1.957 1.709,-1.957 h 3.668 c 0.734,0 1.712,0.979 1.712,1.957 v 13.199 h 6.358 V 86.032 c 0,-0.979 0.731,-1.957 1.709,-1.957 h 3.668 c 0.733,0 1.711,0.979 1.711,1.957 v 13.199 z"
   inkscape:connector-curvature="0"
   style="fill:#808080" />
	<path
   id="_x33_181"
   d="M 21.514,99.231 H 5.379 C 2.691,99.231 0,97.521 0,94.833 v -15.4 h 21.513 v 4.645 H 7.089 c -0.732,0 -1.711,0.734 -1.711,1.712 0,0.979 0.979,1.712 1.711,1.712 h 13.446 v 3.911 H 7.089 c -0.732,0 -1.711,0.979 -1.711,1.712 0,0.979 0.979,1.955 1.711,1.955 h 14.424 l 10e-4,4.151 z"
   inkscape:connector-curvature="0"
   style="fill:#808080" />
	<path
   id="_x33_181_1_"
   d="M 100.979,99.478 H 84.843 c -2.688,0 -5.379,-1.711 -5.379,-4.398 V 79.677 h 21.515 v 4.645 H 86.553 c -0.731,0 -1.71,0.734 -1.71,1.714 0,0.98 0.979,1.711 1.71,1.711 h 13.446 v 3.91 H 86.553 c -0.731,0 -1.71,0.979 -1.71,1.714 0,0.979 0.979,1.954 1.71,1.954 h 14.426 v 4.153 z"
   inkscape:connector-curvature="0"
   style="fill:#808080" />
	<path
   id="_x33_181_2_"
   d="M 284.907,99.231 H 268.77 c -2.688,0 -5.381,-1.711 -5.381,-4.398 v -15.4 h 21.516 v 4.645 h -14.424 c -0.732,0 -1.714,0.734 -1.714,1.712 0,0.979 0.979,1.712 1.714,1.712 h 13.443 v 3.911 h -13.443 c -0.732,0 -1.714,0.979 -1.714,1.712 0,0.979 0.979,1.955 1.714,1.955 h 14.424 v 4.154 h 0.002 v -0.003 z"
   inkscape:connector-curvature="0"
   style="fill:#808080" />
	<path
   id="_x32_391"
   d="m 54.517,79.675 v 4.4 h 6.355 c 1.712,0 1.712,0 1.712,1.957 v 13.199 h 6.111 V 86.032 c 0,-1.957 0,-1.957 1.956,-1.957 h 6.111 v -4.4 z"
   inkscape:connector-curvature="0"
   style="fill:#808080" />
	<path
   id="_x32_391_1_"
   d="m 132.197,79.675 v 4.4 h 6.355 c 1.71,0 1.71,0 1.71,1.957 v 13.199 h 6.112 V 86.032 c 0,-1.957 0,-1.957 1.957,-1.957 h 6.112 v -4.4 z"
   inkscape:connector-curvature="0"
   style="fill:#808080" />
	<path
   id="_x32_391_2_"
   d="m 317.909,79.675 v 4.4 h 6.355 c 1.713,0 1.713,0 1.713,1.957 v 13.199 h 6.11 V 86.032 c 0,-1.957 0,-1.957 1.955,-1.957 h 6.111 v -4.4 z"
   inkscape:connector-curvature="0"
   style="fill:#808080" />
	<path
   d="m 105.366,79.675 v 19.559 h 6.356 v -3.42 c 0,-0.979 0.733,-1.959 1.711,-1.959 h 8.068 c 0.979,0 1.711,0.979 1.711,1.959 v 3.42 h 5.379 v -5.379 c 0,-0.731 -0.732,-1.709 -0.732,-2.688 0,-0.731 1.711,-2.442 1.711,-4.397 v -1.713 c 0,-1.713 -2.689,-5.38 -4.4,-5.38 l -19.804,-0.002 z m 8.067,4.4 h 8.068 c 0.979,0 1.71,0.979 1.71,1.957 v 1.71 c 0,0.979 -0.732,1.713 -1.71,1.713 h -8.068 c -0.978,0 -1.711,-0.733 -1.711,-1.713 v -1.71 c 0.001,-0.976 0.733,-1.957 1.711,-1.957 z"
   id="path34"
   inkscape:connector-curvature="0"
   style="fill:#808080" />
	<path
   d="m 161.594,79.675 c -1.712,0 -4.399,3.667 -4.399,5.381 v 14.178 h 6.354 v -5.379 h 11.489 v 5.379 h 6.355 V 85.056 c 0,-1.714 -2.688,-5.381 -4.645,-5.381 z m 3.667,4.4 h 8.066 c 0.731,0 1.711,0.979 1.711,1.957 v 3.422 h -11.489 v -3.422 c 0,-0.976 0.734,-1.957 1.712,-1.957 z"
   id="path36"
   inkscape:connector-curvature="0"
   style="fill:#808080" />
	<path
   d="M 191.907,99.231 V 79.673 h -6.11 v 19.559 h 6.11 z"
   id="path38"
   inkscape:connector-curvature="0"
   style="fill:#808080" />
	<path
   id="_x33_177_1_"
   d="m 250.86,126.021 v -14.18 c 0,-2.688 -2.689,-5.379 -5.381,-5.379 h -27.623 v 19.559 h 6.354 V 112.82 c 0,-0.979 0.732,-1.957 1.71,-1.957 h 3.667 c 0.734,0 1.714,0.979 1.714,1.957 v 13.199 h 6.354 V 112.82 c 0,-0.979 0.731,-1.957 1.709,-1.957 h 3.668 c 0.733,0 1.715,0.979 1.715,1.957 v 13.199 h 6.111 l 0.002,0.002 z"
   inkscape:connector-curvature="0"
   style="fill:#808080" />
	<path
   id="_x33_181_3_"
   d="m 213.479,126.021 h -16.136 c -2.688,0 -5.377,-1.713 -5.377,-4.398 V 106.22 h 21.511 v 4.646 h -14.422 c -0.732,0 -1.712,0.733 -1.712,1.711 0,0.979 0.979,1.712 1.712,1.712 h 13.444 v 3.911 h -13.444 c -0.732,0 -1.712,0.979 -1.712,1.713 0,0.979 0.979,1.954 1.712,1.954 h 14.422 l 0.002,4.154 z"
   inkscape:connector-curvature="0"
   style="fill:#808080" />
	<path
   id="_x32_391_3_"
   d="m 167.017,106.462 v 4.398 h 6.355 c 1.711,0 1.711,0 1.711,1.957 v 13.199 h 6.111 v -13.199 c 0,-1.957 0,-1.957 1.959,-1.957 h 6.109 v -4.398 z"
   inkscape:connector-curvature="0"
   style="fill:#808080" />
	<path
   id="_x33_187"
   d="m 94.611,106.565 c -1.712,0 -5.379,2.69 -5.379,4.398 v 2.691 c 0,1.712 3.667,4.4 5.379,4.4 h 10.756 c 0.978,0 1.956,0.979 1.956,1.711 0,0.977 -0.979,1.954 -1.956,1.954 H 89.232 v 4.399 h 18.09 c 1.712,0 5.134,-2.688 5.134,-4.399 v -2.688 c 0,-1.957 -3.422,-4.646 -5.134,-4.646 H 96.566 c -0.979,0 -1.955,-0.733 -1.955,-1.713 0,-0.978 0.977,-1.713 1.955,-1.713 h 15.89 v -4.397 H 94.611 Z"
   inkscape:connector-curvature="0"
   style="fill:#808080" />
	<path
   id="_x33_187_1_"
   d="m 146.397,106.565 c -1.713,0 -5.38,2.69 -5.38,4.398 v 2.691 c 0,1.712 3.667,4.4 5.38,4.4 h 10.756 c 0.978,0 1.956,0.979 1.956,1.711 0,0.977 -0.979,1.954 -1.956,1.954 h -16.136 v 4.399 h 18.091 c 1.712,0 5.134,-2.688 5.134,-4.399 v -2.688 c 0,-1.957 -3.422,-4.646 -5.134,-4.646 h -10.757 c -0.978,0 -1.955,-0.733 -1.955,-1.713 0,-0.978 0.978,-1.713 1.955,-1.713 h 15.891 v -4.397 h -17.845 v 0.003 z"
   inkscape:connector-curvature="0"
   style="fill:#808080" />
	<path
   d="m 114.412,106.565 v 8.804 c 0,1.71 2.688,4.399 4.4,4.399 h 4.398 v 6.354 h 6.357 v -6.354 h 4.4 c 1.71,0 4.4,-2.689 4.4,-4.399 v -8.804 h -6.112 v 7.092 c 0,0.732 -0.978,1.712 -1.956,1.712 h -7.822 c -0.979,0 -1.956,-0.979 -1.956,-1.712 v -7.092 z"
   id="path45"
   inkscape:connector-curvature="0"
   style="fill:#808080" />
</g>
</svg>